<svg width="24" height="24" viewBox="0 0 24 24" fill="none" xmlns="http://www.w3.org/2000/svg">
<path d="M17.3124 8.79796L16.871 9.86965H17.7583L17.3124 8.79796Z" fill="currentColor"/>
<path d="M2.05675 8.79796L1.62036 9.86965H2.49665L2.05675 8.79796Z" fill="currentColor"/>
<path d="M12.1849 8.94977C12.1087 8.90668 11.9915 8.90117 11.8802 8.90117H11.0886V9.49789H11.8697C11.9935 9.49789 12.0977 9.49589 12.1874 9.44278C12.27 9.39919 12.3196 9.3045 12.3196 9.18726C12.3196 9.07202 12.268 8.98885 12.1849 8.94977Z" fill="currentColor"/>
<path d="M14.9386 13.5742C14.8604 13.5276 14.7452 13.5256 14.6319 13.5256H13.8403V14.1293H14.6214C14.7467 14.1293 14.8534 14.1253 14.9401 14.0747C15.0232 14.0236 15.0728 13.9319 15.0728 13.8162C15.0713 13.7005 15.0217 13.6173 14.9386 13.5742Z" fill="currentColor"/>
<path d="M11.8098 13.5246H10.972V14.2095H11.8017C12.0487 14.2095 12.2026 14.0873 12.2026 13.8553C12.2021 13.6188 12.0422 13.5246 11.8098 13.5246Z" fill="currentColor"/>
<path d="M23.6794 13.9284C23.6749 13.9239 23.6699 13.9189 23.6654 13.9154C23.7871 13.8362 23.8683 13.699 23.8683 13.5426V12.97C23.8683 12.724 23.6694 12.5256 23.4239 12.5256H22.1363C21.735 12.5256 21.4323 12.6438 21.2119 12.8222C21.1503 12.6498 20.9919 12.5256 20.798 12.5256H19.5104C19.1562 12.5256 18.8771 12.6133 18.6647 12.7575C18.5875 12.6198 18.4487 12.5256 18.2824 12.5256H16.138C15.9652 12.5256 15.8194 12.6263 15.7457 12.7701C15.7152 12.7485 15.6926 12.7235 15.6606 12.7044C15.3494 12.5381 15.0187 12.5256 14.678 12.5256H13.1935C13.0207 12.5256 12.8744 12.6273 12.8012 12.7721C12.5753 12.6253 12.2591 12.5256 11.8097 12.5256H9.7565C9.63275 12.5256 9.51501 12.5757 9.43033 12.6669L8.94384 13.1914L8.47689 12.6729C8.39322 12.5772 8.27347 12.5251 8.14671 12.5251H5.56244C5.31694 12.5251 5.11853 12.724 5.11853 12.9695V15.6585C5.11853 15.9045 5.31744 16.1029 5.56244 16.1029H8.10813C8.23189 16.1029 8.34963 16.0513 8.4338 15.9601L8.9243 15.4295L9.38975 15.9531C9.47392 16.0483 9.59517 16.1019 9.72193 16.1019H10.971C11.217 16.1019 11.4154 15.903 11.4154 15.6585V15.1995H11.7726C12.207 15.1995 12.5211 15.1104 12.7496 14.9746V15.6585C12.7496 15.9035 12.9485 16.1019 13.194 16.1019H13.8398C14.0858 16.1019 14.2842 15.903 14.2842 15.6585V15.1194H14.5262C14.5854 15.1194 14.6269 15.1214 14.657 15.1234C14.659 15.1715 14.659 15.2291 14.658 15.2672V15.6585C14.658 15.9035 14.8579 16.1019 15.1024 16.1019H15.7472C15.8194 16.1019 15.8845 16.0823 15.9436 16.0518C16.0038 16.0813 16.0684 16.1019 16.1395 16.1019H18.2844C18.3541 16.1019 18.4187 16.0823 18.4773 16.0538C18.5359 16.0823 18.5991 16.1019 18.6702 16.1019H19.9218C20.3201 16.1019 20.6447 16.0042 20.8877 15.8318C20.9544 15.9901 21.1117 16.1019 21.2956 16.1019H22.5471C23.4575 16.1019 24.0001 15.6184 24.0001 14.8092C24.0001 14.4345 23.8989 14.1554 23.6794 13.9284ZM11.7731 14.7551H10.9715V15.6575H9.72243L8.93081 14.7677L8.10813 15.6575H5.56244V12.968H8.14671L8.93833 13.8498L9.756 12.968H11.8092C12.3187 12.968 12.8924 13.1108 12.8924 13.8553C12.8924 14.6013 12.3353 14.7566 11.7731 14.7551ZM15.3269 14.4089C15.4692 14.461 15.5859 14.5557 15.64 14.6349C15.7317 14.7661 15.7437 14.8884 15.7467 15.1254V15.6585H15.1019V15.3218C15.1019 15.1605 15.1174 14.9205 14.9972 14.7952C14.905 14.6995 14.7622 14.677 14.5267 14.677H13.8403V15.6585H13.1945V12.9695H14.6791C15.0037 12.9695 15.2402 12.983 15.4521 13.0957C15.6545 13.218 15.7823 13.3863 15.7823 13.6925C15.7823 14.1223 15.4952 14.3413 15.3269 14.4089ZM18.2834 13.5251H16.7783V14.0146H18.2463V14.5637H16.7783V15.0978L18.2834 15.1008V15.6585H16.139V12.9695H18.2834V13.5251ZM19.9223 15.6555H18.6707V15.0778H19.9167C20.038 15.0778 20.1247 15.0628 20.1788 15.0111C20.2229 14.9701 20.2539 14.9084 20.2539 14.8353C20.2539 14.7571 20.2209 14.6955 20.1758 14.6579C20.1257 14.6168 20.0595 14.5983 19.9468 14.5983C19.3466 14.5788 18.5935 14.6168 18.5935 13.7666C18.5935 13.3753 18.838 12.966 19.5124 12.966H20.8V13.5381H19.6211C19.5034 13.5381 19.4277 13.5432 19.3636 13.5872C19.293 13.6313 19.2664 13.696 19.2664 13.7811C19.2664 13.8828 19.326 13.9505 19.4067 13.9815C19.4753 14.0051 19.5475 14.0121 19.6572 14.0121L20.0024 14.0221C20.3506 14.0316 20.5906 14.0918 20.7354 14.2386C20.8617 14.3683 20.9283 14.5327 20.9283 14.8087C20.9283 15.3884 20.5681 15.6585 19.9223 15.6555ZM22.5481 15.6555H21.2966V15.0778H22.5431C22.6644 15.0778 22.751 15.0628 22.8046 15.0111C22.8487 14.9701 22.8798 14.9084 22.8798 14.8353C22.8798 14.7571 22.8467 14.6955 22.8016 14.6579C22.752 14.6168 22.6859 14.5983 22.5727 14.5983C21.9719 14.5788 21.2194 14.6168 21.2194 13.7666C21.2194 13.3753 21.4639 12.966 22.1383 12.966H23.4259V13.5381H22.2475C22.1293 13.5381 22.0531 13.5432 21.9895 13.5872C21.9188 13.6313 21.8928 13.696 21.8928 13.7811C21.8928 13.8828 21.9529 13.9505 22.0326 13.9815C22.1017 14.0051 22.1734 14.0121 22.2831 14.0121L22.6283 14.0221C22.977 14.0316 23.2175 14.0918 23.3623 14.2386C23.4875 14.3683 23.5552 14.5327 23.5552 14.8087C23.5552 15.3884 23.1939 15.6585 22.5481 15.6555Z" fill="currentColor"/>
<path d="M21.6623 7.89712H21.0045C20.7585 7.89712 20.5601 8.09603 20.5601 8.34103V8.6186L20.2549 8.11206C20.1738 7.97929 20.03 7.89762 19.8752 7.89762H18.8957C18.6502 7.89762 18.4517 8.09653 18.4517 8.34153V8.7188L18.2158 8.16667C18.1461 8.00384 17.9858 7.89762 17.8084 7.89762H16.8455C16.7478 7.89762 16.6546 7.92969 16.5804 7.9858C16.5068 7.93019 16.4141 7.89762 16.3144 7.89762H15.6936C15.1655 7.89762 14.7747 8.02539 14.4872 8.27489C14.4541 8.06296 14.2782 7.89762 14.0568 7.89762H13.4004C13.2251 7.89762 13.0783 8.00134 13.0051 8.14763C12.9776 8.12759 12.9565 8.10354 12.9255 8.08551C12.6238 7.91115 12.3067 7.89762 11.9244 7.89762H10.4464C10.3632 7.89762 10.2906 7.92668 10.2234 7.96626C10.1578 7.92668 10.0842 7.89762 10.001 7.89762H7.85461C7.76393 7.89762 7.68527 7.93119 7.61512 7.97729C7.54448 7.93119 7.46582 7.89762 7.37563 7.89762H6.30445C6.12708 7.89762 5.96626 8.00434 5.89661 8.16868L5.51483 9.06852L5.09448 8.15565C5.02133 7.99833 4.8635 7.89762 4.69115 7.89762H3.64201C3.39651 7.89762 3.1981 8.09653 3.1981 8.34153V8.72782L2.95711 8.16567C2.88697 8.00284 2.72664 7.89712 2.54878 7.89712H1.59483C1.41697 7.89712 1.25664 8.00334 1.1865 8.16617L0.0361479 10.8552C-0.0229728 10.9929 -0.00844315 11.1493 0.0732236 11.2745C0.155391 11.3988 0.294676 11.4739 0.443981 11.4739H1.14241C1.32077 11.4739 1.4826 11.3657 1.55124 11.2004L1.68702 10.8737H2.43154L2.56531 11.1984C2.63345 11.3647 2.79578 11.4734 2.97615 11.4734H4.28332C4.52882 11.4734 4.72723 11.2745 4.72723 11.0295V11.019L4.8114 11.2099C4.88254 11.3702 5.04187 11.4739 5.21723 11.4739L5.78188 11.4749C5.95824 11.4749 6.11656 11.3712 6.18771 11.2104L6.27288 11.02V11.031C6.27288 11.276 6.47129 11.4744 6.71679 11.4744H7.37563C7.46582 11.4744 7.54448 11.4404 7.61512 11.3948C7.68527 11.4404 7.76393 11.4744 7.85461 11.4744H10.001C10.0842 11.4744 10.1578 11.4454 10.2234 11.4058C10.2901 11.4454 10.3632 11.4744 10.4464 11.4744H11.0897C11.3352 11.4744 11.5336 11.2755 11.5336 11.0305V10.4964H11.7791C11.8347 10.4964 11.8743 10.4979 11.9039 10.4999C11.9069 10.5455 11.9059 10.5996 11.9059 10.6357L11.9049 10.6948L11.9074 11.034C11.9094 11.2775 12.1083 11.4744 12.3518 11.4744H13.0001C13.0728 11.4744 13.1384 11.4519 13.199 11.4208C13.2606 11.4524 13.3268 11.4744 13.3999 11.4744H14.0563C14.2717 11.4744 14.4421 11.3191 14.4836 11.1167C14.8479 11.4228 15.3609 11.4744 15.6465 11.4744H16.3996C16.5789 11.4744 16.7413 11.3642 16.8089 11.1964L16.9397 10.8742H17.6802L17.8159 11.2009C17.8846 11.3657 18.0459 11.4739 18.2258 11.4739H19.5335C19.779 11.4739 19.9774 11.275 19.9774 11.03V10.6057L20.3717 11.2595C20.4523 11.3923 20.5961 11.4739 20.7524 11.4739H21.6623C21.9078 11.4739 22.1062 11.275 22.1062 11.03V8.34103C22.1062 8.09603 21.9068 7.89712 21.6623 7.89712ZM7.37513 11.0295H6.71629L6.71378 8.92372L5.78188 11.0295H5.21723L4.28382 8.92171V11.0295H2.97565L2.72865 10.4298H1.39091L1.1414 11.0295H0.442979L1.59383 8.34053H2.54778L3.64151 10.8867V8.34053H4.69065L5.53187 10.1648L6.30394 8.34053H7.37513V11.0295ZM10.0005 8.90067H8.49642V9.38516H9.96492V9.93629H8.49642V10.4734H10.0005V11.0295H7.85411V8.34053H10.0005V8.90067ZM12.5742 9.78197C12.715 9.83608 12.8353 9.93027 12.8924 10.0084C12.9836 10.1422 12.9991 10.2615 12.9991 10.5014V11.029H12.3508L12.3478 10.6898C12.3478 10.5285 12.3633 10.296 12.2466 10.1663C12.1529 10.0721 12.0096 10.0515 11.7781 10.0515H11.0892V11.0295H10.4459H10.4454V8.34103H11.9234C12.2521 8.34103 12.4941 8.34955 12.7015 8.46979C12.9049 8.59004 13.0267 8.7654 13.0267 9.06551C13.0267 9.49388 12.7406 9.71584 12.5742 9.78197ZM14.0568 11.0295H13.4004V8.34053H14.0568V11.0295ZM21.6623 11.0295H20.7519L19.533 9.0114V11.0295H18.2253L17.9748 10.4298H16.639L16.3976 11.0295H15.645C15.3329 11.0295 14.9386 10.9604 14.7151 10.7324C14.4877 10.5039 14.3704 10.1943 14.3704 9.70582C14.3704 9.307 14.4411 8.94226 14.7146 8.65367C14.9215 8.43923 15.2467 8.34053 15.6906 8.34053H16.3114V8.91671H15.7026C15.4687 8.91671 15.3359 8.95128 15.2086 9.07603C15.0989 9.18926 15.0242 9.4032 15.0242 9.68527C15.0242 9.97286 15.0814 10.1803 15.2016 10.3161C15.3013 10.4228 15.4817 10.4548 15.6495 10.4548H15.9376L16.8455 8.34053H17.8084L18.8957 10.8837V8.34053H19.8752L21.0045 10.2134V8.34053H21.6623V11.0295ZM15.9266 9.36111L15.6475 10.0119C15.5859 10.0119 15.5443 10.0049 15.5213 9.99891C15.4997 9.95883 15.4702 9.87015 15.4702 9.68578C15.4702 9.4994 15.5153 9.4027 15.5213 9.39418C15.5398 9.37614 15.5553 9.36061 15.7061 9.36061L15.9266 9.36111Z" fill="currentColor"/>
<path d="M9.3446 14.3182L10.3316 15.4145V13.2586L9.3446 14.3182Z" fill="currentColor"/>
<path d="M7.81451 13.5256H6.20422V14.0141H7.6146V14.5632H6.20422V15.0983H7.78345L8.51745 14.3082L7.81451 13.5256Z" fill="currentColor"/>
</svg>
