<svg width="24" height="24" viewBox="0 0 24 24" fill="none" xmlns="http://www.w3.org/2000/svg">
<g clip-path="url(#clip0_147_847)">
<path d="M17.875 7.06901V6.50491H16.036V9.83095H17.875V9.26785H16.6842V8.36989H17.8319V7.8068H16.6842V7.06901H17.875Z" fill="black"/>
<path d="M19.6879 8.43096C20.1759 8.33135 20.4457 7.9975 20.4457 7.48796C20.4457 6.86529 20.0162 6.50591 19.2684 6.50591H18.3064V9.83195H18.9546V8.49553H19.0387L19.9361 9.83195H20.735L19.6879 8.43096ZM19.1433 8.03654H18.9546L18.9551 7.02997H19.1543C19.5587 7.02997 19.778 7.19915 19.778 7.52249C19.778 7.85735 19.5577 8.03654 19.1433 8.03654Z" fill="black"/>
<path d="M20.734 6.43934C20.5914 6.43934 20.4783 6.55246 20.4783 6.69411C20.4783 6.83576 20.5924 6.94888 20.734 6.94888C20.8712 6.94888 20.9853 6.83426 20.9853 6.69411C20.9853 6.55446 20.8712 6.43934 20.734 6.43934ZM20.7315 6.90333C20.6219 6.90333 20.5298 6.81023 20.5298 6.69461C20.5298 6.57899 20.6209 6.48539 20.7315 6.48539C20.8422 6.48539 20.9338 6.57999 20.9338 6.69461C20.9338 6.80923 20.8437 6.90333 20.7315 6.90333Z" fill="black"/>
<path d="M20.7666 6.72064C20.8077 6.70963 20.8302 6.6796 20.8302 6.63905C20.8302 6.57999 20.7902 6.54846 20.7191 6.54846H20.625V6.84077H20.6946V6.72715L20.7767 6.84077H20.8618L20.7666 6.72064ZM20.7061 6.6781H20.6951V6.60201H20.7071C20.7416 6.60201 20.7591 6.61453 20.7591 6.63955C20.7591 6.66608 20.7406 6.6781 20.7061 6.6781Z" fill="black"/>
<path d="M3.6864 6.50491H3.03821V9.83095H3.6864V6.50491Z" fill="black"/>
<path d="M5.27064 7.78077C4.88072 7.63712 4.7661 7.54151 4.7661 7.36232C4.7661 7.1526 4.97032 6.99343 5.25012 6.99343C5.44382 6.99343 5.60399 7.07352 5.77317 7.26322L6.11253 6.81825C5.83273 6.57449 5.49938 6.44985 5.13499 6.44985C4.54637 6.44985 4.09889 6.85829 4.09889 7.40237C4.09889 7.86035 4.30711 8.0951 4.91626 8.31433C5.17053 8.40393 5.29967 8.46349 5.36474 8.50354C5.49488 8.58813 5.55944 8.70825 5.55944 8.8479C5.55944 9.11719 5.34522 9.3174 5.05591 9.3174C4.74708 9.3174 4.49681 9.16224 4.34816 8.87343L3.92871 9.27736C4.22803 9.71632 4.58641 9.91103 5.07943 9.91103C5.75415 9.91103 6.22715 9.46255 6.22715 8.81887C6.22665 8.29031 6.00742 8.05055 5.27064 7.78077Z" fill="black"/>
<path d="M6.3468 17.5892H24.0001V11.2204C24.0001 11.2204 17.7659 15.6196 6.3468 17.5892Z" fill="#F58220"/>
<path d="M0.95101 6.50591H0V9.83195H0.947507C1.45004 9.83195 1.81343 9.71182 2.13327 9.44704C2.51267 9.13371 2.73641 8.6607 2.73641 8.17118C2.73641 7.18914 2.00313 6.50491 0.95101 6.50591ZM1.70882 9.00357C1.5056 9.18726 1.24082 9.26785 0.822374 9.26785H0.648189V7.06851H0.822374C1.24032 7.06851 1.49459 7.14359 1.70882 7.3373C1.93355 7.53701 2.0687 7.84634 2.0687 8.16518C2.0687 8.48552 1.93405 8.80386 1.70882 9.00357Z" fill="black"/>
<path d="M15.0405 6.50591L14.1416 8.73979L13.2551 6.50591H12.5464L13.9579 9.91604H14.3058L15.7428 6.50591H15.0405Z" fill="black"/>
<path d="M10.9797 6.41031C10.2474 6.41031 9.61774 6.85578 9.34995 7.49096C9.25986 7.70268 9.2113 7.93543 9.2113 8.17969C9.2113 9.15623 10.0031 9.94857 10.9797 9.94857C11.7735 9.94857 12.4467 9.42551 12.669 8.70525C12.6795 8.67472 12.6855 8.64368 12.6945 8.61315C12.7005 8.58712 12.708 8.5616 12.713 8.53607C12.7376 8.42095 12.7491 8.30132 12.7491 8.17869C12.7491 7.20215 11.9572 6.41031 10.9797 6.41031Z" fill="#F58220"/>
<path d="M8.18614 7.02296C8.49597 7.02296 8.73072 7.13358 8.9995 7.39736V6.63455C8.7152 6.4899 8.48045 6.43033 8.20166 6.43033C7.21911 6.43033 6.43127 7.20365 6.43127 8.17068C6.43077 9.14772 7.19809 9.90502 8.18564 9.90502C8.46544 9.90502 8.70469 9.85097 8.999 9.71132V8.94751C8.73973 9.20728 8.50998 9.31239 8.21617 9.31239C7.56298 9.31239 7.09999 8.83839 7.09999 8.16518C7.09999 7.5275 7.57799 7.02296 8.18614 7.02296Z" fill="black"/>
</g>
<defs>
<clipPath id="clip0_147_847">
<rect width="24" height="24" fill="white"/>
</clipPath>
</defs>
</svg>
