<svg width="24" height="24" viewBox="0 0 24 24" fill="none" xmlns="http://www.w3.org/2000/svg">
<path d="M16.8166 4.81507C14.9626 4.81556 13.2727 5.5183 11.999 6.67251C10.7244 5.51978 9.03543 4.81655 7.18345 4.81655C7.16808 4.81655 7.15223 4.81655 7.13736 4.81655C3.19352 4.84232 0 8.05072 0 12C0 15.9651 3.2183 19.183 7.18295 19.183C9.03494 19.183 10.7239 18.4807 11.998 17.327C11.7319 17.0866 11.491 16.8205 11.2636 16.542H12.7468C12.5233 16.8161 12.2795 17.0728 12.0173 17.3116H12.0164C12.0104 17.3181 12.004 17.322 11.998 17.3275C13.2731 18.4822 14.9641 19.1859 16.819 19.1854C20.7862 19.1839 24.001 15.9666 24 12C24 11.9985 24 11.9975 24 11.9965C24.0005 8.0299 20.7837 4.81408 16.8166 4.81507ZM11.3458 7.41439H12.7112C12.9124 7.65822 13.0992 7.91493 13.2687 8.18353H10.8329C10.99 7.92682 11.1625 7.66268 11.3458 7.41439ZM10.4087 8.93781H13.683C13.7995 9.18659 13.9025 9.44379 13.9927 9.70744H10.0206C10.0603 9.63311 10.1991 9.33378 10.4087 8.93781ZM2.93235 13.8297L3.36797 11.0832L2.38523 13.8297H1.85843L1.79004 11.0832L1.32469 13.8297H0.586768L1.19832 10.1872H2.31436L2.35351 12.4222L3.10729 10.1872H4.318L3.71488 13.8297H2.93235ZM5.54159 13.8237L5.56686 13.5328C5.55497 13.5343 5.32204 13.8842 4.78236 13.8842C4.49988 13.8842 4.04394 13.7301 4.04394 13.06C4.04394 12.2081 4.73875 11.9257 5.40035 11.9257C5.50442 11.9257 5.72892 11.9445 5.72892 11.9445C5.72892 11.9445 5.75419 11.8925 5.75419 11.7517C5.75419 11.5203 5.54605 11.4886 5.26109 11.4886C4.75907 11.4886 4.42752 11.6229 4.42752 11.6229L4.53853 10.9637C4.53853 10.9637 4.94094 10.7952 5.46477 10.7952C5.73586 10.7952 6.5154 10.824 6.5154 11.7175L6.21508 13.8237H5.54159ZM8.38771 12.896C8.38771 13.9124 7.40299 13.8688 7.23102 13.8688C6.58925 13.8688 6.39101 13.7801 6.37268 13.7752L6.47477 13.1061C6.47576 13.1002 6.79689 13.2226 7.15421 13.2226C7.36037 13.2226 7.62798 13.2023 7.62798 12.956C7.62798 12.5873 6.67052 12.6755 6.67052 11.7998C6.67052 11.0272 7.2444 10.8012 7.81036 10.8012C8.24746 10.8012 8.51606 10.8612 8.51606 10.8612L8.41943 11.5361C8.41943 11.5361 8.00463 11.5019 7.89708 11.5019C7.62501 11.5019 7.47683 11.5614 7.47683 11.7517C7.47634 12.1343 8.38771 11.947 8.38771 12.896ZM9.57017 13.1626C9.63806 13.1626 9.71488 13.1393 9.76741 13.1393L9.67176 13.789C9.59494 13.8104 9.37738 13.8877 9.09837 13.8897C8.74205 13.8926 8.48881 13.6934 8.48881 13.2414C8.48881 12.9381 8.92343 10.4389 8.94028 10.4226H9.70496L9.62716 10.8696H10.0088L9.91113 11.5897H9.50624L9.29115 12.9163C9.2748 13.0219 9.30404 13.1626 9.57017 13.1626ZM11.2522 10.7853C12.0917 10.7853 12.3429 11.3999 12.3429 11.9039C12.3429 12.1056 12.2418 12.6011 12.2418 12.6011H10.6877C10.6877 12.6011 10.544 13.2132 11.3652 13.2132C11.7502 13.2132 12.1774 13.0249 12.1774 13.0249L12.0426 13.7618C12.0426 13.7618 11.7958 13.8877 11.2348 13.8877C10.6267 13.8877 9.9136 13.6305 9.9136 12.5501C9.9141 11.6139 10.483 10.7853 11.2522 10.7853ZM13.2776 15.8021H10.7293C10.5742 15.5543 10.4295 15.3001 10.3051 15.033H13.6964C13.5715 15.2986 13.4317 15.5553 13.2776 15.8021ZM13.1066 13.8351H12.3216L12.7989 10.8706H13.511L13.4426 11.3002C13.4426 11.3002 13.6964 10.8329 14.0388 10.8329C14.1384 10.8329 14.1865 10.8428 14.1865 10.8428C14.0849 11.05 13.9952 11.2398 13.902 11.7299C13.3708 11.5416 13.3301 12.5689 13.1066 13.8351ZM16.0975 13.789C16.0975 13.789 15.6861 13.8941 15.4284 13.8941C14.5156 13.8941 14.0522 13.2642 14.0522 12.3102C14.0522 10.8716 14.911 10.1054 15.7937 10.1054C16.1926 10.1054 16.655 10.2927 16.655 10.2927L16.5301 11.103C16.5301 11.103 16.2174 10.8844 15.8284 10.8844C15.308 10.8844 14.8412 11.381 14.8412 12.2835C14.8412 12.728 15.0587 13.1423 15.6019 13.1423C15.8601 13.1423 16.2342 12.9545 16.2342 12.9545L16.0975 13.789ZM17.9385 13.8252L17.9643 13.5323C17.9519 13.5338 17.719 13.8837 17.1798 13.8837C16.8973 13.8837 16.4414 13.7296 16.4414 13.0596C16.4414 12.2076 17.1362 11.9252 17.7973 11.9252C17.9014 11.9252 18.1264 11.944 18.1264 11.944C18.1264 11.944 18.1521 11.8925 18.1521 11.7517C18.1521 11.5203 17.944 11.4886 17.6585 11.4886C17.1565 11.4886 16.8255 11.6229 16.8255 11.6229L16.9365 10.9637C16.9365 10.9637 17.3389 10.7952 17.8632 10.7952C18.1338 10.7952 18.9139 10.824 18.9134 11.7175L18.613 13.8237C18.6125 13.8252 17.9385 13.8252 17.9385 13.8252ZM19.5279 13.8351H18.7429L19.2201 10.8706H19.9328L19.8644 11.3002C19.8644 11.3002 20.1186 10.8329 20.4611 10.8329C20.5607 10.8329 20.6082 10.8428 20.6082 10.8428C20.5071 11.05 20.4165 11.2398 20.3238 11.7299C19.792 11.5416 19.7514 12.5689 19.5279 13.8351ZM21.8715 13.8272L21.9047 13.5541C21.9047 13.5541 21.6509 13.8743 21.192 13.8743C20.5562 13.8743 20.2445 13.2603 20.2445 12.6329C20.2445 11.6625 20.8283 10.8166 21.529 10.8166C21.98 10.8175 22.2679 11.2155 22.2679 11.2155L22.4335 10.1921L23.2001 10.1906L22.6153 13.8272H21.8715ZM23.384 13.7246C23.3637 13.7613 23.3349 13.7895 23.2983 13.8113C23.2621 13.8317 23.2234 13.8421 23.1828 13.8421C23.1431 13.8421 23.105 13.8317 23.0683 13.8113C23.0316 13.7895 23.0029 13.7613 22.9826 13.7246C22.9618 13.6875 22.9518 13.6498 22.9518 13.6096C22.9518 13.569 22.9623 13.5304 22.9826 13.4937C23.0029 13.457 23.0331 13.4273 23.0693 13.4075C23.107 13.3871 23.1441 13.3767 23.1828 13.3767C23.2224 13.3767 23.2601 13.3871 23.2968 13.4075C23.3344 13.4278 23.3632 13.456 23.384 13.4937C23.4053 13.5309 23.4147 13.5695 23.4147 13.6096C23.4147 13.6498 23.4048 13.688 23.384 13.7246Z" fill="currentColor"/>
<path d="M23.3226 15.9166C23.3176 15.9131 23.3132 15.9077 23.3052 15.9047C23.2973 15.9017 23.2849 15.9002 23.2656 15.9002H23.219V15.9746H23.2686C23.2918 15.9746 23.3072 15.9726 23.3161 15.9642C23.3246 15.9572 23.3285 15.9488 23.3285 15.9369C23.3285 15.929 23.3265 15.9235 23.3226 15.9166Z" fill="currentColor"/>
<path d="M23.4826 15.872C23.4613 15.8333 23.432 15.8061 23.3949 15.7857C23.3577 15.7654 23.32 15.755 23.2814 15.755C23.2417 15.755 23.2041 15.7654 23.1674 15.7857C23.1307 15.8061 23.1005 15.8343 23.0802 15.872C23.0589 15.9086 23.0494 15.9473 23.0494 15.9869C23.0494 16.0266 23.0598 16.0657 23.0802 16.1019C23.1015 16.1386 23.1302 16.1683 23.1664 16.1887C23.2031 16.209 23.2417 16.2194 23.2824 16.2194C23.322 16.2194 23.3607 16.209 23.3968 16.1887C23.433 16.1683 23.4623 16.1386 23.4826 16.1019C23.5034 16.0657 23.5133 16.0271 23.5133 15.9869C23.5133 15.9468 23.5029 15.9082 23.4826 15.872ZM23.3399 16.1158L23.318 16.0766C23.3007 16.0459 23.2863 16.0256 23.2754 16.0177C23.2685 16.0127 23.2576 16.0088 23.2437 16.0088H23.2204V16.1153H23.1798V15.865H23.266C23.2957 15.865 23.3171 15.8675 23.3289 15.8725C23.3423 15.8774 23.3537 15.8844 23.3607 15.8968C23.3686 15.9082 23.3721 15.9205 23.3721 15.9334C23.3721 15.9518 23.3651 15.9671 23.3527 15.9815C23.3399 15.9944 23.322 16.0028 23.3007 16.0043C23.3096 16.0073 23.3166 16.0122 23.322 16.0177C23.3324 16.0276 23.3443 16.0439 23.3592 16.0667L23.3899 16.1158H23.3399Z" fill="currentColor"/>
<path d="M5.46232 12.4941C4.90182 12.4941 4.78833 12.7458 4.78833 12.9555C4.78833 13.0635 4.85028 13.2439 5.08766 13.2439C5.54806 13.2439 5.6437 12.6403 5.62884 12.5119C5.60703 12.5075 5.59315 12.4946 5.46232 12.4941Z" fill="currentColor"/>
<path d="M11.2551 11.4697C10.8383 11.4697 10.7581 11.944 10.7581 11.9941H11.607C11.607 11.9559 11.6868 11.4697 11.2551 11.4697Z" fill="currentColor"/>
<path d="M21.6613 11.5525C21.3248 11.5525 21.0587 11.943 21.0592 12.5362C21.0592 12.898 21.1881 13.1299 21.4636 13.1299C21.8779 13.1299 22.0776 12.5892 22.0776 12.1863C22.0776 11.7418 21.9364 11.5525 21.6613 11.5525Z" fill="currentColor"/>
<path d="M23.3493 13.5135C23.332 13.4828 23.3077 13.459 23.2769 13.4416C23.2462 13.4243 23.215 13.4159 23.1823 13.4159C23.1506 13.4159 23.1184 13.4248 23.0876 13.4416C23.0569 13.4575 23.0326 13.4823 23.0153 13.5135C22.9979 13.5447 22.989 13.5779 22.989 13.6101C22.989 13.6433 22.9979 13.6761 23.0143 13.7063C23.0326 13.737 23.0559 13.7603 23.0866 13.7786C23.1174 13.7955 23.1491 13.8054 23.1823 13.8054C23.2155 13.8054 23.2482 13.7955 23.2779 13.7786C23.3087 13.7613 23.3325 13.7375 23.3503 13.7063C23.3676 13.6756 23.3756 13.6433 23.3756 13.6101C23.3756 13.5774 23.3666 13.5447 23.3493 13.5135ZM23.2418 13.7375L23.2195 13.6989C23.2021 13.6676 23.1882 13.6478 23.1778 13.6404C23.1694 13.6339 23.1595 13.631 23.1451 13.631H23.1223V13.737H23.0807V13.4872H23.1674C23.1967 13.4872 23.2185 13.4897 23.2309 13.4952C23.2432 13.4996 23.2541 13.5081 23.2626 13.519C23.271 13.5299 23.274 13.5422 23.274 13.5556C23.274 13.574 23.267 13.5893 23.2541 13.6032C23.2413 13.6176 23.2234 13.6235 23.2026 13.626C23.2125 13.63 23.219 13.6344 23.2239 13.6389C23.2343 13.6493 23.2462 13.6642 23.2606 13.6879L23.2913 13.7375H23.2418Z" fill="currentColor"/>
<path d="M17.8603 12.4941C17.2998 12.4941 17.1863 12.7458 17.1863 12.9555C17.1863 13.0635 17.2477 13.2439 17.4856 13.2439C17.946 13.2439 18.0412 12.6403 18.0268 12.5119C18.0045 12.5075 17.9906 12.4946 17.8603 12.4941Z" fill="currentColor"/>
<path d="M23.2249 13.5383C23.2209 13.5333 23.2155 13.5294 23.2081 13.5259C23.1996 13.5234 23.1872 13.5209 23.1674 13.5209V13.5214H23.1223V13.5968H23.1714C23.1947 13.5968 23.21 13.5938 23.2194 13.5864C23.2269 13.5789 23.2313 13.5695 23.2313 13.5586C23.2313 13.5502 23.2294 13.5452 23.2249 13.5383Z" fill="currentColor"/>
</svg>
