<svg width="24" height="24" viewBox="0 0 24 24" fill="none" xmlns="http://www.w3.org/2000/svg">
<path d="M15.3836 17.5042H9.25916V6.49755H15.3836V17.5042Z" fill="#FF5F00"/>
<path d="M9.65153 12C9.65153 9.76725 10.6969 7.77837 12.3249 6.49666C11.1344 5.55941 9.63195 5 7.99911 5C4.13351 5 1 8.13396 1 12C1 15.866 4.13351 19 7.99911 19C9.63195 19 11.1344 18.4406 12.3249 17.5033C10.6969 16.2216 9.65153 14.2328 9.65153 12Z" fill="#EB001B"/>
<path d="M23.6436 12C23.6436 15.866 20.51 19 16.6444 19C15.0116 19 13.5092 18.4406 12.3182 17.5033C13.9466 16.2216 14.992 14.2328 14.992 12C14.992 9.76725 13.9466 7.77837 12.3182 6.49666C13.5092 5.55941 15.0116 5 16.6444 5C20.51 5 23.6436 8.13396 23.6436 12Z" fill="#F79E1B"/>
<path d="M6.26683 12.0443C6.26683 11.7385 6.4672 11.4873 6.79461 11.4873C7.10745 11.4873 7.31865 11.7277 7.31865 12.0443C7.31865 12.3609 7.10745 12.6012 6.79461 12.6012C6.4672 12.6012 6.26683 12.35 6.26683 12.0443ZM7.67523 12.0443V11.1745H7.29699V11.3857C7.17702 11.2291 6.99498 11.1308 6.74754 11.1308C6.25975 11.1308 5.87734 11.5132 5.87734 12.0443C5.87734 12.5758 6.25975 12.9578 6.74754 12.9578C6.99498 12.9578 7.17702 12.8595 7.29699 12.7029V12.9141H7.67523V12.0443ZM20.4571 12.0443C20.4571 11.7385 20.6575 11.4873 20.9849 11.4873C21.2981 11.4873 21.5089 11.7277 21.5089 12.0443C21.5089 12.3609 21.2981 12.6012 20.9849 12.6012C20.6575 12.6012 20.4571 12.35 20.4571 12.0443ZM21.8659 12.0443V10.4759H21.4872V11.3857C21.3673 11.2291 21.1852 11.1308 20.9378 11.1308C20.45 11.1308 20.0676 11.5132 20.0676 12.0443C20.0676 12.5758 20.45 12.9578 20.9378 12.9578C21.1852 12.9578 21.3673 12.8595 21.4872 12.7029V12.9141H21.8659V12.0443ZM12.3703 11.4694C12.614 11.4694 12.7706 11.6223 12.8106 11.8914H11.9079C11.9483 11.6402 12.1008 11.4694 12.3703 11.4694ZM12.3778 11.1308C11.868 11.1308 11.5114 11.5019 11.5114 12.0443C11.5114 12.5975 11.8825 12.9578 12.4032 12.9578C12.6653 12.9578 12.9052 12.8924 13.1164 12.7141L12.931 12.4338C12.7852 12.55 12.5994 12.6158 12.4249 12.6158C12.1812 12.6158 11.9592 12.5029 11.9046 12.1897H13.1964C13.2001 12.1426 13.2039 12.0951 13.2039 12.0443C13.2001 11.5019 12.8652 11.1308 12.3778 11.1308ZM16.945 12.0443C16.945 11.7385 17.1454 11.4873 17.4728 11.4873C17.7857 11.4873 17.9969 11.7277 17.9969 12.0443C17.9969 12.3609 17.7857 12.6012 17.4728 12.6012C17.1454 12.6012 16.945 12.35 16.945 12.0443ZM18.3534 12.0443V11.1745H17.9752V11.3857C17.8548 11.2291 17.6732 11.1308 17.4257 11.1308C16.938 11.1308 16.5555 11.5132 16.5555 12.0443C16.5555 12.5758 16.938 12.9578 17.4257 12.9578C17.6732 12.9578 17.8548 12.8595 17.9752 12.7029V12.9141H18.3534V12.0443ZM14.8089 12.0443C14.8089 12.5721 15.1763 12.9578 15.737 12.9578C15.999 12.9578 16.1736 12.8995 16.3627 12.7504L16.1811 12.4446C16.039 12.5467 15.8899 12.6012 15.7258 12.6012C15.4237 12.5975 15.2017 12.3792 15.2017 12.0443C15.2017 11.7094 15.4237 11.4911 15.7258 11.4873C15.8899 11.4873 16.039 11.5419 16.1811 11.644L16.3627 11.3382C16.1736 11.1891 15.999 11.1308 15.737 11.1308C15.1763 11.1308 14.8089 11.5165 14.8089 12.0443ZM19.6856 11.1308C19.4673 11.1308 19.3253 11.2328 19.227 11.3857V11.1745H18.8521V12.9141H19.2307V11.9389C19.2307 11.651 19.3544 11.4911 19.6019 11.4911C19.6785 11.4911 19.7585 11.5019 19.8385 11.5348L19.9551 11.1782C19.8714 11.1453 19.7623 11.1308 19.6856 11.1308ZM9.54602 11.3128C9.36398 11.1928 9.11321 11.1308 8.83661 11.1308C8.39589 11.1308 8.11221 11.342 8.11221 11.6877C8.11221 11.9714 8.32341 12.1463 8.71248 12.2009L8.89118 12.2263C9.09863 12.2555 9.19652 12.31 9.19652 12.4084C9.19652 12.5429 9.05823 12.6196 8.79996 12.6196C8.53794 12.6196 8.34882 12.5358 8.22135 12.4375L8.04306 12.732C8.25051 12.8849 8.51253 12.9578 8.79621 12.9578C9.29858 12.9578 9.58976 12.7212 9.58976 12.39C9.58976 12.0843 9.36065 11.9243 8.98199 11.8697L8.8037 11.8439C8.63999 11.8222 8.50878 11.7898 8.50878 11.6731C8.50878 11.5457 8.6325 11.4694 8.83994 11.4694C9.06197 11.4694 9.27692 11.5531 9.38231 11.6185L9.54602 11.3128ZM14.4265 11.1308C14.2082 11.1308 14.0662 11.2328 13.9683 11.3857V11.1745H13.5934V12.9141H13.9716V11.9389C13.9716 11.651 14.0953 11.4911 14.3428 11.4911C14.4194 11.4911 14.4994 11.5019 14.5794 11.5348L14.696 11.1782C14.6123 11.1453 14.5031 11.1308 14.4265 11.1308ZM11.1985 11.1745H10.5799V10.6467H10.1975V11.1745H9.8447V11.5202H10.1975V12.3138C10.1975 12.7174 10.3542 12.9578 10.8015 12.9578C10.9657 12.9578 11.1548 12.907 11.2748 12.8233L11.1656 12.4992C11.0527 12.5646 10.929 12.5975 10.8307 12.5975C10.6416 12.5975 10.5799 12.4808 10.5799 12.3063V11.5202H11.1985V11.1745ZM5.54284 12.9141V11.8222C5.54284 11.4111 5.28082 11.1345 4.85842 11.1308C4.6364 11.127 4.40729 11.1962 4.24691 11.4403C4.12694 11.2474 3.93782 11.1308 3.67205 11.1308C3.48626 11.1308 3.30464 11.1853 3.16259 11.389V11.1745H2.78394V12.9141H3.16592V11.9497C3.16592 11.6477 3.33338 11.4873 3.59207 11.4873C3.84326 11.4873 3.97031 11.651 3.97031 11.946V12.9141H4.35272V11.9497C4.35272 11.6477 4.52726 11.4873 4.77844 11.4873C5.03671 11.4873 5.16043 11.651 5.16043 11.946V12.9141H5.54284Z" fill="white"/>
</svg>
