<svg width="24" height="24" viewBox="0 0 24 24" fill="none" xmlns="http://www.w3.org/2000/svg">
<g clip-path="url(#clip0_147_842)">
<path d="M9.60973 8.42865L8.39001 15.5864H10.3408L11.5615 8.42865H9.60973Z" fill="currentColor"/>
<path d="M6.7544 8.43668L4.84379 13.3181L4.64009 12.581C4.26329 11.6929 3.19359 10.4175 1.93774 9.61375L3.68479 15.5829L5.74892 15.5794L8.82105 8.43517L6.7544 8.43668Z" fill="currentColor"/>
<path d="M3.89949 8.94895C3.78609 8.51294 3.45746 8.38299 3.04955 8.36744H0.0250868L0 8.50993C2.35364 9.08091 3.91103 10.4567 4.55726 12.1109L3.89949 8.94895Z" fill="currentColor"/>
<path d="M15.5152 9.80089C16.1534 9.79086 16.616 9.93034 16.9752 10.0748L17.1514 10.1576L17.4153 8.60626C17.0289 8.46126 16.4233 8.30572 15.6677 8.30572C13.7401 8.30572 12.3814 9.27658 12.3708 10.6679C12.3583 11.6959 13.3387 12.2699 14.0792 12.6126C14.8394 12.9638 15.0942 13.1871 15.0907 13.5007C15.0847 13.9798 14.4846 14.1996 13.9242 14.1996C13.143 14.1996 12.7281 14.0917 12.0873 13.8248L11.836 13.7104L11.5615 15.3125C12.0181 15.5126 12.8605 15.6847 13.735 15.6938C15.7856 15.6938 17.1182 14.7345 17.1323 13.2478C17.1408 12.4345 16.6205 11.8139 15.4931 11.3046C14.8108 10.9724 14.3933 10.7517 14.3973 10.4165C14.3973 10.119 14.7516 9.80089 15.5152 9.80089Z" fill="currentColor"/>
<path d="M22.4216 8.43668H20.9144C20.4463 8.43668 20.0981 8.56412 19.8924 9.03073L16.9958 15.5904H19.0444C19.0444 15.5904 19.3786 14.7084 19.4544 14.5152C19.6786 14.5152 21.669 14.5182 21.9525 14.5182C22.0107 14.7681 22.1903 15.5904 22.1903 15.5904H24.0001L22.4216 8.43668ZM20.0158 13.0501C20.1763 12.6392 20.793 11.0497 20.793 11.0497C20.7824 11.0693 20.952 10.6358 21.0529 10.3664L21.1843 10.9835C21.1843 10.9835 21.5581 12.6924 21.6364 13.0501H20.0158Z" fill="currentColor"/>
</g>
<defs>
<clipPath id="clip0_147_842">
<rect width="24" height="24" fill="white"/>
</clipPath>
</defs>
</svg>
