<svg width="24" height="24" viewBox="0 0 24 24" fill="none" xmlns="http://www.w3.org/2000/svg">
<path fill-rule="evenodd" clip-rule="evenodd" d="M20.25 3C20.6642 3 21 3.33579 21 3.75V20.25C21 20.6642 20.6642 21 20.25 21C19.8358 21 19.5 20.6642 19.5 20.25V3.75C19.5 3.33579 19.8358 3 20.25 3Z" fill="currentColor"/>
<path fill-rule="evenodd" clip-rule="evenodd" d="M18 9.75C18 10.5784 17.3284 11.25 16.5 11.25L7.5 11.25C6.67157 11.25 6 10.5784 6 9.75V6C6 5.17157 6.67157 4.5 7.5 4.5L16.5 4.5C17.3284 4.5 18 5.17157 18 6V9.75ZM7.5 9.75L16.5 9.75V6L7.5 6V9.75Z" fill="currentColor"/>
<path fill-rule="evenodd" clip-rule="evenodd" d="M2.25 14.25C2.25 13.4216 2.92157 12.75 3.75 12.75H16.5C17.3284 12.75 18 13.4216 18 14.25V18C18 18.8284 17.3284 19.5 16.5 19.5H3.75C2.92157 19.5 2.25 18.8284 2.25 18V14.25ZM16.5 14.25H3.75V18H16.5V14.25Z" fill="currentColor"/>
</svg>
