<svg width="24" height="24" viewBox="0 0 24 24" fill="none" xmlns="http://www.w3.org/2000/svg">
<path fill-rule="evenodd" clip-rule="evenodd" d="M12 2.25C12.4142 2.25 12.75 2.58579 12.75 3V5.25C12.75 5.66421 12.4142 6 12 6C11.5858 6 11.25 5.66421 11.25 5.25V3C11.25 2.58579 11.5858 2.25 12 2.25Z" fill="currentColor"/>
<path fill-rule="evenodd" clip-rule="evenodd" d="M12 18C12.4142 18 12.75 18.3358 12.75 18.75V21C12.75 21.4142 12.4142 21.75 12 21.75C11.5858 21.75 11.25 21.4142 11.25 21V18.75C11.25 18.3358 11.5858 18 12 18Z" fill="currentColor"/>
<path fill-rule="evenodd" clip-rule="evenodd" d="M12 9.75C12.4142 9.75 12.75 10.0858 12.75 10.5V13.5C12.75 13.9142 12.4142 14.25 12 14.25C11.5858 14.25 11.25 13.9142 11.25 13.5V10.5C11.25 10.0858 11.5858 9.75 12 9.75Z" fill="currentColor"/>
<path fill-rule="evenodd" clip-rule="evenodd" d="M5.25 6C5.25 5.17157 5.92157 4.5 6.75 4.5H17.25C18.0784 4.5 18.75 5.17157 18.75 6V9.75C18.75 10.5784 18.0784 11.25 17.25 11.25H6.75C5.92157 11.25 5.25 10.5784 5.25 9.75V6ZM17.25 6H6.75V9.75H17.25V6Z" fill="currentColor"/>
<path fill-rule="evenodd" clip-rule="evenodd" d="M3 14.25C3 13.4216 3.67157 12.75 4.5 12.75H19.5C20.3284 12.75 21 13.4216 21 14.25V18C21 18.8284 20.3284 19.5 19.5 19.5H4.5C3.67157 19.5 3 18.8284 3 18V14.25ZM19.5 14.25H4.5V18H19.5V14.25Z" fill="currentColor"/>
</svg>
