<svg width="24" height="24" viewBox="0 0 24 24" fill="none" xmlns="http://www.w3.org/2000/svg">
<path fill-rule="evenodd" clip-rule="evenodd" d="M15.3601 4.45327C13.7339 3.7287 11.9171 3.5492 10.1806 3.94154C8.44408 4.33388 6.88092 5.27705 5.72423 6.63037C4.56755 7.98369 3.87932 9.67465 3.76218 11.4511C3.64504 13.2275 4.10528 14.9942 5.07425 16.4877C6.04321 17.9812 7.469 19.1214 9.13896 19.7384C10.8089 20.3553 12.6336 20.416 14.3408 19.9112C16.048 19.4064 17.5463 18.3633 18.6123 16.9374C19.6782 15.5115 20.2547 13.7793 20.2557 11.999V11.1709C20.2557 10.7567 20.5915 10.4209 21.0057 10.4209C21.4199 10.4209 21.7557 10.7567 21.7557 11.1709V11.9994C21.7545 14.1032 21.0733 16.1506 19.8137 17.8356C18.554 19.5205 16.7835 20.7531 14.7661 21.3496C12.7487 21.9461 10.5925 21.8745 8.61912 21.1454C6.64575 20.4164 4.96091 19.0689 3.81589 17.3041C2.67087 15.5393 2.12701 13.4516 2.26543 11.3524C2.40385 9.2532 3.21713 7.25499 4.58398 5.65578C5.95082 4.05658 7.798 2.94205 9.85002 2.47842C11.902 2.01479 14.049 2.22691 15.9706 3.08313C16.3489 3.25172 16.519 3.6951 16.3504 4.07345C16.1818 4.45181 15.7384 4.62186 15.3601 4.45327Z" fill="currentColor"/>
<path fill-rule="evenodd" clip-rule="evenodd" d="M22.5303 3.46967C22.8232 3.76256 22.8232 4.23744 22.5303 4.53033L12.5303 14.5303C12.2375 14.8231 11.7629 14.8232 11.4699 14.5306L8.46993 11.5336C8.1769 11.2408 8.17666 10.766 8.4694 10.4729C8.76215 10.1799 9.23703 10.1797 9.53007 10.4724L11.9997 12.9396L21.4697 3.46967C21.7626 3.17678 22.2374 3.17678 22.5303 3.46967Z" fill="currentColor"/>
</svg>
