<svg width="24" height="24" viewBox="0 0 24 24" fill="none" xmlns="http://www.w3.org/2000/svg">
<path d="M12.071 10.328L7.121 15.278C6.9324 15.4602 6.6798 15.561 6.4176 15.5587C6.1554 15.5564 5.90459 15.4512 5.71918 15.2658C5.53377 15.0804 5.4286 14.8296 5.42633 14.5674C5.42405 14.3052 5.52484 14.0526 5.707 13.864L11.364 8.207C11.5515 8.01953 11.8058 7.91422 12.071 7.91422C12.3362 7.91422 12.5905 8.01953 12.778 8.207L18.435 13.864C18.6172 14.0526 18.718 14.3052 18.7157 14.5674C18.7134 14.8296 18.6082 15.0804 18.4228 15.2658C18.2374 15.4512 17.9866 15.5564 17.7244 15.5587C17.4622 15.561 17.2096 15.4602 17.021 15.278L12.071 10.328Z" fill="currentColor"/>
</svg>
