<svg width="24" height="24" viewBox="0 0 24 24" fill="none" xmlns="http://www.w3.org/2000/svg">
<g clip-path="url(#clip0_1_411)">
<path fill-rule="evenodd" clip-rule="evenodd" d="M12 21H18C18.7956 21 19.5587 20.6839 20.1213 20.1213C20.6839 19.5587 21 18.7956 21 18V12C21 11.2044 20.6839 10.4413 20.1213 9.87868C19.5587 9.31607 18.7956 9 18 9H12C11.2044 9 10.4413 9.31607 9.87868 9.87868C9.31607 10.4413 9 11.2044 9 12V18C9 18.7956 9.31607 19.5587 9.87868 20.1213C10.4413 20.6839 11.2044 21 12 21ZM11.5 10.5H18.5C19.0523 10.5 19.5 10.9477 19.5 11.5V18.5C19.5 19.0523 19.0523 19.5 18.5 19.5H11.5C10.9477 19.5 10.5 19.0523 10.5 18.5V11.5C10.5 10.9477 10.9477 10.5 11.5 10.5Z" fill="currentColor"/>
<path d="M5.67 15H9.73V13.5H5.5C4.94772 13.5 4.5 13.0523 4.5 12.5V5.5C4.5 4.94772 4.94772 4.5 5.5 4.5H12.5C13.0523 4.5 13.5 4.94772 13.5 5.5V9.4H15V5.67C14.9974 4.96268 14.7152 4.28509 14.2151 3.78494C13.7149 3.28478 13.0373 3.00263 12.33 3H5.67C4.96268 3.00263 4.28509 3.28478 3.78494 3.78494C3.28478 4.28509 3.00263 4.96268 3 5.67V12.33C3.00263 13.0373 3.28478 13.7149 3.78494 14.2151C4.28509 14.7152 4.96268 14.9974 5.67 15Z" fill="currentColor"/>
</g>
<defs>
<clipPath id="clip0_1_411">
<rect width="24" height="24" fill="white"/>
</clipPath>
</defs>
</svg>
