<svg width="24" height="24" viewBox="0 0 24 24" fill="none" xmlns="http://www.w3.org/2000/svg">
<path fill-rule="evenodd" clip-rule="evenodd" d="M18.75 4.5C18.75 4.08579 18.4142 3.75 18 3.75L6 3.75C5.58579 3.75 5.25 4.08579 5.25 4.5L5.25 19.5C5.25 19.9142 5.58579 20.25 6 20.25H18C18.4142 20.25 18.75 19.9142 18.75 19.5V4.5ZM18 2.25C19.2426 2.25 20.25 3.25736 20.25 4.5V19.5C20.25 20.7426 19.2426 21.75 18 21.75H6C4.75736 21.75 3.75 20.7426 3.75 19.5V4.5C3.75 3.25736 4.75736 2.25 6 2.25L18 2.25Z" fill="currentColor"/>
<path fill-rule="evenodd" clip-rule="evenodd" d="M7.5 6.75C7.5 5.92157 7.90294 5.25 8.4 5.25H15.6C16.0971 5.25 16.5 5.92157 16.5 6.75C16.5 7.57843 16.0971 8.25 15.6 8.25H8.4C7.90294 8.25 7.5 7.57843 7.5 6.75Z" fill="currentColor"/>
</svg>
