<svg width="24" height="24" viewBox="0 0 24 24" fill="none" xmlns="http://www.w3.org/2000/svg">
<path d="M12 10.7143C12.426 10.7143 12.7714 11.0597 12.7714 11.4857V16.6286C12.7714 17.0546 12.426 17.4 12 17.4C11.574 17.4 11.2286 17.0546 11.2286 16.6286V11.4857C11.2286 11.0597 11.574 10.7143 12 10.7143Z" fill="currentColor"/>
<path d="M12 8.91429C12.5681 8.91429 13.0286 8.45378 13.0286 7.88571C13.0286 7.31765 12.5681 6.85714 12 6.85714C11.4319 6.85714 10.9714 7.31765 10.9714 7.88571C10.9714 8.45378 11.4319 8.91429 12 8.91429Z" fill="currentColor"/>
<path fill-rule="evenodd" clip-rule="evenodd" d="M3 12C3 7.02944 7.02944 3 12 3C16.9706 3 21 7.02944 21 12C21 16.9706 16.9706 21 12 21C7.02944 21 3 16.9706 3 12ZM12 4.54286C7.88153 4.54286 4.54286 7.88153 4.54286 12C4.54286 16.1185 7.88153 19.4571 12 19.4571C16.1185 19.4571 19.4571 16.1185 19.4571 12C19.4571 7.88153 16.1185 4.54286 12 4.54286Z" fill="currentColor"/>
</svg>
