<svg width="24" height="24" viewBox="0 0 24 24" fill="none" xmlns="http://www.w3.org/2000/svg">
<path d="M8 18L10 16H12L13.36 14.64C14.7502 15.1243 16.2636 15.1224 17.6525 14.6346C19.0414 14.1467 20.2236 13.2018 21.0056 11.9546C21.7876 10.7073 22.123 9.23157 21.957 7.76884C21.791 6.30612 21.1334 4.94306 20.0918 3.90277C19.0502 2.86248 17.6863 2.20657 16.2234 2.04239C14.7604 1.87821 13.2851 2.21549 12.0388 2.99903C10.7926 3.78257 9.84917 4.96595 9.36307 6.35549C8.87696 7.74504 8.87694 9.25843 9.363 10.648L2 18V22H6L8 20V18Z" stroke="currentColor" stroke-width="1.5" stroke-linecap="round" stroke-linejoin="round"/>
<path d="M16.5005 8.99994C17.3289 8.99994 18.0005 8.32837 18.0005 7.49994C18.0005 6.67151 17.3289 5.99994 16.5005 5.99994C15.6721 5.99994 15.0005 6.67151 15.0005 7.49994C15.0005 8.32837 15.6721 8.99994 16.5005 8.99994Z" stroke="currentColor" stroke-width="1.25" stroke-linecap="round" stroke-linejoin="round"/>
</svg>
