<svg width="24" height="24" viewBox="0 0 24 24" fill="none" xmlns="http://www.w3.org/2000/svg">
<path fill-rule="evenodd" clip-rule="evenodd" d="M12 2.25C12.4142 2.25 12.75 2.58579 12.75 3V6C12.75 6.41421 12.4142 6.75 12 6.75C11.5858 6.75 11.25 6.41421 11.25 6V3C11.25 2.58579 11.5858 2.25 12 2.25Z" fill="currentColor"/>
<path fill-rule="evenodd" clip-rule="evenodd" d="M17.25 12C17.25 11.5858 17.5858 11.25 18 11.25H21C21.4142 11.25 21.75 11.5858 21.75 12C21.75 12.4142 21.4142 12.75 21 12.75H18C17.5858 12.75 17.25 12.4142 17.25 12Z" fill="currentColor"/>
<path fill-rule="evenodd" clip-rule="evenodd" d="M15.7166 15.7165C16.0095 15.4236 16.4843 15.4236 16.7772 15.7165L18.896 17.8353C19.1889 18.1282 19.1889 18.6031 18.896 18.896C18.6031 19.1888 18.1282 19.1888 17.8353 18.896L15.7166 16.7772C15.4237 16.4843 15.4237 16.0094 15.7166 15.7165Z" fill="currentColor"/>
<path fill-rule="evenodd" clip-rule="evenodd" d="M12 17.25C12.4142 17.25 12.75 17.5858 12.75 18V21C12.75 21.4142 12.4142 21.75 12 21.75C11.5858 21.75 11.25 21.4142 11.25 21V18C11.25 17.5858 11.5858 17.25 12 17.25Z" fill="currentColor"/>
<path fill-rule="evenodd" clip-rule="evenodd" d="M8.28345 15.7165C8.57634 16.0094 8.57634 16.4843 8.28345 16.7772L6.1647 18.896C5.87181 19.1888 5.39693 19.1888 5.10404 18.896C4.81115 18.6031 4.81115 18.1282 5.10404 17.8353L7.22279 15.7165C7.51568 15.4236 7.99056 15.4236 8.28345 15.7165Z" fill="currentColor"/>
<path fill-rule="evenodd" clip-rule="evenodd" d="M2.25 12C2.25 11.5858 2.58579 11.25 3 11.25H6C6.41421 11.25 6.75 11.5858 6.75 12C6.75 12.4142 6.41421 12.75 6 12.75H3C2.58579 12.75 2.25 12.4142 2.25 12Z" fill="currentColor"/>
<path fill-rule="evenodd" clip-rule="evenodd" d="M5.10404 5.10404C5.39693 4.81115 5.87181 4.81115 6.1647 5.10404L8.28345 7.22279C8.57634 7.51568 8.57634 7.99056 8.28345 8.28345C7.99056 8.57634 7.51568 8.57634 7.22279 8.28345L5.10404 6.1647C4.81115 5.87181 4.81115 5.39693 5.10404 5.10404Z" fill="currentColor"/>
</svg>
