<svg width="24" height="24" viewBox="0 0 24 24" fill="none" xmlns="http://www.w3.org/2000/svg">
<path fill-rule="evenodd" clip-rule="evenodd" d="M9.64354 4.69204C9.89493 4.5172 10.1938 4.42349 10.5 4.42349C10.8062 4.42349 11.1051 4.5172 11.3565 4.69204C11.6078 4.86687 11.7997 5.11445 11.9062 5.40151L11.9069 5.40316L13.7069 10.2875C13.7073 10.2888 13.7081 10.29 13.709 10.291C13.71 10.2919 13.7112 10.2927 13.7124 10.2931L18.5985 12.0938C18.8856 12.2003 19.1331 12.3922 19.308 12.6435C19.4828 12.8949 19.5765 13.1938 19.5765 13.5C19.5765 13.8062 19.4828 14.1051 19.308 14.3565C19.1331 14.6078 18.8856 14.7997 18.5985 14.9063L18.5968 14.9069L13.7125 16.7069C13.7112 16.7073 13.71 16.7081 13.709 16.709C13.7081 16.71 13.7073 16.7112 13.7069 16.7124L11.9069 21.5968L11.9062 21.5985C11.7997 21.8856 11.6078 22.1331 11.3565 22.308C11.1051 22.4828 10.8062 22.5765 10.5 22.5765C10.1938 22.5765 9.89493 22.4828 9.64354 22.308C9.39216 22.1331 9.2003 21.8856 9.09375 21.5985L9.09314 21.5968L7.29314 16.7125C7.29267 16.7112 7.29192 16.71 7.29096 16.709C7.29049 16.7086 7.28998 16.7082 7.28943 16.7078C7.28885 16.7074 7.28822 16.7071 7.28757 16.7069L2.40316 14.9069L2.40151 14.9063C2.11445 14.7997 1.86687 14.6078 1.69203 14.3565C1.5172 14.1051 1.42349 13.8062 1.42349 13.5C1.42349 13.1938 1.5172 12.8949 1.69203 12.6435C1.86687 12.3922 2.11445 12.2003 2.40151 12.0938L2.40316 12.0931L7.28753 10.2931C7.28881 10.2927 7.29 10.2919 7.29096 10.291C7.29192 10.29 7.29266 10.2888 7.29313 10.2876L9.09314 5.40316L9.09375 5.40151C9.2003 5.11445 9.39216 4.86687 9.64354 4.69204ZM12.2994 16.1938C12.2994 16.1938 12.2994 16.1938 12.2994 16.1938C12.3749 15.9889 12.494 15.8028 12.6484 15.6484C12.8028 15.494 12.9889 15.3749 13.1938 15.2994C13.1938 15.2994 13.1938 15.2994 13.1938 15.2994L18.0765 13.5L13.1938 11.7006C13.1938 11.7006 13.1938 11.7006 13.1938 11.7006C12.9889 11.6251 12.8028 11.506 12.6484 11.3516C12.494 11.1972 12.3749 11.0111 12.2994 10.8062C12.2994 10.8062 12.2994 10.8062 12.2994 10.8062L10.5 5.92349L8.70062 10.8062C8.70062 10.8062 8.70063 10.8062 8.70062 10.8062C8.62512 11.0111 8.50603 11.1972 8.35162 11.3516C8.19721 11.506 8.01112 11.6251 7.80622 11.7006C7.8062 11.7006 7.80623 11.7006 7.80622 11.7006L2.92349 13.5L7.80618 15.2994C7.80619 15.2994 7.80617 15.2994 7.80618 15.2994C8.01109 15.3749 8.19721 15.494 8.35162 15.6484C8.50603 15.8028 8.6251 15.9889 8.70061 16.1938C8.70061 16.1938 8.70061 16.1938 8.70061 16.1938L10.5 21.0765L12.2994 16.1938Z" fill="currentColor"/>
<path fill-rule="evenodd" clip-rule="evenodd" d="M16.5 0.75C16.9142 0.75 17.25 1.08579 17.25 1.5V6C17.25 6.41421 16.9142 6.75 16.5 6.75C16.0858 6.75 15.75 6.41421 15.75 6V1.5C15.75 1.08579 16.0858 0.75 16.5 0.75Z" fill="currentColor"/>
<path fill-rule="evenodd" clip-rule="evenodd" d="M13.5 3.75C13.5 3.33579 13.8358 3 14.25 3H18.75C19.1642 3 19.5 3.33579 19.5 3.75C19.5 4.16421 19.1642 4.5 18.75 4.5H14.25C13.8358 4.5 13.5 4.16421 13.5 3.75Z" fill="currentColor"/>
<path fill-rule="evenodd" clip-rule="evenodd" d="M21 6C21.4142 6 21.75 6.33579 21.75 6.75V9.75C21.75 10.1642 21.4142 10.5 21 10.5C20.5858 10.5 20.25 10.1642 20.25 9.75V6.75C20.25 6.33579 20.5858 6 21 6Z" fill="currentColor"/>
<path fill-rule="evenodd" clip-rule="evenodd" d="M18.75 8.25C18.75 7.83579 19.0858 7.5 19.5 7.5H22.5C22.9142 7.5 23.25 7.83579 23.25 8.25C23.25 8.66421 22.9142 9 22.5 9H19.5C19.0858 9 18.75 8.66421 18.75 8.25Z" fill="currentColor"/>
</svg>
