<svg width="24" height="24" viewBox="0 0 24 24" fill="none" xmlns="http://www.w3.org/2000/svg">
<path fill-rule="evenodd" clip-rule="evenodd" d="M7.83434 4.60575C7.7784 4.27571 7.50173 4.02631 7.16452 4.00194C6.8273 3.97757 6.51696 4.18455 6.41318 4.50304L4.36968 10.7742H1.73333C1.32832 10.7742 1 11.0992 1 11.5C1 11.9009 1.32832 12.2258 1.73333 12.2258H4.9037C5.22199 12.2258 5.50394 12.0226 5.60164 11.7228L6.8856 7.7825L8.68418 18.3943C8.74086 18.7287 9.02398 18.9797 9.36606 18.9988C9.70815 19.018 10.018 18.8001 10.1124 18.4741L12.4879 10.2677L13.7393 14.6026C13.82 14.882 14.0612 15.0868 14.3524 15.1233C14.6437 15.1598 14.9288 15.0208 15.0772 14.7701L16.5833 12.2258H17.7234C18.0426 13.3428 19.0803 14.1613 20.3111 14.1613C21.7961 14.1613 23 12.9698 23 11.5C23 10.0302 21.7961 8.83872 20.3111 8.83872C19.0803 8.83872 18.0426 9.65718 17.7234 10.7742H16.163C15.9026 10.7742 15.6618 10.9108 15.5302 11.1331L14.6785 12.572L13.194 7.42965C13.1041 7.11815 12.8165 6.90335 12.4892 6.90324C12.1618 6.90312 11.8741 7.11771 11.7839 7.42914L9.59469 14.992L7.83434 4.60575ZM19.0889 11.5C19.0889 10.8319 19.6361 10.2903 20.3111 10.2903C20.9861 10.2903 21.5333 10.8319 21.5333 11.5C21.5333 12.1681 20.9861 12.7097 20.3111 12.7097C19.6361 12.7097 19.0889 12.1681 19.0889 11.5Z" fill="currentColor"/>
</svg>
