<svg width="24" height="24" viewBox="0 0 24 24" fill="none" xmlns="http://www.w3.org/2000/svg">
<g clip-path="url(#clip0_1_458)">
<path d="M12 3C10.22 3 8.47991 3.52784 6.99987 4.51677C5.51983 5.5057 4.36628 6.91131 3.68509 8.55585C3.0039 10.2004 2.82567 12.01 3.17294 13.7558C3.5202 15.5016 4.37737 17.1053 5.63604 18.364C6.89471 19.6226 8.49836 20.4798 10.2442 20.8271C11.99 21.1743 13.7996 20.9961 15.4441 20.3149C17.0887 19.6337 18.4943 18.4802 19.4832 17.0001C20.4722 15.5201 21 13.78 21 12C21 10.8181 20.7672 9.64778 20.3149 8.55585C19.8626 7.46392 19.1997 6.47176 18.364 5.63604C17.5282 4.80031 16.5361 4.13738 15.4441 3.68508C14.3522 3.23279 13.1819 3 12 3ZM12 19.2C10.576 19.2 9.18393 18.7777 7.9999 17.9866C6.81586 17.1954 5.89302 16.0709 5.34807 14.7553C4.80312 13.4397 4.66054 11.992 4.93835 10.5953C5.21616 9.19868 5.9019 7.91577 6.90883 6.90883C7.91577 5.90189 9.19869 5.21616 10.5953 4.93834C11.992 4.66053 13.4397 4.80312 14.7553 5.34807C16.0709 5.89302 17.1954 6.81586 17.9866 7.99989C18.7777 9.18392 19.2 10.576 19.2 12C19.2 13.9096 18.4414 15.7409 17.0912 17.0912C15.7409 18.4414 13.9096 19.2 12 19.2Z" fill="currentColor"/>
<path d="M12 6.6C11.1646 6.6 10.3634 6.93188 9.77261 7.52261C9.18187 8.11335 8.85 8.91457 8.85 9.75C8.85 9.98869 8.94482 10.2176 9.1136 10.3864C9.28239 10.5552 9.51131 10.65 9.75 10.65C9.98869 10.65 10.2176 10.5552 10.3864 10.3864C10.5552 10.2176 10.65 9.98869 10.65 9.75C10.65 9.48299 10.7292 9.22199 10.8775 8.99998C11.0259 8.77797 11.2367 8.60494 11.4834 8.50276C11.7301 8.40058 12.0015 8.37385 12.2634 8.42594C12.5252 8.47803 12.7658 8.6066 12.9546 8.79541C13.1434 8.98421 13.272 9.22475 13.3241 9.48663C13.3761 9.7485 13.3494 10.0199 13.2472 10.2666C13.1451 10.5133 12.972 10.7241 12.75 10.8725C12.528 11.0208 12.267 11.1 12 11.1C11.7613 11.1 11.5324 11.1948 11.3636 11.3636C11.1948 11.5324 11.1 11.7613 11.1 12V13.8C11.1 14.0387 11.1948 14.2676 11.3636 14.4364C11.5324 14.6052 11.7613 14.7 12 14.7C12.2387 14.7 12.4676 14.6052 12.6364 14.4364C12.8052 14.2676 12.9 14.0387 12.9 13.8V12.756C13.6273 12.5436 14.2533 12.0755 14.6626 11.4379C15.072 10.8003 15.2371 10.0363 15.1275 9.28656C15.0178 8.53686 14.6409 7.85204 14.0662 7.35833C13.4915 6.86462 12.7577 6.5953 12 6.6Z" fill="currentColor"/>
<path d="M12 17.4C12.4971 17.4 12.9 16.9971 12.9 16.5C12.9 16.0029 12.4971 15.6 12 15.6C11.5029 15.6 11.1 16.0029 11.1 16.5C11.1 16.9971 11.5029 17.4 12 17.4Z" fill="currentColor"/>
</g>
<defs>
<clipPath id="clip0_1_458">
<rect width="24" height="24" fill="white"/>
</clipPath>
</defs>
</svg>
