<svg width="24" height="24" viewBox="0 0 24 24" fill="none" xmlns="http://www.w3.org/2000/svg">
<path fill-rule="evenodd" clip-rule="evenodd" d="M8.44461 6C8.68332 6 8.90248 6.13195 9.01417 6.34292L14.8142 17.2985C14.9807 17.6131 14.8607 18.0031 14.5462 18.1696C14.2316 18.3362 13.8416 18.2162 13.6751 17.9016L8.44461 8.02181L3.21413 17.9016C3.0476 18.2162 2.6576 18.3362 2.34305 18.1696C2.02849 18.0031 1.90849 17.6131 2.07502 17.2985L7.87506 6.34292C7.98674 6.13195 8.2059 6 8.44461 6Z" fill="currentColor"/>
<path fill-rule="evenodd" clip-rule="evenodd" d="M18.7558 13.967C17.6045 13.967 16.8224 14.7665 16.8224 15.5781C16.8224 16.3898 17.6045 17.1892 18.7558 17.1892C19.9071 17.1892 20.6891 16.3898 20.6891 15.5781C20.6891 14.7665 19.9071 13.967 18.7558 13.967ZM15.5335 15.5781C15.5335 13.8983 17.0597 12.6781 18.7558 12.6781C20.4518 12.6781 21.978 13.8983 21.978 15.5781C21.978 17.2579 20.4518 18.4781 18.7558 18.4781C17.0597 18.4781 15.5335 17.2579 15.5335 15.5781Z" fill="currentColor"/>
<path fill-rule="evenodd" clip-rule="evenodd" d="M18.7485 11.0669C18.1976 11.0607 17.6662 11.2711 17.2688 11.6527C17.012 11.8992 16.6041 11.8909 16.3576 11.6341C16.1111 11.3774 16.1194 10.9694 16.3761 10.7229C17.0163 10.1082 17.872 9.76905 18.7594 9.77807C20.456 9.77979 21.978 10.9964 21.978 12.6781V17.6001C21.978 17.956 21.6895 18.2445 21.3336 18.2445C20.9777 18.2445 20.6891 17.956 20.6891 17.6001V12.6781C20.6891 11.8637 19.9094 11.067 18.7558 11.067H18.7485L18.7485 11.0669Z" fill="currentColor"/>
<path fill-rule="evenodd" clip-rule="evenodd" d="M3.70792 14.3778C3.70792 14.0219 3.99645 13.7334 4.35236 13.7334H12.5369C12.8928 13.7334 13.1813 14.0219 13.1813 14.3778C13.1813 14.7337 12.8928 15.0223 12.5369 15.0223H4.35236C3.99645 15.0223 3.70792 14.7337 3.70792 14.3778Z" fill="currentColor"/>
</svg>
