<svg width="24" height="24" viewBox="0 0 24 24" fill="none" xmlns="http://www.w3.org/2000/svg">
<path fill-rule="evenodd" clip-rule="evenodd" d="M21.5188 5.7034C21.79 5.9746 21.79 6.41429 21.5188 6.68549L13.1855 15.0188C12.9143 15.29 12.4746 15.29 12.2034 15.0188L9.22222 12.0376L3.46326 17.7966C3.19206 18.0678 2.75237 18.0678 2.48117 17.7966C2.20997 17.5254 2.20997 17.0857 2.48117 16.8145L8.73117 10.5645C9.00237 10.2933 9.44206 10.2933 9.71326 10.5645L12.6944 13.5457L20.5367 5.7034C20.8079 5.4322 21.2476 5.4322 21.5188 5.7034Z" fill="currentColor"/>
<path fill-rule="evenodd" clip-rule="evenodd" d="M14.7778 6.19444C14.7778 5.81091 15.0887 5.5 15.4722 5.5H21.0278C21.4113 5.5 21.7222 5.81091 21.7222 6.19444V11.75C21.7222 12.1335 21.4113 12.4444 21.0278 12.4444C20.6442 12.4444 20.3333 12.1335 20.3333 11.75V6.88889H15.4722C15.0887 6.88889 14.7778 6.57798 14.7778 6.19444Z" fill="currentColor"/>
</svg>
