<svg width="24" height="24" viewBox="0 0 24 24" fill="none" xmlns="http://www.w3.org/2000/svg">
<path fill-rule="evenodd" clip-rule="evenodd" d="M2.48117 6.2034C2.75237 5.9322 3.19206 5.9322 3.46326 6.2034L9.22222 11.9624L12.2034 8.98118C12.4746 8.70998 12.9143 8.70998 13.1855 8.98118L21.5188 17.3145C21.79 17.5857 21.79 18.0254 21.5188 18.2966C21.2476 18.5678 20.8079 18.5678 20.5367 18.2966L12.6944 10.4543L9.71326 13.4355C9.44206 13.7067 9.00237 13.7067 8.73117 13.4355L2.48117 7.18549C2.20997 6.91429 2.20997 6.4746 2.48117 6.2034Z" fill="currentColor"/>
<path fill-rule="evenodd" clip-rule="evenodd" d="M21.0278 11.5556C21.4113 11.5556 21.7222 11.8665 21.7222 12.25V17.8056C21.7222 18.1891 21.4113 18.5 21.0278 18.5H15.4722C15.0887 18.5 14.7778 18.1891 14.7778 17.8056C14.7778 17.422 15.0887 17.1111 15.4722 17.1111H20.3333V12.25C20.3333 11.8665 20.6442 11.5556 21.0278 11.5556Z" fill="currentColor"/>
</svg>
