<svg width="24" height="24" viewBox="0 0 24 24" fill="none" xmlns="http://www.w3.org/2000/svg">
<path fill-rule="evenodd" clip-rule="evenodd" d="M12.4913 4C10.054 4 8.09625 5.95775 8.09625 8.39509C8.09625 10.8331 10.0538 12.791 12.4913 12.791C14.9288 12.791 16.8864 10.8331 16.8864 8.39509C16.8864 5.95775 14.9287 4 12.4913 4ZM12.4913 5.43061C14.1386 5.43061 15.4558 6.74786 15.4558 8.39508C15.4558 10.0431 14.1387 11.3604 12.4913 11.3604C10.844 11.3604 9.52687 10.0431 9.52687 8.39508C9.52687 6.74786 10.8441 5.43061 12.4913 5.43061ZM7.10482 4.8983C7.49988 4.8983 7.82013 5.21856 7.82013 5.61361C7.82013 6.00866 7.49988 6.32892 7.10482 6.32892C5.97142 6.32892 5.05221 7.24773 5.05221 8.38066C5.05221 9.51358 5.97142 10.4324 7.10482 10.4324C7.49988 10.4324 7.82013 10.7527 7.82013 11.1477C7.82013 11.5428 7.49988 11.863 7.10482 11.863C5.18146 11.863 3.62159 10.3038 3.62159 8.38066C3.62159 6.45749 5.18146 4.8983 7.10482 4.8983ZM21.37 8.38066C21.37 6.45749 19.8102 4.8983 17.8868 4.8983C17.4917 4.8983 17.1715 5.21856 17.1715 5.61361C17.1715 6.00866 17.4917 6.32892 17.8868 6.32892C19.0202 6.32892 19.9394 7.24773 19.9394 8.38066C19.9394 9.51358 19.0202 10.4324 17.8868 10.4324C17.4917 10.4324 17.1715 10.7527 17.1715 11.1477C17.1715 11.5428 17.4917 11.863 17.8868 11.863C19.8102 11.863 21.37 10.3038 21.37 8.38066ZM20.6536 13.6495C20.1956 13.5461 19.7061 13.4754 19.2085 13.4411C18.8144 13.4139 18.4728 13.7114 18.4457 14.1055C18.4185 14.4996 18.7159 14.8412 19.1101 14.8684C19.5359 14.8977 19.9533 14.958 20.3591 15.0493C20.9901 15.1731 21.4016 15.3784 21.5037 15.5924C21.5805 15.7539 21.5805 15.9438 21.503 16.1073C21.4022 16.3191 20.9942 16.5233 20.3721 16.6513C19.9851 16.7308 19.7359 17.109 19.8155 17.496C19.8951 17.883 20.2733 18.1321 20.6602 18.0526C21.6885 17.8411 22.4418 17.4641 22.7952 16.7211C23.0572 16.1687 23.0572 15.5281 22.7953 14.9771C22.4393 14.2313 21.6731 13.8491 20.6536 13.6495ZM6.54595 14.1055C6.51877 13.7114 6.17724 13.4139 5.78312 13.4411C5.28547 13.4754 4.79604 13.5461 4.31843 13.6536L4.12153 13.6952C3.21774 13.9018 2.52823 14.2812 2.19727 14.977C1.93418 15.5275 1.93418 16.1693 2.19755 16.7217C2.54941 17.4639 3.30265 17.841 4.3314 18.0526C4.71836 18.1321 5.09655 17.883 5.17612 17.496C5.2557 17.109 5.00651 16.7308 4.61955 16.6513C3.99763 16.5234 3.59002 16.3193 3.48957 16.1074C3.41131 15.9433 3.41131 15.7545 3.48861 15.5927C3.59065 15.3782 4.00167 15.1731 4.61291 15.0534L4.93072 14.9884C5.24754 14.9298 5.56215 14.8904 5.88155 14.8684C6.27567 14.8412 6.57313 14.4996 6.54595 14.1055ZM6.03386 17.1112C6.03386 14.8356 8.38764 14.0353 12.4913 14.0353L12.7821 14.0367C16.7143 14.0736 18.9488 14.8757 18.9488 17.0945C18.9488 19.2612 16.8128 20.0907 13.0655 20.1648L12.4913 20.1704C8.37824 20.1704 6.03386 19.3842 6.03386 17.1112ZM17.5182 17.0945C17.5182 16.0354 15.82 15.4659 12.4913 15.4659C9.16591 15.4659 7.46447 16.0444 7.46447 17.1112C7.46447 18.1704 9.16212 18.7397 12.4913 18.7397C15.8158 18.7397 17.5182 18.1608 17.5182 17.0945Z" fill="currentColor"/>
</svg>
