<svg width="24" height="24" viewBox="0 0 24 24" fill="none" xmlns="http://www.w3.org/2000/svg">
<path d="M6.25355 16.231C10.7231 17.9752 14.5267 18.315 18.8369 15.6C18.8053 15.6474 17.9527 16.9105 15.7106 17.5579C16.1843 18.2053 16.8316 18.9473 16.8316 18.9473C18.2685 18.9473 19.6738 18.5368 20.8895 17.7473C21.8369 17.1157 22.3737 16.0263 22.2632 14.8895C22.0737 12.9473 21.6158 11.0526 20.9053 9.23686C20.0053 6.86845 17.8422 5.22633 15.3316 4.98947C15.1106 4.97367 14.9527 4.97367 14.858 4.97367L14.6054 5.22628C17.4948 6.04734 18.9317 7.32628 18.9632 7.37367C14.5264 5.13155 9.2843 5.1 4.81585 7.27894C4.81585 7.27894 6.23691 5.87367 9.37899 5.13155L9.18952 4.94208C8.85793 4.94208 8.54213 4.97367 8.21059 5.02102C5.88952 5.41575 3.94745 7.01048 3.11059 9.20522C2.38426 11.1 1.91059 13.0894 1.73692 15.1105C1.64218 16.1842 2.14745 17.2421 3.03165 17.8579C4.20006 18.6315 5.58952 19.0421 6.99479 19.0421C6.99479 19.0421 7.56319 18.2999 8.13165 17.6368C6.00005 17.0052 5.13165 15.7421 5.11585 15.6947L5.51701 15.8995C5.75682 16.0221 6.00268 16.1331 6.25355 16.231ZM8.73165 14.8579C7.70532 14.8263 6.90005 13.9579 6.93165 12.9157C6.96324 11.9368 7.75271 11.1473 8.73165 11.1157C9.75798 11.1473 10.5632 12.0157 10.5316 13.0579C10.4843 14.0369 9.71059 14.8263 8.73165 14.8579ZM15.1737 14.8579C14.1474 14.8263 13.3421 13.9579 13.3737 12.9157C13.4053 11.9368 14.1948 11.1473 15.1737 11.1157C16.2001 11.1473 17.0053 12.0157 16.9737 13.0579C16.9422 14.0369 16.1527 14.8263 15.1737 14.8579Z" fill="currentColor"/>
</svg>
