<svg width="24" height="24" viewBox="0 0 24 24" fill="none" xmlns="http://www.w3.org/2000/svg">
<path d="M6.43291 14.087L5.73676 16.6858L3.19234 16.7396C2.43193 15.3292 2.00061 13.7156 2.00061 12.0008C2.00061 10.3426 2.40388 8.77886 3.1187 7.40199H3.11925L5.3845 7.81729L6.37682 10.0689C6.16913 10.6744 6.05593 11.3244 6.05593 12.0008C6.05601 12.7348 6.18897 13.4381 6.43291 14.087Z" fill="#FBBB00"/>
<path d="M21.8246 10.1325C21.9395 10.7374 21.9994 11.3621 21.9994 12.0006C21.9994 12.7165 21.9241 13.4149 21.7807 14.0885C21.2939 16.3807 20.022 18.3823 18.2599 19.7987L18.2594 19.7982L15.4062 19.6526L15.0024 17.1318C16.1716 16.4461 17.0853 15.373 17.5666 14.0885H12.2195V10.1325H17.6446H21.8246Z" fill="#518EF8"/>
<path d="M18.2609 19.7979L18.2615 19.7984C16.5478 21.1758 14.3709 22 12.0012 22C8.1931 22 4.88221 19.8715 3.19324 16.7392L6.43381 14.0865C7.27828 16.3403 9.4524 17.9446 12.0012 17.9446C13.0968 17.9446 14.1232 17.6485 15.0039 17.1315L18.2609 19.7979Z" fill="#28B446"/>
<path d="M18.3823 4.30283L15.1429 6.95494C14.2314 6.38519 13.1539 6.05606 11.9995 6.05606C9.39302 6.05606 7.17824 7.73402 6.37607 10.0686L3.11847 7.40164H3.11792C4.78217 4.19295 8.13481 2.0007 11.9995 2.0007C14.4258 2.0007 16.6505 2.86497 18.3823 4.30283Z" fill="#F14336"/>
</svg>
