<svg width="136" height="34" viewBox="0 0 136 34" fill="none" xmlns="http://www.w3.org/2000/svg">
  <path d="M8.80294 10.6457C11.2261 10.6457 13.1727 11.0893 14.5719 12.1133C15.9026 13.1018 16.8176 14.7062 16.8176 16.957C16.8176 21.9402 12.5517 23.9528 9.30987 23.9528C9.00197 23.9537 8.69442 23.9317 8.38979 23.8869L6.03507 23.2709V28.5938C6.03507 31.4579 6.27333 31.5264 9.4138 31.8686V32.8393H0V31.8838C2.93516 31.5771 3.07203 31.3768 3.07203 28.5405V14.98C3.07203 11.9384 2.69436 11.8725 0 11.6013V10.6457H8.80294ZM6.04014 22.0771C6.83117 22.3953 7.67949 22.5463 8.53173 22.5207C10.8129 22.5207 13.6492 21.3598 13.6492 17.061C13.6492 13.3071 11.1931 11.8015 8.32642 11.8015C7.33789 11.8015 6.62058 11.9739 6.41527 12.2121C6.14153 12.4504 6.04014 12.861 6.04014 13.7811V22.0771Z" fill="#6E43D4"/>
  <path d="M34.4039 10.6457H43.5136V11.6013C40.8522 11.8395 40.3756 12.0778 40.3756 15.1143V20.9846C41.0575 20.9162 41.8432 20.3713 42.8317 19.4157C44.7429 17.6059 47.0292 15.2867 48.6007 13.5124C49.6145 12.3515 49.5208 11.908 48.0532 11.7027L47.0976 11.6013V10.6457H55.3911V11.6013C52.831 11.908 51.9439 12.0778 49.6576 14.4325C48.6438 15.4236 45.9722 18.0165 43.7873 20.1659C46.3803 23.238 50.1696 27.6052 51.9439 29.4834C53.7182 31.3616 54.1288 31.6328 56.2529 31.8711V32.8393H50.783C48.1571 29.8712 45.3918 26.5609 42.2868 22.9541C41.501 21.9985 40.9206 21.9402 40.3756 21.963V28.4467C40.3756 31.4174 40.6823 31.6556 43.5136 31.8939V32.8393H34.4039V31.8838C37.1921 31.6455 37.4734 31.4072 37.4734 28.4366V15.1143C37.4734 12.0448 37.2352 11.804 34.4039 11.6013V10.6457Z" fill="#6E43D4"/>
  <path d="M72.1267 33.0522V32.0967C74.3471 31.8229 74.6183 31.4833 74.1418 30.1855C73.6653 28.8878 73.0164 27.1439 72.2991 24.9996H64.9283C64.3808 26.5204 63.8688 27.8663 63.3922 29.2654C62.6318 31.4833 63.1185 31.7545 65.9269 32.0967V33.0522H58.0441V32.0967C60.1935 31.8229 60.741 31.5897 61.9348 28.5126L68.9989 10.5975L70.0914 10.3922C72.2408 16.222 74.5955 22.6778 76.7449 28.5811C77.8374 31.5517 78.1441 31.8229 80.5672 32.0967V33.0522H72.1267ZM68.7151 14.8507C67.6226 17.7859 66.4643 20.8909 65.4403 23.5878H71.82L68.7151 14.8507Z" fill="#6E43D4"/>
  <path d="M93.8253 16.0547C93.2449 13.8039 92.2893 11.5835 89.0804 11.5835C86.419 11.5835 85.4989 13.5301 85.4989 15.3044C85.4989 17.6591 86.9995 18.853 89.8307 20.3205C93.9267 22.437 95.701 24.006 95.701 27.2478C95.701 30.8319 92.596 33.5617 88.1933 33.5617C86.1453 33.5617 84.371 32.9813 82.9718 32.4363C82.5707 30.748 82.2636 29.0386 82.0518 27.3163L83.1087 27.0425C83.7905 29.3237 85.2936 32.2994 88.8422 32.2994C91.2983 32.2994 92.8013 30.5936 92.8013 28.3758C92.8013 25.7473 91.4022 24.6878 88.3986 23.0529C84.8146 21.1088 82.802 19.4714 82.802 16.2955C82.802 13.2539 85.3367 10.3922 89.8307 10.3922C91.7418 10.3922 93.62 10.8991 94.3373 11.0411C94.4742 12.2704 94.6086 13.6341 94.8823 15.857L93.8253 16.0547Z" fill="#6E43D4"/>
  <path d="M109.502 16.0471C108.924 13.7963 107.969 11.5759 104.76 11.5759C102.098 11.5759 101.176 13.5225 101.176 15.2968C101.176 17.6515 102.679 18.8454 105.51 20.3129C109.606 22.4294 111.38 23.9984 111.38 27.2402C111.38 30.8243 108.281 33.5617 103.873 33.5617C101.825 33.5617 100.05 32.9813 98.6513 32.4363C98.2491 30.748 97.9411 29.0387 97.7286 27.3163L98.7881 27.0425C99.47 29.3237 100.973 32.2994 104.522 32.2994C106.978 32.2994 108.481 30.5936 108.481 28.3758C108.481 25.7473 107.079 24.6878 104.078 23.0529C100.494 21.1088 98.4814 19.4714 98.4814 16.2955C98.4814 13.2539 101.016 10.3922 105.51 10.3922C107.421 10.3922 109.299 10.8991 110.014 11.0411C110.151 12.2704 110.288 13.6341 110.562 15.857L109.502 16.0471Z" fill="#6E43D4"/>
  <path d="M124.941 10.3922C130.771 10.3922 136 14.8634 136 21.6538C136 29.0044 131.017 33.5668 124.738 33.5668C118.186 33.5668 113.408 28.5836 113.408 22.1607C113.398 16.0572 117.743 10.3922 124.941 10.3922ZM124.259 11.6596C120.437 11.6545 116.947 14.8634 116.947 21.2457C116.947 27.628 120.427 32.2665 125.273 32.2665C129.402 32.2665 132.507 29.197 132.507 22.6094C132.517 15.4438 128.731 11.6545 124.259 11.6545V11.6596Z" fill="#6E43D4"/>
  <path d="M29.9711 28.3174C27.4871 31.6455 24.3568 33.2373 22.874 33.2373C21.5838 33.2373 21.0363 31.9446 21.9818 27.9702C22.7751 24.6929 24.1667 19.3751 25.1096 15.3526C25.3098 14.4071 25.2591 13.961 24.9626 13.961C24.4556 13.961 22.9754 14.9546 21.6827 16.1966L21.2264 15.2841C23.5609 12.7494 26.7495 10.235 28.3387 10.235C29.5807 10.235 29.6314 11.9257 28.7367 15.601C27.7938 19.1774 26.6 24.1961 25.6951 27.7218C25.3453 29.0626 25.3453 29.6101 25.6951 29.6101C26.202 29.6101 27.5327 28.9131 29.2715 27.0755L29.9711 28.3174Z" fill="#6E43D4"/>
  <path d="M31.3627 2.28628C31.3627 3.82736 30.2702 5.16821 28.7291 5.16821C28.4354 5.17668 28.143 5.12416 27.8706 5.01397C27.5981 4.90379 27.3514 4.73832 27.1461 4.52802C26.9408 4.31772 26.7814 4.06715 26.6778 3.79212C26.5742 3.51709 26.5287 3.22357 26.5442 2.93009C26.5442 1.6374 27.5378 0 29.3324 0C30.6656 0.00253468 31.3627 1.04429 31.3627 2.28628Z" fill="#C1E64C"/>
  <path d="M29.2764 27.0755C32.4372 23.1138 13.967 23.9832 21.2187 15.2842L21.6749 16.1967C16.4611 21.8008 35.7576 20.8427 29.9709 28.3175L29.2764 27.0755Z" fill="#C1E64C"/>
</svg>
