<svg width="420" height="210" viewBox="0 0 420 210" fill="none" xmlns="http://www.w3.org/2000/svg">
<path fill-rule="evenodd" clip-rule="evenodd" d="M166.31 37.6813C170.005 39.3869 171.619 43.7592 169.916 47.4472L167.604 52.4554L171.333 54.1768C186.216 61.0484 193.201 78.2881 187.284 93.5462L177.869 117.824C174.279 127.08 173.302 137.146 175.044 146.926C176.618 155.762 168.206 163.079 159.658 160.31L135.608 152.518L132.295 159.694C127.612 169.835 115.581 174.255 105.422 169.564C95.2623 164.874 90.8225 152.85 95.5048 142.708L98.8179 135.532L77.2879 122.28C69.636 117.57 69.7498 106.422 77.4961 101.889C86.0695 96.8721 93.0973 89.5996 97.8144 80.8638L110.186 57.9512C117.962 43.5509 135.614 37.6859 150.497 44.5575L154.226 46.2789L156.538 41.2707C158.241 37.5827 162.616 35.9757 166.31 37.6813Z" fill="#FFA943"/>
<rect x="164.13" y="64.7698" width="191.207" height="108.23" rx="7.21535" fill="white"/>
<path fill-rule="evenodd" clip-rule="evenodd" d="M171.345 173C167.36 173 164.13 169.77 164.13 165.785V71.9852C164.13 68.0002 167.36 64.7698 171.345 64.7698H348.121C352.106 64.7698 355.337 68.0002 355.337 71.9852V165.785C355.337 169.77 352.106 173 348.121 173H171.345ZM344.896 65.9724C346.84 67.265 348.121 69.4755 348.121 71.9852V165.785C348.121 168.294 346.84 170.505 344.896 171.797H348.121C351.442 171.797 354.134 169.105 354.134 165.785V71.9852C354.134 68.6644 351.442 65.9724 348.121 65.9724H344.896ZM340.906 65.9724H171.345C170.101 65.9724 168.945 66.3502 167.986 66.9975L253.328 120.419C254.669 121.259 256.369 121.275 257.726 120.46L345.327 67.9098C344.228 66.7185 342.654 65.9724 340.906 65.9724ZM345.714 68.3746C346.471 69.38 346.919 70.6302 346.919 71.9852V165.785C346.919 169.105 344.227 171.797 340.906 171.797H171.345C168.025 171.797 165.333 169.105 165.333 165.785V71.9852C165.333 70.3635 165.975 68.8918 167.018 67.8103L252.69 121.438C254.415 122.518 256.6 122.539 258.345 121.492L346.026 68.8931L345.714 68.3746Z" fill="#2E2D2D"/>
<path fill-rule="evenodd" clip-rule="evenodd" d="M277.17 142.936C277.17 140.279 279.324 138.126 281.981 138.126H336.096C338.752 138.126 340.906 140.279 340.906 142.936V159.772C340.906 162.428 338.752 164.582 336.096 164.582H281.981C279.324 164.582 277.17 162.428 277.17 159.772V142.936ZM286.791 147.746C286.791 147.082 287.329 146.543 287.993 146.543H324.07C324.734 146.543 325.273 147.082 325.273 147.746C325.273 148.41 324.734 148.948 324.07 148.948H287.993C287.329 148.948 286.791 148.41 286.791 147.746ZM287.993 153.759C287.329 153.759 286.791 154.297 286.791 154.961C286.791 155.625 287.329 156.164 287.993 156.164H318.057C318.722 156.164 319.26 155.625 319.26 154.961C319.26 154.297 318.722 153.759 318.057 153.759H287.993Z" fill="#FFA943"/>
<circle cx="163.529" cy="139.93" r="33.0703" fill="#6E43D4"/>
<path fill-rule="evenodd" clip-rule="evenodd" d="M410.994 171.797C411.471 171.797 411.857 172.067 411.857 172.399C411.857 172.719 411.498 172.981 411.045 172.999L410.994 173H9.86276C9.38629 173 9.00005 172.731 9.00005 172.399C9.00005 172.079 9.3592 171.817 9.81207 171.798L9.86276 171.797H410.994Z" fill="#2E2D2D"/>
<path fill-rule="evenodd" clip-rule="evenodd" d="M188.139 109.414C186.843 108.61 185.124 109.012 184.319 110.308L177.485 121.297C173.42 118.014 168.26 116.048 162.654 116.048C149.61 116.048 139 126.658 139 139.702C139 152.746 149.61 163.356 162.654 163.356C175.698 163.356 186.307 152.746 186.307 139.702C186.307 134.319 184.498 129.36 181.46 125.362L189.01 113.212C189.836 111.916 189.434 110.219 188.139 109.414ZM184.565 139.702C184.565 151.786 174.737 161.613 162.654 161.613C150.57 161.613 140.742 151.786 140.742 139.702C140.742 127.618 150.57 117.79 162.654 117.79C167.925 117.79 172.772 119.667 176.547 122.771L164.173 142.673L157.003 133.135C156.087 131.907 154.345 131.661 153.116 132.577C151.888 133.493 151.642 135.235 152.558 136.463L162.162 149.239C162.698 149.932 163.502 150.356 164.374 150.356C164.418 150.356 164.463 150.356 164.485 150.356C165.401 150.311 166.227 149.82 166.719 149.061L180.455 126.993C183.046 130.567 184.565 134.967 184.565 139.702Z" fill="white"/>
</svg>
