<svg width="72" height="72" viewBox="0 0 72 72" fill="none" xmlns="http://www.w3.org/2000/svg">
	<path d="M51.539 65.25C59.1113 65.25 65.2499 59.1114 65.2499 51.5391C65.2499 43.9667 59.1113 37.8281 51.539 37.8281C43.9667 37.8281 37.8281 43.9667 37.8281 51.5391C37.8281 59.1114 43.9667 65.25 51.539 65.25Z" fill="#6E43D4" />
	<path d="M31.3791 25.2927L23.4726 33.1993C20.8085 35.8634 16.4731 35.8634 13.809 33.1993L5.90249 25.2927C3.23842 22.6287 3.23842 18.2933 5.90249 15.6292L13.809 7.72265C16.4731 5.05858 20.8085 5.05858 23.4726 7.72265L31.3791 15.6292C34.0432 18.2933 34.0432 22.6287 31.3791 25.2927Z" fill="#6E43D4" />
	<path d="M65.2499 14.291V26.6309C65.2499 30.7887 61.8668 34.1719 57.7089 34.1719H45.3691C41.2112 34.1719 37.8281 30.7887 37.8281 26.6309V14.291C37.8281 10.1332 41.2112 6.75 45.3691 6.75H57.7089C61.8668 6.75 65.2499 10.1332 65.2499 14.291Z" fill="#B1ACF5" />
	<path d="M34.1718 45.3691V57.709C34.1718 61.8668 30.7886 65.25 26.6308 65.25H14.291C10.1331 65.25 6.74994 61.8668 6.74994 57.709V45.3691C6.74994 41.2113 10.1331 37.8281 14.291 37.8281H26.6308C30.7886 37.8281 34.1718 41.2113 34.1718 45.3691Z" fill="#5A2FBF" />
</svg>
