<svg width="420" height="210" viewBox="0 0 420 210" fill="none" xmlns="http://www.w3.org/2000/svg">
<path fill-rule="evenodd" clip-rule="evenodd" d="M59.1031 153.117C58.9712 152.817 58.6208 152.68 58.3205 152.812C58.031 152.939 57.8937 153.269 58.0026 153.562L58.0157 153.595L59.9933 158.096C60.1253 158.397 60.4756 158.533 60.7759 158.401C61.0655 158.274 61.2028 157.944 61.0939 157.651L61.0808 157.618L59.1031 153.117Z" fill="#FFA943"/>
<path fill-rule="evenodd" clip-rule="evenodd" d="M60.7723 163.462C60.4477 163.509 60.2228 163.81 60.2699 164.135L63.3106 185.119C63.3576 185.444 63.6589 185.669 63.9835 185.622C64.3081 185.575 64.5331 185.273 64.4861 184.949L61.4453 163.964C61.3982 163.64 61.0969 163.415 60.7723 163.462Z" fill="#FFA943"/>
<path fill-rule="evenodd" clip-rule="evenodd" d="M49.1608 166.742C48.8495 166.846 48.681 167.182 48.7843 167.493L55.8265 188.713L56.9603 192.159L57.1626 192.782C57.1912 192.871 57.2199 192.959 57.2486 193.045L57.3348 193.303C57.3493 193.346 57.3637 193.388 57.3781 193.43L57.465 193.679L57.5525 193.923C57.5671 193.964 57.5817 194.004 57.5964 194.043L57.6847 194.279C57.6995 194.318 57.7143 194.357 57.7292 194.395L57.8186 194.624C57.8335 194.661 57.8485 194.699 57.8635 194.736L57.9542 194.956C58.1363 195.391 58.324 195.795 58.5198 196.17L58.6184 196.354C59.3797 197.751 60.267 198.712 61.4297 199.309C61.7215 199.458 62.0795 199.343 62.2293 199.052C62.379 198.76 62.2639 198.402 61.9721 198.252C60.7672 197.634 59.8705 196.435 59.0638 194.526L58.9762 194.314L58.8892 194.098C58.8747 194.061 58.8603 194.024 58.8459 193.987L58.7597 193.762L58.6741 193.531C58.6456 193.453 58.6172 193.374 58.5889 193.294L58.504 193.051C58.4899 193.01 58.4758 192.969 58.4617 192.927L58.3773 192.675L57.807 190.928L56.267 186.263L49.9116 167.119C49.8082 166.808 49.4721 166.639 49.1608 166.742Z" fill="#FFA943"/>
<path fill-rule="evenodd" clip-rule="evenodd" d="M72.0349 130.436C69.7231 123.261 62.0326 119.318 54.8574 121.63C47.754 123.918 43.8186 131.479 45.9885 138.607L46.0562 138.823L51.9812 155.602C52.0843 155.894 52.3933 156.056 52.6894 155.98L52.7235 155.97L58.7891 154.014C59.0903 153.917 59.2605 153.602 59.1817 153.299L59.1719 153.266L57.5311 148.193L57.6945 148.211C57.9984 148.242 58.3033 148.262 58.6088 148.271L58.8381 148.277L59.0293 148.278C60.4554 148.276 61.8725 148.052 63.2293 147.614C70.3326 145.325 74.2675 137.764 72.1024 130.651L72.0349 130.436ZM55.2216 122.76C61.7724 120.65 68.7937 124.25 70.9043 130.8C73.0149 137.351 69.4156 144.372 62.8646 146.483C61.6249 146.884 60.3304 147.088 59.0284 147.09C58.2742 147.09 57.5217 147.02 56.7805 146.881C56.3487 146.799 55.9855 147.197 56.0962 147.615L56.1056 147.647L57.8589 153.066L52.9088 154.662L47.1814 138.443C45.1131 132.023 48.5298 125.15 54.834 122.892L55.0259 122.825L55.2216 122.76ZM59.0462 128.495L58.9502 128.496C57.0291 128.526 55.2309 129.456 54.0962 131.011C52.9835 132.535 52.6371 134.486 53.1533 136.302L53.1813 136.397L53.2113 136.494C54.2302 139.648 57.5655 141.407 60.7279 140.498L60.7883 140.48L60.8236 140.477C60.8472 140.474 60.8707 140.469 60.8941 140.463L60.9291 140.453C63.8 139.527 65.5696 136.649 65.1003 133.669C64.6358 130.719 62.1138 128.538 59.1364 128.496L59.0462 128.495ZM59.0462 129.683C61.4783 129.682 63.5488 131.452 63.927 133.854C64.2973 136.206 62.938 138.479 60.7094 139.274L60.6817 139.283L60.6619 139.285C60.6384 139.288 60.6148 139.293 60.5914 139.299L60.5564 139.309C57.9879 140.138 55.2353 138.751 54.3692 136.212L54.3436 136.134L54.317 136.049C53.8699 134.568 54.143 132.962 55.0557 131.711C55.9857 130.436 57.4685 129.683 59.0462 129.683Z" fill="#FFA943"/>
<path fill-rule="evenodd" clip-rule="evenodd" d="M39.277 129.89C34.3666 127.963 28.7851 129.037 24.9413 132.65C21.136 136.227 19.7082 141.657 21.2526 146.639L21.3003 146.79L21.3391 146.909C22.6416 150.825 25.6468 153.942 29.5143 155.386C33.2598 156.785 37.4213 156.469 40.9033 154.539L41.0179 154.475L41.1089 154.423L48.6716 157.147C48.7678 157.182 48.8707 157.191 48.9706 157.174L49.0132 157.166L49.0552 157.154L51.989 156.207C52.29 156.11 52.4601 155.796 52.3817 155.494L52.372 155.46L47.9021 141.59L47.8957 141.507C47.4886 136.415 44.2708 131.979 39.5669 130.008L39.4239 129.949L39.277 129.89ZM25.7548 133.516C29.2641 130.217 34.3599 129.236 38.843 130.996C43.3261 132.756 46.3939 136.941 46.7224 141.746C46.7246 141.778 46.7294 141.81 46.7367 141.841L46.7497 141.888L51.0594 155.259L48.8836 155.961L41.2487 153.211C41.106 153.159 40.9503 153.165 40.8128 153.224L40.7758 153.241L40.7399 153.261C37.4808 155.234 33.4985 155.606 29.9299 154.274C26.4366 152.969 23.7138 150.169 22.5055 146.65L22.4671 146.536L22.4299 146.423C20.951 141.839 22.2455 136.814 25.7548 133.516ZM32.4047 136.77C29.1909 137.815 27.4271 141.262 28.4595 144.48C29.2185 146.846 31.3288 148.521 33.805 148.722C36.2812 148.924 38.6347 147.613 39.7664 145.401C40.898 143.189 40.5845 140.513 38.9723 138.623C37.36 136.733 34.7672 136.001 32.4047 136.77ZM38.0686 139.394C39.3688 140.918 39.6216 143.076 38.709 144.86C37.7964 146.644 35.8984 147.701 33.9015 147.538C31.9046 147.376 30.2027 146.025 29.5906 144.117C28.758 141.522 30.1804 138.742 32.7722 137.899C34.6775 137.279 36.7685 137.87 38.0686 139.394Z" fill="#FFA943"/>
<path fill-rule="evenodd" clip-rule="evenodd" d="M49.068 165.777C48.7787 165.931 48.6696 166.291 48.8243 166.58L55.9392 179.901L62.1387 191.537C62.2926 191.826 62.6522 191.936 62.9418 191.782C63.2315 191.628 63.3414 191.269 63.1875 190.979L59.3626 183.795L53.8159 173.401L49.8717 166.02C49.7171 165.731 49.3572 165.622 49.068 165.777Z" fill="#FFA943"/>
<path fill-rule="evenodd" clip-rule="evenodd" d="M62.0721 163.62C61.9714 163.308 61.6367 163.136 61.3246 163.237C61.0236 163.334 60.8534 163.649 60.932 163.951L60.9417 163.985L64.7031 175.641C64.8038 175.953 65.1385 176.124 65.4506 176.024C65.7516 175.926 65.9218 175.612 65.8432 175.309L65.8334 175.276L62.0721 163.62Z" fill="#FFA943"/>
<path fill-rule="evenodd" clip-rule="evenodd" d="M51.846 154.971C51.7132 154.703 51.4033 154.577 51.1235 154.672L51.0901 154.684L48.2611 155.834C47.9573 155.958 47.8111 156.304 47.9347 156.608C48.0538 156.901 48.3802 157.048 48.6758 156.947L48.7085 156.935L51.0924 155.965L51.1106 155.988C51.7818 156.808 53.1408 157.833 54.5619 158.503L54.6527 158.545C54.9507 158.682 55.3034 158.552 55.4404 158.254C55.5774 157.956 55.4469 157.603 55.1489 157.466C55.0121 157.403 54.8758 157.336 54.7406 157.266L54.5791 157.181L54.419 157.093C54.366 157.063 54.3132 157.033 54.2608 157.002L54.1047 156.909L53.951 156.814C53.9256 156.799 53.9003 156.783 53.8751 156.767L53.7256 156.67C53.627 156.605 53.5305 156.539 53.4365 156.473L53.2976 156.374C53.0921 156.225 52.9006 156.075 52.7277 155.93L52.6153 155.834C52.5787 155.802 52.5432 155.77 52.5087 155.739L52.4082 155.646C52.392 155.63 52.376 155.615 52.3604 155.6L52.2697 155.51C52.0806 155.319 51.9402 155.145 51.8627 155.003L51.846 154.971Z" fill="#FFA943"/>
<path fill-rule="evenodd" clip-rule="evenodd" d="M58.4922 163.189C58.1655 163.16 57.8774 163.402 57.8489 163.729C57.7561 164.79 56.9284 165.638 55.8701 165.757C54.8118 165.876 53.8165 165.232 53.4905 164.218C53.4598 164.123 53.4356 164.025 53.4181 163.927L53.4063 163.853C53.36 163.528 53.0592 163.303 52.7345 163.349C52.4098 163.395 52.1841 163.696 52.2304 164.021C52.2576 164.211 52.3009 164.399 52.3598 164.582C52.8586 166.134 54.3825 167.119 56.0027 166.937C57.6229 166.755 58.8902 165.456 59.0321 163.832C59.0607 163.505 58.819 163.217 58.4922 163.189Z" fill="#FFA943"/>
<path fill-rule="evenodd" clip-rule="evenodd" d="M47.9059 148.221L47.8711 148.222L41.0037 148.729C40.688 148.752 40.4482 149.018 40.4536 149.331L40.4552 149.366L41.1164 158.147C41.141 158.474 41.4261 158.72 41.7532 158.695C42.0686 158.671 42.3078 158.405 42.3025 158.093L42.3008 158.058L41.6845 149.869L47.3672 149.45L48.0214 158.147C48.0451 158.463 48.3111 158.702 48.6233 158.697L48.6582 158.695C48.9735 158.671 49.2128 158.405 49.2074 158.093L49.2058 158.058L48.507 148.77C48.4833 148.455 48.2179 148.216 47.9059 148.221Z" fill="#FFA943"/>
<path fill-rule="evenodd" clip-rule="evenodd" d="M48.9946 163.182C48.6793 163.206 48.44 163.472 48.4454 163.784L48.447 163.819L51.3115 201.876C51.3362 202.203 51.6213 202.448 51.9483 202.423C52.2637 202.399 52.503 202.133 52.4976 201.821L52.496 201.786L49.6314 163.73C49.6077 163.414 49.3418 163.175 49.0295 163.181L48.9946 163.182Z" fill="#FFA943"/>
<path fill-rule="evenodd" clip-rule="evenodd" d="M42.2361 163.35C41.9207 163.374 41.6814 163.64 41.6868 163.952L41.6884 163.987L44.5292 201.769C44.5538 202.096 44.8389 202.341 45.1659 202.316C45.4813 202.293 45.7206 202.027 45.7152 201.714L45.7136 201.679L42.8729 163.898C42.8491 163.583 42.5832 163.343 42.271 163.349L42.2361 163.35Z" fill="#FFA943"/>
<path fill-rule="evenodd" clip-rule="evenodd" d="M48.871 151.827L40.6852 152.443L38.9312 129.141C38.4185 122.313 39.5627 120.884 42.5777 120.656C45.5927 120.428 46.6934 122.883 47.2081 129.713L48.871 151.827Z" fill="#FFA943"/>
<path fill-rule="evenodd" clip-rule="evenodd" d="M43.0134 125.601L42.9786 125.603L37.9052 125.985C36.6658 126.077 35.9192 126.913 35.6799 128.596L35.6607 128.742C35.6577 128.767 35.6548 128.792 35.652 128.817L35.6364 128.969C35.6174 129.175 35.6049 129.392 35.5992 129.621L35.5961 129.795C35.5955 129.853 35.5953 129.912 35.5955 129.972L35.5975 130.154C35.598 130.185 35.5986 130.216 35.5994 130.247L35.6051 130.435L35.6133 130.628C35.6148 130.661 35.6165 130.693 35.6183 130.726L35.6303 130.925L35.6447 131.129L36.9394 148.352C36.964 148.679 37.2491 148.924 37.5761 148.9C37.8915 148.876 38.1308 148.61 38.1255 148.298L38.1239 148.263L36.8221 130.945L36.8096 130.76L36.7991 130.58L36.7906 130.406L36.7841 130.237L36.7796 130.074C36.779 130.047 36.7785 130.021 36.7781 129.994L36.7766 129.839L36.777 129.689L36.7793 129.543L36.7836 129.403C36.7844 129.38 36.7854 129.357 36.7864 129.335L36.7935 129.202L36.8025 129.074L36.8134 128.951C36.8153 128.931 36.8174 128.911 36.8195 128.891L36.8331 128.775L36.8486 128.664L36.8659 128.557C36.8689 128.54 36.872 128.523 36.8752 128.506L36.8951 128.406C36.909 128.341 36.9241 128.278 36.9404 128.219L36.9656 128.132C36.97 128.118 36.9744 128.104 36.9789 128.09L37.0067 128.01L37.0363 127.933C37.0515 127.896 37.0673 127.86 37.0838 127.826L37.1176 127.759C37.3193 127.383 37.6056 127.207 37.9631 127.172L43.0677 126.787C43.3948 126.762 43.64 126.477 43.6154 126.15C43.5916 125.835 43.3257 125.596 43.0134 125.601Z" fill="#FFA943"/>
<circle r="1.29072" transform="matrix(-1 0 0 1 37.5315 148.302)" fill="#FFA943"/>
<path fill-rule="evenodd" clip-rule="evenodd" d="M79.0089 130.978C78.3469 130.881 77.6931 131.189 77.3492 131.75L71.2632 142.147C69.8843 144.495 68.9577 147.08 68.5304 149.769L68.5014 149.957L67.3136 158.016C67.2658 158.341 67.4901 158.642 67.8146 158.69C68.1275 158.736 68.4193 158.529 68.4826 158.224L68.4887 158.189L69.6763 150.132C70.0577 147.588 70.9114 145.14 72.1933 142.91L72.2879 142.748L78.3497 132.391C78.4472 132.219 78.6404 132.125 78.8361 132.153C79.0203 132.18 79.171 132.311 79.2258 132.493L79.235 132.527L82.0203 144.193C82.6173 146.694 82.7419 149.284 82.3884 151.83L82.361 152.021L81.4681 158.023C81.4199 158.348 81.6438 158.65 81.9682 158.698C82.281 158.745 82.5731 158.538 82.6369 158.232L82.643 158.198L83.5359 152.196C83.9354 149.503 83.8281 146.759 83.2199 144.107L83.1757 143.917L80.3917 132.257C80.239 131.586 79.6897 131.078 79.0089 130.978Z" fill="#FFA943"/>
<path fill-rule="evenodd" clip-rule="evenodd" d="M67.1452 163.187C66.8323 163.141 66.5403 163.347 66.4766 163.653L66.4704 163.687L60.9753 200.665C60.9273 200.98 60.9065 201.299 60.9132 201.618C60.9201 201.946 61.1916 202.206 61.5195 202.199C61.8474 202.192 62.1077 201.921 62.1007 201.593C62.0963 201.384 62.1069 201.175 62.1326 200.966L62.1498 200.841L67.6453 163.862C67.6935 163.537 67.4696 163.235 67.1452 163.187Z" fill="#FFA943"/>
<path fill-rule="evenodd" clip-rule="evenodd" d="M81.2659 163.355C80.9531 163.309 80.661 163.515 80.5973 163.821L80.5912 163.855L74.9947 201.518C74.9465 201.843 75.1704 202.145 75.4949 202.193C75.8077 202.239 76.0998 202.033 76.1635 201.727L76.1696 201.693L81.7661 164.03C81.8143 163.706 81.5903 163.404 81.2659 163.355Z" fill="#FFA943"/>
<path fill-rule="evenodd" clip-rule="evenodd" d="M73.1116 140.157L77.8331 132.09C78.0515 131.705 78.4843 131.493 78.9225 131.558C79.3608 131.622 79.7144 131.949 79.8127 132.381L81.9666 141.444C79.6187 140.575 75.4694 139.304 73.1116 140.157Z" fill="#FFA943"/>
<path fill-rule="evenodd" clip-rule="evenodd" d="M69.368 148.585C69.4611 148.163 69.566 147.745 69.6848 147.332C71.6644 147.108 74.1389 147.32 75.8771 149.2C78.4387 147.702 81.3033 148.636 83.1602 149.596C83.1463 150.036 83.1186 150.477 83.079 150.917C81.4596 149.99 78.6327 148.842 76.3106 150.323L75.1565 158.097L73.9311 158.255L75.1367 150.149C73.6104 148.371 71.1794 148.309 69.368 148.585Z" fill="#FFA943"/>
<path fill-rule="evenodd" clip-rule="evenodd" d="M73.1116 164.099H74.3132L68.7425 201.578L67.5389 201.605L73.1116 164.099Z" fill="#FFA943"/>
<path fill-rule="evenodd" clip-rule="evenodd" d="M60.1552 172.737C59.9514 172.48 59.5779 172.437 59.3208 172.641C59.0737 172.837 59.0242 173.19 59.2019 173.445L59.2243 173.475L76.9361 195.821C77.1399 196.078 77.5134 196.122 77.7705 195.918C78.0176 195.722 78.0671 195.369 77.8894 195.114L77.867 195.084L60.1552 172.737Z" fill="#1F1F23"/>
<path fill-rule="evenodd" clip-rule="evenodd" d="M59.6155 181.514C59.4123 181.257 59.0389 181.213 58.7814 181.416C58.5338 181.611 58.4836 181.964 58.6607 182.22L58.6831 182.25L74.3024 202.042C74.5056 202.3 74.8791 202.344 75.1365 202.141C75.3841 201.945 75.4343 201.593 75.2572 201.337L75.2348 201.307L59.6155 181.514Z" fill="#1F1F23"/>
<path fill-rule="evenodd" clip-rule="evenodd" d="M58.2391 189.034C58.0342 188.778 57.6605 188.736 57.4044 188.941C57.1581 189.138 57.1103 189.491 57.2892 189.746L57.3118 189.776L67.0753 201.976C67.2803 202.233 67.654 202.274 67.9101 202.069C68.1563 201.872 68.2041 201.519 68.0253 201.264L68.0027 201.234L58.2391 189.034Z" fill="#1F1F23"/>
<path fill-rule="evenodd" clip-rule="evenodd" d="M58.6793 197.906C58.4762 197.648 58.1027 197.604 57.8452 197.807C57.5975 198.003 57.5472 198.355 57.7242 198.611L57.7466 198.641L60.522 202.161C60.7251 202.419 61.0985 202.463 61.3561 202.26C61.6037 202.064 61.6541 201.712 61.477 201.456L61.4547 201.426L58.6793 197.906Z" fill="#1F1F23"/>
<path fill-rule="evenodd" clip-rule="evenodd" d="M61.0488 164.768C60.8429 164.512 60.469 164.472 60.2137 164.678C59.9682 164.876 59.9217 165.229 60.1015 165.483L60.1242 165.513L79.1287 189.081C79.3346 189.336 79.7085 189.376 79.9638 189.17C80.2093 188.972 80.2558 188.619 80.076 188.365L80.0533 188.335L61.0488 164.768Z" fill="#1F1F23"/>
<path fill-rule="evenodd" clip-rule="evenodd" d="M83.0485 178.774C82.8058 178.573 82.4503 178.597 82.2371 178.824L82.2122 178.852L63.6491 201.226C63.4397 201.479 63.4746 201.853 63.727 202.062C63.9697 202.264 64.3252 202.239 64.5384 202.013L64.5633 201.985L83.1263 179.611C83.3358 179.358 83.3009 178.984 83.0485 178.774Z" fill="#1F1F23"/>
<path fill-rule="evenodd" clip-rule="evenodd" d="M77.7971 195.01C77.5618 194.8 77.2057 194.811 76.9844 195.03L76.9585 195.057L71.4017 201.279C71.1832 201.524 71.2044 201.899 71.449 202.118C71.6842 202.328 72.0404 202.316 72.2617 202.098L72.2876 202.07L77.8444 195.848C78.0629 195.604 78.0417 195.228 77.7971 195.01Z" fill="#1F1F23"/>
<path fill-rule="evenodd" clip-rule="evenodd" d="M67.4438 163.485C67.2006 163.284 66.8451 163.309 66.6325 163.536L66.6077 163.565L59.4988 172.178C59.2901 172.431 59.3259 172.805 59.5788 173.014C59.8221 173.215 60.1775 173.189 60.3901 172.962L60.4149 172.934L67.5238 164.321C67.7326 164.068 67.6968 163.693 67.4438 163.485Z" fill="#1F1F23"/>
<path fill-rule="evenodd" clip-rule="evenodd" d="M73.8653 163.585C73.6236 163.382 73.268 163.405 73.0537 163.63L73.0287 163.658L58.9257 180.485C58.7151 180.737 58.748 181.111 58.9994 181.322C59.2411 181.524 59.5968 181.502 59.8111 181.276L59.8361 181.248L73.939 164.421C74.1497 164.17 74.1167 163.795 73.8653 163.585Z" fill="#1F1F23"/>
<path fill-rule="evenodd" clip-rule="evenodd" d="M80.873 163.486C80.6302 163.284 80.2747 163.309 80.0616 163.535L80.0367 163.563L57.6826 190.506C57.4732 190.759 57.508 191.133 57.7604 191.343C58.0032 191.544 58.3587 191.519 58.5718 191.293L58.5967 191.265L80.9508 164.322C81.1602 164.069 81.1254 163.695 80.873 163.486Z" fill="#1F1F23"/>
<path fill-rule="evenodd" clip-rule="evenodd" d="M87.7483 163.583C87.5056 163.381 87.1501 163.406 86.9369 163.632L86.9121 163.661L57.7975 198.75C57.5881 199.002 57.6229 199.376 57.8753 199.586C58.118 199.787 58.4736 199.763 58.6867 199.536L58.7116 199.508L87.8262 164.419C88.0356 164.167 88.0008 163.792 87.7483 163.583Z" fill="#1F1F23"/>
<path fill-rule="evenodd" clip-rule="evenodd" d="M80.6709 163.656C80.4678 163.399 80.0943 163.354 79.8368 163.558C79.5892 163.753 79.539 164.106 79.7161 164.362L79.7384 164.392L84.7865 170.79C84.9897 171.047 85.3631 171.092 85.6206 170.888C85.8682 170.693 85.9185 170.34 85.7414 170.084L85.719 170.054L80.6709 163.656Z" fill="#1F1F23"/>
<path fill-rule="evenodd" clip-rule="evenodd" d="M74.2945 163.409C74.0913 163.151 73.7179 163.107 73.4604 163.31C73.2128 163.506 73.1626 163.858 73.3397 164.114L73.3621 164.144L83.1811 176.588C83.3842 176.846 83.7577 176.89 84.0152 176.687C84.2628 176.491 84.313 176.139 84.1359 175.883L84.1135 175.853L74.2945 163.409Z" fill="#1F1F23"/>
<path fill-rule="evenodd" clip-rule="evenodd" d="M67.3368 163.573C67.1326 163.316 66.759 163.274 66.5023 163.478C66.2554 163.674 66.2065 164.027 66.3845 164.282L66.407 164.312L81.1474 182.854C81.3515 183.11 81.7251 183.153 81.9818 182.949C82.2287 182.753 82.2777 182.4 82.0996 182.145L82.0771 182.114L67.3368 163.573Z" fill="#1F1F23"/>
<path fill-rule="evenodd" clip-rule="evenodd" d="M60.0396 168.977C59.7944 168.778 59.4392 168.807 59.2289 169.036L59.2043 169.065L32.883 201.59C32.6767 201.845 32.7161 202.219 32.9711 202.425C33.2163 202.624 33.5714 202.595 33.7818 202.366L33.8064 202.337L60.1276 169.812C60.334 169.557 60.2945 169.183 60.0396 168.977Z" fill="#1F1F23"/>
<path fill-rule="evenodd" clip-rule="evenodd" d="M59.4634 179.007C59.2182 178.809 58.8631 178.838 58.6527 179.067L58.6281 179.095L40.5323 201.457C40.3259 201.712 40.3654 202.086 40.6203 202.293C40.8655 202.491 41.2207 202.462 41.4311 202.233L41.4556 202.205L59.5515 179.843C59.7578 179.588 59.7184 179.214 59.4634 179.007Z" fill="#1F1F23"/>
<path fill-rule="evenodd" clip-rule="evenodd" d="M59.0793 188.603C58.8342 188.404 58.479 188.433 58.2686 188.662L58.2441 188.691L47.944 201.42C47.7377 201.675 47.7772 202.049 48.0321 202.255C48.2773 202.453 48.6325 202.425 48.8429 202.195L48.8674 202.167L59.1674 189.438C59.3738 189.183 59.3343 188.809 59.0793 188.603Z" fill="#1F1F23"/>
<path fill-rule="evenodd" clip-rule="evenodd" d="M58.5329 197.465C58.2877 197.267 57.9325 197.296 57.7222 197.525L57.6976 197.554L54.5401 201.457C54.3338 201.713 54.3734 202.086 54.6284 202.293C54.8736 202.491 55.2288 202.462 55.4391 202.233L55.4636 202.204L58.6211 198.301C58.8274 198.046 58.7879 197.672 58.5329 197.465Z" fill="#1F1F23"/>
<path fill-rule="evenodd" clip-rule="evenodd" d="M57.2511 163.485C57.008 163.284 56.6525 163.309 56.4398 163.536L56.4149 163.564L28.7812 196.988C28.5722 197.241 28.6077 197.616 28.8605 197.825C29.1035 198.026 29.459 198 29.6718 197.773L29.6966 197.745L57.3304 164.321C57.5394 164.068 57.5039 163.694 57.2511 163.485Z" fill="#1F1F23"/>
<path fill-rule="evenodd" clip-rule="evenodd" d="M25.7143 167.479C25.5072 167.225 25.1331 167.187 24.8788 167.394C24.6342 167.593 24.5894 167.947 24.7704 168.2L24.7932 168.229L52.2726 201.98C52.4797 202.235 52.8537 202.273 53.1081 202.066C53.3527 201.867 53.3975 201.513 53.2165 201.26L53.1937 201.23L25.7143 167.479Z" fill="#1F1F23"/>
<path fill-rule="evenodd" clip-rule="evenodd" d="M27.2259 178.664C27.0196 178.409 26.6456 178.369 26.3907 178.576C26.1455 178.774 26.0996 179.127 26.2798 179.381L26.3026 179.411L44.6597 202.098C44.8661 202.353 45.24 202.392 45.495 202.186C45.7402 201.987 45.7861 201.634 45.6058 201.38L45.5831 201.35L27.2259 178.664Z" fill="#1F1F23"/>
<path fill-rule="evenodd" clip-rule="evenodd" d="M29.0036 189.983C28.7973 189.728 28.4233 189.689 28.1684 189.895C27.9232 190.094 27.8774 190.447 28.0576 190.701L28.0804 190.731L37.4737 202.337C37.6801 202.592 38.054 202.632 38.309 202.425C38.5542 202.227 38.6 201.874 38.4198 201.62L38.397 201.59L29.0036 189.983Z" fill="#1F1F23"/>
<path fill-rule="evenodd" clip-rule="evenodd" d="M30.0311 199.442C29.8248 199.187 29.4508 199.148 29.1959 199.354C28.9507 199.553 28.9048 199.906 29.0851 200.159L29.1078 200.189L30.8459 202.337C31.0522 202.592 31.4262 202.632 31.6812 202.425C31.9263 202.227 31.9722 201.874 31.792 201.62L31.7692 201.59L30.0311 199.442Z" fill="#1F1F23"/>
<path fill-rule="evenodd" clip-rule="evenodd" d="M48.9201 163.372C48.6969 163.132 48.3211 163.118 48.0808 163.341C47.8497 163.556 47.828 163.912 48.0251 164.152L48.0498 164.181L59.0962 176.072C59.3195 176.313 59.6952 176.326 59.9355 176.103C60.1666 175.889 60.1883 175.533 59.9912 175.292L59.9665 175.264L48.9201 163.372Z" fill="#1F1F23"/>
<path fill-rule="evenodd" clip-rule="evenodd" d="M55.2769 163.807C55.0458 163.575 54.6697 163.573 54.437 163.804C54.2136 164.026 54.2034 164.382 54.4075 164.616L54.4341 164.644L59.2446 169.488C59.4757 169.721 59.8517 169.722 60.0845 169.491C60.3079 169.269 60.318 168.914 60.114 168.68L60.0874 168.651L55.2769 163.807Z" fill="#1F1F23"/>
<path fill-rule="evenodd" clip-rule="evenodd" d="M43.5272 163.394C43.3162 163.143 42.9416 163.111 42.6905 163.322C42.449 163.525 42.4097 163.879 42.5946 164.129L42.6179 164.158L58.6351 183.218C58.8462 183.47 59.2208 183.502 59.4719 183.291C59.7133 183.088 59.7527 182.734 59.5677 182.484L59.5445 182.454L43.5272 163.394Z" fill="#1F1F23"/>
<path fill-rule="evenodd" clip-rule="evenodd" d="M37.1869 163.568C36.9801 163.314 36.6061 163.275 36.3515 163.482C36.1066 163.68 36.0613 164.034 36.242 164.287L36.2648 164.317L57.8627 190.913C58.0694 191.168 58.4435 191.207 58.6981 191C58.9429 190.801 58.9882 190.448 58.8075 190.195L58.7847 190.165L37.1869 163.568Z" fill="#1F1F23"/>
<path fill-rule="evenodd" clip-rule="evenodd" d="M28.7612 163.637C28.5478 163.388 28.1728 163.36 27.9238 163.573C27.6844 163.778 27.6485 164.133 27.8359 164.381L27.8595 164.41L57.657 199.167C57.8705 199.416 58.2454 199.445 58.4944 199.231C58.7339 199.026 58.7697 198.671 58.5823 198.423L58.5588 198.394L28.7612 163.637Z" fill="#1F1F23"/>
<path fill-rule="evenodd" clip-rule="evenodd" d="M36.652 163.335C36.4069 163.136 36.0517 163.165 35.8413 163.394L35.8168 163.423L26.3937 175.065C26.1873 175.32 26.2267 175.694 26.4817 175.9C26.7268 176.099 27.082 176.07 27.2924 175.841L27.317 175.812L36.74 164.17C36.9464 163.915 36.907 163.541 36.652 163.335Z" fill="#1F1F23"/>
<path fill-rule="evenodd" clip-rule="evenodd" d="M30.0678 163.562C29.8226 163.364 29.4675 163.393 29.2571 163.622L29.2325 163.65L25.1485 168.696C24.9422 168.951 24.9816 169.325 25.2366 169.532C25.4817 169.73 25.8369 169.701 26.0473 169.472L26.0718 169.444L30.1558 164.398C30.3622 164.143 30.3228 163.769 30.0678 163.562Z" fill="#1F1F23"/>
<path fill-rule="evenodd" clip-rule="evenodd" d="M42.8938 163.335C42.6487 163.136 42.2935 163.165 42.0831 163.394L42.0586 163.423L26.8352 182.233C26.6288 182.488 26.6682 182.862 26.9232 183.068C27.1683 183.267 27.5235 183.238 27.7339 183.009L27.7585 182.98L42.9819 164.17C43.1882 163.915 43.1488 163.541 42.8938 163.335Z" fill="#1F1F23"/>
<path fill-rule="evenodd" clip-rule="evenodd" d="M49.6623 163.62C49.4171 163.421 49.0619 163.45 48.8515 163.679L48.827 163.708L28.0804 189.344C27.8741 189.599 27.9135 189.973 28.1684 190.179C28.4136 190.378 28.7688 190.349 28.9792 190.12L29.0037 190.091L49.7503 164.455C49.9566 164.2 49.9172 163.826 49.6623 163.62Z" fill="#1F1F23"/>
<path fill-rule="evenodd" clip-rule="evenodd" d="M25.2941 163.713C25.2502 163.388 24.9511 163.16 24.6261 163.204C24.3127 163.246 24.0895 163.526 24.1133 163.837L24.117 163.872L29.2522 201.91C29.2961 202.235 29.5951 202.463 29.9202 202.42C30.2336 202.377 30.4568 202.098 30.433 201.786L30.4293 201.752L25.2941 163.713Z" fill="#1F1F23"/>
<path fill-rule="evenodd" clip-rule="evenodd" d="M60.2845 163.431C59.9688 163.412 59.6956 163.643 59.6584 163.953L59.6552 163.987L57.3509 201.414C57.3308 201.742 57.5798 202.024 57.9072 202.044C58.2229 202.063 58.4961 201.832 58.5333 201.522L58.5365 201.487L60.8408 164.06C60.8609 163.733 60.6119 163.451 60.2845 163.431Z" fill="#1F1F23"/>
<path fill-rule="evenodd" clip-rule="evenodd" d="M21.3421 157.509C20.4301 157.509 19.5555 157.871 18.9106 158.516C18.2657 159.161 17.9034 160.035 17.9034 160.947C17.9034 162.825 19.4082 164.351 21.2775 164.386L21.3421 164.386H60.9348C61.2628 164.386 61.5287 164.12 61.5287 163.792C61.5287 163.476 61.2815 163.217 60.9697 163.199L60.9348 163.198H21.3421C20.099 163.198 19.0912 162.191 19.0912 160.947C19.0912 160.351 19.3284 159.778 19.7505 159.356C20.1564 158.95 20.7013 158.715 21.2733 158.698L21.3421 158.697L87.5336 158.697C88.0454 158.695 88.5425 158.867 88.9426 159.187C89.199 159.391 89.5727 159.349 89.7772 159.093C89.9818 158.836 89.9397 158.463 89.6833 158.258C89.0934 157.788 88.3656 157.525 87.6148 157.51L87.5313 157.509H21.3421Z" fill="#1F1F23"/>
<path fill-rule="evenodd" clip-rule="evenodd" d="M60.931 163.198C60.603 163.198 60.3371 163.464 60.3371 163.792C60.3371 164.109 60.5843 164.367 60.8961 164.385L60.931 164.386H87.5373C87.8653 164.386 88.1312 164.12 88.1312 163.792C88.1312 163.476 87.884 163.217 87.5722 163.199L87.5373 163.198H60.931Z" fill="#1F1F23"/>
<path fill-rule="evenodd" clip-rule="evenodd" d="M417.941 199.77C418.328 199.768 418.642 200.203 418.644 200.742C418.645 201.262 418.355 201.689 417.988 201.72L417.947 201.722L2.70221 204C2.31591 204.002 2.00152 203.567 2.00001 203.028C1.99854 202.508 2.28853 202.081 2.65562 202.05L2.69671 202.048L417.941 199.77Z" fill="#2E186A"/>
<path fill-rule="evenodd" clip-rule="evenodd" d="M396.218 121.225C396.471 121.022 396.84 121.063 397.042 121.316C397.245 121.569 397.204 121.938 396.951 122.14L396.882 122.198L396.837 122.236C396.75 122.31 396.652 122.398 396.541 122.499L396.485 122.551C396.101 122.908 395.671 123.34 395.207 123.849C393.875 125.309 392.54 127.088 391.294 129.193C388.859 133.304 387.065 138.136 386.181 143.716C385.087 150.618 385.448 158.32 387.537 166.852C387.614 167.167 387.422 167.484 387.107 167.561C386.792 167.638 386.475 167.446 386.398 167.131C384.272 158.45 383.904 150.59 385.023 143.533C385.931 137.802 387.777 132.831 390.284 128.596C391.573 126.419 392.956 124.576 394.34 123.058C394.792 122.563 395.215 122.135 395.6 121.773L395.688 121.691C395.936 121.461 396.117 121.306 396.218 121.225Z" fill="#1F1F23"/>
<path fill-rule="evenodd" clip-rule="evenodd" d="M390.193 159.153C389.743 158.762 389.528 158.196 389.587 157.609C390.818 146.272 395.939 134.603 403.914 130.322C412.104 125.924 417.695 138.141 406.338 149.478C397.796 158.02 393.222 159.407 391.483 159.583C391.014 159.622 390.544 159.466 390.193 159.153Z" fill="#FFD9C1"/>
<path fill-rule="evenodd" clip-rule="evenodd" d="M372.221 156.536C375.584 156.826 378.238 158.669 380.253 161.534C381.016 162.619 381.633 163.778 382.119 164.936C382.27 165.297 382.399 165.636 382.506 165.945L382.546 166.06C382.615 166.267 382.661 166.418 382.685 166.503C382.771 166.815 382.588 167.138 382.276 167.224C381.975 167.308 381.664 167.141 381.565 166.849L381.527 166.723L381.494 166.618C381.476 166.562 381.457 166.501 381.434 166.435C381.328 166.121 381.196 165.769 381.037 165.39C380.582 164.304 380.004 163.219 379.294 162.209C377.462 159.604 375.096 157.961 372.12 157.705C371.798 157.677 371.559 157.393 371.586 157.07C371.613 156.759 371.878 156.526 372.187 156.534L372.221 156.536Z" fill="#1F1F23"/>
<path fill-rule="evenodd" clip-rule="evenodd" d="M410.975 130.904C411.195 131.124 411.204 131.475 411.001 131.705L410.958 131.751L410.728 131.984L410.514 132.204C410.414 132.307 410.307 132.418 410.195 132.535L410.022 132.715C409.26 133.513 408.411 134.426 407.496 135.439C404.883 138.334 402.269 141.451 399.83 144.67C396.927 148.503 394.472 152.222 392.606 155.728C392.014 156.84 391.485 157.924 391.023 158.978C390.893 159.275 390.547 159.41 390.25 159.28C389.954 159.15 389.819 158.804 389.949 158.507C390.423 157.425 390.965 156.314 391.571 155.177C393.469 151.61 395.958 147.841 398.895 143.962C401.356 140.714 403.991 137.572 406.626 134.653L406.949 134.297C407.695 133.475 408.395 132.723 409.037 132.049L409.433 131.635C409.572 131.491 409.701 131.358 409.819 131.236L410.145 130.905C410.374 130.675 410.745 130.675 410.975 130.904Z" fill="#1F1F23"/>
<path fill-rule="evenodd" clip-rule="evenodd" d="M406.575 146.363L406.776 146.353C407.168 146.334 407.502 146.327 407.772 146.328L408.038 146.331C408.362 146.342 408.616 146.613 408.605 146.937C408.595 147.249 408.342 147.496 408.034 147.504L407.943 147.502C407.632 147.497 407.192 147.504 406.638 147.534C405.807 147.578 404.899 147.666 403.931 147.806C401.274 148.191 398.589 148.908 396.018 150.035C395.722 150.165 395.376 150.03 395.246 149.733C395.116 149.436 395.251 149.09 395.547 148.96C398.222 147.788 401.007 147.045 403.763 146.646C404.767 146.5 405.71 146.409 406.575 146.363Z" fill="#1F1F23"/>
<path fill-rule="evenodd" clip-rule="evenodd" d="M401.425 132.234C401.707 132.391 401.809 132.749 401.651 133.031L401.514 133.28C401.47 133.362 401.421 133.452 401.368 133.55L401.177 133.906C401.003 134.234 400.815 134.592 400.617 134.975C399.84 136.482 399.062 138.079 398.337 139.695C397.764 140.973 397.246 142.212 396.8 143.391L396.687 143.69C395.505 146.87 394.919 149.424 395.077 151.083C395.108 151.406 394.871 151.692 394.549 151.723C394.226 151.754 393.94 151.517 393.909 151.195C393.724 149.254 394.386 146.452 395.703 142.975C396.159 141.773 396.684 140.513 397.267 139.215C398.002 137.578 398.788 135.962 399.575 134.437L399.796 134.012C399.964 133.69 400.124 133.389 400.273 133.111L400.485 132.718L400.627 132.46C400.785 132.177 401.142 132.076 401.425 132.234Z" fill="#1F1F23"/>
<path fill-rule="evenodd" clip-rule="evenodd" d="M398.578 153.427C399.399 153.358 400.112 153.337 400.661 153.344L400.847 153.348C401.171 153.36 401.424 153.632 401.412 153.956C401.401 154.268 401.148 154.514 400.839 154.521L400.724 154.518C400.203 154.508 399.497 154.526 398.676 154.596C397.437 154.7 396.215 154.901 395.078 155.22C394.006 155.52 393.057 155.913 392.261 156.407C391.986 156.578 391.624 156.493 391.454 156.218C391.283 155.942 391.368 155.581 391.643 155.41C392.541 154.854 393.59 154.419 394.761 154.09C395.976 153.75 397.27 153.537 398.578 153.427Z" fill="#1F1F23"/>
<path fill-rule="evenodd" clip-rule="evenodd" d="M380.068 148.794C379.462 149.224 378.758 149.282 378.211 148.989C367.519 143.106 358.488 132.12 358.351 120.275C358.195 108.098 373.324 105.537 378.777 124.419C382.882 138.629 381.905 145.021 381.162 147.308C380.947 147.894 380.556 148.442 380.068 148.794Z" fill="#FFD9C1"/>
<path fill-rule="evenodd" clip-rule="evenodd" d="M361.999 112.412C362.153 112.127 362.509 112.021 362.794 112.175C367.81 114.888 371.859 121.204 375.089 130.037C376.612 134.2 377.851 138.656 378.83 143.111L378.942 143.627C379.199 144.82 379.421 145.943 379.611 146.979L379.69 147.418C379.771 147.873 379.84 148.278 379.896 148.627L379.964 149.06C380.011 149.381 379.789 149.679 379.469 149.726C379.148 149.773 378.85 149.551 378.803 149.231L378.749 148.884L378.703 148.602C378.661 148.346 378.613 148.064 378.559 147.757L378.535 147.624C378.306 146.339 378.024 144.906 377.685 143.363C376.716 138.955 375.49 134.549 373.988 130.44C370.848 121.854 366.933 115.747 362.236 113.207C361.951 113.053 361.845 112.697 361.999 112.412Z" fill="#1F1F23"/>
<path fill-rule="evenodd" clip-rule="evenodd" d="M358.423 121.852C358.555 121.557 358.903 121.425 359.198 121.558C361.593 122.636 364.329 123.976 366.988 125.456L367.33 125.647C371.073 127.753 373.953 129.761 375.615 131.589C375.833 131.829 375.815 132.2 375.575 132.418C375.336 132.635 374.965 132.618 374.747 132.378C373.143 130.614 370.223 128.598 366.418 126.481C363.792 125.02 361.083 123.693 358.717 122.628C358.421 122.495 358.29 122.148 358.423 121.852Z" fill="#1F1F23"/>
<path fill-rule="evenodd" clip-rule="evenodd" d="M378.078 123.679C378.4 123.649 378.686 123.886 378.716 124.208C378.971 126.933 379.101 129.566 379.039 131.87L379.03 132.154C378.929 135.111 378.507 137.24 377.641 138.378C377.445 138.636 377.077 138.686 376.82 138.49C376.562 138.294 376.512 137.926 376.708 137.668C378.009 135.958 378.149 130.746 377.548 124.317C377.518 123.995 377.755 123.709 378.078 123.679Z" fill="#1F1F23"/>
<path fill-rule="evenodd" clip-rule="evenodd" d="M363.349 135.387C363.553 135.135 363.922 135.097 364.174 135.301C365.53 136.399 367.535 137.563 370.01 138.745C371.746 139.575 373.608 140.364 375.472 141.087L375.794 141.211C376.218 141.374 376.62 141.524 376.996 141.662L377.505 141.846L377.951 142.004C378.257 142.109 378.421 142.442 378.316 142.749C378.214 143.044 377.901 143.206 377.604 143.123L377.5 143.089L377.254 143.002C377.185 142.977 377.111 142.951 377.034 142.923L376.593 142.763C376.116 142.589 375.598 142.394 375.048 142.18C373.159 141.448 371.27 140.647 369.504 139.804L369.167 139.641C366.77 138.478 364.814 137.328 363.436 136.212C363.184 136.008 363.145 135.639 363.349 135.387Z" fill="#1F1F23"/>
<path fill-rule="evenodd" clip-rule="evenodd" d="M373.363 154.074C373.587 152.427 373.334 151.033 372.8 150.96C372.265 150.888 371.65 152.164 371.427 153.812C371.203 155.459 371.456 156.853 371.99 156.926C372.525 156.998 373.14 155.722 373.363 154.074Z" fill="#FFA943"/>
<path fill-rule="evenodd" clip-rule="evenodd" d="M372.002 156.92C372.318 156.537 371.629 155.447 370.463 154.485C369.297 153.523 368.096 153.054 367.78 153.437C367.464 153.82 368.153 154.91 369.319 155.872C370.485 156.834 371.686 157.303 372.002 156.92Z" fill="#FFA943"/>
<path fill-rule="evenodd" clip-rule="evenodd" d="M375.107 156.347C376.561 155.586 377.532 154.573 377.276 154.085C377.021 153.598 375.635 153.82 374.182 154.581C372.729 155.343 371.758 156.356 372.013 156.844C372.269 157.331 373.654 157.109 375.107 156.347Z" fill="#FFA943"/>
<path fill-rule="evenodd" clip-rule="evenodd" d="M370.038 159.011C371.363 158.284 372.244 157.342 372.005 156.906C371.766 156.471 370.498 156.707 369.173 157.434C367.848 158.16 366.967 159.103 367.206 159.538C367.445 159.973 368.713 159.737 370.038 159.011Z" fill="#FFA943"/>
<path fill-rule="evenodd" clip-rule="evenodd" d="M374.303 161.926C374.754 161.72 374.608 160.43 373.977 159.045C373.345 157.661 372.466 156.705 372.015 156.911C371.563 157.117 371.709 158.407 372.341 159.792C372.972 161.177 373.851 162.132 374.303 161.926Z" fill="#FFA943"/>
<path fill-rule="evenodd" clip-rule="evenodd" d="M398.898 120.154C399.992 118.243 400.128 116.264 399.2 115.732C398.273 115.201 396.634 116.32 395.539 118.231C394.445 120.142 394.309 122.122 395.237 122.653C396.164 123.184 397.803 122.066 398.898 120.154Z" fill="#FFA943"/>
<path fill-rule="evenodd" clip-rule="evenodd" d="M398.971 124.497C401.152 124.453 402.901 123.542 402.879 122.463C402.857 121.383 401.072 120.544 398.892 120.589C396.712 120.633 394.962 121.544 394.984 122.623C395.006 123.702 396.791 124.541 398.971 124.497Z" fill="#FFA943"/>
<path fill-rule="evenodd" clip-rule="evenodd" d="M394.964 122.698C395.735 122.125 395.41 120.382 394.238 118.805C393.066 117.228 391.491 116.415 390.72 116.988C389.949 117.561 390.274 119.304 391.446 120.881C392.617 122.457 394.193 123.271 394.964 122.698Z" fill="#FFA943"/>
<path fill-rule="evenodd" clip-rule="evenodd" d="M396.385 125.804C397.186 124.01 397.131 122.241 396.263 121.854C395.396 121.467 394.044 122.608 393.243 124.403C392.443 126.197 392.497 127.965 393.365 128.352C394.232 128.739 395.585 127.599 396.385 125.804Z" fill="#FFA943"/>
<path fill-rule="evenodd" clip-rule="evenodd" d="M393.618 124.188C395.367 123.999 396.709 123.142 396.615 122.272C396.522 121.403 395.028 120.851 393.278 121.04C391.529 121.228 390.186 122.086 390.28 122.955C390.374 123.825 391.868 124.376 393.618 124.188Z" fill="#FFA943"/>
<path fill-rule="evenodd" clip-rule="evenodd" d="M402.976 168.594L395.744 201.354H372.777L365.544 168.594C365.134 166.718 366.307 164.88 367.91 164.88H400.631C402.233 164.9 403.406 166.737 402.976 168.594Z" fill="white"/>
<path fill-rule="evenodd" clip-rule="evenodd" d="M400.638 164.294L367.909 164.294C365.897 164.294 364.487 166.506 364.972 168.72L372.204 201.481C372.263 201.749 372.501 201.941 372.777 201.941H395.744C396.019 201.941 396.257 201.749 396.316 201.481L403.549 168.721C404.055 166.535 402.65 164.319 400.638 164.294ZM400.63 165.467L400.67 165.468C401.833 165.518 402.727 166.931 402.418 168.403L395.273 200.768H373.248L366.117 168.468C365.781 166.932 366.715 165.467 367.91 165.467H400.63Z" fill="#1F1F23"/>
<path d="M337.03 199.404H85.6912C80.1621 199.404 75.6838 194.927 75.6838 189.399V25.322C75.6838 22.3829 78.0672 20 81.0069 20H342.401C344.956 20 347.03 22.0739 347.03 24.6285V189.405C347.037 194.927 342.559 199.404 337.03 199.404Z" fill="#6E43D4"/>
<path d="M348.899 201.835H73.7608C68.5545 201.835 64.3373 197.618 64.3373 192.413V186.137H358.322V192.413C358.329 197.618 354.105 201.835 348.899 201.835Z" fill="#6E43D4"/>
<path d="M338.994 27.128H82.9713V178.631H338.994V27.128Z" fill="white"/>
<path d="M184.612 186.137L188.259 191.939H239.594L242.98 186.137H184.612Z" fill="white"/>
<path d="M347.085 186.082H75.7321V186.947H347.085V186.082Z" fill="white"/>
<path d="M351.097 30.8365H107.753V174.531H351.097V30.8365Z" fill="#F4F4F4"/>
<path fill-rule="evenodd" clip-rule="evenodd" d="M118.619 99.3984C120.583 100.868 122.314 102.571 123.784 104.46L130.384 103.258L134.739 113.462L129.306 117.39C129.65 119.76 129.684 122.19 129.389 124.621L134.904 128.433L130.762 138.733L124.141 137.669C122.678 139.633 120.968 141.364 119.079 142.833L120.281 149.432L110.074 153.786L106.146 148.354C103.776 148.698 101.344 148.732 98.913 148.43L95.101 153.944L84.8052 149.81L85.8698 143.19C83.9054 141.727 82.1745 140.018 80.7047 138.129L74.1041 139.331L69.7494 129.126L75.1824 125.198C74.839 122.829 74.8047 120.398 75.1 117.967L69.5846 114.156L73.7194 103.862L80.3406 104.927C81.8036 102.962 83.5139 101.232 85.4027 99.7624L84.2007 93.1631L94.4073 88.8093L98.3361 94.2412C100.706 93.8979 103.137 93.8635 105.569 94.1588L109.381 88.6445L119.676 92.7785L118.619 99.3984ZM107.148 110.441C101.049 107.989 94.1188 110.949 91.6668 117.047C89.2147 123.145 92.175 130.074 98.2743 132.526C104.373 134.977 111.304 132.017 113.756 125.919C116.208 119.821 113.248 112.892 107.148 110.441Z" fill="#E4E3FC"/>
<g opacity="0.3">
<g opacity="0.3">
<g opacity="0.3">
<g opacity="0.3">
<g opacity="0.3">
<path opacity="0.3" fill-rule="evenodd" clip-rule="evenodd" d="M118.619 99.3984C120.583 100.868 122.314 102.571 123.784 104.46L130.384 103.258L134.739 113.462L129.306 117.39C129.65 119.76 129.684 122.19 129.389 124.621L134.904 128.433L130.762 138.733L124.141 137.669C122.678 139.633 120.968 141.364 119.079 142.833L120.281 149.432L110.074 153.786L106.146 148.354C103.776 148.698 101.344 148.732 98.913 148.43L95.101 153.944L84.8052 149.81L85.8698 143.19C83.9054 141.727 82.1745 140.018 80.7047 138.129L74.1041 139.331L69.7494 129.126L75.1824 125.198C74.839 122.829 74.8047 120.398 75.1 117.967L69.5846 114.156L73.7194 103.862L80.3406 104.927C81.8036 102.962 83.5139 101.232 85.4027 99.7624L84.2007 93.1631L94.4073 88.8093L98.3361 94.2412C100.706 93.8979 103.137 93.8635 105.569 94.1588L109.381 88.6445L119.676 92.7785L118.619 99.3984ZM107.148 110.441C101.049 107.989 94.1188 110.949 91.6668 117.047C89.2147 123.145 92.175 130.074 98.2743 132.526C104.373 134.977 111.304 132.017 113.756 125.919C116.208 119.821 113.248 112.892 107.148 110.441Z" fill="black"/>
</g>
</g>
</g>
</g>
</g>
<path fill-rule="evenodd" clip-rule="evenodd" d="M117.053 53.4913C118.138 54.3017 119.1 55.2493 119.917 56.2931L123.571 55.627L125.982 61.2787L122.973 63.4556C123.166 64.7672 123.186 66.1132 123.015 67.4591L126.071 69.5673L123.777 75.2671L120.109 74.6765C119.299 75.7615 118.351 76.7229 117.307 77.5401L117.973 81.1934L112.32 83.6038L110.143 80.5959C108.831 80.7882 107.485 80.802 106.139 80.6372L104.03 83.693L98.3292 81.4063L98.9199 77.7392C97.8347 76.9289 96.8731 75.9812 96.0557 74.9374L92.4017 75.6035L89.9909 69.9519L92.9993 67.775C92.8069 66.4634 92.7932 65.1174 92.9581 63.7715L89.9084 61.6632L92.1957 55.9635L95.8634 56.5541C96.6739 55.4691 97.6218 54.5077 98.6658 53.6905L97.9995 50.0372L103.652 47.6268L105.83 50.6346C107.141 50.4423 108.488 50.4217 109.834 50.5934L111.943 47.5375L117.643 49.8243L117.053 53.4913ZM110.699 59.6031C107.32 58.2434 103.481 59.8847 102.127 63.2633C100.768 66.6419 102.409 70.4807 105.788 71.8335C109.168 73.1932 113.007 71.5519 114.36 68.1733C115.72 64.7947 114.079 60.9559 110.699 59.6031Z" fill="#E4E3FC"/>
<g opacity="0.2">
<g opacity="0.2">
<g opacity="0.2">
<g opacity="0.2">
<g opacity="0.2">
<path opacity="0.2" fill-rule="evenodd" clip-rule="evenodd" d="M117.053 53.4913C118.138 54.3017 119.1 55.2493 119.917 56.2931L123.571 55.627L125.982 61.2787L122.973 63.4556C123.166 64.7672 123.186 66.1132 123.015 67.4591L126.071 69.5673L123.777 75.2671L120.109 74.6765C119.299 75.7615 118.351 76.7229 117.307 77.5401L117.973 81.1934L112.32 83.6038L110.143 80.5959C108.831 80.7882 107.485 80.802 106.139 80.6372L104.03 83.693L98.3292 81.4063L98.9199 77.7392C97.8347 76.9289 96.8731 75.9812 96.0557 74.9374L92.4017 75.6035L89.9909 69.9519L92.9993 67.775C92.8069 66.4634 92.7932 65.1174 92.9581 63.7715L89.9084 61.6632L92.1957 55.9635L95.8634 56.5541C96.6739 55.4691 97.6218 54.5077 98.6658 53.6905L97.9995 50.0372L103.652 47.6268L105.83 50.6346C107.141 50.4423 108.488 50.4217 109.834 50.5934L111.943 47.5375L117.643 49.8243L117.053 53.4913ZM110.699 59.6031C107.32 58.2434 103.481 59.8847 102.127 63.2633C100.768 66.6419 102.409 70.4807 105.788 71.8335C109.168 73.1932 113.007 71.5519 114.36 68.1733C115.72 64.7947 114.079 60.9559 110.699 59.6031Z" fill="white"/>
</g>
</g>
</g>
</g>
</g>
<rect x="115.356" y="34.924" width="245.575" height="139.458" fill="white"/>
<path fill-rule="evenodd" clip-rule="evenodd" d="M360.07 34.9244H116.315C115.786 34.9244 115.357 35.2184 115.357 35.5812V173.813C115.357 174.176 115.786 174.47 116.315 174.47H360.07C360.6 174.47 361.029 174.176 361.029 173.813V35.5812C361.029 35.2184 360.6 34.9244 360.07 34.9244ZM359.753 36.1996V173.195H116.632V36.1996H359.753Z" fill="#2E2D2D"/>
<path fill-rule="evenodd" clip-rule="evenodd" d="M124.297 44.0401C125.556 44.0401 126.576 43.0198 126.576 41.7611C126.576 40.5025 125.556 39.4821 124.297 39.4821C123.038 39.4821 122.018 40.5025 122.018 41.7611C122.018 43.0198 123.038 44.0401 124.297 44.0401Z" fill="#FF863D"/>
<path fill-rule="evenodd" clip-rule="evenodd" d="M133.193 44.0401C134.452 44.0401 135.472 43.0198 135.472 41.7611C135.472 40.5025 134.452 39.4821 133.193 39.4821C131.934 39.4821 130.914 40.5025 130.914 41.7611C130.914 43.0198 131.934 44.0401 133.193 44.0401Z" fill="#A0DE1C"/>
<path fill-rule="evenodd" clip-rule="evenodd" d="M142.073 44.0401C143.332 44.0401 144.352 43.0198 144.352 41.7611C144.352 40.5025 143.332 39.4821 142.073 39.4821C140.815 39.4821 139.794 40.5025 139.794 41.7611C139.794 43.0198 140.815 44.0401 142.073 44.0401Z" fill="#EFC901"/>
<path fill-rule="evenodd" clip-rule="evenodd" d="M282.619 47.1954L284.118 47.1963L284.018 174.47L282.519 174.469L282.619 47.1954Z" fill="#1F1F23"/>
<path fill-rule="evenodd" clip-rule="evenodd" d="M360.225 46.8449C360.598 46.8449 360.901 47.1589 360.901 47.5461C360.901 47.9196 360.62 48.2249 360.265 48.2462L360.225 48.2474H116.032C115.659 48.2474 115.356 47.9334 115.356 47.5461C115.356 47.1727 115.638 46.8674 115.993 46.8461L116.032 46.8449H360.225Z" fill="#1F1F23"/>
<path fill-rule="evenodd" clip-rule="evenodd" d="M313.122 70.1286H312.685C312.21 70.1286 311.849 69.7485 311.849 69.2923V68.0569C311.849 67.5817 312.229 67.2206 312.685 67.2206H313.122C313.597 67.2206 313.958 67.6007 313.958 68.0569V69.2923C313.977 69.7485 313.597 70.1286 313.122 70.1286Z" fill="#FFA943"/>
<path fill-rule="evenodd" clip-rule="evenodd" d="M313.122 145.769H312.685C312.21 145.769 311.849 145.389 311.849 144.933V143.697C311.849 143.222 312.229 142.861 312.685 142.861H313.122C313.597 142.861 313.958 143.241 313.958 143.697V144.933C313.977 145.389 313.597 145.769 313.122 145.769Z" fill="#FFA943"/>
<path fill-rule="evenodd" clip-rule="evenodd" d="M310.081 70.1285H297.327C296.795 70.1285 296.377 69.7103 296.377 69.1782V68.1518C296.377 67.6196 296.795 67.2014 297.327 67.2014H310.081C310.613 67.2014 311.031 67.6196 311.031 68.1518V69.1782C311.031 69.6913 310.594 70.1285 310.081 70.1285Z" fill="#6E43D4"/>
<path fill-rule="evenodd" clip-rule="evenodd" d="M310.081 145.769H297.327C296.795 145.769 296.377 145.351 296.377 144.819V143.792C296.377 143.26 296.795 142.842 297.327 142.842H310.081C310.613 142.842 311.031 143.26 311.031 143.792V144.819C311.031 145.332 310.594 145.769 310.081 145.769Z" fill="#6E43D4"/>
<path fill-rule="evenodd" clip-rule="evenodd" d="M311.392 83.6805H297.308C296.776 83.6805 296.358 83.2624 296.358 82.7302V81.7038C296.358 81.1716 296.776 80.7534 297.308 80.7534H311.392C311.925 80.7534 312.343 81.1716 312.343 81.7038V82.7302C312.343 83.2624 311.925 83.6805 311.392 83.6805Z" fill="#6E43D4"/>
<path fill-rule="evenodd" clip-rule="evenodd" d="M311.392 159.321H297.308C296.776 159.321 296.358 158.903 296.358 158.371V157.344C296.358 156.812 296.776 156.394 297.308 156.394H311.392C311.925 156.394 312.343 156.812 312.343 157.344V158.371C312.343 158.903 311.925 159.321 311.392 159.321Z" fill="#6E43D4"/>
<path fill-rule="evenodd" clip-rule="evenodd" d="M324.26 79.176H301.357C300.824 79.176 300.406 78.7578 300.406 78.2256V77.1993C300.406 76.6671 300.824 76.2489 301.357 76.2489H324.26C324.792 76.2489 325.21 76.6671 325.21 77.1993V78.2256C325.21 78.7388 324.773 79.176 324.26 79.176Z" fill="#FFA943"/>
<path fill-rule="evenodd" clip-rule="evenodd" d="M324.26 154.817H301.357C300.824 154.817 300.406 154.398 300.406 153.866V152.84C300.406 152.308 300.824 151.89 301.357 151.89H324.26C324.792 151.89 325.21 152.308 325.21 152.84V153.866C325.21 154.379 324.773 154.817 324.26 154.817Z" fill="#FFA943"/>
<path fill-rule="evenodd" clip-rule="evenodd" d="M320.25 63.3623H297.347C296.815 63.3623 296.396 62.9441 296.396 62.4119V61.3856C296.396 60.8534 296.815 60.4352 297.347 60.4352H320.25C320.782 60.4352 321.2 60.8534 321.2 61.3856V62.4119C321.2 62.9251 320.782 63.3623 320.25 63.3623Z" fill="#FFD9C1"/>
<path fill-rule="evenodd" clip-rule="evenodd" d="M320.25 139.003H297.347C296.815 139.003 296.397 138.585 296.397 138.053V137.026C296.397 136.494 296.815 136.076 297.347 136.076H320.25C320.782 136.076 321.201 136.494 321.201 137.026V138.053C321.201 138.566 320.782 139.003 320.25 139.003Z" fill="#FFD9C1"/>
<path fill-rule="evenodd" clip-rule="evenodd" d="M320.25 98.1447H297.346C296.814 98.1447 296.396 97.7266 296.396 97.1944V96.168C296.396 95.6358 296.814 95.2177 297.346 95.2177H320.25C320.782 95.2177 321.2 95.6358 321.2 96.168V97.1944C321.2 97.7266 320.782 98.1447 320.25 98.1447Z" fill="#FFD9C1"/>
<path fill-rule="evenodd" clip-rule="evenodd" d="M339.028 79.176H327.529C326.997 79.176 326.579 78.7578 326.579 78.2256V77.1993C326.579 76.6671 326.997 76.2489 327.529 76.2489H339.028C339.56 76.2489 339.979 76.6671 339.979 77.1993V78.2256C339.979 78.7388 339.56 79.176 339.028 79.176Z" fill="#FFD9C1"/>
<path fill-rule="evenodd" clip-rule="evenodd" d="M339.028 154.817H327.529C326.997 154.817 326.579 154.398 326.579 153.866V152.84C326.579 152.308 326.997 151.89 327.529 151.89H339.028C339.56 151.89 339.979 152.308 339.979 152.84V153.866C339.979 154.379 339.56 154.817 339.028 154.817Z" fill="#FFD9C1"/>
<path fill-rule="evenodd" clip-rule="evenodd" d="M343.666 74.6522H343.229C342.754 74.6522 342.392 74.2721 342.392 73.8159V72.5804C342.392 72.1053 342.773 71.7441 343.229 71.7441H343.666C344.141 71.7441 344.502 72.1243 344.502 72.5804V73.8159C344.521 74.2721 344.141 74.6522 343.666 74.6522Z" fill="#6E43D4"/>
<path fill-rule="evenodd" clip-rule="evenodd" d="M343.666 150.293H343.229C342.754 150.293 342.392 149.913 342.392 149.456V148.221C342.392 147.746 342.773 147.385 343.229 147.385H343.666C344.141 147.385 344.502 147.765 344.502 148.221V149.456C344.521 149.913 344.141 150.293 343.666 150.293Z" fill="#6E43D4"/>
<path fill-rule="evenodd" clip-rule="evenodd" d="M321.048 74.6524H297.308C296.776 74.6524 296.358 74.2343 296.358 73.7021V72.6757C296.358 72.1435 296.776 71.7254 297.308 71.7254H321.048C321.58 71.7254 321.998 72.1435 321.998 72.6757V73.7021C321.998 74.2153 321.58 74.6524 321.048 74.6524Z" fill="#6E43D4"/>
<path fill-rule="evenodd" clip-rule="evenodd" d="M321.048 150.293H297.308C296.776 150.293 296.358 149.875 296.358 149.343V148.316C296.358 147.784 296.776 147.366 297.308 147.366H321.048C321.58 147.366 321.998 147.784 321.998 148.316V149.343C321.998 149.856 321.58 150.293 321.048 150.293Z" fill="#6E43D4"/>
<path fill-rule="evenodd" clip-rule="evenodd" d="M328.631 70.1285H315.878C315.346 70.1285 314.927 69.7103 314.927 69.1782V68.1518C314.927 67.6196 315.346 67.2014 315.878 67.2014H328.631C329.163 67.2014 329.582 67.6196 329.582 68.1518V69.1782C329.582 69.6913 329.144 70.1285 328.631 70.1285Z" fill="#6E43D4"/>
<path fill-rule="evenodd" clip-rule="evenodd" d="M328.631 145.769H315.878C315.346 145.769 314.927 145.351 314.927 144.819V143.792C314.927 143.26 315.346 142.842 315.878 142.842H328.631C329.163 142.842 329.582 143.26 329.582 143.792V144.819C329.582 145.332 329.144 145.769 328.631 145.769Z" fill="#6E43D4"/>
<path fill-rule="evenodd" clip-rule="evenodd" d="M340.283 74.6523H324.089C323.557 74.6523 323.139 74.2341 323.139 73.702V72.6566C323.139 72.1244 323.557 71.7062 324.089 71.7062H340.283C340.815 71.7062 341.233 72.1244 341.233 72.6566V73.702C341.233 74.2341 340.815 74.6523 340.283 74.6523Z" fill="#FFA943"/>
<path fill-rule="evenodd" clip-rule="evenodd" d="M340.283 150.293H324.089C323.557 150.293 323.139 149.875 323.139 149.343V148.297C323.139 147.765 323.557 147.347 324.089 147.347H340.283C340.815 147.347 341.233 147.765 341.233 148.297V149.343C341.233 149.875 340.815 150.293 340.283 150.293Z" fill="#FFA943"/>
<path fill-rule="evenodd" clip-rule="evenodd" d="M310.081 109.625H297.327C296.795 109.625 296.377 109.207 296.377 108.674V107.648C296.377 107.116 296.795 106.698 297.327 106.698H310.081C310.613 106.698 311.031 107.116 311.031 107.648V108.674C311.031 109.207 310.594 109.625 310.081 109.625Z" fill="#6E43D4"/>
<path fill-rule="evenodd" clip-rule="evenodd" d="M311.392 123.196H297.308C296.776 123.196 296.358 122.778 296.358 122.246V121.219C296.358 120.687 296.776 120.269 297.308 120.269H311.392C311.925 120.269 312.343 120.687 312.343 121.219V122.246C312.343 122.759 311.925 123.196 311.392 123.196Z" fill="#6E43D4"/>
<path fill-rule="evenodd" clip-rule="evenodd" d="M324.26 118.672H301.357C300.824 118.672 300.406 118.254 300.406 117.722V116.696C300.406 116.163 300.824 115.745 301.357 115.745H324.26C324.792 115.745 325.21 116.163 325.21 116.696V117.722C325.21 118.254 324.773 118.672 324.26 118.672Z" fill="#FFA943"/>
<path fill-rule="evenodd" clip-rule="evenodd" d="M339.028 118.672H327.529C326.997 118.672 326.579 118.254 326.579 117.722V116.696C326.579 116.163 326.997 115.745 327.529 115.745H339.028C339.56 115.745 339.979 116.163 339.979 116.696V117.722C339.979 118.254 339.56 118.672 339.028 118.672Z" fill="#FFD9C1"/>
<path fill-rule="evenodd" clip-rule="evenodd" d="M343.666 114.168H343.229C342.754 114.168 342.392 113.787 342.392 113.331V112.096C342.392 111.621 342.773 111.259 343.229 111.259H343.666C344.141 111.259 344.502 111.64 344.502 112.096V113.331C344.521 113.787 344.141 114.168 343.666 114.168Z" fill="#6E43D4"/>
<path fill-rule="evenodd" clip-rule="evenodd" d="M347.391 109.625H346.954C346.479 109.625 346.118 109.245 346.118 108.789V107.553C346.118 107.078 346.498 106.717 346.954 106.717H347.391C347.866 106.717 348.228 107.097 348.228 107.553V108.789C348.247 109.245 347.866 109.625 347.391 109.625Z" fill="#6E43D4"/>
<path fill-rule="evenodd" clip-rule="evenodd" d="M321.048 114.149H297.308C296.776 114.149 296.358 113.73 296.358 113.198V112.172C296.358 111.64 296.776 111.222 297.308 111.222H321.048C321.58 111.222 321.998 111.64 321.998 112.172V113.198C321.998 113.73 321.58 114.149 321.048 114.149Z" fill="#6E43D4"/>
<path fill-rule="evenodd" clip-rule="evenodd" d="M328.632 109.625H312.799C312.267 109.625 311.849 109.207 311.849 108.674V107.648C311.849 107.116 312.267 106.698 312.799 106.698H328.632C329.164 106.698 329.582 107.116 329.582 107.648V108.674C329.582 109.207 329.145 109.625 328.632 109.625Z" fill="#FFA943"/>
<path fill-rule="evenodd" clip-rule="evenodd" d="M344.407 109.625H331.654C331.121 109.625 330.703 109.207 330.703 108.674V107.648C330.703 107.116 331.121 106.698 331.654 106.698H344.407C344.939 106.698 345.358 107.116 345.358 107.648V108.674C345.358 109.207 344.939 109.625 344.407 109.625Z" fill="#FFA943"/>
<path fill-rule="evenodd" clip-rule="evenodd" d="M313.122 105.254H312.685C312.21 105.254 311.849 104.873 311.849 104.417V103.182C311.849 102.707 312.229 102.345 312.685 102.345H313.122C313.597 102.345 313.958 102.726 313.958 103.182V104.417C313.977 104.873 313.597 105.254 313.122 105.254Z" fill="#FFA943"/>
<path fill-rule="evenodd" clip-rule="evenodd" d="M310.081 105.253H297.327C296.795 105.253 296.377 104.835 296.377 104.303V103.277C296.377 102.745 296.795 102.326 297.327 102.326H310.081C310.613 102.326 311.031 102.745 311.031 103.277V104.303C311.031 104.816 310.594 105.253 310.081 105.253Z" fill="#6E43D4"/>
<path fill-rule="evenodd" clip-rule="evenodd" d="M328.631 105.253H315.878C315.346 105.253 314.927 104.835 314.927 104.303V103.277C314.927 102.745 315.346 102.326 315.878 102.326H328.631C329.163 102.326 329.582 102.745 329.582 103.277V104.303C329.582 104.816 329.144 105.253 328.631 105.253Z" fill="#6E43D4"/>
<path fill-rule="evenodd" clip-rule="evenodd" d="M340.283 114.168H324.089C323.557 114.168 323.139 113.749 323.139 113.217V112.172C323.139 111.64 323.557 111.222 324.089 111.222H340.283C340.815 111.222 341.233 111.64 341.233 112.172V113.217C341.233 113.73 340.815 114.168 340.283 114.168Z" fill="#FFA943"/>
<path d="M173.685 99.6612L174.195 99.6642V99.6612L173.685 99.6612ZM173.684 64.8912H173.174V64.8912L173.684 64.8912ZM168.019 59.925C167.737 59.925 167.509 60.1534 167.509 60.4352C167.509 60.717 167.737 60.9454 168.019 60.9454V59.925ZM165.601 60.9454C165.883 60.9454 166.111 60.717 166.111 60.4352C166.111 60.1534 165.883 59.925 165.601 59.925V60.9454ZM163.183 59.925C162.901 59.925 162.672 60.1534 162.672 60.4352C162.672 60.717 162.901 60.9454 163.183 60.9454V59.925ZM160.765 60.9454C161.046 60.9454 161.275 60.717 161.275 60.4352C161.275 60.1534 161.046 59.925 160.765 59.925V60.9454ZM158.346 59.925C158.065 59.925 157.836 60.1534 157.836 60.4352C157.836 60.717 158.065 60.9454 158.346 60.9454V59.925ZM155.928 60.9454C156.21 60.9454 156.438 60.717 156.438 60.4352C156.438 60.1534 156.21 59.925 155.928 59.925V60.9454ZM153.51 59.925C153.228 59.925 153 60.1534 153 60.4352C153 60.717 153.228 60.9454 153.51 60.9454V59.925ZM151.092 60.9454C151.374 60.9454 151.602 60.717 151.602 60.4352C151.602 60.1534 151.374 59.925 151.092 59.925V60.9454ZM148.674 59.925C148.392 59.925 148.164 60.1534 148.164 60.4352C148.164 60.717 148.392 60.9454 148.674 60.9454V59.925ZM146.256 60.9454C146.537 60.9454 146.766 60.717 146.766 60.4352C146.766 60.1534 146.537 59.925 146.256 59.925V60.9454ZM143.838 59.925C143.556 59.925 143.327 60.1534 143.327 60.4352C143.327 60.717 143.556 60.9454 143.838 60.9454V59.925ZM141.419 60.9454C141.701 60.9454 141.93 60.717 141.93 60.4352C141.93 60.1534 141.701 59.925 141.419 59.925V60.9454ZM139.001 59.925C138.719 59.925 138.491 60.1534 138.491 60.4352C138.491 60.717 138.719 60.9454 139.001 60.9454V59.925ZM136.583 60.9454C136.865 60.9454 137.093 60.717 137.093 60.4352C137.093 60.1534 136.865 59.925 136.583 59.925V60.9454ZM133.473 60.3021C133.213 60.41 133.089 60.7085 133.197 60.9688C133.305 61.2291 133.603 61.3526 133.864 61.2447L133.473 60.3021ZM131.727 63.3807C131.835 63.1204 131.712 62.8219 131.451 62.714C131.191 62.6061 130.892 62.7297 130.785 62.99L131.727 63.3807ZM130.408 66.1302C130.408 66.412 130.636 66.6405 130.918 66.6405C131.2 66.6405 131.428 66.412 131.428 66.1302H130.408ZM131.428 68.6083C131.428 68.3265 131.2 68.0981 130.918 68.0981C130.636 68.0981 130.408 68.3265 130.408 68.6083H131.428ZM130.408 71.0864C130.408 71.3682 130.636 71.5966 130.918 71.5966C131.2 71.5966 131.428 71.3682 131.428 71.0864H130.408ZM131.428 73.5645C131.428 73.2827 131.2 73.0542 130.918 73.0542C130.636 73.0542 130.408 73.2827 130.408 73.5645H131.428ZM130.408 76.0425C130.408 76.3243 130.636 76.5528 130.918 76.5528C131.2 76.5528 131.428 76.3243 131.428 76.0425H130.408ZM131.428 78.5206C131.428 78.2388 131.2 78.0104 130.918 78.0104C130.636 78.0104 130.408 78.2388 130.408 78.5206H131.428ZM130.408 80.9987C130.408 81.2805 130.636 81.5089 130.918 81.5089C131.2 81.5089 131.428 81.2805 131.428 80.9987H130.408ZM131.428 83.4768C131.428 83.195 131.2 82.9665 130.918 82.9665C130.636 82.9665 130.408 83.195 130.408 83.4768H131.428ZM130.408 85.9548C130.408 86.2366 130.636 86.465 130.918 86.465C131.2 86.465 131.428 86.2366 131.428 85.9548H130.408ZM131.428 88.4329C131.428 88.1511 131.2 87.9227 130.918 87.9227C130.636 87.9227 130.408 88.1511 130.408 88.4329H131.428ZM130.408 90.911C130.408 91.1928 130.636 91.4212 130.918 91.4212C131.2 91.4212 131.428 91.1928 131.428 90.911H130.408ZM131.428 93.389C131.428 93.1073 131.2 92.8788 130.918 92.8788C130.636 92.8788 130.408 93.1073 130.408 93.389H131.428ZM130.408 95.8671C130.408 96.1489 130.636 96.3773 130.918 96.3773C131.2 96.3773 131.428 96.1489 131.428 95.8671H130.408ZM131.428 98.3452C131.428 98.0634 131.2 97.835 130.918 97.835C130.636 97.835 130.408 98.0634 130.408 98.3452H131.428ZM130.785 101.485C130.893 101.746 131.191 101.869 131.452 101.761C131.712 101.653 131.836 101.355 131.728 101.095L130.785 101.485ZM133.864 103.231C133.603 103.123 133.305 103.247 133.197 103.507C133.089 103.767 133.213 104.066 133.473 104.174L133.864 103.231ZM136.583 104.55C136.865 104.55 137.093 104.322 137.093 104.04C137.093 103.758 136.865 103.53 136.583 103.53V104.55ZM139.001 103.53C138.719 103.53 138.491 103.758 138.491 104.04C138.491 104.322 138.719 104.55 139.001 104.55V103.53ZM141.419 104.55C141.701 104.55 141.93 104.322 141.93 104.04C141.93 103.758 141.701 103.53 141.419 103.53V104.55ZM143.838 103.53C143.556 103.53 143.327 103.758 143.327 104.04C143.327 104.322 143.556 104.55 143.838 104.55V103.53ZM146.256 104.55C146.537 104.55 146.766 104.322 146.766 104.04C146.766 103.758 146.537 103.53 146.256 103.53V104.55ZM148.674 103.53C148.392 103.53 148.164 103.758 148.164 104.04C148.164 104.322 148.392 104.55 148.674 104.55V103.53ZM151.092 104.55C151.374 104.55 151.602 104.322 151.602 104.04C151.602 103.758 151.374 103.53 151.092 103.53V104.55ZM153.51 103.53C153.228 103.53 153 103.758 153 104.04C153 104.322 153.228 104.55 153.51 104.55V103.53ZM155.928 104.55C156.21 104.55 156.438 104.322 156.438 104.04C156.438 103.758 156.21 103.53 155.928 103.53V104.55ZM158.346 103.53C158.065 103.53 157.836 103.758 157.836 104.04C157.836 104.322 158.065 104.55 158.346 104.55V103.53ZM160.765 104.55C161.046 104.55 161.275 104.322 161.275 104.04C161.275 103.758 161.046 103.53 160.765 103.53V104.55ZM163.183 103.53C162.901 103.53 162.672 103.758 162.672 104.04C162.672 104.322 162.901 104.55 163.183 104.55V103.53ZM165.601 104.55C165.883 104.55 166.111 104.322 166.111 104.04C166.111 103.758 165.883 103.53 165.601 103.53V104.55ZM168.019 103.53C167.737 103.53 167.509 103.758 167.509 104.04C167.509 104.322 167.737 104.55 168.019 104.55V103.53ZM171.111 104.183C171.372 104.077 171.497 103.779 171.391 103.518C171.285 103.257 170.987 103.132 170.726 103.238L171.111 104.183ZM172.865 101.146C172.754 101.405 172.874 101.705 173.133 101.816C173.392 101.927 173.692 101.807 173.803 101.548L172.865 101.146ZM174.195 98.4195C174.195 98.1377 173.966 97.9092 173.685 97.9092C173.403 97.9092 173.174 98.1377 173.174 98.4195L174.195 98.4195ZM173.174 95.9359C173.174 96.2177 173.403 96.4461 173.685 96.4461C173.966 96.4461 174.195 96.2177 174.195 95.9359L173.174 95.9359ZM174.195 93.4523C174.195 93.1705 173.966 92.9421 173.685 92.9421C173.403 92.9421 173.174 93.1705 173.174 93.4523L174.195 93.4523ZM173.174 90.9687C173.174 91.2505 173.403 91.479 173.685 91.479C173.966 91.479 174.195 91.2505 174.195 90.9687L173.174 90.9687ZM174.195 88.4852C174.195 88.2034 173.966 87.9749 173.685 87.9749C173.403 87.9749 173.174 88.2034 173.174 88.4852L174.195 88.4852ZM173.174 86.0016C173.174 86.2834 173.403 86.5118 173.685 86.5118C173.966 86.5118 174.195 86.2834 174.195 86.0016L173.174 86.0016ZM174.195 83.518C174.195 83.2362 173.966 83.0078 173.685 83.0078C173.403 83.0078 173.174 83.2362 173.174 83.518L174.195 83.518ZM173.174 81.0344C173.174 81.3162 173.403 81.5447 173.685 81.5447C173.966 81.5447 174.195 81.3162 174.195 81.0344L173.174 81.0344ZM174.195 78.5509C174.195 78.2691 173.966 78.0406 173.684 78.0406C173.403 78.0406 173.174 78.2691 173.174 78.5509L174.195 78.5509ZM173.174 76.0673C173.174 76.3491 173.403 76.5775 173.684 76.5775C173.966 76.5775 174.195 76.3491 174.195 76.0673L173.174 76.0673ZM174.195 73.5837C174.195 73.3019 173.966 73.0735 173.684 73.0735C173.403 73.0735 173.174 73.3019 173.174 73.5837L174.195 73.5837ZM173.174 71.1001C173.174 71.3819 173.403 71.6104 173.684 71.6104C173.966 71.6104 174.195 71.3819 174.195 71.1001L173.174 71.1001ZM174.195 68.6166C174.195 68.3348 173.966 68.1063 173.684 68.1063C173.403 68.1063 173.174 68.3348 173.174 68.6166L174.195 68.6166ZM173.174 66.133C173.174 66.4148 173.403 66.6432 173.684 66.6432C173.966 66.6432 174.195 66.4148 174.195 66.133L173.174 66.133ZM173.817 62.99C173.709 62.7297 173.411 62.6062 173.151 62.7141C172.89 62.8221 172.767 63.1206 172.875 63.3809L173.817 62.99ZM170.739 61.2444C170.999 61.3523 171.297 61.2287 171.405 60.9684C171.513 60.7081 171.39 60.4096 171.129 60.3017L170.739 61.2444ZM169.228 59.925H168.019V60.9454H169.228V59.925ZM165.601 59.925H163.183V60.9454H165.601V59.925ZM160.765 59.925H158.346V60.9454H160.765V59.925ZM155.928 59.925H153.51V60.9454H155.928V59.925ZM151.092 59.925H148.674V60.9454H151.092V59.925ZM146.256 59.925H143.838V60.9454H146.256V59.925ZM141.419 59.925H139.001V60.9454H141.419V59.925ZM136.583 59.925H135.374V60.9454H136.583V59.925ZM135.374 59.925C134.702 59.925 134.059 60.0589 133.473 60.3021L133.864 61.2447C134.329 61.052 134.839 60.9454 135.374 60.9454V59.925ZM130.785 62.99C130.542 63.5759 130.408 64.2183 130.408 64.8912H131.428C131.428 64.3546 131.535 63.8449 131.727 63.3807L130.785 62.99ZM130.408 64.8912V66.1302H131.428V64.8912H130.408ZM130.408 68.6083V71.0864H131.428V68.6083H130.408ZM130.408 73.5645V76.0425H131.428V73.5645H130.408ZM130.408 78.5206V80.9987H131.428V78.5206H130.408ZM130.408 83.4768V85.9548H131.428V83.4768H130.408ZM130.408 88.4329V90.911H131.428V88.4329H130.408ZM130.408 93.389V95.8671H131.428V93.389H130.408ZM130.408 98.3452V99.5842H131.428V98.3452H130.408ZM130.408 99.5842C130.408 100.256 130.542 100.899 130.785 101.485L131.728 101.095C131.535 100.63 131.428 100.12 131.428 99.5842H130.408ZM133.473 104.174C134.059 104.417 134.701 104.55 135.374 104.55V103.53C134.837 103.53 134.328 103.423 133.864 103.231L133.473 104.174ZM135.374 104.55H136.583V103.53H135.374V104.55ZM139.001 104.55H141.419V103.53H139.001V104.55ZM143.838 104.55H146.256V103.53H143.838V104.55ZM148.674 104.55H151.092V103.53H148.674V104.55ZM153.51 104.55H155.928V103.53H153.51V104.55ZM158.346 104.55H160.765V103.53H158.346V104.55ZM163.183 104.55H165.601V103.53H163.183V104.55ZM168.019 104.55H169.228V103.53H168.019V104.55ZM169.228 104.55C169.893 104.55 170.529 104.42 171.111 104.183L170.726 103.238C170.264 103.426 169.759 103.53 169.228 103.53V104.55ZM173.803 101.548C174.052 100.968 174.191 100.331 174.195 99.6642L173.174 99.6583C173.171 100.186 173.061 100.688 172.865 101.146L173.803 101.548ZM174.195 99.6612L174.195 98.4195L173.174 98.4195L173.174 99.6612L174.195 99.6612ZM174.195 95.9359L174.195 93.4523L173.174 93.4523L173.174 95.9359L174.195 95.9359ZM174.195 90.9687L174.195 88.4852L173.174 88.4852L173.174 90.9687L174.195 90.9687ZM174.195 86.0016L174.195 83.518L173.174 83.518L173.174 86.0016L174.195 86.0016ZM174.195 81.0344L174.195 78.5509L173.174 78.5509L173.174 81.0344L174.195 81.0344ZM174.195 76.0673L174.195 73.5837L173.174 73.5837L173.174 76.0673L174.195 76.0673ZM174.195 71.1001L174.195 68.6166L173.174 68.6166L173.174 71.1001L174.195 71.1001ZM174.195 66.133L174.195 64.8912L173.174 64.8912L173.174 66.133L174.195 66.133ZM174.195 64.8912C174.195 64.2191 174.061 63.5766 173.817 62.99L172.875 63.3809C173.068 63.8458 173.174 64.3557 173.174 64.8912H174.195ZM171.129 60.3017C170.543 60.0588 169.901 59.925 169.228 59.925V60.9454C169.765 60.9454 170.274 61.052 170.739 61.2444L171.129 60.3017Z" fill="#FFA943"/>
<path fill-rule="evenodd" clip-rule="evenodd" d="M208.84 66.1642C209.319 66.1642 209.708 66.5529 209.708 67.0323C209.708 67.4946 209.346 67.8724 208.891 67.8988L208.84 67.9003H182.335C181.856 67.9003 181.467 67.5117 181.467 67.0323C181.467 66.57 181.829 66.1921 182.284 66.1657L182.335 66.1642H208.84Z" fill="#FFA943"/>
<path fill-rule="evenodd" clip-rule="evenodd" d="M259.563 77.825C260.042 77.825 260.431 78.2137 260.431 78.6931C260.431 79.1554 260.069 79.5333 259.614 79.5597L259.563 79.5611H182.133C181.653 79.5611 181.265 79.1725 181.265 78.6931C181.265 78.2308 181.626 77.8529 182.082 77.8265L182.133 77.825H259.563Z" fill="#FFA943"/>
<path fill-rule="evenodd" clip-rule="evenodd" d="M259.563 84.7695C260.042 84.7695 260.431 85.1582 260.431 85.6376C260.431 86.0999 260.069 86.4778 259.614 86.5042L259.563 86.5056H182.133C181.653 86.5056 181.265 86.117 181.265 85.6376C181.265 85.1753 181.626 84.7974 182.082 84.771L182.133 84.7695H259.563Z" fill="#FFA943"/>
<path fill-rule="evenodd" clip-rule="evenodd" d="M259.563 91.7138C260.042 91.7138 260.431 92.1024 260.431 92.5818C260.431 93.0441 260.069 93.422 259.614 93.4484L259.563 93.4499H182.133C181.653 93.4499 181.265 93.0612 181.265 92.5818C181.265 92.1195 181.626 91.7417 182.082 91.7152L182.133 91.7138H259.563Z" fill="#FFA943"/>
<path fill-rule="evenodd" clip-rule="evenodd" d="M259.563 98.6583C260.042 98.6583 260.431 99.047 260.431 99.5264C260.431 99.9887 260.069 100.367 259.614 100.393L259.563 100.394H182.133C181.653 100.394 181.265 100.006 181.265 99.5264C181.265 99.0641 181.626 98.6862 182.082 98.6598L182.133 98.6583H259.563Z" fill="#FFA943"/>
<path fill-rule="evenodd" clip-rule="evenodd" d="M222.092 117.09H255.946C257.445 117.09 258.666 118.303 258.666 119.81V154.503C258.666 156.002 257.452 157.222 255.946 157.222H222.092C220.604 157.222 219.372 155.991 219.372 154.503V119.81C219.372 118.31 220.586 117.09 222.092 117.09Z" fill="#FFA943"/>
<path fill-rule="evenodd" clip-rule="evenodd" d="M105.604 67.961H142.98C144.636 67.961 145.983 69.3012 145.983 70.9639V109.267C145.983 110.923 144.643 112.27 142.98 112.27H105.604C103.96 112.27 102.601 110.91 102.601 109.267V70.9639C102.601 69.3086 103.941 67.961 105.604 67.961Z" fill="#FFA943"/>
<path fill-rule="evenodd" clip-rule="evenodd" d="M209.013 121.083C209.493 121.083 209.882 121.471 209.882 121.951C209.882 122.413 209.52 122.791 209.064 122.817L209.013 122.819H182.509C182.03 122.819 181.641 122.43 181.641 121.951C181.641 121.488 182.002 121.111 182.458 121.084L182.509 121.083H209.013Z" fill="#FFA943"/>
<path fill-rule="evenodd" clip-rule="evenodd" d="M209.187 132.743C209.666 132.743 210.055 133.132 210.055 133.612C210.055 134.074 209.694 134.452 209.238 134.478L209.187 134.48H131.786C131.307 134.48 130.918 134.091 130.918 133.612C130.918 133.149 131.279 132.771 131.735 132.745L131.786 132.743H209.187Z" fill="#FFA943"/>
<path fill-rule="evenodd" clip-rule="evenodd" d="M209.187 139.688C209.666 139.688 210.055 140.077 210.055 140.556C210.055 141.018 209.694 141.396 209.238 141.423L209.187 141.424H131.786C131.307 141.424 130.918 141.035 130.918 140.556C130.918 140.094 131.279 139.716 131.735 139.689L131.786 139.688H209.187Z" fill="#FFA943"/>
<path fill-rule="evenodd" clip-rule="evenodd" d="M209.187 146.632C209.666 146.632 210.055 147.021 210.055 147.5C210.055 147.963 209.694 148.34 209.238 148.367L209.187 148.368H131.786C131.307 148.368 130.918 147.98 130.918 147.5C130.918 147.038 131.279 146.66 131.735 146.634L131.786 146.632H209.187Z" fill="#FFA943"/>
<path fill-rule="evenodd" clip-rule="evenodd" d="M209.187 153.75C209.666 153.75 210.055 154.139 210.055 154.618C210.055 155.081 209.694 155.458 209.238 155.485L209.187 155.486H131.786C131.307 155.486 130.918 155.098 130.918 154.618C130.918 154.156 131.279 153.778 131.735 153.752L131.786 153.75H209.187Z" fill="#FFA943"/>
</svg>
