<svg width="420" height="210" viewBox="0 0 420 210" fill="none" xmlns="http://www.w3.org/2000/svg">
<path fill-rule="evenodd" clip-rule="evenodd" d="M410.994 190.797C411.471 190.797 411.857 191.067 411.857 191.399C411.857 191.719 411.498 191.981 411.045 191.999L410.994 192H9.86271C9.38625 192 9 191.731 9 191.399C9 191.078 9.35915 190.817 9.81202 190.798L9.86271 190.797H410.994Z" fill="#2E2D2D"/>
<rect x="147.443" y="72.8468" width="134.412" height="118.19" fill="#6E43D4"/>
<path d="M116.752 101.815L147.362 73.233H233.01L203.562 101.815H116.752Z" fill="#6E43D4" stroke="white" stroke-width="0.772483"/>
<line x1="233.576" y1="77.8674" x2="233.576" y2="186.015" stroke="white" stroke-width="0.772483" stroke-linecap="round"/>
<path d="M203.449 101.815H116.931V107.222L203.449 107.995L233.576 79.4129V72.8468L203.449 101.815Z" fill="#6E43D4" stroke="white" stroke-width="0.772483"/>
<path d="M203.449 101.814V107.994" stroke="white" stroke-width="0.772483"/>
<path d="M233.964 73.233H282.867L313.295 100.656H254.626L233.964 73.233Z" fill="#6E43D4" stroke="white" stroke-width="0.772483"/>
<path d="M257.137 100.656H312.756V104.905H255.592L233.962 79.7991V73.233L257.137 100.656Z" fill="#6E43D4" stroke="white" stroke-width="0.772483"/>
<path d="M257.136 100.656L255.591 104.905" stroke="white" stroke-width="0.772483"/>
<rect x="84.8727" y="153.184" width="62.5711" height="37.8517" fill="#FFA943"/>
<path d="M105.343 153.184C105.343 152.971 105.17 152.798 104.957 152.798C104.744 152.798 104.571 152.971 104.571 153.184H105.343ZM126.973 153.184C126.973 152.971 126.8 152.798 126.586 152.798C126.373 152.798 126.2 152.971 126.2 153.184H126.973ZM126.294 173.456L125.948 173.629L126.294 173.456ZM121.808 165.018L121.474 164.824L121.808 165.018ZM122.079 165.027L121.734 165.2L122.079 165.027ZM116.409 173.824L116.736 173.62L116.409 173.824ZM116.673 173.82L116.339 173.626L116.673 173.82ZM110.62 164.981L110.947 165.186L110.62 164.981ZM110.882 164.981L110.554 165.186L110.882 164.981ZM105.242 173.585L105.57 173.789L105.242 173.585ZM104.571 153.184V173.503H105.343V153.184H104.571ZM105.57 173.789L110.947 165.186L110.292 164.777L104.915 173.38L105.57 173.789ZM110.554 165.186L116.081 174.029L116.736 173.62L111.209 164.777L110.554 165.186ZM117.007 174.015L122.141 165.213L121.474 164.824L116.339 173.626L117.007 174.015ZM121.734 165.2L125.948 173.629L126.639 173.283L122.425 164.854L121.734 165.2ZM126.973 173.387V153.184H126.2V173.387H126.973ZM125.948 173.629C126.204 174.139 126.973 173.958 126.973 173.387H126.2C126.2 173.142 126.53 173.065 126.639 173.283L125.948 173.629ZM122.141 165.213C122.049 165.372 121.816 165.365 121.734 165.2L122.425 164.854C122.233 164.47 121.691 164.453 121.474 164.824L122.141 165.213ZM116.081 174.029C116.297 174.374 116.802 174.366 117.007 174.015L116.339 173.626C116.427 173.475 116.644 173.472 116.736 173.62L116.081 174.029ZM110.947 165.186C110.856 165.331 110.645 165.331 110.554 165.186L111.209 164.777C110.997 164.438 110.504 164.438 110.292 164.777L110.947 165.186ZM104.571 173.503C104.571 174.046 105.282 174.25 105.57 173.789L104.915 173.38C105.038 173.182 105.343 173.27 105.343 173.503H104.571Z" fill="#2E2D2D"/>
<path fill-rule="evenodd" clip-rule="evenodd" d="M272.411 191.159H331.572C333.604 191.159 335.259 189.507 335.259 187.479V168.451C335.259 166.423 333.604 164.771 331.572 164.771H272.411C270.379 164.771 268.724 166.423 268.724 168.451V187.479C268.724 189.507 270.379 191.159 272.411 191.159Z" fill="#FEBA91"/>
<path fill-rule="evenodd" clip-rule="evenodd" d="M309.554 164.813V190.908H308.297V164.813H309.554Z" fill="white"/>
<path fill-rule="evenodd" clip-rule="evenodd" d="M274.318 185.577H287.118C287.893 185.577 288.501 184.949 288.501 184.196V179.596C288.501 178.823 287.872 178.216 287.118 178.216H274.318C273.543 178.216 272.935 178.844 272.935 179.596V184.196C272.935 184.949 273.543 185.577 274.318 185.577Z" fill="white"/>
<path fill-rule="evenodd" clip-rule="evenodd" d="M212.27 159.492H167.803C165.111 159.492 163 157.319 163 154.712V138.78C163 136.173 165.111 134 167.803 134H212.27C214.89 134 217.074 136.1 217.074 138.78V154.712C217.074 157.319 214.963 159.492 212.27 159.492ZM183.71 141V152.88H180.272L176.582 146.454L175.682 144.69H175.664L175.736 146.886V152.88H173V141H176.438L180.128 147.426L181.028 149.19H181.046L180.974 146.994V141H183.71ZM195.576 143.394H189.438V145.914H194.334V148.308H189.438V152.88H186.342V141H195.576V143.394ZM207.353 143.394V141H196.499V143.394H200.387V152.88H203.483V143.394H207.353Z" fill="white"/>
<line x1="1.35185" y1="-1.35185" x2="25.6066" y2="-1.35185" transform="matrix(0.869339 0.494217 -0.650845 0.75921 104.957 58.8887)" stroke="#2E2D2D" stroke-width="2.70369" stroke-linecap="round"/>
<line x1="1.35185" y1="-1.35185" x2="23.5248" y2="-1.35185" transform="matrix(0.608178 0.793801 -0.891527 0.452967 135.084 34.3553)" stroke="#2E2D2D" stroke-width="2.70369" stroke-linecap="round"/>
<line x1="1.35185" y1="-1.35185" x2="22.0794" y2="-1.35185" transform="matrix(0.198363 0.980129 -0.991113 0.133019 174.481 19.2581)" stroke="#2E2D2D" stroke-width="2.70369" stroke-linecap="round"/>
<line x1="1.35185" y1="-1.35185" x2="22.0222" y2="-1.35185" transform="matrix(-4.37114e-08 1 -0.998596 0.0529698 214.181 17.8529)" stroke="#2E2D2D" stroke-width="2.70369" stroke-linecap="round"/>
<line x1="1.35185" y1="-1.35185" x2="22.3923" y2="-1.35185" transform="matrix(-0.340662 0.940186 -0.972325 -0.233633 256.728 23.0324)" stroke="#2E2D2D" stroke-width="2.70369" stroke-linecap="round"/>
<line x1="1.35185" y1="-1.35185" x2="23.4817" y2="-1.35185" transform="matrix(-0.600711 0.799466 -0.89504 -0.445986 291.918 34)" stroke="#2E2D2D" stroke-width="2.70369" stroke-linecap="round"/>
<line x1="1.35185" y1="-1.35185" x2="26.3374" y2="-1.35185" transform="matrix(-0.933285 0.359137 -0.501895 -0.864928 320.842 61.9999)" stroke="#2E2D2D" stroke-width="2.70369" stroke-linecap="round"/>
</svg>
