<svg width="420" height="210" viewBox="0 0 420 210" fill="none" xmlns="http://www.w3.org/2000/svg">
<path d="M207.416 200.771C260.683 200.771 303.865 157.589 303.865 104.322C303.865 51.0547 260.683 7.87292 207.416 7.87292C154.149 7.87292 110.967 51.0547 110.967 104.322C110.967 157.589 154.149 200.771 207.416 200.771Z" fill="#FFA943"/>
<path d="M123.522 83.8109L123.019 83.7241C123.044 83.5759 125.696 68.7904 135.949 57.4516L136.327 57.794C126.174 69.0229 123.547 83.6653 123.522 83.8109Z" fill="white"/>
<path d="M281.239 148.73L281.695 148.961C281.627 149.095 274.762 162.456 261.638 170.295L261.377 169.857C274.373 162.094 281.172 148.862 281.239 148.73Z" fill="white"/>
<path d="M137.497 48.08L137.076 47.7939C137.158 47.6738 145.364 35.7703 158.53 29.9629L158.737 30.4305C145.709 36.1765 137.579 47.9625 137.497 48.08Z" fill="white"/>
<path d="M266.985 170.721L267.367 171.058C267.27 171.167 257.624 181.937 243.829 186.031L243.683 185.541C257.333 181.49 266.889 170.827 266.985 170.721Z" fill="white"/>
<path d="M298.234 102.572H297.723C297.723 84.235 289.402 67.6151 289.317 67.4491L289.772 67.2191C289.856 67.3852 298.234 84.1098 298.234 102.572Z" fill="white"/>
<path d="M288.285 93.0113C287.892 85.7067 285.513 79.5595 285.49 79.4982L285.965 79.3117C285.988 79.373 288.395 85.5943 288.796 92.9832L288.285 93.0113Z" fill="white"/>
<path d="M107.492 80.3361L106.991 80.2288C107.022 80.0806 110.249 65.3718 121.557 50.5071L121.963 50.8163C110.724 65.5915 107.523 80.1904 107.492 80.3361Z" fill="#2E2D2D"/>
<path d="M305.851 131.501L306.356 131.589C306.331 131.738 303.677 146.561 292.954 161.853L292.536 161.56C303.193 146.36 305.826 131.648 305.851 131.501Z" fill="#2E2D2D"/>
<path d="M123.466 39.2297L123.075 38.9027C123.105 38.8669 126.102 35.2951 129.925 31.6875L130.275 32.058C126.473 35.6451 123.494 39.1939 123.466 39.2297Z" fill="#2E2D2D"/>
<path d="M294.578 166.851L295.017 167.11C294.993 167.151 292.618 171.163 289.434 175.345L289.028 175.036C292.195 170.878 294.557 166.891 294.578 166.851Z" fill="#2E2D2D"/>
<path d="M136.102 32.0401L135.714 31.7079C135.757 31.6568 140.137 26.598 148.494 20.8954C156.202 15.6348 168.972 8.73131 186.041 5.7037L186.131 6.20703C169.151 9.21931 156.447 16.087 148.783 21.317C140.479 26.9813 136.143 31.989 136.102 32.0401Z" fill="#2E2D2D"/>
<path d="M281.33 175.946L281.735 176.257C281.695 176.311 277.586 181.592 269.539 187.724C262.117 193.382 249.727 200.945 232.839 204.862L232.724 204.364C249.523 200.467 261.849 192.943 269.229 187.319C277.224 181.227 281.292 175.999 281.33 175.946Z" fill="#2E2D2D"/>
<path d="M303.62 71.4501C299.32 53.9232 285.676 38.7928 285.538 38.6421L285.917 38.2971C286.055 38.4479 299.785 53.6779 304.115 71.3275L303.62 71.4501Z" fill="#2E2D2D"/>
<path d="M307.409 96.9663C306.9 90.5917 305.684 85.0117 304.754 81.4527L305.25 81.3224C306.185 84.9019 307.409 90.5125 307.92 96.9254L307.409 96.9663Z" fill="#2E2D2D"/>
<path d="M310.181 121.059L309.683 120.944C310.122 119.044 310.505 116.982 310.822 114.818L311.328 114.892C311.009 117.069 310.62 119.143 310.181 121.059Z" fill="#2E2D2D"/>
<path d="M312.273 105.329L311.762 105.301C312.163 97.9423 311.808 90.8472 310.876 87.6459L311.366 87.5028C312.314 90.7552 312.677 97.9193 312.273 105.329Z" fill="#2E2D2D"/>
<path d="M304.233 128.607L303.747 128.451C304.644 125.661 305.406 121.777 306.011 116.915L306.517 116.979C305.909 121.872 305.14 125.784 304.233 128.607Z" fill="#2E2D2D"/>
<path d="M306.977 112.71L306.469 112.664C306.655 110.64 306.737 109.296 306.737 109.281L307.248 109.312C307.245 109.324 307.163 110.681 306.977 112.71Z" fill="#2E2D2D"/>
<path d="M255.239 16.4243C241.849 7.90101 219.422 4.97304 219.197 4.94494L219.261 4.43906C219.317 4.44672 224.997 5.17744 232.265 6.95823C238.98 8.60361 248.461 11.506 255.515 15.9951L255.239 16.4243Z" fill="#2E2D2D"/>
<path d="M244.069 7.24945C240.477 5.66539 232.13 3.78239 232.046 3.76451L232.158 3.2663C232.242 3.28418 240.638 5.1774 244.276 6.78445L244.069 7.24945Z" fill="#2E2D2D"/>
<path d="M135.367 178.052C134.283 177.197 133.213 176.3 132.186 175.39L132.525 175.007C133.547 175.911 134.61 176.803 135.686 177.651L135.367 178.052Z" fill="#2E2D2D"/>
<path d="M126.733 170.03C112.091 154.062 109.286 136.637 109.258 136.463L109.763 136.387C109.789 136.56 112.576 153.837 127.109 169.685L126.733 170.03Z" fill="#2E2D2D"/>
<path d="M130.747 168.709C125.504 164.386 120.604 154.521 120.556 154.422L121.013 154.197C121.061 154.294 125.916 164.062 131.072 168.316L130.747 168.709Z" fill="#2E2D2D"/>
<path d="M181.529 201.515C174.077 200.089 166.713 197.554 159.644 193.98L159.874 193.523C166.902 197.074 174.22 199.593 181.626 201.011L181.529 201.515Z" fill="#2E2D2D"/>
<path d="M150.615 188.714C146.951 186.262 144.899 184.442 144.879 184.425L145.218 184.044C145.239 184.062 147.268 185.86 150.898 188.29L150.615 188.714Z" fill="#2E2D2D"/>
<path d="M212.043 206.882L212.017 206.371C213.908 206.279 215.758 206.136 217.513 205.947L217.569 206.456C215.804 206.647 213.944 206.79 212.043 206.882Z" fill="#2E2D2D"/>
<path d="M205.326 207C193.63 206.872 183.829 205.12 183.729 205.102L183.821 204.598C183.918 204.616 193.681 206.364 205.331 206.489L205.326 207Z" fill="#2E2D2D"/>
<path d="M149.424 173.479C133.307 162.179 127.37 144.253 127.311 144.074L127.796 143.916C127.855 144.095 133.744 161.862 149.718 173.06L149.424 173.479Z" fill="white"/>
<path d="M184.662 193.032C172.012 190.809 159.347 182.342 159.222 182.255L159.508 181.831C159.634 181.916 172.211 190.324 184.751 192.526L184.662 193.032Z" fill="white"/>
<path d="M163.852 177.674C160.484 176.619 156.419 172.851 156.248 172.692L156.596 172.319C156.637 172.357 160.747 176.167 164.002 177.189L163.852 177.674Z" fill="white"/>
<path d="M198.25 138.228L243.193 97.5703C245.514 95.4686 248.91 95.6351 251.659 97.1336C257.216 100.165 266.748 105.584 275.248 114.795C282.386 122.529 294.245 134.81 295.646 145.205C295.806 146.395 295.392 147.589 294.559 148.453C280.856 162.65 252.981 188.796 249.865 191.454C242.489 197.746 223.36 183.541 212.462 170.874C207.91 165.587 192.555 143.6 198.25 138.228Z" fill="white"/>
<path d="M226.659 162.471C210.889 145.613 202.667 140.753 198.652 140.304C197.763 140.204 196.994 140.898 197 141.793C197.047 150.005 208.614 166.407 212.459 170.88C221.237 181.087 235.364 192.293 244.38 192.968C245.071 193.018 245.63 192.418 245.552 191.734C245.005 186.915 241.198 178.012 226.659 162.471Z" fill="#FFD9C1"/>
<path d="M269.81 126.318L263.16 120.748C262.117 119.875 260.763 119.47 259.412 119.633C254.024 120.28 239.938 122.174 235.216 124.769C233.466 125.731 229.678 129.928 229.678 129.928C228.305 131.351 228.299 133.603 229.665 135.036L238.311 144.589C238.911 145.252 239.922 145.327 240.613 144.762L247.525 139.101C248.272 138.488 248.348 137.37 247.688 136.66L246.296 135.171C245.74 134.649 245.998 133.716 246.746 133.556L269.22 128.731C270.338 128.483 270.693 127.056 269.81 126.318ZM259.453 136.06C258.372 135.293 257.028 135.227 256.01 136.069L235.131 153.313C233.875 154.35 233.796 156.872 234.861 158.107C235.688 159.065 237.353 160.975 238.16 161.955C239.652 163.768 242.102 163.824 243.306 162.728L248.942 157.592C249.454 157.127 250.245 157.158 250.716 157.664L251.91 158.946C252.755 159.832 254.15 159.876 255.049 159.046L261.272 153.297C262.45 152.207 262.459 150.347 261.288 149.248L260.713 148.708C260.175 148.205 260.182 147.347 260.725 146.854L263.59 144.244C264.658 143.27 265.039 141.086 263.691 139.814C263.694 139.814 260.851 137.056 259.453 136.06Z" fill="#6E43D4"/>
<path d="M199.689 143.568C201.486 141.294 217.363 156.106 222.744 161.594C231.955 170.984 245.332 189.158 242.109 190.006C240.101 190.533 227.683 183.578 214.573 168.76C204.599 157.482 198.58 144.972 199.689 143.568Z" fill="#2E2D2D"/>
<path d="M230.142 1.3675C225.054 4.46612 202.923 17.4175 186.949 29.5993C184.407 31.5385 182.514 34.1966 181.516 37.2345C179.445 43.5583 177.587 50.5808 177.061 52.6162C176.939 53.087 177 53.5883 177.243 54.0085C178.737 56.6413 186.924 65.7043 231.53 81.4809L242 58.8336C242 58.8336 235.388 16.6935 233.357 2.61809C233.15 1.20549 231.524 0.527031 230.142 1.3675Z" fill="white"/>
<path d="M177.461 54.3782C179.471 59.2185 202.568 74.1091 231.519 81.486L232.38 79.6279C221.145 69.7801 201.723 59.897 187.303 56.1756C182.017 54.8136 179.136 54.1807 177.461 54.3782Z" fill="#FFD9C1"/>
<path d="M232.902 11.1241C230.248 8.91149 227.094 7.44319 223.535 6.75967L223.727 5.7673C227.459 6.48626 230.76 8.02545 233.55 10.3443L232.902 11.1241Z" fill="#2E2D2D"/>
<path d="M181.567 57.0869C187.951 62.1145 204.639 71.2585 225.251 77.9468L225.93 76.5241C217.414 69.2889 198.017 60.3019 181.982 56.2413C181.481 56.1147 181.157 56.7679 181.567 57.0869Z" fill="#2E2D2D"/>
<path d="M209.687 44.0443L212.983 38.9559C213.54 38.0952 213.201 36.9408 212.264 36.5206L210.887 35.9029C210.057 35.5282 209.95 34.3941 210.7 33.8726L225.418 23.6705C226.162 23.154 225.995 22.0098 225.135 21.7212L218.396 19.4985C217.596 19.2352 216.725 19.3516 216.021 19.8174L201.531 29.412C200.639 29.9993 199.92 30.8094 199.434 31.7562L197.399 35.7257C196.371 37.7307 197.252 40.1863 199.318 41.0774L207.616 44.6671C208.371 44.9962 209.247 44.7279 209.687 44.0443ZM227.089 41.7963L226.34 41.3305C225.671 40.9154 225.418 40.0698 225.742 39.3559L226.735 37.1788C227.317 35.9029 226.821 34.3941 225.595 33.7106L222.269 31.8575C220.963 31.1335 219.317 31.6043 218.603 32.9157L208.553 51.2339C207.885 52.4541 208.254 53.9832 209.409 54.7629L212.968 57.1578C214.279 58.0387 216.067 57.6033 216.831 56.2211L219.712 50.9707C220.142 50.191 221.135 49.9277 221.894 50.3884L222.289 50.6314C223.155 51.1631 224.289 50.839 224.745 49.9327L227.717 44.0595C228.132 43.2545 227.854 42.2723 227.089 41.7963Z" fill="#6E43D4"/>
<path d="M104.13 95.1318C104.13 95.1318 105.707 101.055 109.681 109.084C115.316 120.463 118.066 125.021 120.963 129.908C124.492 135.857 135.264 141.891 156.048 129.016C177.583 115.677 174.299 106.89 172.871 103.832C172.025 102.021 165.167 89.2023 159.475 79.4728C157.255 75.6763 155.159 72.4331 153.764 70.3404C152.603 68.5997 150.739 67.4695 148.659 67.2347C142.991 66.5941 130.985 66.6579 118.639 75.6025C101.618 87.9379 104.13 95.1318 104.13 95.1318Z" fill="white"/>
<path d="M173.736 110.345C174.303 107.484 173.068 104.559 170.664 102.903C164.566 98.6968 152.623 98.5157 137.481 108.081C120.843 118.592 120.457 127.486 122.932 132.413C127.782 137.199 138.239 140.046 156.044 129.015C168.806 121.114 172.85 114.809 173.736 110.345Z" fill="#FFD9C1"/>
<path d="M126.048 132.088C123.978 129.126 123.938 119.849 139.47 109.858C155.125 99.7868 168.859 102.651 170.878 108.081C172.897 113.511 161.649 123.455 149.119 129.82C137.783 135.582 128.342 135.371 126.048 132.088Z" fill="#2E2D2D"/>
<path d="M123.965 93.1698C122.989 90.7148 122.959 87.9781 124.109 86.1838C124.378 85.7646 124.871 85.0804 124.622 84.6511L122.463 81.5186C122.006 80.7271 120.816 81.2235 120.269 81.958C117.576 85.5902 116.57 90.3224 118.582 95.3733C121.537 102.802 127.024 104.975 132.678 103.594C133.594 103.369 134.04 102.332 133.567 101.517L131.917 98.7841C131.555 98.157 130.861 97.8115 130.136 97.8685C127.694 98.0664 125.28 96.47 123.965 93.1698ZM140.073 84.4063C135.797 77.6349 129.002 76.6019 124.552 78.2922C123.774 78.5874 123.422 79.4896 123.838 80.2106L126.266 83.5007C126.554 83.9971 127.124 84.2386 127.684 84.1312C130.059 83.6718 132.977 84.5907 134.898 87.4951C136.424 89.8026 136.421 93.4146 134 95.7355C133.47 96.2453 133.523 97.1206 133.892 97.7578L135.442 100.431C136.056 101.487 137.427 101.588 138.363 100.806C142.75 97.1441 143.072 89.1553 140.073 84.4063Z" fill="#6E43D4"/>
</svg>
