<svg width="420" height="210" viewBox="0 0 420 210" fill="none" xmlns="http://www.w3.org/2000/svg">
<rect x="378.326" y="154.037" width="15.0688" height="1.67431" rx="0.837154" fill="#2E2D2D"/>
<path d="M254.985 127.385C254.985 127.385 259.871 126.415 264.059 129.642C268.252 132.863 271.439 141.055 273.086 152.525C274.733 163.99 275.667 168.96 285.336 170.571C295.01 172.182 318.222 171.535 332.089 171.217C345.956 170.894 345.31 158.004 333.701 156.716C322.092 155.428 314.06 158.522 301.954 155.849C289.847 153.171 312.741 149.627 330.149 152.207C347.563 154.787 355.302 155.428 364.652 154.464" stroke="#2E2D2D" stroke-width="1.86764" stroke-miterlimit="10" stroke-linecap="round" stroke-linejoin="round"/>
<path d="M246.334 114.97C246.334 114.97 257.222 115.059 260.212 126.27C263.203 137.482 264.321 153.177 264.696 165.507C265.07 177.836 265.445 188.298 279.638 191.29C293.831 194.281 332.314 193.157 342.773 190.915C353.233 188.673 364.816 178.586 356.223 176.343C347.631 174.101 335.68 176.343 340.157 179.335C344.641 182.327 356.592 181.577 370.791 179.71" stroke="#2E2D2D" stroke-width="1.86764" stroke-miterlimit="10" stroke-linecap="round" stroke-linejoin="round"/>
<path d="M126.136 144.004C126.136 144.004 134.452 143.283 137.7 152.677C140.955 162.078 136.979 164.24 138.785 168.945C140.591 173.649 151.998 169.257 151.946 173.151C151.902 176.703 147.391 177.706 121.439 176.176C87.5067 174.176 65.0558 179.431 66.8617 182.678C68.6676 185.933 95.7781 183.399 89.268 188.46C82.7579 193.521 66.8617 187.739 54.5698 187.375C42.278 187.011 40.1154 189.902 40.1154 189.902" stroke="#2E2D2D" stroke-width="1.86764" stroke-miterlimit="10" stroke-linecap="round" stroke-linejoin="round"/>
<path fill-rule="evenodd" clip-rule="evenodd" d="M284.006 12H215.918V202.313H231.824V190.593C231.824 187.511 234.322 185.012 237.405 185.012H275.077C278.159 185.012 280.658 187.511 280.658 190.593V202.313H289.587V17.581C289.587 14.4987 287.089 12 284.006 12Z" fill="#6E43D4"/>
<mask id="path-6-inside-1_440_2581" fill="white">
<path fill-rule="evenodd" clip-rule="evenodd" d="M99.2744 12C96.1921 12 93.6934 14.4987 93.6934 17.581V202.313H102.065V190.593C102.065 187.511 104.564 185.012 107.646 185.012H208.942C212.024 185.012 214.523 187.511 214.523 190.593V202.313H223.173V17.581C223.173 14.4987 220.675 12 217.592 12H99.2744Z"/>
</mask>
<path fill-rule="evenodd" clip-rule="evenodd" d="M99.2744 12C96.1921 12 93.6934 14.4987 93.6934 17.581V202.313H102.065V190.593C102.065 187.511 104.564 185.012 107.646 185.012H208.942C212.024 185.012 214.523 187.511 214.523 190.593V202.313H223.173V17.581C223.173 14.4987 220.675 12 217.592 12H99.2744Z" fill="white"/>
<path d="M93.6934 202.313H92.0191V203.987H93.6934V202.313ZM102.065 202.313V203.987H103.739V202.313H102.065ZM214.523 202.313H212.848V203.987H214.523V202.313ZM223.173 202.313V203.987H224.848V202.313H223.173ZM95.3677 17.581C95.3677 15.4234 97.1168 13.6743 99.2744 13.6743V10.3257C95.2674 10.3257 92.0191 13.574 92.0191 17.581H95.3677ZM95.3677 202.313V17.581H92.0191V202.313H95.3677ZM102.065 200.639H93.6934V203.987H102.065V200.639ZM103.739 202.313V190.593H100.391V202.313H103.739ZM103.739 190.593C103.739 188.435 105.488 186.686 107.646 186.686V183.338C103.639 183.338 100.391 186.586 100.391 190.593H103.739ZM107.646 186.686H208.942V183.338H107.646V186.686ZM208.942 186.686C211.099 186.686 212.848 188.435 212.848 190.593H216.197C216.197 186.586 212.949 183.338 208.942 183.338V186.686ZM212.848 190.593V202.313H216.197V190.593H212.848ZM223.173 200.639H214.523V203.987H223.173V200.639ZM221.499 17.581V202.313H224.848V17.581H221.499ZM217.592 13.6743C219.75 13.6743 221.499 15.4234 221.499 17.581H224.848C224.848 13.574 221.599 10.3257 217.592 10.3257V13.6743ZM99.2744 13.6743H217.592V10.3257H99.2744V13.6743Z" fill="#6E43D4" mask="url(#path-6-inside-1_440_2581)"/>
<path fill-rule="evenodd" clip-rule="evenodd" d="M244.971 174.966H241.278C240.526 174.966 239.916 175.576 239.916 176.327V177.64C239.916 178.392 240.526 179.001 241.278 179.001H244.971C245.722 179.001 246.332 178.392 246.332 177.64V176.327C246.332 175.576 245.722 174.966 244.971 174.966ZM245.787 177.64C245.787 178.091 245.422 178.457 244.971 178.457H241.278C240.827 178.457 240.461 178.091 240.461 177.64V176.327C240.461 176.315 240.461 176.303 240.461 176.29H245.784C245.784 176.303 245.784 176.315 245.784 176.327L245.787 177.64Z" fill="#FFA943"/>
<path fill-rule="evenodd" clip-rule="evenodd" d="M271.758 174.966H268.064C267.312 174.966 266.703 175.576 266.703 176.327V177.64C266.703 178.392 267.312 179.001 268.064 179.001H271.758C272.51 179.001 273.119 178.392 273.119 177.64V176.327C273.119 175.576 272.51 174.966 271.758 174.966ZM272.575 177.64C272.575 178.091 272.209 178.457 271.758 178.457H268.064C267.613 178.457 267.247 178.091 267.247 177.64V176.327C267.247 176.315 267.247 176.303 267.247 176.29H272.575C272.575 176.303 272.575 176.315 272.575 176.327V177.64Z" fill="#FFA943"/>
<rect x="102.065" y="21.2087" width="112.458" height="153.757" rx="5.58103" fill="#2E2D2D"/>
<line x1="227.917" y1="25.1155" x2="287.913" y2="25.1155" stroke="white" stroke-width="1.11621" stroke-linecap="round"/>
<line x1="227.917" y1="39.347" x2="287.913" y2="39.347" stroke="white" stroke-width="1.11621" stroke-linecap="round"/>
<line x1="227.917" y1="68.6475" x2="287.913" y2="68.6475" stroke="white" stroke-width="1.11621" stroke-linecap="round"/>
<line x1="227.917" y1="49.1138" x2="287.913" y2="49.1138" stroke="white" stroke-width="1.11621" stroke-linecap="round"/>
<line x1="227.917" y1="78.4142" x2="287.913" y2="78.4142" stroke="white" stroke-width="1.11621" stroke-linecap="round"/>
<line x1="227.917" y1="58.8806" x2="287.913" y2="58.8806" stroke="white" stroke-width="1.11621" stroke-linecap="round"/>
<line x1="227.917" y1="97.6688" x2="287.913" y2="97.6688" stroke="white" stroke-width="1.11621" stroke-linecap="round"/>
<rect x="231.266" y="84.2744" width="13.6735" height="5.86008" rx="0.558103" stroke="white" stroke-width="1.11621"/>
<rect x="270.891" y="84.2744" width="13.6735" height="5.86008" rx="0.558103" stroke="white" stroke-width="1.11621"/>
<circle cx="252.753" cy="87.3439" r="2.23241" fill="white"/>
<circle cx="263.078" cy="87.3439" r="2.23241" fill="white"/>
<rect x="356.839" y="151.247" width="27.347" height="6.97629" rx="2.23241" fill="#FFA943"/>
<circle cx="370.931" cy="179.291" r="3.48814" fill="#FFA943"/>
<rect x="30.2546" y="184.996" width="10.1506" height="13.4174" rx="0.933387" transform="rotate(-15.8622 30.2546 184.996)" fill="#FFA943"/>
<line x1="36.9885" y1="183.082" x2="40.6558" y2="195.989" stroke="#2E2D2D" stroke-width="0.466694"/>
<line x1="28.1977" y1="188.855" x2="34.2581" y2="187.133" stroke="#2E2D2D" stroke-width="0.70004" stroke-linecap="round"/>
<line x1="29.0906" y1="191.998" x2="35.1511" y2="190.276" stroke="#2E2D2D" stroke-width="0.70004" stroke-linecap="round"/>
<line x1="30.0154" y1="195.252" x2="36.0759" y2="193.53" stroke="#2E2D2D" stroke-width="0.70004" stroke-linecap="round"/>
<path fill-rule="evenodd" clip-rule="evenodd" d="M385.299 200.918C385.609 200.918 385.86 201.293 385.86 201.755C385.86 202.201 385.627 202.565 385.332 202.591L385.299 202.592H42.0718C41.7619 202.592 41.5106 202.217 41.5106 201.755C41.5106 201.309 41.7443 200.945 42.0389 200.919L42.0718 200.918H385.299Z" fill="#2E2D2D"/>
<path fill-rule="evenodd" clip-rule="evenodd" d="M118.816 197.046C113.465 193.629 114.64 185.085 116.976 176.171H178.773C182.112 179.239 186.974 181.172 192.388 181.172C202.455 181.172 210.616 174.491 210.616 166.249C210.616 162.808 209.194 159.64 206.805 157.116L201.668 145.126C201.592 144.947 201.472 144.79 201.318 144.671C201.164 144.551 200.983 144.474 200.791 144.445C200.599 144.416 200.402 144.437 200.22 144.505C200.038 144.574 199.877 144.688 199.752 144.837L194.212 151.4C193.612 151.351 193.004 151.326 192.388 151.326C191.614 151.326 190.852 151.365 190.103 151.442L184.567 144.892C184.437 144.739 184.27 144.623 184.083 144.552C183.895 144.482 183.692 144.461 183.494 144.491C183.296 144.521 183.109 144.601 182.95 144.724C182.791 144.846 182.666 145.007 182.587 145.192L177.597 156.837C167.366 149.499 153.83 142.875 138.299 142.875C108.738 142.875 106.761 166.871 106.838 174.121C105.814 179.092 105.381 184.238 105.937 188.932C107.234 199.87 116.612 207.786 128.306 206.989C135.25 206.513 147.243 199.549 143.998 195.773C141.431 192.785 137.047 194.355 132.341 196.04C127.663 197.715 122.666 199.504 118.816 197.046Z" fill="#FFA943"/>
<mask id="path-31-outside-2_440_2581" maskUnits="userSpaceOnUse" x="184.347" y="156.279" width="9" height="4" fill="black">
<rect fill="white" x="184.347" y="156.279" width="9" height="4"/>
<path d="M185.347 159.622C185.347 158.328 186.735 157.279 188.448 157.279C190.161 157.279 191.544 158.349 191.544 159.622"/>
</mask>
<path d="M186.184 159.622C186.184 159.294 186.358 158.937 186.76 158.633C187.162 158.329 187.756 158.116 188.448 158.116V156.442C187.427 156.442 186.47 156.754 185.75 157.297C185.03 157.841 184.51 158.655 184.51 159.622H186.184ZM188.448 158.116C189.136 158.116 189.728 158.332 190.131 158.639C190.536 158.947 190.707 159.306 190.707 159.622H192.381C192.381 158.664 191.861 157.852 191.146 157.307C190.429 156.761 189.474 156.442 188.448 156.442V158.116Z" fill="#2E2D2D" mask="url(#path-31-outside-2_440_2581)"/>
<mask id="path-33-outside-3_440_2581" maskUnits="userSpaceOnUse" x="199.662" y="156.279" width="9" height="4" fill="black">
<rect fill="white" x="199.662" y="156.279" width="9" height="4"/>
<path d="M200.662 159.622C200.662 158.328 202.05 157.279 203.764 157.279C205.477 157.279 206.865 158.349 206.865 159.622"/>
</mask>
<path d="M201.5 159.622C201.5 159.294 201.673 158.937 202.075 158.633C202.478 158.329 203.072 158.116 203.764 158.116V156.442C202.742 156.442 201.785 156.754 201.066 157.297C200.346 157.841 199.825 158.655 199.825 159.622H201.5ZM203.764 158.116C204.451 158.116 205.045 158.332 205.45 158.64C205.856 158.949 206.027 159.308 206.027 159.622H207.702C207.702 158.663 207.179 157.851 206.463 157.307C205.746 156.761 204.789 156.442 203.764 156.442V158.116Z" fill="#2E2D2D" mask="url(#path-33-outside-3_440_2581)"/>
<path d="M192.99 167.836C192.99 167.836 197.068 167.59 197.068 163.723C197.068 163.723 198.311 167.531 200.863 167.531" stroke="#2E2D2D" stroke-width="0.837154" stroke-linejoin="round"/>
<path d="M195.166 162.462H198.689C198.788 162.473 198.882 162.511 198.96 162.573C199.038 162.634 199.098 162.715 199.132 162.809C199.167 162.902 199.174 163.004 199.154 163.101C199.135 163.198 199.088 163.289 199.02 163.361L197.259 164.869C197.164 164.944 197.048 164.984 196.928 164.984C196.808 164.984 196.691 164.944 196.597 164.869L194.835 163.361C194.767 163.289 194.721 163.198 194.701 163.101C194.681 163.004 194.689 162.902 194.723 162.809C194.757 162.715 194.817 162.634 194.896 162.573C194.974 162.511 195.067 162.473 195.166 162.462Z" fill="#2E2D2D"/>
<path d="M102.065 43.0444L103.471 44.1839C104.97 45.3233 107.875 47.6023 110.687 45.8931C113.592 44.1839 116.497 38.4866 119.402 39.0563C122.214 39.626 125.119 46.4628 128.024 48.7417C130.929 51.0206 133.74 48.7417 136.646 47.0325C139.551 45.3233 142.456 44.1839 145.361 44.1839C148.173 44.1839 151.078 45.3233 153.983 45.8931C156.888 46.4628 159.699 46.4628 162.605 47.0325C165.51 47.6023 168.415 48.7417 171.226 47.6023C174.132 46.4628 177.037 43.0444 179.942 41.3352C182.847 39.626 185.658 39.626 188.564 40.1958C191.469 40.7655 194.374 41.905 197.185 41.905C200.091 41.905 202.996 40.7655 205.901 37.9168C208.712 35.0682 211.617 30.5104 213.117 28.2314L214.523 25.9525" stroke="white" stroke-width="1.11621" stroke-linecap="round"/>
<path d="M102.065 68.7171L103.471 69.8566C104.97 70.9961 107.875 73.275 110.687 71.5658C113.592 69.8566 116.497 64.1593 119.402 64.729C122.214 65.2988 125.119 72.1355 128.024 74.4144C130.929 76.6934 133.74 74.4144 136.646 72.7053C139.551 70.9961 142.456 69.8566 145.361 69.8566C148.173 69.8566 151.078 70.9961 153.983 71.5658C156.888 72.1355 159.699 72.1355 162.605 72.7053C165.51 73.275 168.415 74.4144 171.226 73.275C174.132 72.1355 177.037 68.7171 179.942 67.008C182.847 65.2988 185.658 65.2988 188.564 65.8685C191.469 66.4382 194.374 67.5777 197.185 67.5777C200.091 67.5777 202.996 66.4382 205.901 63.5896C208.712 60.7409 211.617 56.1831 213.117 53.9042L214.523 51.6252" stroke="white" stroke-width="1.11621" stroke-linecap="round"/>
<path d="M102.065 88.5299L103.471 89.6694C104.97 90.8088 107.875 93.0877 110.687 91.3785C113.592 89.6694 116.497 83.9721 119.402 84.5418C122.214 85.1115 125.119 91.9483 128.024 94.2272C130.929 96.5061 133.74 94.2272 136.646 92.518C139.551 90.8088 142.456 89.6694 145.361 89.6694C148.173 89.6694 151.078 90.8088 153.983 91.3785C156.888 91.9483 159.699 91.9483 162.605 92.518C165.51 93.0877 168.415 94.2272 171.226 93.0877C174.132 91.9483 177.037 88.5299 179.942 86.8207C182.847 85.1115 185.658 85.1115 188.564 85.6812C191.469 86.251 194.374 87.3904 197.185 87.3904C200.091 87.3904 202.996 86.251 205.901 83.4023C208.712 80.5537 211.617 75.9958 213.117 73.7169L214.523 71.438" stroke="white" stroke-width="1.11621" stroke-linecap="round"/>
<path d="M102.065 132.341L103.471 133.481C104.97 134.62 107.875 136.899 110.687 135.19C113.592 133.481 116.497 127.783 119.402 128.353C122.214 128.923 125.119 135.759 128.024 138.038C130.929 140.317 133.74 138.038 136.646 136.329C139.551 134.62 142.456 133.481 145.361 133.481C148.173 133.481 151.078 134.62 153.983 135.19C156.888 135.759 159.699 135.759 162.605 136.329C165.51 136.899 168.415 138.038 171.226 136.899C174.132 135.759 177.037 132.341 179.942 130.632C182.847 128.923 185.658 128.923 188.564 129.492C191.469 130.062 194.374 131.202 197.185 131.202C200.091 131.202 202.996 130.062 205.901 127.213C208.712 124.365 211.617 119.807 213.117 117.528L214.523 115.249" stroke="white" stroke-width="1.11621" stroke-linecap="round"/>
<path d="M102.065 112.249L103.471 113.389C104.97 114.528 107.875 116.807 110.687 115.098C113.592 113.389 116.497 107.691 119.402 108.261C122.214 108.831 125.119 115.668 128.024 117.947C130.929 120.225 133.74 117.947 136.646 116.237C139.551 114.528 142.456 113.389 145.361 113.389C148.173 113.389 151.078 114.528 153.983 115.098C156.888 115.668 159.699 115.668 162.605 116.237C165.51 116.807 168.415 117.947 171.226 116.807C174.132 115.668 177.037 112.249 179.942 110.54C182.847 108.831 185.658 108.831 188.564 109.401C191.469 109.97 194.374 111.11 197.185 111.11C200.091 111.11 202.996 109.97 205.901 107.122C208.712 104.273 211.617 99.7152 213.117 97.4363L214.523 95.1573" stroke="white" stroke-width="1.11621" stroke-linecap="round"/>
</svg>
