<svg width="420" height="210" viewBox="0 0 420 210" fill="none" xmlns="http://www.w3.org/2000/svg">
<path fill-rule="evenodd" clip-rule="evenodd" d="M33.2173 189.505H24.3917V65.947C24.3917 64.4025 25.642 63.1277 27.211 63.1277H30.4225C31.967 63.1277 33.2418 64.378 33.2418 65.947V189.505H33.2173Z" fill="#2E2D2D"/>
<path fill-rule="evenodd" clip-rule="evenodd" d="M193.72 189.505H184.894V65.947C184.894 64.4025 186.144 63.1277 187.713 63.1277H190.925C192.469 63.1277 193.744 64.378 193.744 65.947V189.505H193.72Z" fill="#2E2D2D"/>
<rect x="8.92249" y="76.5376" width="190.338" height="21.5245" fill="#FF863D"/>
<path fill-rule="evenodd" clip-rule="evenodd" d="M38.8313 76.5376H23.1169L8.92249 97.4247V98.0866H24.1711L38.8313 76.5376Z" fill="white"/>
<path fill-rule="evenodd" clip-rule="evenodd" d="M56.5805 98.0866L71.2162 76.5376H55.5263L40.8906 98.0866H56.5805Z" fill="white"/>
<path fill-rule="evenodd" clip-rule="evenodd" d="M88.9652 98.0866L103.625 76.5376H87.9111L73.2754 98.0866H88.9652Z" fill="white"/>
<path fill-rule="evenodd" clip-rule="evenodd" d="M121.375 98.0866L136.01 76.5376H120.321L105.685 98.0866H121.375Z" fill="white"/>
<path fill-rule="evenodd" clip-rule="evenodd" d="M153.759 98.0866L168.42 76.5376H152.705L138.07 98.0866H153.759Z" fill="white"/>
<path fill-rule="evenodd" clip-rule="evenodd" d="M186.169 98.0866L199.26 78.8175V76.5376H185.115L170.479 98.0866H186.169Z" fill="white"/>
<rect x="8.92249" y="114.708" width="190.338" height="21.5245" fill="#FF863D"/>
<path fill-rule="evenodd" clip-rule="evenodd" d="M38.8313 114.708H23.1169L8.92249 135.595V136.233H24.1711L38.8313 114.708Z" fill="white"/>
<path fill-rule="evenodd" clip-rule="evenodd" d="M56.5805 136.233L71.2162 114.708H55.5263L40.8906 136.233H56.5805Z" fill="white"/>
<path fill-rule="evenodd" clip-rule="evenodd" d="M88.9652 136.233L103.625 114.708H87.9111L73.2754 136.233H88.9652Z" fill="white"/>
<path fill-rule="evenodd" clip-rule="evenodd" d="M121.375 136.233L136.01 114.708H120.321L105.685 136.233H121.375Z" fill="white"/>
<path fill-rule="evenodd" clip-rule="evenodd" d="M153.759 136.233L168.42 114.708H152.705L138.07 136.233H153.759Z" fill="white"/>
<path fill-rule="evenodd" clip-rule="evenodd" d="M186.169 136.233L199.26 116.964V114.708H185.115L170.479 136.233H186.169Z" fill="white"/>
<path d="M336.987 19.8335H318.454H84.3563C77.0603 19.8335 71.167 25.7533 71.167 33.0228V167.637C71.167 174.933 77.0867 180.826 84.3563 180.826H318.478H325.048H336.987C343.792 180.826 349.294 175.324 349.294 168.519V32.1403C349.294 25.3356 343.792 19.8335 336.987 19.8335Z" fill="#6E43D4" stroke="#1F1F23" stroke-width="1.47092"/>
<path fill-rule="evenodd" clip-rule="evenodd" d="M325.854 20.7161H308.101H83.8566C77.2578 20.7161 71.927 26.2996 71.927 33.1565V167.626C71.927 174.507 77.2812 180.066 83.8566 180.066H308.124H314.418H325.854C331.983 180.066 336.938 174.899 336.938 168.507V32.2749C336.938 25.8833 331.983 20.7161 325.854 20.7161Z" fill="white"/>
<path fill-rule="evenodd" clip-rule="evenodd" d="M252.826 36.7241L254.297 36.7251L254.199 180.41L252.728 180.409L252.826 36.7241Z" fill="#1F1F23"/>
<path fill-rule="evenodd" clip-rule="evenodd" d="M337.502 36.0872C337.908 36.0872 338.238 36.4165 338.238 36.8227C338.238 37.2144 337.932 37.5346 337.545 37.5569L337.502 37.5582H71.927C71.5208 37.5582 71.1915 37.2289 71.1915 36.8227C71.1915 36.431 71.4977 36.1109 71.8838 36.0885L71.927 36.0872H337.502Z" fill="#1F1F23"/>
<path fill-rule="evenodd" clip-rule="evenodd" d="M325.048 19C332.266 19 338.12 24.8206 338.236 32.0435L338.238 32.2628V167.637C338.238 168.043 337.908 168.372 337.502 168.372C337.111 168.372 336.79 168.066 336.768 167.68L336.767 167.637V32.2628C336.767 25.749 331.524 20.4709 325.048 20.4709C324.642 20.4709 324.313 20.1416 324.313 19.7355C324.313 19.3293 324.642 19 325.048 19Z" fill="#1F1F23"/>
<path fill-rule="evenodd" clip-rule="evenodd" d="M414.064 189.529C414.47 189.529 414.799 189.858 414.799 190.265C414.799 190.656 414.493 190.976 414.107 190.999L414.064 191H5.73546C5.32928 191 5 190.671 5 190.265C5 189.873 5.30618 189.553 5.69225 189.53L5.73546 189.529H414.064Z" fill="#2E2D2D"/>
<path d="M88.8427 122.98V114.829L112.852 76.8945H119.649V88.4987H115.505L99.3418 114.111V114.553H132.856V122.98H88.8427ZM115.836 133.479V120.493L115.947 116.846V76.8945H125.617V133.479H115.836Z" fill="#1F1F23"/>
<path d="M162.599 134.557C158.049 134.557 154.144 133.405 150.884 131.103C147.642 128.782 145.146 125.439 143.397 121.074C141.665 116.69 140.799 111.413 140.799 105.242C140.818 99.0715 141.693 93.822 143.424 89.4934C145.174 85.1464 147.67 81.8309 150.912 79.5469C154.172 77.2629 158.068 76.1209 162.599 76.1209C167.13 76.1209 171.026 77.2629 174.286 79.5469C177.546 81.8309 180.042 85.1464 181.774 89.4934C183.523 93.8404 184.398 99.0899 184.398 105.242C184.398 111.431 183.523 116.717 181.774 121.101C180.042 125.467 177.546 128.801 174.286 131.103C171.044 133.405 167.148 134.557 162.599 134.557ZM162.599 125.909C166.135 125.909 168.926 124.168 170.97 120.687C173.033 117.187 174.065 112.039 174.065 105.242C174.065 100.748 173.595 96.9717 172.656 93.9141C171.716 90.8564 170.39 88.554 168.677 87.0068C166.964 85.4411 164.938 84.6583 162.599 84.6583C159.081 84.6583 156.299 86.4081 154.255 89.9078C152.21 93.3891 151.179 98.5005 151.16 105.242C151.142 109.755 151.593 113.549 152.514 116.625C153.454 119.701 154.78 122.022 156.493 123.588C158.206 125.135 160.241 125.909 162.599 125.909Z" fill="#1F1F23"/>
<path d="M213.886 134.253C209.907 134.253 206.37 133.571 203.276 132.208C200.2 130.845 197.769 128.948 195.982 126.517C194.195 124.085 193.247 121.276 193.136 118.09H203.525C203.617 119.618 204.123 120.954 205.044 122.096C205.965 123.219 207.19 124.094 208.719 124.721C210.248 125.347 211.961 125.66 213.858 125.66C215.884 125.66 217.68 125.31 219.246 124.61C220.811 123.892 222.036 122.897 222.92 121.626C223.804 120.355 224.237 118.891 224.219 117.233C224.237 115.52 223.795 114.01 222.893 112.702C221.99 111.394 220.682 110.372 218.969 109.635C217.275 108.898 215.23 108.53 212.836 108.53H207.835V100.628H212.836C214.807 100.628 216.529 100.287 218.002 99.6057C219.494 98.9242 220.664 97.9664 221.511 96.7323C222.359 95.4797 222.773 94.0338 222.755 92.3945C222.773 90.792 222.414 89.4013 221.677 88.2225C220.959 87.0252 219.936 86.095 218.61 85.4319C217.302 84.7688 215.764 84.4373 213.996 84.4373C212.265 84.4373 210.662 84.7504 209.189 85.3766C207.715 86.0029 206.527 86.8963 205.624 88.0567C204.722 89.1987 204.243 90.5617 204.188 92.1458H194.324C194.398 88.9777 195.31 86.1963 197.059 83.8018C198.828 81.3888 201.185 79.51 204.132 78.1654C207.08 76.8024 210.386 76.1209 214.051 76.1209C217.827 76.1209 221.106 76.83 223.887 78.2483C226.687 79.6482 228.851 81.5362 230.38 83.9123C231.909 86.2884 232.673 88.9132 232.673 91.7866C232.692 94.9732 231.752 97.644 229.855 99.7991C227.976 101.954 225.508 103.363 222.451 104.026V104.468C226.429 105.021 229.478 106.495 231.596 108.889C233.733 111.265 234.792 114.222 234.773 117.758C234.773 120.926 233.871 123.763 232.066 126.268C230.279 128.755 227.811 130.707 224.661 132.125C221.53 133.544 217.938 134.253 213.886 134.253Z" fill="#1F1F23"/>
<path fill-rule="evenodd" clip-rule="evenodd" d="M283.299 75.6306H282.735C282.122 75.6306 281.656 75.1403 281.656 74.5519V72.9584C281.656 72.3455 282.147 71.8797 282.735 71.8797H283.299C283.912 71.8797 284.377 72.37 284.377 72.9584V74.5519C284.402 75.1403 283.912 75.6306 283.299 75.6306Z" fill="#FFA943"/>
<path fill-rule="evenodd" clip-rule="evenodd" d="M279.376 75.6305H262.926C262.24 75.6305 261.701 75.0912 261.701 74.4048V73.0809C261.701 72.3945 262.24 71.8552 262.926 71.8552H279.376C280.063 71.8552 280.602 72.3945 280.602 73.0809V74.4048C280.602 75.0667 280.038 75.6305 279.376 75.6305Z" fill="#6E43D4"/>
<path fill-rule="evenodd" clip-rule="evenodd" d="M281.068 93.11H262.902C262.215 93.11 261.676 92.5707 261.676 91.8843V90.5604C261.676 89.874 262.215 89.3347 262.902 89.3347H281.068C281.754 89.3347 282.293 89.874 282.293 90.5604V91.8843C282.293 92.5707 281.754 93.11 281.068 93.11Z" fill="#6E43D4"/>
<path fill-rule="evenodd" clip-rule="evenodd" d="M297.665 87.2999H268.124C267.437 87.2999 266.898 86.7605 266.898 86.0741V84.7503C266.898 84.0639 267.437 83.5245 268.124 83.5245H297.665C298.351 83.5245 298.891 84.0639 298.891 84.7503V86.0741C298.891 86.736 298.327 87.2999 297.665 87.2999Z" fill="#FFA943"/>
<path fill-rule="evenodd" clip-rule="evenodd" d="M292.492 66.9031H262.951C262.264 66.9031 261.725 66.3637 261.725 65.6773V64.3535C261.725 63.667 262.264 63.1277 262.951 63.1277H292.492C293.178 63.1277 293.718 63.667 293.718 64.3535V65.6773C293.718 66.3392 293.178 66.9031 292.492 66.9031Z" fill="#FFD9C1"/>
<path fill-rule="evenodd" clip-rule="evenodd" d="M292.492 111.766H262.951C262.264 111.766 261.725 111.227 261.725 110.54V109.217C261.725 108.53 262.264 107.991 262.951 107.991H292.492C293.178 107.991 293.718 108.53 293.718 109.217V110.54C293.718 111.227 293.178 111.766 292.492 111.766Z" fill="#FFD9C1"/>
<path fill-rule="evenodd" clip-rule="evenodd" d="M316.713 87.2999H301.881C301.195 87.2999 300.656 86.7605 300.656 86.0741V84.7503C300.656 84.0639 301.195 83.5245 301.881 83.5245H316.713C317.4 83.5245 317.939 84.0639 317.939 84.7503V86.0741C317.939 86.736 317.4 87.2999 316.713 87.2999Z" fill="#FFD9C1"/>
<path fill-rule="evenodd" clip-rule="evenodd" d="M322.695 81.4652H322.131C321.518 81.4652 321.052 80.9749 321.052 80.3865V78.793C321.052 78.1801 321.543 77.7144 322.131 77.7144H322.695C323.308 77.7144 323.774 78.2047 323.774 78.793V80.3865C323.798 80.9749 323.308 81.4652 322.695 81.4652Z" fill="#6E43D4"/>
<path fill-rule="evenodd" clip-rule="evenodd" d="M293.522 81.4652H262.902C262.215 81.4652 261.676 80.9259 261.676 80.2395V78.9156C261.676 78.2292 262.215 77.6899 262.902 77.6899H293.522C294.208 77.6899 294.747 78.2292 294.747 78.9156V80.2395C294.747 80.9014 294.208 81.4652 293.522 81.4652Z" fill="#6E43D4"/>
<path fill-rule="evenodd" clip-rule="evenodd" d="M303.303 75.6305H286.853C286.167 75.6305 285.628 75.0912 285.628 74.4048V73.0809C285.628 72.3945 286.167 71.8552 286.853 71.8552H303.303C303.99 71.8552 304.529 72.3945 304.529 73.0809V74.4048C304.529 75.0667 303.965 75.6305 303.303 75.6305Z" fill="#6E43D4"/>
<path fill-rule="evenodd" clip-rule="evenodd" d="M318.331 81.4652H297.444C296.758 81.4652 296.218 80.9259 296.218 80.2394V78.8911C296.218 78.2047 296.758 77.6653 297.444 77.6653H318.331C319.018 77.6653 319.557 78.2047 319.557 78.8911V80.2394C319.557 80.9259 319.018 81.4652 318.331 81.4652Z" fill="#FFA943"/>
<path fill-rule="evenodd" clip-rule="evenodd" d="M279.376 126.574H262.926C262.24 126.574 261.701 126.034 261.701 125.348V124.024C261.701 123.338 262.24 122.798 262.926 122.798H279.376C280.063 122.798 280.602 123.338 280.602 124.024V125.348C280.602 126.034 280.038 126.574 279.376 126.574Z" fill="#6E43D4"/>
<path fill-rule="evenodd" clip-rule="evenodd" d="M281.068 144.078H262.902C262.215 144.078 261.676 143.538 261.676 142.852V141.528C261.676 140.842 262.215 140.302 262.902 140.302H281.068C281.754 140.302 282.293 140.842 282.293 141.528V142.852C282.293 143.514 281.754 144.078 281.068 144.078Z" fill="#6E43D4"/>
<path fill-rule="evenodd" clip-rule="evenodd" d="M297.665 138.243H268.124C267.437 138.243 266.898 137.704 266.898 137.017V135.693C266.898 135.007 267.437 134.468 268.124 134.468H297.665C298.351 134.468 298.891 135.007 298.891 135.693V137.017C298.891 137.704 298.327 138.243 297.665 138.243Z" fill="#FFA943"/>
<path fill-rule="evenodd" clip-rule="evenodd" d="M316.713 138.243H301.881C301.195 138.243 300.656 137.704 300.656 137.017V135.693C300.656 135.007 301.195 134.468 301.881 134.468H316.713C317.4 134.468 317.939 135.007 317.939 135.693V137.017C317.939 137.704 317.4 138.243 316.713 138.243Z" fill="#FFD9C1"/>
<path fill-rule="evenodd" clip-rule="evenodd" d="M322.695 132.433H322.131C321.518 132.433 321.052 131.942 321.052 131.354V129.761C321.052 129.148 321.543 128.682 322.131 128.682H322.695C323.308 128.682 323.774 129.172 323.774 129.761V131.354C323.798 131.942 323.308 132.433 322.695 132.433Z" fill="#6E43D4"/>
<path fill-rule="evenodd" clip-rule="evenodd" d="M327.5 126.574H326.936C326.323 126.574 325.857 126.083 325.857 125.495V123.901C325.857 123.288 326.348 122.823 326.936 122.823H327.5C328.113 122.823 328.579 123.313 328.579 123.901V125.495C328.603 126.083 328.113 126.574 327.5 126.574Z" fill="#6E43D4"/>
<path fill-rule="evenodd" clip-rule="evenodd" d="M293.522 132.408H262.902C262.215 132.408 261.676 131.869 261.676 131.182V129.859C261.676 129.172 262.215 128.633 262.902 128.633H293.522C294.208 128.633 294.747 129.172 294.747 129.859V131.182C294.747 131.869 294.208 132.408 293.522 132.408Z" fill="#6E43D4"/>
<path fill-rule="evenodd" clip-rule="evenodd" d="M303.303 126.574H282.882C282.196 126.574 281.656 126.034 281.656 125.348V124.024C281.656 123.338 282.196 122.798 282.882 122.798H303.303C303.99 122.798 304.529 123.338 304.529 124.024V125.348C304.529 126.034 303.965 126.574 303.303 126.574Z" fill="#FFA943"/>
<path fill-rule="evenodd" clip-rule="evenodd" d="M323.651 126.574H307.201C306.515 126.574 305.975 126.034 305.975 125.348V124.024C305.975 123.338 306.515 122.798 307.201 122.798H323.651C324.337 122.798 324.877 123.338 324.877 124.024V125.348C324.877 126.034 324.337 126.574 323.651 126.574Z" fill="#FFA943"/>
<path fill-rule="evenodd" clip-rule="evenodd" d="M283.299 120.935H282.735C282.122 120.935 281.656 120.445 281.656 119.856V118.263C281.656 117.65 282.147 117.184 282.735 117.184H283.299C283.912 117.184 284.377 117.674 284.377 118.263V119.856C284.402 120.445 283.912 120.935 283.299 120.935Z" fill="#FFA943"/>
<path fill-rule="evenodd" clip-rule="evenodd" d="M279.376 120.935H262.926C262.24 120.935 261.701 120.396 261.701 119.709V118.385C261.701 117.699 262.24 117.16 262.926 117.16H279.376C280.063 117.16 280.602 117.699 280.602 118.385V119.709C280.602 120.371 280.038 120.935 279.376 120.935Z" fill="#6E43D4"/>
<path fill-rule="evenodd" clip-rule="evenodd" d="M303.303 120.935H286.853C286.167 120.935 285.628 120.396 285.628 119.709V118.385C285.628 117.699 286.167 117.16 286.853 117.16H303.303C303.99 117.16 304.529 117.699 304.529 118.385V119.709C304.529 120.371 303.965 120.935 303.303 120.935Z" fill="#6E43D4"/>
<path fill-rule="evenodd" clip-rule="evenodd" d="M318.331 132.433H297.444C296.758 132.433 296.218 131.893 296.218 131.207V129.859C296.218 129.172 296.758 128.633 297.444 128.633H318.331C319.018 128.633 319.557 129.172 319.557 129.859V131.207C319.557 131.869 319.018 132.433 318.331 132.433Z" fill="#FFA943"/>
<path fill-rule="evenodd" clip-rule="evenodd" d="M85.2879 32.2383C87.2511 32.2383 88.8426 30.6468 88.8426 28.6836C88.8426 26.7204 87.2511 25.1288 85.2879 25.1288C83.3247 25.1288 81.7332 26.7204 81.7332 28.6836C81.7332 30.6468 83.3247 32.2383 85.2879 32.2383Z" fill="#FF863D"/>
<path fill-rule="evenodd" clip-rule="evenodd" d="M99.1636 32.2383C101.127 32.2383 102.718 30.6468 102.718 28.6836C102.718 26.7204 101.127 25.1288 99.1636 25.1288C97.2004 25.1288 95.6089 26.7204 95.6089 28.6836C95.6089 30.6468 97.2004 32.2383 99.1636 32.2383Z" fill="#A0DE1C"/>
<path fill-rule="evenodd" clip-rule="evenodd" d="M113.015 32.2383C114.978 32.2383 116.57 30.6468 116.57 28.6836C116.57 26.7204 114.978 25.1288 113.015 25.1288C111.052 25.1288 109.46 26.7204 109.46 28.6836C109.46 30.6468 111.052 32.2383 113.015 32.2383Z" fill="#EFC901"/>
<path fill-rule="evenodd" clip-rule="evenodd" d="M109.117 179.87H102.547L78.9875 117.871C77.6882 114.463 73.6922 114.512 72.4664 117.969L50.378 179.87H43.955C42.6311 179.87 41.528 181.194 41.528 182.837V186.759C41.528 188.402 42.6066 189.726 43.955 189.726H109.092C110.416 189.726 111.519 188.402 111.519 186.759V182.837C111.544 181.194 110.465 179.87 109.117 179.87Z" fill="#FFA943"/>
<path fill-rule="evenodd" clip-rule="evenodd" d="M101.444 179.135C101.85 179.135 102.179 179.464 102.179 179.87C102.179 180.262 101.873 180.582 101.487 180.605L101.444 180.606H51.3586C50.9524 180.606 50.6232 180.276 50.6232 179.87C50.6232 179.479 50.9293 179.158 51.3154 179.136L51.3586 179.135H101.444Z" fill="#1F1F23"/>
<path fill-rule="evenodd" clip-rule="evenodd" d="M99.1882 170.775H53.6385L57.3159 160.405H95.2412L99.1882 170.775Z" fill="white"/>
<path fill-rule="evenodd" clip-rule="evenodd" d="M61.6305 148.368H90.6077L86.6607 137.998H65.3323L61.6305 148.368Z" fill="white"/>
<path fill-rule="evenodd" clip-rule="evenodd" d="M155.23 184.234H151.578L138.486 149.79C137.775 147.902 135.544 147.927 134.858 149.839L122.6 184.234H119.046C118.31 184.234 117.697 184.97 117.697 185.877V188.058C117.697 188.966 118.31 189.701 119.046 189.701H155.23C155.966 189.701 156.579 188.966 156.579 188.058V185.877C156.579 184.97 155.966 184.234 155.23 184.234Z" fill="#FFA943"/>
<path fill-rule="evenodd" clip-rule="evenodd" d="M150.965 183.499C151.371 183.499 151.7 183.828 151.7 184.234C151.7 184.626 151.394 184.946 151.008 184.968L150.965 184.97H123.14C122.733 184.97 122.404 184.64 122.404 184.234C122.404 183.842 122.71 183.522 123.096 183.5L123.14 183.499H150.965Z" fill="#1F1F23"/>
<path fill-rule="evenodd" clip-rule="evenodd" d="M149.714 179.184H124.414L126.449 173.423H147.508L149.714 179.184Z" fill="white"/>
<path fill-rule="evenodd" clip-rule="evenodd" d="M128.852 166.755H144.934L142.752 160.993H130.911L128.852 166.755Z" fill="white"/>
<path fill-rule="evenodd" clip-rule="evenodd" d="M295.287 178.228C296.317 178.326 297.493 178.424 298.744 178.547C298.817 178.277 298.891 178.007 298.964 177.738L299.087 155.944C299.087 154.424 300.337 153.198 301.857 153.198L316.615 153.271C323.945 148.197 332.795 145.206 342.307 145.255C366.872 145.402 386.974 165.676 386.925 190.241L294.772 190.167C291.928 190.167 289.599 187.838 289.624 184.994V183.327C289.697 180.312 292.272 177.958 295.287 178.228Z" fill="#FFA943"/>
<path fill-rule="evenodd" clip-rule="evenodd" d="M308.105 160.718C308.38 160.418 308.845 160.398 309.144 160.672C309.444 160.946 309.464 161.412 309.19 161.711C305.403 165.846 303.011 169.768 301.736 173.372C301.274 174.675 300.989 175.86 300.845 176.912C300.787 177.335 300.757 177.699 300.746 178.002L300.742 178.13L300.77 178.141C307.868 180.76 316.918 182.721 327.466 184.096L327.834 184.144C336.069 185.204 344.858 185.867 353.796 186.206L354.502 186.232C360.452 186.446 365.753 186.496 370.038 186.449L371.109 186.435L371.412 186.429L371.491 185.772C371.513 185.588 371.536 185.405 371.558 185.225L371.627 184.694L371.707 184.1L371.767 183.68C371.85 183.11 371.922 182.694 371.985 182.446L371.994 182.408C372.864 179.037 374.591 176.788 376.919 175.513C378.76 174.506 380.669 174.233 382.281 174.36L382.418 174.372C382.471 174.377 382.513 174.382 382.543 174.387C382.945 174.444 383.225 174.817 383.167 175.219C383.112 175.607 382.763 175.88 382.378 175.848L382.262 175.834C382.236 175.832 382.204 175.829 382.166 175.826C380.814 175.72 379.178 175.954 377.625 176.804C375.689 177.863 374.236 179.731 373.456 182.632L373.417 182.78C373.365 182.978 373.287 183.437 373.195 184.078L373.144 184.442C373.125 184.584 373.105 184.732 373.085 184.885L373.018 185.41C372.984 185.677 372.951 185.95 372.918 186.225L372.8 187.233C372.761 187.584 372.479 187.855 372.132 187.885L372.077 187.887L371.457 187.9C371.251 187.904 371.024 187.907 370.776 187.911L369.81 187.922C365.547 187.965 360.311 187.913 354.449 187.702C345.226 187.37 336.147 186.697 327.647 185.603C316.59 184.18 307.133 182.122 299.758 179.333C299.497 179.234 299.314 178.995 299.286 178.717L299.279 178.621L299.278 178.588C299.255 178.131 299.28 177.502 299.387 176.713C299.545 175.562 299.854 174.28 300.349 172.881C301.692 169.088 304.187 164.996 308.105 160.718Z" fill="#1F1F23"/>
</svg>
