<svg width="59" height="60" viewBox="0 0 59 60" fill="none" xmlns="http://www.w3.org/2000/svg">
	<path d="M8.99745 0.75H50.0661C54.538 0.75 58.1886 4.40055 58.1886 8.87247V51.1275C58.1886 55.5995 54.538 59.25 50.0661 59.25H8.99745C4.52553 59.25 0.874985 55.5995 0.874985 51.1275V8.7812C0.874985 4.40055 4.52553 0.75 8.99745 0.75Z" fill="#5A2FBF" />
	<path d="M27.3414 38.9895L15.3859 26.9427L0.874985 41.4536V44.5566V51.1276C0.874985 55.5995 4.52553 59.25 8.99745 59.25H50.0661C54.538 59.25 58.1886 55.5995 58.1886 51.1276V44.5566V35.5215L44.5903 21.8319L27.3414 38.9895Z" fill="#9A8BEE" />
	<path d="M27.0677 25.2087C29.8903 25.2087 32.1784 22.9205 32.1784 20.0979C32.1784 17.2754 29.8903 14.9872 27.0677 14.9872C24.2451 14.9872 21.9569 17.2754 21.9569 20.0979C21.9569 22.9205 24.2451 25.2087 27.0677 25.2087Z" fill="#E4E3FC" />
</svg>
