<svg width="420" height="210" viewBox="0 0 420 210" fill="none" xmlns="http://www.w3.org/2000/svg">
<g clip-path="url(#clip0_203_1136)">
<path fill-rule="evenodd" clip-rule="evenodd" d="M343.708 178.567C339.589 180.87 331.967 183.627 325.675 177.464C319.188 171.14 314.55 171.269 312.377 171.886C311.728 171.756 311.015 172.048 310.658 172.664L297.004 197.476C295.933 199.422 293.858 200.654 291.62 200.654H247.154C246.278 200.654 245.565 201.368 245.565 202.243C245.565 203.119 246.278 203.832 247.154 203.832H291.62C295.025 203.832 298.139 201.984 299.793 199L307.772 184.47C310.755 184.859 314.81 186.189 318.604 189.919C325.934 197.054 334.529 193.032 337.675 191.119C338.453 190.665 339.07 189.983 339.524 189.205L344.875 179.767C345.362 178.989 344.486 178.113 343.708 178.567Z" fill="#5D21D1"/>
<path fill-rule="evenodd" clip-rule="evenodd" d="M123.032 149.864C122.838 149.442 122.319 149.28 121.929 149.507C121.8 149.572 120.438 150.415 114.502 153.366L111.778 154.696C98.837 160.923 79.7339 168.837 71.9823 165.561C71.658 165.432 71.3012 165.496 71.0742 165.756C71.0418 165.788 68.2525 168.805 62.1551 171.659C56.5441 174.286 46.879 177.27 32.7706 176.589C32.2841 176.556 31.8625 176.978 31.9598 177.497C32.0246 177.886 32.349 178.145 32.7382 178.178C34.0031 178.243 35.2031 178.275 36.4031 178.275L36.9869 182.102C37.1166 182.945 38.2518 183.172 38.6734 182.427L41.1384 178.145C42.8573 178.048 44.5114 177.886 46.1006 177.691L47.0088 180.999C47.2358 181.81 48.371 181.908 48.7277 181.162L50.6737 176.978C52.0035 176.718 53.2359 176.426 54.4035 176.134L55.1495 178.891C55.3765 179.702 56.5117 179.799 56.8685 179.053L58.8793 174.772C60.3712 174.253 61.6686 173.702 62.8362 173.151L63.3551 175.064C63.5821 175.875 64.7173 175.972 65.0741 175.226L67.0849 170.88C69.712 169.291 71.2688 167.896 71.9499 167.215C73.604 167.799 75.6148 167.961 77.8852 167.832L79.2474 171.205C79.5717 171.983 80.642 171.951 80.9339 171.172L82.4258 167.248C83.8529 166.988 85.3124 166.664 86.8043 166.242L87.4205 168.869C87.6151 169.713 88.7503 169.842 89.1071 169.064L91.2152 164.913C92.6423 164.459 94.0693 163.94 95.4964 163.421L96.0478 165.788C96.2423 166.599 97.3126 166.761 97.7343 166.048L100.264 161.604C101.529 161.085 102.794 160.567 104.059 160.015L104.675 162.286C104.902 163.096 106.037 163.194 106.394 162.448L108.405 158.102C109.767 157.485 111.064 156.869 112.329 156.253L112.816 158.102C113.043 158.912 114.178 159.01 114.535 158.264L116.383 154.307C121.411 151.777 122.351 151.193 122.838 150.934C123.032 150.707 123.227 150.253 123.032 149.864Z" fill="#5D21D1"/>
<path fill-rule="evenodd" clip-rule="evenodd" d="M161.66 138.415C161.336 138.285 160.979 138.35 160.752 138.609C160.72 138.642 157.93 141.658 151.833 144.512C146.222 147.139 136.557 150.123 122.448 149.442C121.962 149.41 121.54 149.831 121.638 150.35C121.702 150.739 122.027 150.999 122.416 151.031C123.681 151.096 124.881 151.129 126.081 151.129L126.632 154.891C126.762 155.766 127.93 155.993 128.384 155.215L130.784 150.999C132.503 150.901 134.157 150.739 135.746 150.545L136.622 153.788C136.849 154.631 138.016 154.729 138.373 153.95L140.287 149.831C141.616 149.572 142.849 149.28 144.016 148.988L145.054 152.101C145.346 152.945 146.514 152.977 146.838 152.134L148.492 147.626C149.984 147.107 151.281 146.555 152.449 146.004L152.936 147.853C153.163 148.696 154.33 148.793 154.687 148.015L156.665 143.766C159.292 142.177 160.849 140.782 161.53 140.101" fill="#5D21D1"/>
<path fill-rule="evenodd" clip-rule="evenodd" d="M368.292 156.577C368.13 156.156 367.643 155.929 367.254 156.123C354.767 161.345 341.632 158.718 328.237 148.372C318.15 140.588 311.728 131.085 311.664 131.02C311.404 130.663 310.918 130.566 310.561 130.793C310.204 131.052 310.107 131.539 310.334 131.896C310.366 131.96 312.247 134.75 315.588 138.544L317.177 146.166C317.339 147.009 318.475 147.172 318.896 146.458L320.485 143.766C321.848 145.096 323.307 146.426 324.864 147.723L326.55 153.593C326.777 154.372 327.815 154.502 328.237 153.82L329.729 151.485C331.059 152.426 332.388 153.269 333.751 154.08L336.086 160.664C336.345 161.41 337.383 161.507 337.772 160.826L339.848 157.194C341.145 157.745 342.41 158.199 343.708 158.588L346.756 163.907C347.178 164.621 348.216 164.491 348.475 163.713L349.61 159.918C351.265 160.145 352.919 160.275 354.573 160.275C354.702 160.275 354.832 160.275 354.962 160.275L358.238 164.556C358.692 165.172 359.665 164.977 359.892 164.232L361.222 159.594C363.427 159.139 365.6 158.491 367.773 157.583C368.195 157.421 368.454 156.966 368.292 156.577Z" fill="#5D21D1"/>
<path fill-rule="evenodd" clip-rule="evenodd" d="M32.6084 176.362C33.1266 176.362 33.5501 176.767 33.5797 177.277L33.5814 177.335V209.379C33.5814 209.916 33.1457 210.352 32.6084 210.352C32.0902 210.352 31.6666 209.946 31.637 209.436L31.6354 209.379V177.335C31.6354 176.797 32.071 176.362 32.6084 176.362Z" fill="#FFA943"/>
<path fill-rule="evenodd" clip-rule="evenodd" d="M71.6256 165.334C72.1438 165.334 72.5674 165.739 72.597 166.25L72.5986 166.307V208.86C72.5986 209.397 72.163 209.833 71.6256 209.833C71.1075 209.833 70.6839 209.428 70.6543 208.917L70.6526 208.86V166.307C70.6526 165.77 71.0883 165.334 71.6256 165.334Z" fill="#FFA943"/>
<path fill-rule="evenodd" clip-rule="evenodd" d="M122.416 149.183C122.934 149.183 123.358 149.588 123.387 150.098L123.389 150.155V208.795C123.389 209.332 122.953 209.768 122.416 209.768C121.898 209.768 121.474 209.363 121.445 208.852L121.443 208.795V150.155C121.443 149.618 121.879 149.183 122.416 149.183Z" fill="#FFA943"/>
<path fill-rule="evenodd" clip-rule="evenodd" d="M367.643 155.734C368.161 155.734 368.585 156.139 368.615 156.65L368.616 156.707V209.379C368.616 209.916 368.181 210.352 367.643 210.352C367.125 210.352 366.702 209.946 366.672 209.436L366.67 209.379V156.707C366.67 156.17 367.106 155.734 367.643 155.734Z" fill="#FFA943"/>
<path fill-rule="evenodd" clip-rule="evenodd" d="M307.966 126.901L190.558 127.679C188.677 127.679 186.99 128.652 186.212 130.144L148.33 199.065L52.0684 199.13C52.0684 199.13 50.4143 208.795 64.2633 209.379L271.836 209.119L312.377 133.063C313.934 130.177 311.534 126.868 307.966 126.901Z" fill="#FFA943"/>
<path fill-rule="evenodd" clip-rule="evenodd" d="M160.395 198.773L259.544 198.351L290.225 138.577C291.425 136.274 289.836 133.485 287.371 133.517L197.272 134.62L160.395 198.773Z" fill="white"/>
<path fill-rule="evenodd" clip-rule="evenodd" d="M298.26 126.966C302.51 126.928 305.405 130.894 303.625 134.452L303.57 134.56L263.418 209.578C263.164 210.052 262.574 210.23 262.101 209.977C261.644 209.733 261.462 209.177 261.675 208.713L261.702 208.66L301.852 133.647C303.014 131.445 301.173 128.886 298.277 128.911C297.74 128.916 297.3 128.485 297.296 127.947C297.291 127.41 297.723 126.97 298.26 126.966Z" fill="white"/>
<path fill-rule="evenodd" clip-rule="evenodd" d="M156.082 155.991L161.032 176.548C161.301 177.525 162.676 177.519 162.934 176.558L164.478 168.23C164.478 168.23 164.927 189.391 172.629 191.986C180.332 194.58 193.52 175.419 193.52 175.419L189.072 183.748C188.806 184.739 190.002 185.403 190.724 184.691L206.005 169.368" fill="#5D21D1"/>
<path fill-rule="evenodd" clip-rule="evenodd" d="M162.469 83.3418C162.469 83.3418 130.752 108.621 126.198 137.619L177.548 151.378L193.726 90.9992L162.469 83.3418Z" fill="#5D21D1"/>
<path fill-rule="evenodd" clip-rule="evenodd" d="M235.634 102.947C235.634 102.947 250.462 140.697 239.907 168.088L188.557 154.329L204.736 93.9493L235.634 102.947Z" fill="#5D21D1"/>
<path fill-rule="evenodd" clip-rule="evenodd" d="M203.994 158.465C233.211 128.302 238.595 99.5878 238.023 78.7686C237.423 57.9416 229.668 32.825 216.823 29.3832C203.978 25.9415 184.704 43.8156 173.77 61.552C162.837 79.2885 152.88 106.777 163.101 147.507L154.412 157.916L206.402 171.847L203.994 158.465Z" fill="white"/>
<path fill-rule="evenodd" clip-rule="evenodd" d="M217.057 28.5095C210.664 26.7965 202.599 29.9271 194.014 36.8204C186.327 42.9922 178.665 51.8875 173 61.0774C166.538 71.56 161.95 82.8912 159.613 95.7452L159.528 96.2154C156.834 111.439 157.456 128.151 161.944 146.596L162.112 147.28L153.717 157.336C153.294 157.844 153.539 158.619 154.178 158.79L206.168 172.721L206.219 172.733C206.84 172.863 207.407 172.322 207.293 171.687L204.966 158.76L205.461 158.245C218.714 144.365 227.707 130.063 233.03 115.422C237.509 103.101 239.263 90.9705 238.928 78.7438C238.616 67.9514 236.429 56.4171 232.858 47.2287C228.869 36.9662 223.45 30.2224 217.057 28.5095ZM216.589 30.257C222.292 31.7852 227.371 38.1054 231.171 47.8842C234.665 56.8723 236.814 68.2032 237.119 78.7947C237.449 90.8021 235.727 102.707 231.329 114.804C225.986 129.501 216.871 143.871 203.345 157.835L203.303 157.882C203.13 158.087 203.056 158.359 203.104 158.625L205.259 170.604L156.013 157.409L163.795 148.087C163.981 147.865 164.049 147.568 163.978 147.287C159.251 128.45 158.592 111.471 161.393 96.0688C163.687 83.4488 168.191 72.3262 174.54 62.0268C180.1 53.0069 187.627 44.2686 195.146 38.2312C203.327 31.6628 210.886 28.7289 216.589 30.257Z" fill="#2E186A"/>
<path fill-rule="evenodd" clip-rule="evenodd" d="M197.281 102.316C205.388 104.488 214.057 98.4252 216.643 88.7735C219.229 79.1218 214.753 69.5366 206.646 67.3642C198.538 65.1918 189.87 71.255 187.283 80.9066C184.697 90.5583 189.173 100.144 197.281 102.316Z" fill="#5D21D1"/>
<path fill-rule="evenodd" clip-rule="evenodd" d="M195.173 110.18C196.525 110.542 197.97 109.532 198.401 107.923C198.832 106.314 198.086 104.717 196.734 104.355C195.383 103.993 193.938 105.003 193.507 106.612C193.076 108.221 193.822 109.818 195.173 110.18Z" fill="#5D21D1"/>
<path fill-rule="evenodd" clip-rule="evenodd" d="M204.611 112.709C205.962 113.071 207.407 112.06 207.838 110.452C208.269 108.843 207.523 107.246 206.171 106.883C204.82 106.521 203.375 107.532 202.944 109.141C202.513 110.749 203.259 112.347 204.611 112.709Z" fill="#5D21D1"/>
<path fill-rule="evenodd" clip-rule="evenodd" d="M185.008 107.456C186.359 107.818 187.804 106.808 188.235 105.199C188.666 103.591 187.92 101.993 186.569 101.631C185.218 101.269 183.773 102.28 183.342 103.888C182.911 105.497 183.657 107.094 185.008 107.456Z" fill="#5D21D1"/>
<path fill-rule="evenodd" clip-rule="evenodd" d="M198.888 96.3159C205.017 97.9581 211.568 93.3821 213.521 86.0951C215.473 78.8081 212.088 71.5695 205.959 69.9273C199.83 68.2851 193.279 72.8611 191.327 80.1481C189.374 87.4351 192.76 94.6737 198.888 96.3159Z" fill="white"/>
<path fill-rule="evenodd" clip-rule="evenodd" d="M206.193 69.0535C199.545 67.2722 192.526 72.1747 190.453 79.914C188.379 87.6533 192.006 95.4083 198.654 97.1897C205.302 98.9711 212.321 94.0686 214.395 86.3292C216.468 78.5899 212.841 70.8349 206.193 69.0535ZM205.725 70.8011C211.335 72.3042 214.479 79.0263 212.647 85.861C210.816 92.6956 204.732 96.9452 199.123 95.4421C193.513 93.9391 190.369 87.2169 192.2 80.3823C194.032 73.5476 200.116 69.298 205.725 70.8011Z" fill="#2E186A"/>
<path fill-rule="evenodd" clip-rule="evenodd" d="M219.548 29.5827L225.081 8.93201C225.097 8.87375 225.112 8.8155 225.136 8.72812C225.655 8.3053 226.067 7.69783 226.255 6.99879C226.731 5.22208 225.686 3.41246 223.909 2.93639C222.132 2.46032 220.323 3.5051 219.847 5.28182C219.659 5.98086 219.713 6.7132 219.951 7.33893C219.936 7.39719 219.92 7.45544 219.897 7.54282L214.371 28.1644C208.686 27.8274 202.088 30.8982 195.542 35.6375C201.449 35.8466 208.131 36.8879 215.478 39.2936C222.047 41.4595 227.739 43.9836 232.617 46.6331C229.268 38.743 224.87 32.3201 219.548 29.5827Z" fill="#5D21D1"/>
<path fill-rule="evenodd" clip-rule="evenodd" d="M234.609 58.655C228.75 54.7748 221.859 50.8993 212.028 47.8593C201.994 44.7648 193.696 44.9763 186.712 45.7584C182.571 50.1433 179.029 54.626 175.793 59.5965C184.357 57.9266 194.694 56.5133 208.866 60.5918C222.348 64.4539 230.864 69.9513 237.099 74.9934C236.747 69.4358 235.906 64.1846 234.609 58.655Z" fill="#5D21D1"/>
<path fill-rule="evenodd" clip-rule="evenodd" d="M203.276 158.116C204.661 156.677 206.009 155.258 207.298 153.825C203.326 150.825 197.324 147.593 185.904 144.658C174.422 141.488 167.572 141.307 162.624 141.948C163.031 143.805 163.46 145.7 163.918 147.602C163.918 147.602 174.556 148.329 184.173 151C193.692 153.457 203.276 158.116 203.276 158.116Z" fill="#5D21D1"/>
<path fill-rule="evenodd" clip-rule="evenodd" d="M411.623 208.406C412.16 208.406 412.596 208.841 412.596 209.378C412.596 209.897 412.191 210.32 411.68 210.35L411.623 210.351H9.12674C8.58937 210.351 8.15375 209.916 8.15375 209.378C8.15375 208.86 8.55881 208.437 9.06957 208.407L9.12674 208.406H411.623Z" fill="#2E186A"/>
<path fill-rule="evenodd" clip-rule="evenodd" d="M78.3716 197.878H129.357C129.357 197.878 136.686 191.294 133.313 185.91C129.94 180.526 121.086 179.229 118.2 184.678C118.2 184.678 116.935 174.267 106.264 175.078C95.5612 175.888 96.4045 187.013 96.4045 187.013C96.4045 187.013 82.8798 177.445 83.2366 192.397C83.269 192.364 82.4258 197.846 78.3716 197.878Z" fill="white"/>
<path fill-rule="evenodd" clip-rule="evenodd" d="M78.3716 198.851H103.864H129.357C129.597 198.851 129.828 198.762 130.007 198.602L130.086 198.529C130.259 198.369 130.511 198.122 130.819 197.797C131.414 197.171 132.008 196.471 132.564 195.713C134.353 193.27 135.363 190.784 135.145 188.37C135.051 187.321 134.72 186.323 134.138 185.394L134.021 185.211C130.564 179.944 122.736 178.573 118.749 182.358L118.662 182.443L118.589 182.221C118.256 181.239 117.813 180.267 117.24 179.343C115.039 175.788 111.47 173.76 106.369 174.095L106.191 174.107C101.284 174.479 98.1552 176.897 96.5593 180.64C96.0261 181.891 95.6981 183.219 95.5339 184.562L95.5129 184.743C95.4996 184.862 95.4878 184.979 95.4774 185.094L95.4616 185.28L95.2566 185.165C94.9313 184.983 94.5933 184.805 94.2451 184.633C92.7921 183.915 91.3535 183.395 89.9811 183.16L89.8354 183.136C85.0926 182.392 82.1535 185.231 82.2596 192.205L82.2623 192.354L82.2472 192.44C82.2182 192.593 82.1756 192.779 82.1209 192.981C81.9669 193.551 81.7514 194.13 81.4735 194.664L81.4174 194.769C80.7 196.093 79.7391 196.855 78.465 196.903L78.3638 196.905C77.0717 196.915 77.0794 198.851 78.3716 198.851ZM115.586 180.367C116.189 181.34 116.63 182.39 116.931 183.439C117.037 183.806 117.117 184.145 117.175 184.447L117.218 184.686L117.234 184.795C117.346 185.722 118.562 185.965 119.031 185.183L119.059 185.133C121.464 180.593 129.356 181.426 132.489 186.427C132.907 187.094 133.14 187.798 133.207 188.545C133.373 190.389 132.53 192.466 130.994 194.562C130.49 195.25 129.949 195.888 129.408 196.458L129.315 196.555L129.136 196.738C129.078 196.796 129.022 196.852 128.968 196.905L82.3252 196.905L82.333 196.896C82.6553 196.501 82.9439 196.054 83.1996 195.563C83.5476 194.894 83.8112 194.186 83.9995 193.489C84.0672 193.239 84.1209 193.004 84.1591 192.803L84.18 192.687C84.1861 192.651 84.1912 192.618 84.1954 192.588L84.202 192.537L84.2087 192.464L84.21 192.353L84.208 192.314L84.2035 192.018C84.1759 188.923 84.7846 186.94 85.8651 185.903C86.7511 185.053 88.0231 184.8 89.653 185.078C90.8151 185.277 92.085 185.736 93.3828 186.378C94.0206 186.693 94.6229 187.031 95.1693 187.369L95.3874 187.506C95.422 187.528 95.4558 187.55 95.4886 187.571L95.7148 187.72L95.8426 187.807C96.4998 188.272 97.3961 187.783 97.3774 186.994L97.3689 186.826C97.3472 186.292 97.3682 185.595 97.4656 184.798C97.6089 183.625 97.8937 182.473 98.3495 181.404C99.6522 178.348 102.116 176.416 106.168 176.062L106.338 176.048C110.777 175.71 113.727 177.365 115.586 180.367Z" fill="#2E186A"/>
<path fill-rule="evenodd" clip-rule="evenodd" d="M261.988 197.878H211.003C211.003 197.878 203.674 191.294 207.047 185.91C210.42 180.526 219.274 179.229 222.16 184.678C222.16 184.678 223.425 174.267 234.096 175.078C244.799 175.888 243.956 187.013 243.956 187.013C243.956 187.013 257.48 177.445 257.123 192.397C257.091 192.364 257.934 197.878 261.988 197.878Z" fill="white"/>
<path fill-rule="evenodd" clip-rule="evenodd" d="M211.003 198.851H261.988L262.054 198.849C263.264 198.786 263.264 196.97 262.054 196.907L261.988 196.905C260.634 196.905 259.628 196.104 258.887 194.677C258.609 194.142 258.393 193.56 258.239 192.987C258.194 192.817 258.157 192.659 258.129 192.522L258.103 192.387L258.097 192.355L258.096 192.42C258.268 185.217 255.256 182.326 250.379 183.16C249.006 183.395 247.568 183.915 246.115 184.633L245.856 184.763C245.598 184.895 245.347 185.029 245.103 185.165L244.898 185.28L244.897 185.265C244.879 185.039 244.856 184.805 244.826 184.562C244.662 183.219 244.334 181.891 243.801 180.64C242.224 176.941 239.149 174.536 234.342 174.121L234.17 174.107C228.974 173.713 225.347 175.747 223.119 179.343L222.99 179.557C222.48 180.416 222.079 181.315 221.771 182.221L221.698 182.443L221.611 182.358C217.578 178.529 209.616 179.976 206.222 185.394C205.64 186.323 205.309 187.321 205.215 188.37C204.997 190.784 206.007 193.27 207.796 195.712C208.352 196.471 208.946 197.171 209.541 197.797L209.69 197.953C209.979 198.252 210.208 198.471 210.353 198.602C210.532 198.762 210.763 198.851 211.003 198.851ZM234.022 176.048C238.176 176.362 240.69 178.305 242.011 181.404C242.466 182.473 242.751 183.625 242.894 184.798C242.985 185.542 243.01 186.199 242.995 186.717L242.99 186.859L242.985 186.939C242.925 187.742 243.805 188.259 244.472 187.838L244.645 187.72L244.871 187.571C244.97 187.507 245.077 187.44 245.191 187.369C245.737 187.031 246.339 186.693 246.977 186.378C248.275 185.736 249.545 185.277 250.707 185.078C252.337 184.8 253.609 185.053 254.495 185.903L254.556 185.963C255.598 187.016 256.184 188.982 256.157 192.018L256.152 192.317L256.15 192.349L256.151 192.464L256.158 192.536L256.165 192.588C256.171 192.632 256.179 192.685 256.19 192.743L256.201 192.804C256.239 193.006 256.293 193.241 256.36 193.492C256.548 194.192 256.812 194.903 257.16 195.574L257.218 195.685C257.425 196.07 257.653 196.427 257.902 196.752L258.023 196.905H211.391L211.309 196.824C211.197 196.712 211.078 196.59 210.952 196.458C210.411 195.888 209.87 195.25 209.366 194.562C207.83 192.466 206.987 190.389 207.153 188.545C207.22 187.798 207.453 187.094 207.871 186.427C210.973 181.476 218.738 180.611 221.227 184.999L221.301 185.133C221.738 185.958 222.96 185.75 223.118 184.852L223.137 184.72C223.147 184.656 223.163 184.564 223.185 184.447C223.243 184.145 223.323 183.806 223.429 183.439C223.73 182.39 224.171 181.34 224.774 180.367C226.634 177.365 229.583 175.71 234.022 176.048Z" fill="#2E186A"/>
</g>
<defs>
<clipPath id="clip0_203_1136">
<rect width="420" height="210" fill="white"/>
</clipPath>
</defs>
</svg>
