<svg width="420" height="210" viewBox="0 0 420 210" fill="none" xmlns="http://www.w3.org/2000/svg">
<path d="M65.3728 76.85C66.8556 74.7192 68.1531 72.4032 69.1725 69.9019C70.192 67.4005 70.8407 64.8066 71.3041 62.3052L64.3534 60.545C64.6314 58.1363 64.6314 55.8203 64.2607 53.4116L71.2114 51.5588C70.3773 46.3708 68.2458 41.3682 65.0948 37.1067L58.8855 40.8123C57.4953 38.9595 55.7345 37.2919 53.8809 35.8097L57.4953 29.6027C55.3638 28.1204 53.0469 26.8234 50.5446 25.8044C48.0423 24.7853 45.4474 24.1368 42.9451 23.6736L41.1843 30.6217C38.7747 30.3438 36.4578 30.3438 34.0482 30.7144L32.1947 23.7662C27.0048 24.6 22.0003 26.7308 17.7371 29.8806L21.4442 36.0876C19.5907 37.4772 17.9225 39.2374 16.4397 41.0903L10.2304 37.4772C8.74753 39.608 7.45007 41.924 6.43063 44.4254C5.41119 46.9267 4.76245 49.5207 4.29907 52.022L11.2498 53.7822C10.9718 56.1909 10.9718 58.5069 11.3425 60.9156L4.39175 62.7684C5.22584 67.9564 7.35739 72.959 10.5084 77.2206L16.7177 73.5149C18.1078 75.3677 19.8687 77.0353 21.7222 78.5175L18.1078 84.7245C20.2394 86.2068 22.5563 87.5038 25.0586 88.5229C27.5608 89.5419 30.1558 90.1904 32.6581 90.6536L34.4189 83.7055C36.8285 83.9834 39.1454 83.9834 41.555 83.6129L43.4085 90.561C48.5984 89.7272 53.6029 87.5964 57.866 84.4466L54.159 78.2396C56.0125 76.85 57.6807 75.0898 59.1635 73.237L65.3728 76.85ZM31.5459 72.7738C22.927 69.2534 18.7566 59.4333 22.2783 50.8176C25.8 42.202 35.6237 38.0331 44.2426 41.5535C52.8615 45.0739 57.0319 54.8939 53.5102 63.5096C49.9885 72.1253 40.1648 76.2941 31.5459 72.7738ZM33.3995 68.3269C27.2828 65.8256 24.3172 58.8775 26.8194 52.6705C29.3217 46.5561 36.2724 43.5916 42.4817 46.0929C48.5984 48.5942 51.564 55.5424 49.0618 61.7494C46.4668 67.8637 39.5161 70.7356 33.3995 68.3269Z" fill="#E4E3FC"/>
<path d="M116.789 60.2675C117.994 58.8779 119.013 57.3956 119.94 55.7281C120.867 54.0605 121.515 52.3003 121.979 50.5402L117.252 48.8726C117.623 47.205 117.808 45.5375 117.716 43.9626L122.72 43.2214C122.442 39.5158 121.33 35.9027 119.477 32.7529L114.935 34.8837C114.101 33.4941 112.989 32.1971 111.784 31.0854L114.75 27.0091C113.36 25.8048 111.877 24.7857 110.209 23.8593C108.541 22.9329 106.78 22.2844 105.019 21.8212L103.351 26.5459C101.683 26.1753 100.014 25.9901 98.439 26.0827L97.6976 21.08C93.9905 21.358 90.3761 22.4697 87.2251 24.3225L89.1713 28.862C87.7812 29.6957 86.4837 30.8074 85.3716 32.0118L81.2938 29.0472C80.089 30.4369 79.0696 31.9191 78.1428 33.5867C77.2161 35.2542 76.5673 37.0144 76.1039 38.7746L80.8305 40.4422C80.4597 42.1097 80.2744 43.7773 80.3671 45.3522L75.3625 46.0933C75.6406 49.799 76.7527 53.412 78.6062 56.5619L83.1474 54.4311C83.9814 55.8207 85.0936 57.1177 86.2984 58.2294L83.3327 62.3057C84.7229 63.51 86.2057 64.5291 87.8739 65.4555C89.542 66.3819 91.3029 67.0304 93.0637 67.4936L94.7319 62.7689C96.4001 63.1394 98.0683 63.3247 99.6438 63.2321L100.385 68.2347C104.092 67.9568 107.707 66.8451 110.858 64.9923L108.726 60.4528C110.116 59.619 111.414 58.5073 112.526 57.303L116.789 60.2675ZM95.1026 52.2077C90.9322 49.9843 89.3567 44.889 91.5809 40.7201C93.8052 36.5512 98.9024 34.9763 103.073 37.1997C107.243 39.4231 108.819 44.5184 106.594 48.6873C104.37 52.7636 99.2731 54.4311 95.1026 52.2077Z" fill="#E4E3FC"/>
<path d="M317.874 95.4184C320.654 92.2686 323.064 88.7482 325.103 84.8572C327.141 80.9663 328.624 76.9827 329.736 72.9064L318.801 69.0155C319.635 65.2172 320.005 61.4189 319.82 57.6205L331.312 55.8604C330.756 47.3373 328.161 38.9995 323.805 31.5882L313.333 36.5909C311.294 33.3484 308.884 30.3839 306.011 27.7899L312.869 18.4331C309.718 15.6538 306.197 13.2451 302.304 11.207C298.412 9.16888 294.427 7.68661 290.349 6.57491L286.456 17.5066C282.657 16.6729 278.857 16.3023 275.057 16.4876L273.296 5C264.77 5.55585 256.429 8.14982 249.015 12.504L254.02 22.9725C250.776 25.0106 247.81 27.4193 245.216 30.2912L235.855 23.4357C233.075 26.5855 230.665 30.1059 228.626 33.9969C226.588 37.8878 225.105 41.8714 223.993 45.9477L234.928 49.8386C234.094 53.6369 233.724 57.4353 233.909 61.2336L222.417 62.9938C222.973 71.5168 225.568 79.8546 229.924 87.2659L240.396 82.2633C242.435 85.5057 244.845 88.4703 247.718 91.0642L240.86 100.421C244.011 103.2 247.532 105.609 251.425 107.647C255.317 109.685 259.302 111.168 263.38 112.279L267.272 101.347C271.072 102.181 274.872 102.552 278.672 102.367L280.433 113.854C288.959 113.298 297.3 110.704 304.714 106.35L299.709 95.8816C302.953 93.8435 305.919 91.4348 308.513 88.5629L317.874 95.4184ZM264.121 83.5603C250.776 76.5195 245.679 60.0292 252.722 46.6888C259.766 33.3484 276.262 28.2531 289.607 35.2939C302.953 42.3346 308.05 58.8249 301.007 72.1653C293.963 85.5057 277.467 90.601 264.121 83.5603ZM267.829 76.5195C258.376 71.5168 254.761 59.8439 259.766 50.3945C264.77 40.945 276.447 37.332 285.9 42.3346C295.353 47.3373 298.968 59.0102 293.963 68.4596C289.051 77.9091 277.282 81.5221 267.829 76.5195Z" fill="#E4E3FC"/>
<path d="M393.776 132.197C395.63 130.066 397.298 127.658 398.595 124.971C399.985 122.285 400.912 119.598 401.654 116.819L394.147 114.317C394.703 111.723 394.888 109.129 394.796 106.535L402.58 105.238C402.117 99.402 400.263 93.7509 397.205 88.8409L390.069 92.3613C388.679 90.2305 387.011 88.1924 384.972 86.4322L389.513 79.9473C387.381 78.0944 384.972 76.4269 382.284 75.1299C379.597 73.7403 376.909 72.8139 374.129 72.0727L371.626 79.5767C369.031 79.0209 366.437 78.8356 363.842 78.9282L362.544 71.1463C356.706 71.6095 351.052 73.4623 346.14 76.5195L349.662 83.6529C347.531 85.0426 345.492 86.7101 343.731 88.7482L337.243 84.2088C335.39 86.3396 333.722 88.7482 332.424 91.4349C331.034 94.1215 330.107 96.8081 329.366 99.5873L336.873 102.089C336.317 104.683 336.131 107.277 336.224 109.871L328.439 111.168C328.903 117.004 330.756 122.655 333.814 127.565L340.951 124.045C342.341 126.176 344.009 128.214 346.048 129.974L341.507 136.459C343.638 138.312 346.048 139.979 348.735 141.276C351.423 142.666 354.111 143.592 356.891 144.333L359.393 136.829C361.988 137.385 364.583 137.57 367.178 137.478L368.475 145.26C374.314 144.797 379.967 142.944 384.879 139.887L381.357 132.753C383.489 131.363 385.528 129.696 387.289 127.658L393.776 132.197ZM359.115 120.802C352.072 117.189 349.291 108.666 352.906 101.625C356.52 94.5847 365.046 91.8054 372.09 95.4185C379.133 99.0315 381.913 107.555 378.299 114.595C374.685 121.543 366.066 124.323 359.115 120.802Z" fill="#6E43D4"/>
<path d="M88.4179 122.834C89.5461 121.536 90.5614 120.07 91.3511 118.434C92.1973 116.798 92.7614 115.162 93.2127 113.47L88.6435 111.947C88.9819 110.367 89.0948 108.788 89.0383 107.208L93.7768 106.418C93.4947 102.865 92.3665 99.4236 90.505 96.4339L86.1615 98.5774C85.3153 97.28 84.2999 96.039 83.0589 94.9672L85.823 91.0185C84.5256 89.8903 83.0589 88.8749 81.423 88.0852C79.7871 87.2391 78.1513 86.675 76.459 86.2237L74.9359 90.7929C73.3564 90.4544 71.7769 90.3416 70.1975 90.398L69.4077 85.6596C65.8539 85.9416 62.4129 87.0698 59.4232 88.9313L61.5668 93.2749C60.2693 94.121 59.0283 95.1364 57.9565 96.3774L54.0079 93.6134C52.8797 94.9108 51.8643 96.3774 51.0745 98.0133C50.2284 99.6492 49.6643 101.285 49.213 102.977L53.7822 104.5C53.4437 106.08 53.3309 107.659 53.3873 109.239L48.6489 110.029C48.931 113.582 50.0592 117.023 51.9207 120.013L56.2643 117.87C57.1104 119.167 58.1258 120.408 59.3668 121.48L56.6027 125.429C57.9001 126.557 59.3668 127.572 61.0027 128.362C62.6385 129.208 64.2744 129.772 65.9667 130.223L67.4898 125.654C69.0693 125.993 70.6488 126.105 72.2282 126.049L73.0179 130.787C76.5718 130.505 80.0128 129.377 83.0025 127.516L80.8589 123.172C82.1563 122.326 83.3974 121.311 84.4692 120.07L88.4179 122.834ZM67.3206 115.895C63.0334 113.695 61.3411 108.506 63.5411 104.218C65.7411 99.9313 70.9308 98.239 75.2179 100.439C79.5051 102.639 81.1974 107.829 78.9974 112.116C76.7974 116.347 71.5513 118.039 67.3206 115.895Z" fill="#6E43D4"/>
<path d="M85.2343 203.694C75.934 189.638 56.366 154.086 73.3299 141.889C82.6302 135.195 94.9811 141.294 100.933 156.094C106.588 170.151 108.746 186.811 111.127 203.546" fill="white"/>
<path d="M85.4577 203.546C80.9935 196.703 76.9757 189.563 73.6276 182.051C70.0563 173.944 66.7081 164.945 66.9313 156.02C67.1546 147.987 72.0652 139.732 80.9191 139.434C92.0795 138.988 98.7758 150.665 101.975 159.739C106.96 173.87 108.746 188.894 110.829 203.62C110.903 203.992 111.499 203.843 111.424 203.471C109.415 189.117 107.63 174.614 103.017 160.854C99.9663 151.706 94.2372 140.699 83.5976 139.062C75.7109 137.872 68.7914 143.674 67.0057 151.186C64.9969 159.739 67.8242 169.184 70.9491 177.142C74.5949 186.514 79.5054 195.513 85.0857 203.918C85.2345 203.992 85.6065 203.769 85.4577 203.546Z" fill="#635FBD"/>
<path d="M78.0917 139.732L100.115 203.694" stroke="#635FBD" stroke-width="0.208217" stroke-miterlimit="10" stroke-linejoin="round"/>
<path d="M47.8097 203.694C39.7742 193.282 22.1407 167.027 36.7981 157.954C44.8336 152.971 54.7292 157.507 59.863 168.441C64.7736 178.853 66.6337 191.125 68.6425 203.546" fill="white"/>
<path d="M48.0331 203.546C44.3129 198.637 40.816 193.505 37.8398 188.076C34.7149 182.349 31.59 175.804 31.4412 169.11C31.2924 162.491 35.7566 156.838 42.6016 156.243C51.2324 155.499 57.259 163.234 60.3095 170.3C64.8481 180.787 66.4106 192.315 68.2707 203.546C68.3451 203.918 68.9403 203.769 68.8659 203.397C67.0802 192.389 65.4433 181.084 61.128 170.672C58.2263 163.681 52.9437 156.317 44.6849 155.648C38.5839 155.127 32.5572 159.144 31.1436 165.168C29.7299 171.564 32.4084 178.481 35.1613 184.208C38.5095 191.199 42.8248 197.744 47.5866 203.843C47.8098 204.066 48.1819 203.769 48.0331 203.546Z" fill="#635FBD"/>
<path d="M40.9648 156.392L59.9376 203.694" stroke="#635FBD" stroke-width="0.208217" stroke-miterlimit="10" stroke-linejoin="round"/>
<path d="M141.929 203.546C119.906 163.532 105.621 123.89 123.477 105.073C141.111 86.4047 159.563 108.494 164.027 128.129C169.533 152.152 170.351 178.109 170.203 203.546" fill="white"/>
<path d="M141.929 203.546C119.906 163.532 105.621 123.89 123.477 105.073C141.111 86.4047 159.563 108.494 164.027 128.129C169.533 152.152 170.351 178.109 170.203 203.546" stroke="#635FBD" stroke-width="0.208217" stroke-miterlimit="10" stroke-linejoin="round"/>
<path d="M129.951 100.239L156.438 203.471" stroke="#635FBD" stroke-width="0.208217" stroke-miterlimit="10" stroke-linejoin="round"/>
<path d="M108.82 203.62C100.041 182.498 80.3238 139.657 94.2372 126.493C103.091 118.014 119.162 128.427 127.421 146.872C135.233 164.424 137.614 182.497 142.302 203.397" fill="white"/>
<path d="M109.044 203.62C104.877 193.431 100.487 183.39 96.8414 173.052C93.1957 162.639 89.4756 151.409 89.6988 140.252C89.7732 136.162 90.5172 131.774 92.9725 128.427C95.7998 124.559 100.413 123.146 105.026 124.336C110.457 125.749 114.996 129.617 118.642 133.707C123.552 139.286 126.826 145.979 129.504 152.896C135.68 169.184 138.209 186.663 142.004 203.62C142.078 203.992 142.674 203.843 142.599 203.471C138.954 187.332 136.573 170.746 130.992 155.127C126.826 143.376 120.13 129.989 108.002 124.782C104.059 123.072 99.52 122.7 95.7998 125.08C92.4517 127.237 90.5916 130.881 89.7732 134.674C88.7315 139.36 89.1035 144.343 89.7732 149.029C90.666 154.979 92.2285 160.854 94.0141 166.581C98.0319 179.299 103.389 191.571 108.523 203.843C108.746 203.992 109.192 203.843 109.044 203.62Z" fill="#635FBD"/>
<path d="M279.724 203.546C272.284 118.46 290.364 87.2972 310.155 85.9584C319.53 85.2891 346.984 90.7185 313.8 203.546" fill="white"/>
<path d="M279.873 203.546C278.012 175.506 276.152 146.426 283.369 118.907C286.494 107.007 292.372 91.611 305.244 87.2229C310.303 85.5122 316.032 85.8097 320.348 89.231C327.937 95.2554 329.127 107.081 329.425 116.006C329.723 126.047 328.681 136.087 327.118 145.979C324.812 160.854 321.315 175.581 317.372 190.084C316.181 194.546 314.916 199.009 313.651 203.471C313.577 203.769 314.023 203.843 314.098 203.62C319.157 187.481 323.249 170.895 326.3 154.309C328.309 143.376 329.871 132.294 330.02 121.138C330.095 114.37 329.723 107.379 327.862 100.834C326.746 96.966 325.035 93.1729 322.208 90.1979C318.562 86.4791 313.503 85.066 308.369 85.8841C295.944 87.8179 288.95 100.536 285.081 111.32C281.509 121.435 279.798 132.146 278.756 142.781C277.268 158.326 277.492 174.093 278.384 189.638C278.682 194.323 278.98 198.934 279.501 203.62C279.649 203.694 279.873 203.694 279.873 203.546Z" fill="#635FBD"/>
<path d="M314.024 86.1073L296.539 203.471" stroke="#635FBD" stroke-width="0.208217" stroke-miterlimit="10" stroke-linejoin="round"/>
<path d="M338.205 203.546C344.231 152.971 364.692 123.816 383.144 131.699C398.248 138.17 390.436 166.358 366.924 203.471" fill="white"/>
<path d="M338.353 203.546C340.66 188.671 343.264 173.87 349.067 159.887C352.862 150.591 358.07 140.55 366.403 134.526C372.058 130.435 380.019 128.947 385.897 133.633C392.668 139.137 390.808 149.996 388.948 157.284C384.632 173.87 375.481 188.819 366.775 203.397C366.627 203.62 366.999 203.843 367.147 203.62C372.207 196.034 376.671 188.001 380.763 179.82C383.888 173.424 386.715 166.879 388.799 160.036C391.031 152.45 393.561 141.591 387.98 134.823C383.516 129.394 375.406 129.022 369.454 131.997C360.972 136.311 355.317 145.384 351.3 153.64C347.877 160.631 345.347 168.069 343.338 175.581C340.883 184.654 339.023 194.1 338.13 203.471C338.056 203.694 338.353 203.769 338.353 203.546Z" fill="#635FBD"/>
<path d="M383.144 131.699L353.011 203.471" stroke="#635FBD" stroke-width="0.208217" stroke-miterlimit="10" stroke-linejoin="round"/>
<path d="M99.0734 123.89L126.082 203.694" stroke="#635FBD" stroke-width="0.208217" stroke-miterlimit="10" stroke-linejoin="round"/>
<path d="M340.511 203.62C352.415 178.332 376.448 120.692 358.368 100.239C348.398 89.0078 330.243 102.767 320.571 127.534C311.419 151.037 304.574 175.283 298.845 203.248" fill="white"/>
<path d="M340.66 203.769C346.91 190.679 352.49 177.142 357.029 163.383C361.716 149.177 365.957 133.707 364.99 118.609C364.395 109.312 360.005 94.2885 347.877 96.2222C341.33 97.2635 335.824 102.395 331.732 107.379C325.78 114.593 321.911 123.072 318.637 131.774C309.857 154.979 303.459 179.002 298.548 203.323C298.474 203.694 299.069 203.918 299.143 203.471C303.384 182.721 308.667 162.119 315.586 142.037C318.786 132.666 322.059 123.146 327.268 114.742C331.211 108.345 336.345 101.875 343.19 98.4535C348.472 95.776 354.276 96.1479 358.368 100.759C362.163 105.147 363.725 111.023 364.32 116.675C365.808 131.03 361.939 145.905 357.773 159.516C353.085 174.614 346.984 189.34 340.288 203.62C340.139 203.769 340.586 203.992 340.66 203.769Z" fill="#635FBD"/>
<path d="M353.011 96.6686L321.092 203.694" stroke="#635FBD" stroke-width="0.208217" stroke-miterlimit="10" stroke-linejoin="round"/>
<path d="M361.567 203.546C377.266 171.713 390.956 163.309 403.753 165.837C413.723 167.846 415.286 182.498 394.23 203.546" fill="white"/>
<path d="M361.642 203.62C366.478 194.918 370.942 186.142 377.415 178.481C381.433 173.796 386.195 169.259 392.072 167.027C396.165 165.466 401.522 164.871 405.688 166.656C410.301 168.664 411.045 173.944 410.152 178.407C408.143 188.299 400.629 196.183 394.081 203.323C393.858 203.546 394.156 203.843 394.379 203.62C401.075 197.447 407.771 189.191 410.301 180.266C411.566 175.878 411.715 170.374 407.846 167.251C404.498 164.573 399.066 164.647 395.048 165.54C389.171 166.804 384.186 170.598 380.093 174.763C376.745 178.184 373.918 181.977 371.314 185.919C367.668 191.423 364.171 197.298 361.567 203.397C361.344 203.62 361.567 203.769 361.642 203.62Z" fill="#635FBD"/>
<path d="M402.489 165.986L378.457 203.546" stroke="#635FBD" stroke-width="0.208217" stroke-miterlimit="10" stroke-linejoin="round"/>
<path d="M338.752 44.9843H320.486H89.7707C82.5802 44.9843 76.772 50.8185 76.772 57.983V190.652C76.772 197.843 82.6062 203.651 89.7707 203.651H320.51H326.985H338.752C345.458 203.651 350.88 198.228 350.88 191.522V57.1132C350.88 50.4068 345.458 44.9843 338.752 44.9843Z" fill="#6E43D4" stroke="#1F1F23" stroke-width="1.44967"/>
<path fill-rule="evenodd" clip-rule="evenodd" d="M327.695 45.9782H310.198H89.1945C82.691 45.9782 77.4373 51.481 77.4373 58.2388V190.765C77.4373 197.547 82.7141 203.026 89.1945 203.026H310.222H316.424H327.695C333.736 203.026 338.62 197.933 338.62 191.634V57.37C338.62 51.0707 333.736 45.9782 327.695 45.9782Z" fill="white"/>
<path fill-rule="evenodd" clip-rule="evenodd" d="M339.259 61.0029C339.659 61.0029 339.984 61.3275 339.984 61.7278C339.984 62.1138 339.682 62.4293 339.302 62.4514L339.259 62.4526H77.5211C77.1208 62.4526 76.7963 62.1281 76.7963 61.7278C76.7963 61.3418 77.098 61.0262 77.4785 61.0042L77.5211 61.0029H339.259Z" fill="#1F1F23"/>
<path fill-rule="evenodd" clip-rule="evenodd" d="M326.985 44.1627C334.098 44.1627 339.867 49.8992 339.982 57.0177L339.984 57.2339V190.652C339.984 191.052 339.659 191.377 339.259 191.377C338.873 191.377 338.557 191.075 338.535 190.694L338.534 190.652V57.2339C338.534 50.8141 333.367 45.6124 326.985 45.6124C326.585 45.6124 326.26 45.2878 326.26 44.8875C326.26 44.4872 326.585 44.1627 326.985 44.1627Z" fill="#1F1F23"/>
<path fill-rule="evenodd" clip-rule="evenodd" d="M414.714 203.15C415.115 203.15 415.439 203.475 415.439 203.875C415.439 204.261 415.138 204.577 414.757 204.599L414.714 204.6H12.286C11.8857 204.6 11.5612 204.276 11.5612 203.875C11.5612 203.489 11.8629 203.174 12.2434 203.152L12.286 203.15H414.714Z" fill="#2E2D2D"/>
<path fill-rule="evenodd" clip-rule="evenodd" d="M90.6889 57.2098C92.6238 57.2098 94.1923 55.6413 94.1923 53.7064C94.1923 51.7715 92.6238 50.203 90.6889 50.203C88.7541 50.203 87.1855 51.7715 87.1855 53.7064C87.1855 55.6413 88.7541 57.2098 90.6889 57.2098Z" fill="#FF863D"/>
<path fill-rule="evenodd" clip-rule="evenodd" d="M104.364 57.2098C106.299 57.2098 107.867 55.6413 107.867 53.7064C107.867 51.7716 106.299 50.203 104.364 50.203C102.429 50.203 100.861 51.7716 100.861 53.7064C100.861 55.6413 102.429 57.2098 104.364 57.2098Z" fill="#A0DE1C"/>
<path fill-rule="evenodd" clip-rule="evenodd" d="M118.015 57.2098C119.95 57.2098 121.519 55.6413 121.519 53.7064C121.519 51.7716 119.95 50.203 118.015 50.203C116.08 50.203 114.512 51.7716 114.512 53.7064C114.512 55.6413 116.08 57.2098 118.015 57.2098Z" fill="#EFC901"/>
<path fill-rule="evenodd" clip-rule="evenodd" d="M357.413 195.851H352.61L335.388 150.529C334.438 148.038 331.517 148.074 330.621 150.601L314.474 195.851H309.779C308.811 195.851 308.005 196.819 308.005 198.02V200.887C308.005 202.088 308.793 203.055 309.779 203.055H357.395C358.362 203.055 359.169 202.088 359.169 200.887V198.02C359.187 196.819 358.398 195.851 357.413 195.851Z" fill="#FFA943"/>
<path fill-rule="evenodd" clip-rule="evenodd" d="M351.803 195.313C352.1 195.313 352.341 195.554 352.341 195.851C352.341 196.137 352.117 196.371 351.835 196.388L351.803 196.389H315.191C314.894 196.389 314.653 196.148 314.653 195.851C314.653 195.565 314.877 195.331 315.159 195.314L315.191 195.313H351.803Z" fill="#1F1F23"/>
<path fill-rule="evenodd" clip-rule="evenodd" d="M350.155 189.202H316.857L319.546 181.622H347.269L350.155 189.202Z" fill="white"/>
<path fill-rule="evenodd" clip-rule="evenodd" d="M322.7 172.823H343.882L340.997 165.242H325.406L322.7 172.823Z" fill="white"/>
<path fill-rule="evenodd" clip-rule="evenodd" d="M391.122 199.041H388.452L378.882 173.862C378.362 172.482 376.731 172.5 376.229 173.898L367.269 199.041H364.67C364.133 199.041 363.685 199.579 363.685 200.242V201.837C363.685 202.5 364.133 203.037 364.67 203.037H391.122C391.659 203.037 392.107 202.5 392.107 201.837V200.242C392.107 199.579 391.659 199.041 391.122 199.041Z" fill="#FFA943"/>
<path fill-rule="evenodd" clip-rule="evenodd" d="M388.004 198.503C388.3 198.503 388.541 198.744 388.541 199.041C388.541 199.327 388.317 199.561 388.035 199.578L388.004 199.579H367.663C367.366 199.579 367.126 199.338 367.126 199.041C367.126 198.755 367.349 198.521 367.632 198.504L367.663 198.503H388.004Z" fill="#1F1F23"/>
<path fill-rule="evenodd" clip-rule="evenodd" d="M387.089 195.349H368.595L370.083 191.138H385.477L387.089 195.349Z" fill="white"/>
<path fill-rule="evenodd" clip-rule="evenodd" d="M371.839 186.263H383.595L382 182.052H373.344L371.839 186.263Z" fill="white"/>
<path d="M55.6636 157.054L43.3206 151.705L42.6822 153.298C42.6822 153.298 46.986 161.54 52.6448 163.642L55.6636 157.054Z" fill="#6E43D4"/>
<path d="M91.5186 182.988C91.5186 182.988 73.0592 167.57 71.917 167.055C70.7747 166.54 62.3592 165.809 60.2324 165.857C58.1055 165.905 52.1162 164.776 52.1162 164.776L59.8032 148.033L46.8636 143.528L47.7599 141.233C47.7599 141.233 58.9359 135.744 64.9371 138.081C70.9312 140.417 73.1339 148.737 74.2488 150.84C75.3638 152.943 77.5256 160.316 89.9583 169.824L97.2899 175.667L91.5186 182.988Z" fill="#6E43D4"/>
<path d="M72.7056 153.4C72.705 153.407 72.6714 153.468 72.6114 153.591C72.5361 153.727 72.4507 153.897 72.333 154.114C72.0799 154.59 71.7268 155.241 71.2802 156.077C70.3633 157.774 69.0591 160.191 67.4537 163.151L67.3417 162.964C68.0649 162.975 68.8204 163.025 69.5929 163.125C70.363 163.254 71.1837 163.373 71.9406 163.827C73.3374 164.775 74.6842 165.897 76.1272 167.055C78.9981 169.383 82.0967 171.959 85.3179 174.679C85.7541 175.064 86.1604 175.382 86.6908 175.49C87.1995 175.604 87.7506 175.551 88.2167 175.328C89.1753 174.905 89.7421 173.824 89.585 172.824C89.5208 172.322 89.2827 171.861 88.9434 171.506C88.5812 171.171 88.1556 170.829 87.7716 170.499C86.9832 169.829 86.2147 169.175 85.4662 168.537C82.4722 165.985 79.7694 163.685 77.4974 161.747C76.9056 161.271 76.4808 160.668 76.1088 160.111C75.7374 159.547 75.4219 158.995 75.1321 158.474C74.559 157.439 74.104 156.521 73.7486 155.767C73.3862 155.012 73.1235 154.422 72.9441 154.024C72.8673 153.84 72.8022 153.685 72.7489 153.56C72.7149 153.458 72.705 153.407 72.7056 153.4C72.6991 153.393 72.7443 153.446 72.7924 153.549C72.8534 153.668 72.9261 153.816 73.0176 153.994C73.224 154.409 73.5096 154.98 73.8738 155.713C74.2515 156.455 74.7219 157.361 75.3032 158.382C75.6012 158.89 75.9173 159.435 76.2893 159.991C76.6689 160.541 77.0756 161.108 77.6545 161.569C79.9417 163.493 82.6604 165.774 85.6709 168.299C86.4271 168.931 87.1955 169.584 87.9845 170.247C88.382 170.586 88.7748 170.896 89.1827 171.278C89.5678 171.68 89.8352 172.213 89.9158 172.774C90.1039 173.911 89.4607 175.142 88.3622 175.624C87.8296 175.877 87.2068 175.938 86.6212 175.811C86.0267 175.704 85.5071 175.298 85.105 174.931C81.8832 172.217 78.7928 169.629 75.9367 167.294C74.5006 166.137 73.141 165 71.7923 164.07C71.117 163.658 70.3052 163.519 69.5562 163.392C68.799 163.278 68.0506 163.23 67.342 163.212L67.1294 163.209L67.23 163.026C68.9147 160.051 70.2759 157.632 71.2427 155.932C71.7011 155.126 72.0671 154.489 72.3254 154.035C72.4414 153.839 72.5332 153.677 72.6079 153.548C72.6732 153.447 72.7061 153.393 72.7056 153.4Z" fill="#1F1F23"/>
<path d="M119.957 201.221C117.9 203.816 114.086 204.162 111.593 201.986L87.1395 179.347L92.4516 171.83L119.131 193.159C121.553 195.173 121.919 198.753 119.957 201.221Z" fill="#6E43D4"/>
<path d="M66.2424 151.741L63.2678 158.901L58.9446 158.558L62.2435 151.426L66.2424 151.741Z" fill="#1F1F23"/>
<path d="M58.8074 156.9C58.8228 156.717 60.2599 156.682 62.0165 156.816C63.7725 156.956 65.1846 157.217 65.1692 157.401C65.1537 157.584 63.7166 157.619 61.9601 157.485C60.2041 157.344 58.792 157.083 58.8074 156.9Z" fill="#1F1F23"/>
<path d="M59.8306 154.616C59.846 154.432 61.2831 154.397 63.0397 154.531C64.7957 154.672 66.2078 154.933 66.1924 155.116C66.1769 155.299 64.7398 155.334 62.9833 155.201C61.2267 155.067 59.8151 154.799 59.8306 154.616Z" fill="#1F1F23"/>
<path d="M60.5269 152.417C60.5423 152.234 61.9794 152.199 63.736 152.333C65.4919 152.473 66.9041 152.734 66.8887 152.918C66.8732 153.101 65.4361 153.136 63.6796 153.002C61.9236 152.861 60.5114 152.6 60.5269 152.417Z" fill="#1F1F23"/>
<path d="M55.8033 156.235C55.8931 156.264 55.3581 157.979 54.4298 159.981C53.5085 161.983 52.6323 163.535 52.5571 163.5C52.4684 163.457 53.2084 161.837 54.1291 159.842C55.0427 157.846 55.714 156.199 55.8033 156.235Z" fill="#1F1F23"/>
<path fill-rule="evenodd" clip-rule="evenodd" d="M45.7313 193.597C46.6155 193.681 47.6259 193.765 48.6996 193.871C48.7627 193.639 48.8259 193.407 48.8891 193.176L48.9943 174.461C48.9943 173.156 50.068 172.103 51.3732 172.103L64.0463 172.166C70.3408 167.808 77.9405 165.24 86.1086 165.282C107.202 165.409 124.465 182.818 124.423 203.912L45.2892 203.849C42.8472 203.849 40.8473 201.849 40.8683 199.407V197.976C40.9315 195.386 43.1419 193.365 45.7313 193.597Z" fill="#FFA943"/>
<path fill-rule="evenodd" clip-rule="evenodd" d="M56.7389 178.56C56.9744 178.303 57.3739 178.286 57.6312 178.521C57.8884 178.757 57.9059 179.156 57.6703 179.413C54.4185 182.964 52.3644 186.332 51.269 189.427C50.8728 190.546 50.6277 191.563 50.5042 192.467C50.4546 192.83 50.4284 193.142 50.4188 193.402L50.4156 193.513L50.4403 193.522C56.5349 195.771 64.3061 197.455 73.3641 198.636L73.6806 198.677C80.7516 199.587 88.2985 200.156 95.9742 200.447L96.5804 200.47C101.69 200.654 106.242 200.697 109.921 200.656L110.841 200.644L111.101 200.64L111.169 200.075C111.188 199.917 111.208 199.76 111.227 199.605L111.286 199.149L111.354 198.639L111.406 198.278C111.478 197.789 111.54 197.432 111.593 197.219L111.601 197.186C112.348 194.291 113.831 192.36 115.83 191.266C117.411 190.401 119.05 190.166 120.435 190.275L120.552 190.285C120.598 190.29 120.634 190.294 120.66 190.298C121.005 190.348 121.245 190.668 121.196 191.013C121.148 191.346 120.849 191.581 120.518 191.553L120.419 191.541C120.396 191.539 120.368 191.537 120.336 191.534C119.175 191.443 117.77 191.644 116.437 192.374C114.774 193.283 113.527 194.887 112.857 197.378L112.823 197.506C112.778 197.676 112.711 198.07 112.633 198.62L112.589 198.933C112.572 199.055 112.555 199.182 112.538 199.314L112.48 199.764C112.451 199.993 112.423 200.228 112.394 200.464L112.293 201.33C112.26 201.631 112.018 201.864 111.719 201.889L111.673 201.891L111.14 201.902C110.963 201.905 110.768 201.909 110.555 201.911L109.725 201.921C106.065 201.958 101.569 201.913 96.535 201.732C88.6146 201.447 80.8187 200.869 73.5193 199.93C64.0252 198.708 55.9039 196.941 49.571 194.545C49.3463 194.46 49.1893 194.255 49.1659 194.017L49.1598 193.935L49.1583 193.906C49.1386 193.514 49.1602 192.973 49.2527 192.296C49.3878 191.307 49.6532 190.206 50.0783 189.005C51.2313 185.748 53.3744 182.234 56.7389 178.56Z" fill="#1F1F23"/>
<path d="M314.263 131.306H101.817V147.85H314.263V131.306Z" fill="#1F1F23"/>
<path d="M115.21 133.856H104.206V145.301H115.21V133.856Z" fill="#FFD9C1"/>
<path d="M128.339 133.856H117.334V145.301H128.339V133.856Z" fill="#FFD9C1"/>
<path d="M141.467 133.856H130.463V145.301H141.467V133.856Z" fill="#FFD9C1"/>
<path d="M154.593 133.856H143.589V145.301H154.593V133.856Z" fill="#FFD9C1"/>
<path d="M167.722 133.856H156.717V145.301H167.722V133.856Z" fill="#FFD9C1"/>
<path d="M180.85 133.856H169.846V145.301H180.85V133.856Z" fill="#FFD9C1"/>
<path d="M193.979 133.856H182.974V145.301H193.979V133.856Z" fill="#FFD9C1"/>
<path d="M207.105 133.856H196.1V145.301H207.105V133.856Z" fill="#FFD9C1"/>
<path d="M220.233 133.856H209.229V145.301H220.233V133.856Z" fill="#FFD9C1"/>
<path d="M228.72 133.856H222.358V145.301H228.72V133.856Z" fill="#FFD9C1"/>
<path d="M171.445 96.5525H175.215V108.178C175.215 109.483 174.905 110.625 174.284 111.604C173.668 112.583 172.807 113.347 171.698 113.894C170.589 114.436 169.298 114.707 167.823 114.707C166.343 114.707 165.049 114.436 163.94 113.894C162.831 113.347 161.969 112.583 161.354 111.604C160.739 110.625 160.431 109.483 160.431 108.178V96.5525H164.201V107.855C164.201 108.536 164.349 109.142 164.645 109.673C164.947 110.203 165.371 110.62 165.916 110.923C166.462 111.226 167.098 111.377 167.823 111.377C168.555 111.377 169.19 111.226 169.73 110.923C170.276 110.62 170.697 110.203 170.993 109.673C171.294 109.142 171.445 108.536 171.445 107.855V96.5525Z" fill="#1F1F23"/>
<path d="M178.317 114.454V96.5525H185.352C186.705 96.5525 187.857 96.8118 188.809 97.3304C189.761 97.8432 190.487 98.5571 190.986 99.472C191.491 100.381 191.743 101.43 191.743 102.619C191.743 103.807 191.488 104.856 190.977 105.765C190.466 106.674 189.726 107.383 188.757 107.889C187.793 108.396 186.626 108.65 185.257 108.65H180.773V105.617H184.647C185.373 105.617 185.971 105.492 186.441 105.241C186.917 104.985 187.271 104.632 187.503 104.183C187.741 103.729 187.86 103.207 187.86 102.619C187.86 102.024 187.741 101.506 187.503 101.063C187.271 100.614 186.917 100.267 186.441 100.023C185.965 99.7721 185.361 99.6468 184.63 99.6468H182.087V114.454H178.317Z" fill="#1F1F23"/>
<path d="M200.513 114.454H194.192V96.5525H200.565C202.359 96.5525 203.903 96.9109 205.198 97.6276C206.492 98.3386 207.487 99.3613 208.184 100.696C208.886 102.03 209.238 103.627 209.238 105.486C209.238 107.35 208.886 108.953 208.184 110.293C207.487 111.634 206.486 112.662 205.18 113.379C203.88 114.096 202.324 114.454 200.513 114.454ZM197.962 111.211H200.356C201.471 111.211 202.408 111.013 203.169 110.617C203.935 110.215 204.51 109.594 204.893 108.755C205.282 107.91 205.476 106.82 205.476 105.486C205.476 104.163 205.282 103.082 204.893 102.243C204.51 101.404 203.938 100.786 203.178 100.39C202.417 99.9935 201.48 99.7954 200.365 99.7954H197.962V111.211Z" fill="#1F1F23"/>
<path d="M214.098 114.454H210.058L216.214 96.5525H221.072L227.219 114.454H223.179L218.713 100.643H218.573L214.098 114.454ZM213.846 107.417H223.388V110.372H213.846V107.417Z" fill="#1F1F23"/>
<path d="M226.508 99.673V96.5525H241.153V99.673H235.693V114.454H231.967V99.673H226.508Z" fill="#1F1F23"/>
<path d="M243.564 114.454V96.5525H255.58V99.673H247.334V103.939H254.962V107.059H247.334V111.333H255.615V114.454H243.564Z" fill="#1F1F23"/>
</svg>
