<svg width="420" height="210" viewBox="0 0 420 210" fill="none" xmlns="http://www.w3.org/2000/svg">
<path fill-rule="evenodd" clip-rule="evenodd" d="M410.549 171.767C410.912 171.767 411.206 172.491 411.206 173.384C411.206 174.245 410.933 174.948 410.588 174.997L410.549 175H8.87079C8.50805 175 8.21399 174.276 8.21399 173.384C8.21399 172.523 8.48742 171.819 8.8322 171.77L8.87079 171.767H410.549Z" fill="#1F1F23"/>
<path fill-rule="evenodd" clip-rule="evenodd" d="M350.09 108.651C347.53 107.291 345.343 107.931 342.942 110.492C344.036 104.304 344.009 96.8097 339.102 95.5562C334.061 94.2493 331.207 97.3964 328.247 104.997C328.354 98.4899 327.074 90.0887 321.686 89.742C315.632 89.3686 313.605 94.356 312.111 105.424C310.218 99.2367 305.017 88.3818 298.883 90.5421C292.882 92.6491 293.282 98.4366 296.616 110.225C293.335 105.131 286.748 97.5564 282.347 100.437C278.16 103.157 279.307 107.611 283.947 115.879C280.88 114.545 277.707 114.412 275.146 116.919C269.412 122.573 272.186 127.934 280.107 137.882C288.055 147.83 345.103 130.228 347.796 125.747C350.517 121.24 354.757 111.158 350.09 108.651Z" fill="white"/>
<path fill-rule="evenodd" clip-rule="evenodd" d="M314.44 92.993C313.338 94.9957 312.536 97.7694 311.846 101.822L311.798 102.107L311.792 102.091C310.692 99.2965 309.277 96.5363 307.738 94.3869C304.937 90.4747 301.837 88.6536 298.617 89.7874C295.389 90.921 293.75 93.1033 293.461 96.5657L293.444 96.7972C293.293 99.0934 293.682 101.954 294.667 106.001L294.721 106.221L294.652 106.135C293.294 104.448 291.838 102.912 290.414 101.726C287.236 99.0806 284.299 98.2032 281.909 99.7674C279.574 101.284 278.656 103.372 279.044 106.187L279.06 106.293C279.365 108.35 280.342 110.835 282.134 114.227L282.25 114.446L282.183 114.429C279.304 113.715 276.701 114.277 274.586 116.347C271.556 119.335 270.67 122.382 271.738 126.016L271.797 126.21C272.753 129.294 275.014 132.771 279.481 138.38C283.329 143.196 297.198 142.512 316.108 138.004C331.617 134.306 346.927 128.746 348.482 126.159C350.147 123.402 351.744 119.748 352.492 116.636C353.502 112.434 353.008 109.31 350.469 107.946L350.371 107.895C348.19 106.772 346.185 106.925 344.176 108.334L344.064 108.413L344.081 108.281C344.403 105.593 344.419 103.112 344.061 101.038C343.483 97.6843 341.939 95.4551 339.3 94.7809L339.141 94.7408C334.75 93.6658 331.793 95.6019 329.052 101.144L328.956 101.339L328.953 101.293C328.785 98.8884 328.402 96.6641 327.786 94.8077C326.611 91.2627 324.619 89.129 321.738 88.9435C318.431 88.7396 316.106 90.0236 314.491 92.9009L314.44 92.993ZM321.637 90.5406C325.617 90.7967 327.582 96.7252 327.447 104.984C327.432 105.877 328.669 106.119 328.993 105.288C331.984 97.6077 334.591 95.2133 338.901 96.3306C342.555 97.2639 343.499 102.742 342.154 110.352C342.016 111.136 342.982 111.619 343.526 111.039L343.702 110.854C345.831 108.659 347.599 108.234 349.715 109.358C351.412 110.27 351.795 112.689 350.936 116.262C350.229 119.201 348.697 122.707 347.111 125.334C346.597 126.19 342.691 128.088 336.928 130.18C330.812 132.402 323.177 134.673 315.736 136.447C297.582 140.775 283.979 141.447 280.732 137.383L280.195 136.705C276.121 131.537 274.082 128.316 273.274 125.565C272.377 122.514 273.087 120.073 275.708 117.489C277.799 115.441 280.469 115.239 283.628 116.613C284.331 116.918 285.02 116.156 284.645 115.487C279.841 106.928 279.346 103.341 282.783 101.108C285.9 99.0676 291.46 103.696 295.943 110.658C296.441 111.431 297.636 110.892 297.386 110.007C293.833 97.4452 294.155 93.05 299.148 91.297C301.522 90.461 304.002 91.9179 306.437 95.3185C308.436 98.1103 310.243 102.054 311.346 105.658C311.598 106.479 312.79 106.382 312.904 105.531C314.469 93.9365 316.551 90.2269 321.637 90.5406Z" fill="#FFA943"/>
<path fill-rule="evenodd" clip-rule="evenodd" d="M350.544 125.534L350.597 125.374L273.866 125.614L273.92 125.774C269.839 126.574 266.932 130.468 267.599 134.762L273.333 171.78L351.104 171.54L356.838 134.522C357.531 130.254 354.624 126.334 350.544 125.534Z" fill="#FFD3B9"/>
<path fill-rule="evenodd" clip-rule="evenodd" d="M59.4236 102.754C59.8655 102.76 60.2184 103.124 60.212 103.565C60.1499 107.835 59.3376 112.061 57.8123 116.049C57.6545 116.462 57.1919 116.669 56.7792 116.511C56.3664 116.353 56.1598 115.89 56.3176 115.478C57.7759 111.664 58.5525 107.624 58.6119 103.542C58.6184 103.1 58.9818 102.747 59.4236 102.754Z" fill="#1F1F23"/>
<path fill-rule="evenodd" clip-rule="evenodd" d="M58.8678 107.644C58.9451 107.225 59.3359 106.943 59.7534 106.995L59.7999 107.002L82.5871 111.208C83.0216 111.288 83.3089 111.706 83.2286 112.14C83.1513 112.559 82.7605 112.841 82.3431 112.789L82.2966 112.782L59.5094 108.576C59.0748 108.496 58.7876 108.078 58.8678 107.644Z" fill="#1F1F23"/>
<path fill-rule="evenodd" clip-rule="evenodd" d="M58.025 112.202C58.1024 111.783 58.4932 111.501 58.9106 111.553L58.9571 111.56L84.3393 116.246C84.7739 116.326 85.0611 116.744 84.9809 117.178C84.9035 117.597 84.5127 117.879 84.0953 117.827L84.0488 117.82L58.6666 113.134C58.232 113.054 57.9448 112.636 58.025 112.202Z" fill="#1F1F23"/>
<path fill-rule="evenodd" clip-rule="evenodd" d="M58.4463 109.924C58.5236 109.505 58.9144 109.223 59.3318 109.275L59.3783 109.283L83.6164 113.755C84.0509 113.835 84.3382 114.253 84.258 114.687C84.1807 115.106 83.7899 115.388 83.3725 115.336L83.326 115.329L59.0879 110.856C58.6534 110.776 58.3661 110.359 58.4463 109.924Z" fill="#1F1F23"/>
<path fill-rule="evenodd" clip-rule="evenodd" d="M52.1361 99.0324C52.5258 96.9141 54.6458 95.5497 56.8711 95.9164L56.9567 95.9314L79.6773 100.124C80.1118 100.204 80.3991 100.621 80.3189 101.056C80.2416 101.475 79.8508 101.757 79.4334 101.705L79.3869 101.698L56.6663 97.505C55.253 97.2441 53.9393 98.0749 53.7099 99.322C53.4843 100.548 54.3782 101.772 55.7494 102.062L55.8233 102.076L81.6936 106.853C82.1282 106.933 82.4154 107.35 82.3352 107.785C82.2578 108.204 81.867 108.486 81.4496 108.434L81.4031 108.427L55.5328 103.65C53.2772 103.234 51.7414 101.178 52.1361 99.0324Z" fill="#1F1F23"/>
<path fill-rule="evenodd" clip-rule="evenodd" d="M48.6689 117.707C49.0587 115.588 51.179 114.222 53.4038 114.588L53.4894 114.603L85.3232 120.471C85.7578 120.551 86.0452 120.968 85.965 121.403C85.8878 121.822 85.4971 122.104 85.0796 122.052L85.0332 122.044L53.1991 116.177C51.7867 115.916 50.4723 116.749 50.2428 117.997C50.0171 119.223 50.911 120.446 52.2822 120.734L52.3561 120.748L87.2784 127.194C87.7129 127.275 88.0002 127.692 87.92 128.126C87.8426 128.545 87.4518 128.828 87.0344 128.775L86.9879 128.768L52.0668 122.322C49.8108 121.909 48.2741 119.853 48.6689 117.707Z" fill="#1F1F23"/>
<path fill-rule="evenodd" clip-rule="evenodd" d="M21.9282 145.928C22.9828 145.599 24.1044 146.187 24.4336 147.241C24.7627 148.296 24.1746 149.418 23.1201 149.747C19.6564 150.828 16.4559 152.296 14.3372 154.073C11.759 156.237 11.2627 158.34 13.1672 161.105C13.7939 162.015 13.5644 163.26 12.6546 163.887C11.7448 164.513 10.4992 164.284 9.87258 163.374C6.69247 158.757 7.72003 154.403 11.7658 151.009C14.3823 148.813 18.0013 147.153 21.9282 145.928Z" fill="#1F1F23"/>
<path fill-rule="evenodd" clip-rule="evenodd" d="M45.8559 142.682C45.9184 142.261 46.2989 141.965 46.718 142.002L46.7647 142.008L93.5099 148.934C93.947 148.999 94.2489 149.406 94.1841 149.843C94.1216 150.264 93.7411 150.56 93.3221 150.523L93.2753 150.517L46.5301 143.591C46.093 143.526 45.7911 143.119 45.8559 142.682Z" fill="#FFA943"/>
<path fill-rule="evenodd" clip-rule="evenodd" d="M43.6423 138.236C43.7047 137.815 44.0853 137.519 44.5043 137.556L44.551 137.562L92.5737 144.675C93.0109 144.74 93.3127 145.146 93.248 145.584C93.1856 146.005 92.805 146.301 92.386 146.263L92.3393 146.258L44.3165 139.145C43.8794 139.08 43.5775 138.673 43.6423 138.236Z" fill="#FFA943"/>
<path fill-rule="evenodd" clip-rule="evenodd" d="M45.7972 147.072C45.8596 146.65 46.2402 146.355 46.6592 146.392L46.7059 146.398L94.9714 153.548C95.4085 153.613 95.7104 154.02 95.6456 154.457C95.5832 154.878 95.2026 155.174 94.7836 155.137L94.7369 155.131L46.4714 147.981C46.0343 147.916 45.7324 147.509 45.7972 147.072Z" fill="#FFA943"/>
<path fill-rule="evenodd" clip-rule="evenodd" d="M44.565 151.526C44.6275 151.104 45.008 150.809 45.4271 150.846L45.4738 150.852L97.1904 158.514C97.6275 158.579 97.9293 158.986 97.8646 159.423C97.8021 159.844 97.4216 160.14 97.0025 160.103L96.9558 160.097L45.2392 152.435C44.8021 152.37 44.5003 151.963 44.565 151.526Z" fill="#FFA943"/>
<path fill-rule="evenodd" clip-rule="evenodd" d="M41.8634 155.004C41.9259 154.582 42.3064 154.286 42.7255 154.324L42.7722 154.33L79.8174 159.821C80.2545 159.886 80.5563 160.293 80.4915 160.73C80.429 161.151 80.0485 161.447 79.6294 161.409L79.5827 161.404L42.5375 155.912C42.1004 155.848 41.7986 155.441 41.8634 155.004Z" fill="#FFA943"/>
<path fill-rule="evenodd" clip-rule="evenodd" d="M31.6809 132.746C31.7363 132.307 32.1366 131.997 32.575 132.052C36.1347 132.502 39.3361 133.46 41.9433 135.186C45.4786 137.526 47.4711 141.043 47.4583 145.86C47.4466 150.58 45.4876 154.181 42.0607 156.62C39.3596 158.543 35.8561 159.632 32.5241 159.838C32.0831 159.865 31.7034 159.529 31.6762 159.088C31.6489 158.647 31.9844 158.268 32.4254 158.24C35.4771 158.052 38.6949 157.052 41.1327 155.316C44.1487 153.17 45.8477 150.047 45.858 145.856C45.8694 141.592 44.1577 138.57 41.0601 136.52C38.6937 134.953 35.7119 134.061 32.3746 133.64C31.9361 133.584 31.6256 133.184 31.6809 132.746Z" fill="#FFA943"/>
<path fill-rule="evenodd" clip-rule="evenodd" d="M31.6639 129.232C31.6639 128.744 32.0951 128.374 32.5713 128.439L32.6175 128.447L90.7217 139.803C91.1554 139.888 91.4382 140.308 91.3535 140.742C91.2717 141.16 90.878 141.438 90.4611 141.381L90.4147 141.374L33.2642 130.204V160.167L68.9921 159.82C69.4182 159.816 69.7697 160.146 69.7981 160.566L69.7999 160.613C69.8041 161.039 69.4744 161.39 69.0546 161.419L69.0076 161.421L32.4718 161.775C32.0428 161.779 31.69 161.445 31.6653 161.023L31.6639 160.975V129.232Z" fill="#FFA943"/>
<path fill-rule="evenodd" clip-rule="evenodd" d="M24.9817 119.214C26.227 118.175 27.8599 117.728 29.4589 117.985L29.5704 118.004L87.5732 128.618C88.0079 128.698 88.2958 129.115 88.2163 129.549C88.1395 129.969 87.7492 130.251 87.3317 130.2L87.2852 130.192L29.2837 119.578C28.1173 119.367 26.9172 119.683 26.007 120.443C25.1237 121.18 24.6018 122.261 24.5711 123.407L24.5697 123.511V167.589C24.5697 168.031 24.2115 168.39 23.7696 168.39C23.3435 168.39 22.9952 168.056 22.9708 167.636L22.9695 167.589L22.9695 123.511C22.9705 121.851 23.7075 120.278 24.9817 119.214Z" fill="#FFA943"/>
<path fill-rule="evenodd" clip-rule="evenodd" d="M59.6847 37.622L235.804 36.0002C238.074 35.9799 240.095 37.4339 240.796 39.5921L277.959 154.022L277.976 154.068C278.094 154.37 278.386 154.572 278.714 154.574L410.91 155.61L410.887 155.884C410.843 156.379 410.782 156.916 410.703 157.487C410.422 159.521 409.965 161.554 409.294 163.443L409.237 163.6C407.359 168.778 404.271 171.804 399.662 171.804H87.195L51.4296 48.7151C50.6696 46.1068 51.1761 43.2936 52.7977 41.1147C54.4194 38.9357 56.9686 37.6429 59.6847 37.622Z" fill="#6E43D4"/>
<path fill-rule="evenodd" clip-rule="evenodd" d="M63.6635 37.7195C64.0959 37.6755 64.4822 37.9891 64.5264 38.42C64.569 38.8354 64.2779 39.2082 63.8693 39.2738L63.8151 39.281L63.7857 39.2873L63.7402 39.2995L63.6801 39.3183L63.6066 39.3447C63.3858 39.4288 63.1606 39.5649 62.9461 39.7663C62.5065 40.1793 62.1789 40.7745 61.9972 41.5778L61.9658 41.7261C61.9459 41.8265 61.9282 41.93 61.9127 42.0367L61.8912 42.199C61.8384 42.6381 61.8217 43.1276 61.8451 43.6704L61.8557 43.8765L61.8702 44.0875C61.8729 44.1232 61.8758 44.159 61.8788 44.195L61.8991 44.4137C61.9065 44.4875 61.9145 44.5621 61.9232 44.6375L61.9513 44.8665L61.9834 45.1007L62.0196 45.3401C62.026 45.3804 62.0325 45.421 62.0392 45.4618L62.0815 45.7091C62.0889 45.7507 62.0965 45.7926 62.1042 45.8347L62.1528 46.09L62.2056 46.3506L62.2627 46.6167L62.3241 46.8881C62.3347 46.9338 62.3454 46.9797 62.3564 47.0259L62.4243 47.3056L62.4967 47.5908C62.5091 47.6388 62.5218 47.687 62.5346 47.7354L62.6137 48.029C62.6272 48.0784 62.641 48.128 62.6549 48.1778L62.7409 48.4798L63.373 50.648L65.4828 57.956L69.7747 72.8872L82.8902 118.629L97.849 170.868C97.9682 171.285 97.7259 171.719 97.3079 171.837C96.9049 171.952 96.4855 171.731 96.3492 171.342L73.225 90.6186L66.4023 66.846L63.1283 55.4681L61.9336 51.3341L61.2752 49.0743C61.2432 48.9657 61.212 48.858 61.1817 48.751L61.0929 48.4327C61.0785 48.3801 61.0643 48.3277 61.0503 48.2755L60.9687 47.9646L60.8918 47.6587C60.8669 47.5576 60.8428 47.4572 60.8195 47.3577L60.7519 47.0617C60.6974 46.817 60.6478 46.5774 60.6029 46.3428L60.5513 46.0637L60.5042 45.7894C60.4817 45.6535 60.461 45.5194 60.4419 45.387L60.4059 45.1247C60.3834 44.9513 60.3638 44.7812 60.3471 44.6142L60.3243 44.366L60.3057 44.1225C60.2593 43.4391 60.2644 42.8118 60.3181 42.2385L60.339 42.0384C60.5151 40.5213 61.0442 39.3974 61.8664 38.6251C62.237 38.2771 62.6386 38.0343 63.0445 37.8797C63.3012 37.7819 63.5145 37.7347 63.6635 37.7195Z" fill="white"/>
<path fill-rule="evenodd" clip-rule="evenodd" d="M277.913 153.998C278.35 153.998 278.705 154.357 278.705 154.799C278.705 155.225 278.375 155.573 277.96 155.597L277.913 155.599H92.5364C92.0993 155.599 91.745 155.24 91.745 154.799C91.745 154.372 92.0745 154.024 92.4899 154L92.5364 153.998H277.913Z" fill="white"/>
<path fill-rule="evenodd" clip-rule="evenodd" d="M408.86 158.799C409.3 158.799 409.656 159.157 409.656 159.599C409.656 160.025 409.325 160.374 408.907 160.398L408.86 160.399H268.832C268.393 160.399 268.036 160.041 268.036 159.599C268.036 159.173 268.368 158.825 268.786 158.8L268.832 158.799H408.86Z" fill="white"/>
<path fill-rule="evenodd" clip-rule="evenodd" d="M268.876 153.999C269.314 154.014 269.654 154.322 269.636 154.686L269.623 154.883L269.604 155.135L269.578 155.421C269.523 155.997 269.444 156.638 269.338 157.328C269.032 159.301 268.563 161.275 267.893 163.123C266.968 165.673 265.733 167.782 264.126 169.303C262.156 171.167 259.69 172.076 256.749 171.827C256.312 171.791 255.995 171.467 256.039 171.104C256.083 170.742 256.473 170.478 256.91 170.515C261.396 170.893 264.47 167.985 266.371 162.743C267.013 160.971 267.467 159.066 267.761 157.16C267.854 156.559 267.925 155.997 267.977 155.486L268.003 155.222L268.032 154.88L268.045 154.684L268.048 154.63C268.066 154.279 268.411 154.004 268.829 153.998L268.876 153.999Z" fill="white"/>
<path fill-rule="evenodd" clip-rule="evenodd" d="M138.551 157.466H128.477C126.426 157.466 124.764 159.128 124.764 161.179V164.759C124.764 166.81 126.426 168.473 128.477 168.473H138.551C140.602 168.473 142.265 166.81 142.265 164.759V161.179C142.265 159.128 140.602 157.466 138.551 157.466ZM140.779 164.759C140.779 165.99 139.782 166.987 138.551 166.987H128.477C127.247 166.987 126.249 165.99 126.249 164.759V161.179C126.249 161.145 126.249 161.112 126.249 161.078H140.769C140.769 161.112 140.769 161.145 140.769 161.179L140.779 164.759Z" fill="#FFA943"/>
<path fill-rule="evenodd" clip-rule="evenodd" d="M160.964 157.466H150.888C148.837 157.466 147.174 159.128 147.174 161.179V164.759C147.174 166.81 148.837 168.473 150.888 168.473H160.964C163.015 168.473 164.678 166.81 164.678 164.759V161.179C164.678 159.128 163.015 157.466 160.964 157.466ZM163.192 164.759C163.192 165.99 162.195 166.987 160.964 166.987H150.888C149.657 166.987 148.66 165.99 148.66 164.759V161.179C148.66 161.145 148.66 161.112 148.66 161.078H163.192C163.192 161.112 163.192 161.145 163.192 161.179V164.759Z" fill="#FFA943"/>
<rect x="103.197" y="158.374" width="11.0568" height="8.92272" rx="2.92041" fill="#FFA943"/>
<path fill-rule="evenodd" clip-rule="evenodd" d="M84.0176 159.082C89.6836 158.965 95.0561 159.364 99.9398 160.103C100.206 160.143 100.468 160.184 100.725 160.225L101.231 160.309C101.315 160.323 101.398 160.336 101.48 160.351L101.966 160.435C102.046 160.449 102.125 160.463 102.204 160.478L102.67 160.563L103.121 160.649L103.559 160.736C103.63 160.751 103.701 160.765 103.772 160.779L104.193 160.867L104.576 160.95L104.906 161.024L105.181 161.089L105.351 161.13L105.476 161.161C106.469 161.418 107.066 162.43 106.81 163.423C106.558 164.396 105.581 164.989 104.607 164.772L104.328 164.703L104.03 164.634L103.818 164.586L103.472 164.511L103.222 164.458L102.823 164.376L102.409 164.294C102.339 164.281 102.268 164.267 102.197 164.253L101.762 164.172L101.313 164.091L100.851 164.011C100.773 163.997 100.694 163.984 100.615 163.971L100.133 163.892C99.8881 163.852 99.6387 163.813 99.3844 163.775C94.6996 163.066 89.5357 162.682 84.0941 162.794C77.1454 162.938 70.3088 163.886 63.7726 165.797L63.4098 165.905C62.9185 166.051 62.4271 166.195 61.9356 166.336L61.1986 166.546C59.356 167.065 57.5151 167.545 55.6855 167.984L54.9543 168.158C46.6744 170.1 38.6532 171.198 31.7904 171.271C21.5464 171.38 14.2186 169.254 10.994 164.566C10.4128 163.721 10.6267 162.565 11.4716 161.984C12.2985 161.415 13.4235 161.608 14.0159 162.408L14.0538 162.462C18.7721 169.321 39.0706 169.174 61.6625 162.549L62.3478 162.346C69.3338 160.261 76.6229 159.234 84.0176 159.082Z" fill="#1F1F23"/>
<path d="M230.197 43.0327L73.3282 43.0327C71.1988 43.0327 69.6632 45.0733 70.2529 47.1193L98.6948 145.817C99.0898 147.187 100.344 148.131 101.77 148.131H260.377C262.528 148.131 264.067 146.052 263.438 143.995L233.257 45.2972C232.846 43.9517 231.604 43.0327 230.197 43.0327Z" fill="white"/>
<g opacity="0.2">
<path fill-rule="evenodd" clip-rule="evenodd" d="M128.31 50.7175L95.2936 51.0139C92.8984 51.0353 91.5245 52.905 92.2398 55.2023L102.299 87.5087C103.011 89.7957 105.53 91.6407 107.936 91.6191L140.953 91.3228C143.34 91.3014 144.716 89.4541 144.029 87.2061L133.948 54.8279C133.236 52.541 130.716 50.6959 128.31 50.7175ZM95.7967 52.6305L128.813 52.3342C130.282 52.321 131.82 53.4471 132.255 54.8431L142.313 87.1495C142.767 88.5397 141.927 89.6929 140.449 89.7061L107.433 90.0025C105.964 90.0157 104.426 88.8896 103.991 87.4935L93.9327 55.1871C93.4961 53.7847 94.3345 52.6436 95.7967 52.6305Z" fill="#FFA943"/>
<path fill-rule="evenodd" clip-rule="evenodd" d="M168.603 55.7059C169.071 55.7017 169.562 56.0602 169.701 56.5066C169.835 56.9371 169.593 57.2922 169.156 57.3207L169.106 57.3226L143.258 57.5546C142.79 57.5588 142.299 57.2003 142.16 56.7538C142.025 56.3233 142.268 55.9683 142.705 55.9397L142.754 55.9379L168.603 55.7059Z" fill="#FFA943"/>
<path fill-rule="evenodd" clip-rule="evenodd" d="M221.452 66.1205C221.92 66.1163 222.412 66.4748 222.551 66.9212C222.685 67.3517 222.442 67.7067 222.005 67.7353L221.956 67.7371L146.441 68.4149C145.974 68.4191 145.482 68.0606 145.343 67.6142C145.209 67.1837 145.452 66.8286 145.889 66.8001L145.938 66.7982L221.452 66.1205Z" fill="#FFA943"/>
<path fill-rule="evenodd" clip-rule="evenodd" d="M223.466 72.5871C223.933 72.5829 224.425 72.9414 224.564 73.3878C224.698 73.8183 224.455 74.1734 224.018 74.2019L223.969 74.2037L148.455 74.8815C147.987 74.8857 147.495 74.5272 147.356 74.0808C147.222 73.6503 147.465 73.2953 147.902 73.2667L147.951 73.2649L223.466 72.5871Z" fill="#FFA943"/>
<path fill-rule="evenodd" clip-rule="evenodd" d="M225.479 79.0537C225.947 79.0495 226.438 79.408 226.577 79.8544C226.711 80.2849 226.468 80.64 226.032 80.6685L225.982 80.6704L150.468 81.3481C150 81.3523 149.509 80.9938 149.37 80.5474C149.236 80.1169 149.479 79.7619 149.915 79.7333L149.965 79.7315L225.479 79.0537Z" fill="#FFA943"/>
<path fill-rule="evenodd" clip-rule="evenodd" d="M227.493 85.5204C227.96 85.5162 228.452 85.8747 228.591 86.3212C228.725 86.7516 228.482 87.1067 228.045 87.1353L227.996 87.1371L152.482 87.8149C152.014 87.8191 151.522 87.4606 151.383 87.0141C151.249 86.5837 151.492 86.2286 151.929 86.2L151.978 86.1982L227.493 85.5204Z" fill="#FFA943"/>
<path fill-rule="evenodd" clip-rule="evenodd" d="M130.571 51.8293C130.801 51.509 131.337 51.5016 131.767 51.8126C132.18 52.1113 132.345 52.5949 132.155 52.9164L132.129 52.9557L105.416 90.1315C105.186 90.4517 104.651 90.4592 104.221 90.1481C103.808 89.8495 103.642 89.3659 103.833 89.0443L103.859 89.005L130.571 51.8293Z" fill="#FFA943"/>
<path fill-rule="evenodd" clip-rule="evenodd" d="M228.806 101.099L195.789 101.395C193.383 101.417 192.023 103.297 192.735 105.584L202.794 137.89C203.504 140.169 206.045 142.022 208.432 142.001L241.448 141.704C243.854 141.683 245.214 139.803 244.502 137.516L234.443 105.209C233.728 102.912 231.201 101.078 228.806 101.099ZM196.293 103.012L229.309 102.716C230.771 102.703 232.314 103.822 232.75 105.225L242.809 137.531C243.244 138.927 242.414 140.074 240.945 140.088L207.929 140.384C206.477 140.397 204.919 139.261 204.487 137.875L194.429 105.569C193.994 104.173 194.824 103.025 196.293 103.012Z" fill="#FFA943"/>
<path fill-rule="evenodd" clip-rule="evenodd" d="M184.695 106.845C185.163 106.841 185.655 107.199 185.794 107.646C185.928 108.076 185.685 108.431 185.248 108.46L185.199 108.462L159.35 108.694C158.882 108.698 158.391 108.339 158.252 107.893C158.118 107.462 158.361 107.107 158.797 107.079L158.847 107.077L184.695 106.845Z" fill="#FFA943"/>
<path fill-rule="evenodd" clip-rule="evenodd" d="M188.246 117.702C188.713 117.698 189.205 118.056 189.344 118.503C189.478 118.933 189.235 119.288 188.798 119.317L188.749 119.319L113.263 119.996C112.795 120 112.304 119.642 112.165 119.195C112.03 118.765 112.273 118.41 112.71 118.381L112.759 118.38L188.246 117.702Z" fill="#FFA943"/>
<path fill-rule="evenodd" clip-rule="evenodd" d="M190.259 124.169C190.727 124.164 191.218 124.523 191.357 124.969C191.491 125.4 191.248 125.755 190.812 125.783L190.762 125.785L115.276 126.463C114.809 126.467 114.317 126.109 114.178 125.662C114.044 125.232 114.287 124.877 114.724 124.848L114.773 124.846L190.259 124.169Z" fill="#FFA943"/>
<path fill-rule="evenodd" clip-rule="evenodd" d="M192.272 130.635C192.74 130.631 193.232 130.99 193.371 131.436C193.505 131.867 193.262 132.222 192.825 132.25L192.776 132.252L117.29 132.93C116.822 132.934 116.33 132.575 116.191 132.129C116.057 131.698 116.3 131.343 116.737 131.315L116.786 131.313L192.272 130.635Z" fill="#FFA943"/>
<path fill-rule="evenodd" clip-rule="evenodd" d="M194.336 137.264C194.804 137.259 195.295 137.618 195.434 138.064C195.568 138.495 195.325 138.85 194.889 138.878L194.839 138.88L119.353 139.558C118.886 139.562 118.394 139.203 118.255 138.757C118.121 138.327 118.364 137.971 118.801 137.943L118.85 137.941L194.336 137.264Z" fill="#FFA943"/>
<path fill-rule="evenodd" clip-rule="evenodd" d="M231.163 102.156C231.394 101.836 231.929 101.828 232.359 102.139C232.772 102.438 232.937 102.922 232.746 103.243L232.72 103.283L206 140.431C205.769 140.751 205.234 140.759 204.804 140.448C204.391 140.149 204.226 139.665 204.417 139.344L204.443 139.304L231.163 102.156Z" fill="#FFA943"/>
</g>
<rect width="58.9416" height="14.1353" transform="matrix(1 0 0.221378 0.975188 226.459 50.4841)" fill="white"/>
<path fill-rule="evenodd" clip-rule="evenodd" d="M279.958 49.1837H231.471C227.802 49.1837 225.488 52.0819 226.301 55.6599L227.151 59.4051C227.963 62.9831 231.593 65.8813 235.262 65.8813H283.749C287.39 65.8813 289.702 62.9856 288.921 59.4116L288.069 55.6599C287.257 52.0819 283.627 49.1837 279.958 49.1837ZM231.826 50.7442H280.313C283.098 50.7442 285.853 52.9437 286.469 55.6598L287.319 59.4051C287.912 62.1187 286.154 64.3207 283.395 64.3207H234.908C232.123 64.3207 229.368 62.1212 228.751 59.4051L227.901 55.6598C227.284 52.9437 229.041 50.7442 231.826 50.7442Z" fill="#1F1F23"/>
<path fill-rule="evenodd" clip-rule="evenodd" d="M279.829 55.1917C280.271 55.1917 280.708 55.541 280.806 55.9719C280.9 56.3874 280.644 56.7271 280.23 56.7508L280.183 56.7522H235.083C234.641 56.7522 234.204 56.4028 234.106 55.9719C234.012 55.5564 234.268 55.2167 234.682 55.193L234.729 55.1917H279.829Z" fill="#1F1F23"/>
<path fill-rule="evenodd" clip-rule="evenodd" d="M256.969 58.937C257.411 58.937 257.848 59.2863 257.946 59.7172C258.04 60.1327 257.784 60.4724 257.37 60.4961L257.323 60.4975H235.933C235.491 60.4975 235.054 60.1481 234.956 59.7172C234.862 59.3017 235.118 58.962 235.532 58.9383L235.579 58.937H256.969Z" fill="#1F1F23"/>
<rect width="58.9416" height="14.1353" transform="matrix(1 0 0.221378 0.975188 194.188 128.362)" fill="white"/>
<path fill-rule="evenodd" clip-rule="evenodd" d="M247.687 127.061H199.2C195.531 127.061 193.217 129.959 194.029 133.537L194.88 137.283C195.692 140.861 199.322 143.759 202.991 143.759H251.477C255.119 143.759 257.431 140.863 256.65 137.289L255.798 133.537C254.986 129.959 251.356 127.061 247.687 127.061ZM199.554 128.622H248.041C250.826 128.622 253.581 130.821 254.198 133.537L255.048 137.283C255.641 139.996 253.883 142.198 251.123 142.198H202.636C199.851 142.198 197.096 139.999 196.48 137.283L195.63 133.537C195.013 130.821 196.769 128.622 199.554 128.622Z" fill="#1F1F23"/>
<path fill-rule="evenodd" clip-rule="evenodd" d="M247.557 133.069C247.999 133.069 248.437 133.419 248.534 133.85C248.629 134.265 248.373 134.605 247.958 134.628L247.912 134.63H202.812C202.37 134.63 201.932 134.28 201.835 133.85C201.74 133.434 201.996 133.094 202.411 133.071L202.458 133.069H247.557Z" fill="#1F1F23"/>
<path fill-rule="evenodd" clip-rule="evenodd" d="M224.697 136.815C225.139 136.815 225.577 137.164 225.675 137.595C225.769 138.01 225.513 138.35 225.098 138.374L225.052 138.375H203.662C203.22 138.375 202.783 138.026 202.685 137.595C202.59 137.179 202.846 136.84 203.261 136.816L203.308 136.815H224.697Z" fill="#1F1F23"/>
<rect width="64.009" height="36.0051" transform="matrix(1 0 0.213371 0.976971 69.15 108.622)" fill="white"/>
<path fill-rule="evenodd" clip-rule="evenodd" d="M127.91 107.058H73.8492C70.1802 107.058 67.8424 109.962 68.6252 113.546L74.1794 138.977C74.9622 142.562 78.5683 145.465 82.2373 145.465H136.298C139.963 145.465 142.306 142.566 141.528 139.003L135.968 113.546C135.185 109.962 131.579 107.058 127.91 107.058ZM74.1907 108.622H128.252C131.037 108.622 133.774 110.825 134.368 113.546L139.928 139.003C140.517 141.702 138.738 143.902 135.957 143.902H81.8959C79.1107 143.902 76.3739 141.698 75.7796 138.977L70.2255 113.546C69.6312 110.825 71.4055 108.622 74.1907 108.622Z" fill="#1F1F23"/>
<path fill-rule="evenodd" clip-rule="evenodd" d="M97.394 124.62H97.2073C96.6473 124.62 96.1238 124.177 96.01 123.656L95.7994 122.692C95.6799 122.145 96.0423 121.728 96.5757 121.728H96.7624C97.3224 121.728 97.8459 122.171 97.9597 122.692L98.1703 123.656C98.2841 124.177 97.9274 124.62 97.394 124.62Z" fill="#FFA943"/>
<path fill-rule="evenodd" clip-rule="evenodd" d="M94.0337 124.62H81.792C81.0452 124.62 80.3333 124.047 80.1739 123.318L80.1113 123.031C79.952 122.301 80.4135 121.728 81.1603 121.728H93.402C94.1488 121.728 94.8607 122.301 95.0201 123.031L95.0827 123.318C95.242 124.047 94.7805 124.62 94.0337 124.62Z" fill="#1F1F23"/>
<path fill-rule="evenodd" clip-rule="evenodd" d="M98.336 138.091H84.7341C83.9873 138.091 83.2754 137.518 83.1161 136.789L83.0535 136.502C82.8941 135.772 83.3557 135.199 84.1024 135.199H97.7044C98.4511 135.199 99.1631 135.772 99.3224 136.502L99.385 136.789C99.5443 137.518 99.0561 138.091 98.336 138.091Z" fill="#1F1F23"/>
<path fill-rule="evenodd" clip-rule="evenodd" d="M110.426 133.61H87.8891C87.1424 133.61 86.4304 133.037 86.2711 132.307L86.2085 132.02C86.0491 131.291 86.5107 130.718 87.2575 130.718H109.794C110.541 130.718 111.253 131.291 111.412 132.02L111.475 132.307C111.634 133.037 111.146 133.61 110.426 133.61Z" fill="#FFA943"/>
<path fill-rule="evenodd" clip-rule="evenodd" d="M125.441 133.61H114.48C113.733 133.61 113.021 133.037 112.862 132.307L112.799 132.02C112.64 131.291 113.101 130.718 113.848 130.718H124.809C125.556 130.718 126.268 131.291 126.428 132.02L126.49 132.307C126.649 133.037 126.188 133.61 125.441 133.61Z" fill="#FFA943"/>
<path fill-rule="evenodd" clip-rule="evenodd" d="M129.423 129.128H129.236C128.676 129.128 128.153 128.685 128.039 128.164L127.828 127.2C127.709 126.653 128.071 126.236 128.605 126.236H128.791C129.351 126.236 129.875 126.679 129.989 127.2L130.199 128.164C130.313 128.685 129.983 129.128 129.423 129.128Z" fill="#1F1F23"/>
<path fill-rule="evenodd" clip-rule="evenodd" d="M106.193 129.128H82.7765C82.0297 129.128 81.3178 128.555 81.1584 127.825L81.0958 127.539C80.9365 126.809 81.398 126.236 82.1448 126.236H105.561C106.308 126.236 107.02 126.809 107.179 127.539L107.242 127.825C107.396 128.529 106.913 129.128 106.193 129.128Z" fill="#1F1F23"/>
<path fill-rule="evenodd" clip-rule="evenodd" d="M112.916 124.62H100.675C99.9279 124.62 99.2159 124.047 99.0566 123.318L98.994 123.031C98.8347 122.301 99.2962 121.728 100.043 121.728H112.285C113.031 121.728 113.743 122.301 113.903 123.031L113.965 123.318C114.125 124.047 113.636 124.62 112.916 124.62Z" fill="#1F1F23"/>
<path fill-rule="evenodd" clip-rule="evenodd" d="M125.742 129.128H110.007C109.26 129.128 108.548 128.555 108.389 127.825L108.321 127.513C108.161 126.783 108.623 126.21 109.37 126.21H125.105C125.852 126.21 126.564 126.783 126.723 127.513L126.791 127.825C126.945 128.529 126.489 129.128 125.742 129.128Z" fill="#FFA943"/>
<path fill-rule="evenodd" clip-rule="evenodd" d="M81.2501 115.423L84.5956 113.156C84.6432 113.13 84.7175 113.104 84.7709 113.104C84.8776 113.104 84.9633 113.13 85.0603 113.208C85.1574 113.286 85.2012 113.364 85.2239 113.468C85.2524 113.599 85.2218 113.703 85.1112 113.807L82.2252 115.735L85.9534 117.663C86.1039 117.742 86.18 117.846 86.2141 118.002C86.2369 118.106 86.2273 118.184 86.1643 118.263C86.1014 118.341 86.0271 118.367 85.9204 118.367C85.8404 118.367 85.7813 118.341 85.7223 118.315L81.3867 116.048C81.2363 115.97 81.1278 115.839 81.0993 115.709C81.0823 115.631 81.1338 115.501 81.2501 115.423Z" fill="#1F1F23"/>
<path fill-rule="evenodd" clip-rule="evenodd" d="M88.8431 111.723C88.906 111.644 88.9803 111.618 89.087 111.618C89.1937 111.618 89.2794 111.644 89.3765 111.723C89.4736 111.801 89.5173 111.879 89.5401 111.983C89.5515 112.035 89.5628 112.087 89.5476 112.139L88.1041 119.696C88.0831 119.722 88.0678 119.774 88.0468 119.8C87.9839 119.878 87.9096 119.904 87.8029 119.904C87.6962 119.904 87.6105 119.878 87.5134 119.8C87.4164 119.722 87.3726 119.644 87.3498 119.539C87.3385 119.487 87.3271 119.435 87.3424 119.383L88.7858 111.827C88.8011 111.775 88.8221 111.749 88.8431 111.723Z" fill="#1F1F23"/>
<path fill-rule="evenodd" clip-rule="evenodd" d="M95.8061 115.761C95.8346 115.892 95.783 116.022 95.6667 116.1L92.3213 118.367C92.2736 118.393 92.1993 118.419 92.146 118.419C92.0393 118.419 91.9536 118.393 91.8565 118.315C91.7594 118.237 91.7157 118.158 91.6929 118.054C91.6644 117.924 91.695 117.82 91.8056 117.715L94.6916 115.787L90.9634 113.859C90.813 113.781 90.7369 113.677 90.7027 113.52C90.68 113.416 90.6896 113.338 90.7525 113.26C90.8154 113.182 90.8898 113.156 90.9964 113.156C91.0764 113.156 91.1355 113.182 91.1945 113.208L95.5301 115.475C95.6692 115.501 95.7776 115.631 95.8061 115.761Z" fill="#1F1F23"/>
<path d="M164.604 102.798C165.677 101.192 167.212 99.9174 169.118 99.0479C171.025 98.1784 173.267 97.7308 175.717 97.7308C178.166 97.7308 180.774 98.1784 183.393 99.0479C186.011 99.9174 188.589 101.192 190.978 102.798" stroke="#EA6F57" stroke-width="4.7302"/>
<path d="M150.979 93.7459C154.785 88.0648 161.79 84.874 170.457 84.874C179.123 84.874 188.741 88.0648 197.197 93.7459" stroke="#EA6F57" stroke-width="4.7302"/>
<path d="M137.787 84.7075C140.443 80.7369 144.237 77.5866 148.951 75.4377C153.666 73.2888 159.209 72.1829 165.263 72.1829C171.318 72.1829 177.767 73.2888 184.24 75.4377C190.714 77.5866 197.086 80.7369 202.992 84.7075" stroke="#EA6F57" stroke-width="4.7302"/>
<path d="M184.495 119.187C187.484 119.187 188.986 116.94 187.852 114.169C186.718 111.398 183.376 109.151 180.387 109.151C177.399 109.151 175.896 111.398 177.031 114.169C178.165 116.94 181.507 119.187 184.495 119.187Z" fill="#E14E32"/>
<path d="M167.606 66.146H157.957L177.658 106.062H179.12H180.582L167.606 66.146Z" fill="#E14E32"/>
</svg>
