<svg width="420" height="210" viewBox="0 0 420 210" fill="none" xmlns="http://www.w3.org/2000/svg">
<path fill-rule="evenodd" clip-rule="evenodd" d="M227.184 197H132.696C129.089 197 126.166 194.077 126.166 190.47V36.6439C126.166 33.0369 129.089 30.1136 132.696 30.1136H227.184C223.577 30.1136 220.654 33.0369 220.654 36.6439V190.47C220.63 194.053 223.577 197 227.184 197Z" fill="#FFD9C1"/>
<path fill-rule="evenodd" clip-rule="evenodd" d="M151.603 43.127L159.784 15.1201C160.09 14.0828 161.175 13.4934 162.212 13.7763L223.719 31.7168V49.9165" fill="white"/>
<path fill-rule="evenodd" clip-rule="evenodd" d="M159.106 14.9197C159.514 13.5387 160.94 12.7352 162.341 13.0795L162.41 13.0973L223.917 31.0378C224.205 31.1218 224.407 31.3777 224.425 31.6741L224.426 31.7167V49.9165C224.426 50.3071 224.109 50.6238 223.719 50.6238C223.342 50.6238 223.034 50.3293 223.013 49.9581L223.012 49.9165L223.011 32.2469L162.026 14.4586C161.371 14.28 160.693 14.639 160.479 15.2681L160.463 15.3183L152.282 43.3253C152.173 43.7002 151.78 43.9154 151.405 43.8058C151.043 43.7002 150.83 43.3313 150.914 42.9689L150.924 42.9287L159.106 14.9197Z" fill="#2E2D2D"/>
<path fill-rule="evenodd" clip-rule="evenodd" d="M169.784 22.0644C169.89 21.7032 170.259 21.4905 170.621 21.5738L170.661 21.5843L221.937 36.5543C222.312 36.6638 222.527 37.0565 222.417 37.4314C222.312 37.793 221.943 38.006 221.581 37.9226L221.54 37.9121L170.909 23.1298L170.876 23.2109C169.598 26.2486 166.326 27.9918 163.084 27.323L163.023 27.3099L158.176 43.8912C158.07 44.2527 157.701 44.4656 157.339 44.3821L157.299 44.3716C156.937 44.2659 156.724 43.8969 156.808 43.5345L156.818 43.4943L161.863 26.2375C161.976 25.8527 162.385 25.6382 162.766 25.765L162.816 25.7827L162.941 25.831L163.017 25.8529C165.883 26.6417 168.874 24.9983 169.758 22.152L169.784 22.0644Z" fill="#2E2D2D"/>
<path fill-rule="evenodd" clip-rule="evenodd" d="M141.419 84.1944L144.979 44.5179C145.073 43.4335 146.016 42.6555 147.1 42.7498L221.267 49.28V81.6483" fill="white"/>
<path fill-rule="evenodd" clip-rule="evenodd" d="M144.274 44.4566C144.4 43.0072 145.647 41.9504 147.093 42.0401L147.163 42.0452L221.329 48.5755C221.68 48.6064 221.953 48.8903 221.973 49.238L221.974 49.28V81.6483C221.974 82.0389 221.658 82.3555 221.267 82.3555C220.89 82.3555 220.582 82.0611 220.561 81.6898L220.56 81.6483V49.9276L147.039 43.4543C146.357 43.395 145.773 43.8641 145.689 44.5295L145.683 44.5811L142.123 84.2575C142.088 84.6466 141.745 84.9337 141.356 84.8988C140.981 84.8651 140.7 84.5443 140.712 84.1726L140.715 84.1311L144.274 44.4566Z" fill="#2E2D2D"/>
<path fill-rule="evenodd" clip-rule="evenodd" d="M158.254 49.7822C158.288 49.4073 158.609 49.1272 158.98 49.1389L159.022 49.1414L220.505 54.6343C220.894 54.6691 221.181 55.0126 221.146 55.4017C221.113 55.7768 220.792 56.0573 220.42 56.0457L220.379 56.0432L159.563 50.6099L159.56 50.6279C158.858 54.1557 155.447 56.6791 151.525 56.5688L151.468 56.5665L148.984 84.3046C148.95 84.6797 148.629 84.9601 148.258 84.9484L148.216 84.9459C147.841 84.9123 147.561 84.5916 147.572 84.2199L147.575 84.1784L150.121 55.7472C150.153 55.3825 150.459 55.103 150.825 55.103C150.888 55.103 150.93 55.1064 150.998 55.1157L151.07 55.1262C151.069 55.1265 151.067 55.1266 151.061 55.1266L151.092 55.1272L151.123 55.1293C154.777 55.4498 157.96 53.0346 158.254 49.7822Z" fill="#2E2D2D"/>
<path fill-rule="evenodd" clip-rule="evenodd" d="M168.719 83.605C169.109 83.605 169.426 83.9216 169.426 84.3122C169.426 84.6889 169.132 84.9968 168.76 85.0183L168.719 85.0195H134.535C134.145 85.0195 133.828 84.7028 133.828 84.3122C133.828 83.9356 134.122 83.6277 134.494 83.6062L134.535 83.605H168.719Z" fill="#2E2D2D"/>
<path fill-rule="evenodd" clip-rule="evenodd" d="M134.535 85.9625C135.447 85.9625 136.185 85.2236 136.185 84.3122C136.185 83.4008 135.447 82.662 134.535 82.662C133.624 82.662 132.885 83.4008 132.885 84.3122C132.885 85.2236 133.624 85.9625 134.535 85.9625Z" fill="#2E2D2D"/>
<path fill-rule="evenodd" clip-rule="evenodd" d="M182.156 197H173.198C170.864 197 168.954 195.09 168.954 192.757V69.9316C168.954 67.5977 170.864 65.6881 173.198 65.6881H177.913C180.247 65.6881 182.156 67.5977 182.156 69.9316V197Z" fill="#2E2D2D"/>
<path fill-rule="evenodd" clip-rule="evenodd" d="M289.893 197.024H178.101C180.695 197.024 182.816 194.902 182.816 192.309V70.4031C182.816 67.8098 180.695 65.6881 178.101 65.6881H289.893C292.486 65.6881 294.608 67.8098 294.608 70.4031V192.309C294.608 194.925 292.486 197.024 289.893 197.024Z" fill="#6E43D4"/>
<path fill-rule="evenodd" clip-rule="evenodd" d="M177.913 65.6881C180.604 65.6881 182.817 67.7234 182.863 70.276L182.863 70.3559V196.623C182.863 197.013 182.547 197.33 182.156 197.33C181.779 197.33 181.472 197.036 181.45 196.664L181.449 196.623V70.3559C181.449 68.5707 179.872 67.1026 177.913 67.1026C177.522 67.1026 177.205 66.786 177.205 66.3954C177.205 66.0048 177.522 65.6881 177.913 65.6881Z" fill="#2E2D2D"/>
<path fill-rule="evenodd" clip-rule="evenodd" d="M168.907 73.3264C169.298 73.3264 169.614 73.6431 169.614 74.0337C169.614 74.4103 169.32 74.7182 168.949 74.7397L168.907 74.7409H162.118C161.727 74.7409 161.41 74.4243 161.41 74.0337C161.41 73.657 161.705 73.3491 162.076 73.3276L162.118 73.3264H168.907Z" fill="#2E2D2D"/>
<path fill-rule="evenodd" clip-rule="evenodd" d="M168.907 78.4186C169.298 78.4186 169.614 78.7352 169.614 79.1258C169.614 79.5025 169.32 79.8104 168.949 79.8319L168.907 79.8331H162.118C161.727 79.8331 161.41 79.5164 161.41 79.1258C161.41 78.7492 161.705 78.4413 162.076 78.4198L162.118 78.4186H168.907Z" fill="#2E2D2D"/>
<path fill-rule="evenodd" clip-rule="evenodd" d="M168.907 88.6265C169.298 88.6265 169.614 88.9431 169.614 89.3337C169.614 89.7104 169.32 90.0182 168.949 90.0398L168.907 90.041H162.118C161.727 90.041 161.41 89.7243 161.41 89.3337C161.41 88.9571 161.705 88.6492 162.076 88.6277L162.118 88.6265H168.907Z" fill="#2E2D2D"/>
<path fill-rule="evenodd" clip-rule="evenodd" d="M168.907 93.7186C169.298 93.7186 169.614 94.0353 169.614 94.4259C169.614 94.8025 169.32 95.1104 168.949 95.1319L168.907 95.1331H162.118C161.727 95.1331 161.41 94.8165 161.41 94.4259C161.41 94.0492 161.705 93.7413 162.076 93.7198L162.118 93.7186H168.907Z" fill="#2E2D2D"/>
<path fill-rule="evenodd" clip-rule="evenodd" d="M168.907 98.8108C169.298 98.8108 169.614 99.1274 169.614 99.518C169.614 99.8947 169.32 100.203 168.949 100.224L168.907 100.225H162.118C161.727 100.225 161.41 99.9086 161.41 99.518C161.41 99.1414 161.705 98.8335 162.076 98.812L162.118 98.8108H168.907Z" fill="#2E2D2D"/>
<path fill-rule="evenodd" clip-rule="evenodd" d="M168.907 103.927C169.298 103.927 169.614 104.243 169.614 104.634C169.614 105.01 169.32 105.318 168.949 105.34L168.907 105.341H162.118C161.727 105.341 161.41 105.024 161.41 104.634C161.41 104.257 161.705 103.949 162.076 103.928L162.118 103.927H168.907Z" fill="#2E2D2D"/>
<path fill-rule="evenodd" clip-rule="evenodd" d="M168.907 109.019C169.298 109.019 169.614 109.335 169.614 109.726C169.614 110.103 169.32 110.41 168.949 110.432L168.907 110.433H162.118C161.727 110.433 161.41 110.117 161.41 109.726C161.41 109.349 161.705 109.041 162.076 109.02L162.118 109.019H168.907Z" fill="#2E2D2D"/>
<path fill-rule="evenodd" clip-rule="evenodd" d="M168.907 114.134C169.298 114.134 169.614 114.451 169.614 114.842C169.614 115.218 169.32 115.526 168.949 115.548L168.907 115.549H162.118C161.727 115.549 161.41 115.232 161.41 114.842C161.41 114.465 161.705 114.157 162.076 114.136L162.118 114.134H168.907Z" fill="#2E2D2D"/>
<path fill-rule="evenodd" clip-rule="evenodd" d="M168.907 119.227C169.298 119.227 169.614 119.543 169.614 119.934C169.614 120.31 169.32 120.618 168.949 120.64L168.907 120.641H162.118C161.727 120.641 161.41 120.324 161.41 119.934C161.41 119.557 161.705 119.249 162.076 119.228L162.118 119.227H168.907Z" fill="#2E2D2D"/>
<path fill-rule="evenodd" clip-rule="evenodd" d="M168.907 124.319C169.298 124.319 169.614 124.635 169.614 125.026C169.614 125.403 169.32 125.711 168.949 125.732L168.907 125.733H162.118C161.727 125.733 161.41 125.417 161.41 125.026C161.41 124.649 161.705 124.341 162.076 124.32L162.118 124.319H168.907Z" fill="#2E2D2D"/>
<path fill-rule="evenodd" clip-rule="evenodd" d="M168.907 129.434C169.298 129.434 169.614 129.751 169.614 130.142C169.614 130.518 169.32 130.826 168.949 130.848L168.907 130.849H162.118C161.727 130.849 161.41 130.532 161.41 130.142C161.41 129.765 161.705 129.457 162.076 129.436L162.118 129.434H168.907Z" fill="#2E2D2D"/>
<path fill-rule="evenodd" clip-rule="evenodd" d="M168.907 134.527C169.298 134.527 169.614 134.843 169.614 135.234C169.614 135.611 169.32 135.918 168.949 135.94L168.907 135.941H162.118C161.727 135.941 161.41 135.624 161.41 135.234C161.41 134.857 161.705 134.549 162.076 134.528L162.118 134.527H168.907Z" fill="#2E2D2D"/>
<path fill-rule="evenodd" clip-rule="evenodd" d="M168.907 139.619C169.298 139.619 169.614 139.936 169.614 140.326C169.614 140.703 169.32 141.011 168.949 141.032L168.907 141.033H162.118C161.727 141.033 161.41 140.717 161.41 140.326C161.41 139.949 161.705 139.642 162.076 139.62L162.118 139.619H168.907Z" fill="#2E2D2D"/>
<path fill-rule="evenodd" clip-rule="evenodd" d="M168.907 144.735C169.298 144.735 169.614 145.051 169.614 145.442C169.614 145.819 169.32 146.126 168.949 146.148L168.907 146.149H162.118C161.727 146.149 161.41 145.832 161.41 145.442C161.41 145.065 161.705 144.757 162.076 144.736L162.118 144.735H168.907Z" fill="#2E2D2D"/>
<path fill-rule="evenodd" clip-rule="evenodd" d="M168.907 149.827C169.298 149.827 169.614 150.143 169.614 150.534C169.614 150.911 169.32 151.219 168.949 151.24L168.907 151.241H162.118C161.727 151.241 161.41 150.925 161.41 150.534C161.41 150.157 161.705 149.849 162.076 149.828L162.118 149.827H168.907Z" fill="#2E2D2D"/>
<path fill-rule="evenodd" clip-rule="evenodd" d="M168.907 160.035C169.298 160.035 169.614 160.351 169.614 160.742C169.614 161.119 169.32 161.426 168.949 161.448L168.907 161.449H162.118C161.727 161.449 161.41 161.133 161.41 160.742C161.41 160.365 161.705 160.057 162.076 160.036L162.118 160.035H168.907Z" fill="#2E2D2D"/>
<path fill-rule="evenodd" clip-rule="evenodd" d="M168.907 165.127C169.298 165.127 169.614 165.443 169.614 165.834C169.614 166.211 169.32 166.519 168.949 166.54L168.907 166.541H162.118C161.727 166.541 161.41 166.225 161.41 165.834C161.41 165.457 161.705 165.15 162.076 165.128L162.118 165.127H168.907Z" fill="#2E2D2D"/>
<path fill-rule="evenodd" clip-rule="evenodd" d="M168.907 170.219C169.298 170.219 169.614 170.536 169.614 170.926C169.614 171.303 169.32 171.611 168.949 171.632L168.907 171.633H162.118C161.727 171.633 161.41 171.317 161.41 170.926C161.41 170.55 161.705 170.242 162.076 170.22L162.118 170.219H168.907Z" fill="#2E2D2D"/>
<path fill-rule="evenodd" clip-rule="evenodd" d="M168.907 175.335C169.298 175.335 169.614 175.651 169.614 176.042C169.614 176.419 169.32 176.726 168.949 176.748L168.907 176.749H162.118C161.727 176.749 161.41 176.433 161.41 176.042C161.41 175.665 161.705 175.357 162.076 175.336L162.118 175.335H168.907Z" fill="#2E2D2D"/>
<path fill-rule="evenodd" clip-rule="evenodd" d="M168.907 180.427C169.298 180.427 169.614 180.744 169.614 181.134C169.614 181.511 169.32 181.819 168.949 181.84L168.907 181.841H162.118C161.727 181.841 161.41 181.525 161.41 181.134C161.41 180.757 161.705 180.45 162.076 180.428L162.118 180.427H168.907Z" fill="#2E2D2D"/>
<path fill-rule="evenodd" clip-rule="evenodd" d="M168.907 185.519C169.298 185.519 169.614 185.836 169.614 186.226C169.614 186.603 169.32 186.911 168.949 186.932L168.907 186.934H162.118C161.727 186.934 161.41 186.617 161.41 186.226C161.41 185.85 161.705 185.542 162.076 185.52L162.118 185.519H168.907Z" fill="#2E2D2D"/>
<path fill-rule="evenodd" clip-rule="evenodd" d="M182.156 151.618C180.482 151.241 178.761 151.029 176.97 151.029C164.334 151.029 154.102 161.261 154.102 173.897C154.102 186.533 164.334 196.764 176.97 196.764C178.761 196.764 180.482 196.552 182.156 196.175V151.618Z" fill="white"/>
<path fill-rule="evenodd" clip-rule="evenodd" d="M182.203 172.977C181.567 172.977 180.907 172.977 180.246 172.977C180.765 171.468 181.425 170.313 182.203 169.512V166.023C181.85 166.188 181.52 166.376 181.237 166.612C180.223 167.414 179.469 168.333 178.973 169.37C178.478 170.408 178.03 171.61 177.653 172.977H176.215H167.162C167.304 171.445 167.893 170.266 168.954 169.465C170.015 168.663 171.17 168.262 172.467 168.262C172.985 168.239 173.339 168.121 173.528 167.909C173.716 167.696 173.811 167.343 173.811 166.848C173.811 166.306 173.693 165.952 173.457 165.787C173.221 165.622 172.773 165.551 172.137 165.551C170.911 165.551 169.756 165.858 168.695 166.494C167.634 167.131 166.738 168.003 166.054 169.111C165.371 170.243 164.946 171.516 164.829 172.954H161.387C161.222 172.954 161.08 173.048 160.962 173.213C160.821 173.378 160.774 173.59 160.774 173.849C160.774 174.085 160.844 174.297 160.986 174.462C161.127 174.627 161.292 174.722 161.481 174.722H164.852C164.946 176.207 165.324 177.551 165.96 178.777C166.597 179.979 167.492 180.946 168.601 181.629C169.732 182.313 171.005 182.666 172.443 182.666C174.093 182.666 175.414 182.219 176.404 181.346C177.394 180.474 178.125 179.507 178.549 178.447C178.997 177.386 179.421 176.136 179.846 174.675C180.482 174.675 181.307 174.675 182.297 174.698V172.977H182.203ZM175.296 178.517C174.588 179.413 173.598 179.838 172.349 179.838C170.934 179.838 169.779 179.39 168.86 178.494C167.94 177.598 167.398 176.348 167.21 174.745C169.284 174.722 172.396 174.698 176.616 174.698H177.158C176.616 176.348 176.003 177.621 175.296 178.517Z" fill="#6E43D4"/>
<path fill-rule="evenodd" clip-rule="evenodd" d="M221.29 82.3792H202.784C200.309 82.3792 198.305 84.053 198.305 86.104V101.074H221.243" fill="white"/>
<rect x="198.187" y="88.7915" width="23.1033" height="4.24347" fill="#2E2D2D"/>
<path fill-rule="evenodd" clip-rule="evenodd" d="M221.29 130.425H202.784C200.309 130.425 198.305 132.098 198.305 134.15V149.12H221.243" fill="white"/>
<rect x="198.187" y="136.837" width="23.1033" height="4.24347" fill="#2E2D2D"/>
<path fill-rule="evenodd" clip-rule="evenodd" d="M221.573 100.343C221.964 100.343 222.28 100.66 222.28 101.05C222.28 101.427 221.986 101.735 221.615 101.756L221.573 101.758H192.765C192.374 101.758 192.057 101.441 192.057 101.05C192.057 100.674 192.352 100.366 192.723 100.344L192.765 100.343H221.573Z" fill="#2E2D2D"/>
<path fill-rule="evenodd" clip-rule="evenodd" d="M192.765 102.701C193.676 102.701 194.415 101.962 194.415 101.05C194.415 100.139 193.676 99.4001 192.765 99.4001C191.853 99.4001 191.115 100.139 191.115 101.05C191.115 101.962 191.853 102.701 192.765 102.701Z" fill="#2E2D2D"/>
<path fill-rule="evenodd" clip-rule="evenodd" d="M221.573 148.389C221.964 148.389 222.28 148.705 222.28 149.096C222.28 149.473 221.986 149.78 221.615 149.802L221.573 149.803H192.765C192.374 149.803 192.058 149.487 192.058 149.096C192.058 148.719 192.352 148.411 192.723 148.39L192.765 148.389H221.573Z" fill="#2E2D2D"/>
<path fill-rule="evenodd" clip-rule="evenodd" d="M309.225 197H224.355C221.762 197 219.64 194.878 219.64 192.285V34.8051C219.64 32.2118 221.762 30.0901 224.355 30.0901H309.225C311.818 30.0901 313.94 32.2118 313.94 34.8051V192.285C313.94 194.878 311.818 197 309.225 197Z" fill="#FFA943"/>
<path fill-rule="evenodd" clip-rule="evenodd" d="M298.993 173.661H245.219C241.494 173.661 238.5 170.643 238.5 166.942V47.7712C238.5 44.0464 241.518 41.0524 245.219 41.0524H298.993C302.718 41.0524 305.712 44.0699 305.712 47.7712V166.942C305.712 170.643 302.695 173.661 298.993 173.661Z" fill="white"/>
<path fill-rule="evenodd" clip-rule="evenodd" d="M273.627 191.814C269.855 191.814 266.79 188.749 266.79 184.977C266.79 181.205 269.855 178.14 273.627 178.14C277.399 178.14 280.463 181.205 280.463 184.977C280.463 188.749 277.399 191.814 273.627 191.814ZM273.627 179.555C270.633 179.555 268.204 181.983 268.204 184.977C268.204 187.971 270.633 190.399 273.627 190.399C276.621 190.399 279.049 187.971 279.049 184.977C279.049 181.983 276.621 179.555 273.627 179.555Z" fill="#2E2D2D"/>
<path fill-rule="evenodd" clip-rule="evenodd" d="M260.189 37.8698C261.1 37.8698 261.839 37.131 261.839 36.2196C261.839 35.3082 261.1 34.5693 260.189 34.5693C259.278 34.5693 258.539 35.3082 258.539 36.2196C258.539 37.131 259.278 37.8698 260.189 37.8698Z" fill="#2E2D2D"/>
<path fill-rule="evenodd" clip-rule="evenodd" d="M283.292 37.634H266.083C265.305 37.634 264.668 36.9975 264.668 36.2195C264.668 35.4416 265.305 34.8051 266.083 34.8051H283.292C284.07 34.8051 284.707 35.4416 284.707 36.2195C284.707 36.9975 284.07 37.634 283.292 37.634Z" fill="#2E2D2D"/>
<path fill-rule="evenodd" clip-rule="evenodd" d="M233.903 30.7738C234.294 30.7738 234.61 31.0904 234.61 31.481C234.61 31.8716 234.294 32.1883 233.903 32.1883C230.624 32.1883 227.946 34.8143 227.892 38.0544L227.892 38.1527V190.328C227.892 193.622 230.575 196.293 233.903 196.293C234.294 196.293 234.61 196.609 234.61 197C234.61 197.391 234.294 197.707 233.903 197.707C229.837 197.707 226.544 194.47 226.478 190.45L226.477 190.328V38.1527C226.477 34.0841 229.812 30.7738 233.903 30.7738Z" fill="#2E2D2D"/>
<path fill-rule="evenodd" clip-rule="evenodd" d="M222.941 130.26C222.186 130.26 221.597 129.647 221.597 128.916V107.392C221.597 106.638 222.21 106.048 222.941 106.048C223.695 106.048 224.285 106.661 224.285 107.392V128.916C224.285 129.647 223.695 130.26 222.941 130.26Z" fill="#2E2D2D"/>
<path fill-rule="evenodd" clip-rule="evenodd" d="M291.709 86.9998C290.648 86.3397 289.28 86.6698 288.62 87.707L283.104 96.5712C279.827 93.9308 275.654 92.3513 271.128 92.3513C260.59 92.3513 252.032 100.933 252.032 111.447C252.032 121.961 260.613 130.543 271.128 130.543C281.642 130.543 290.223 121.961 290.223 111.447C290.223 107.109 288.762 103.101 286.31 99.8717L292.416 90.0645C293.076 89.0508 292.77 87.6599 291.709 86.9998ZM288.833 111.47C288.833 121.23 280.888 129.152 271.151 129.152C261.415 129.152 253.47 121.207 253.47 111.47C253.47 101.734 261.415 93.7893 271.151 93.7893C275.395 93.7893 279.308 95.2981 282.373 97.8206L272.377 113.875L266.602 106.166C265.847 105.176 264.456 104.987 263.466 105.718C262.476 106.473 262.287 107.863 263.018 108.854L270.774 119.156C271.199 119.722 271.859 120.052 272.566 120.052C272.59 120.052 272.637 120.052 272.66 120.052C273.391 120.028 274.075 119.627 274.452 118.991L285.532 101.168C287.607 104.092 288.833 107.628 288.833 111.47Z" fill="#6E43D4"/>
<path fill-rule="evenodd" clip-rule="evenodd" d="M168.648 107.18H126.307V34.8051C126.307 32.2118 129.962 30.0901 132.555 30.0901H114.709C112.115 30.0901 109.994 32.2118 109.994 34.8051V192.285C109.994 194.878 112.115 197 114.709 197H131.022C128.429 197 126.307 194.878 126.307 192.285V131.462H168.648C173.881 131.462 178.101 127.218 178.101 122.008V116.633C178.101 111.4 173.881 107.18 168.648 107.18Z" fill="#FFA943"/>
<path fill-rule="evenodd" clip-rule="evenodd" d="M166.785 124.861C163.674 124.861 161.127 122.315 161.127 119.203C161.127 116.091 163.674 113.545 166.785 113.545C169.897 113.545 172.443 116.091 172.443 119.203C172.443 122.315 169.921 124.861 166.785 124.861ZM166.785 114.96C164.451 114.96 162.542 116.869 162.542 119.203C162.542 121.537 164.451 123.446 166.785 123.446C169.119 123.446 171.029 121.537 171.029 119.203C171.029 116.869 169.143 114.96 166.785 114.96Z" fill="#6E43D4"/>
<path fill-rule="evenodd" clip-rule="evenodd" d="M132.508 29.9015V31.316C129.151 31.316 126.71 33.5776 126.662 36.7594L126.661 36.8561V107.086H125.247V36.8561C125.247 32.8623 128.293 29.96 132.383 29.9024L132.508 29.9015Z" fill="#2E2D2D"/>
<path fill-rule="evenodd" clip-rule="evenodd" d="M126.661 131.438V190.328C126.661 193.589 129.292 196.239 132.573 196.292L132.673 196.293V197.707C128.606 197.707 125.313 194.47 125.248 190.45L125.247 190.328V131.438H126.661Z" fill="#2E2D2D"/>
<path fill-rule="evenodd" clip-rule="evenodd" d="M379.006 196.293C379.397 196.293 379.713 196.609 379.713 197C379.713 197.377 379.419 197.685 379.048 197.706L379.006 197.707H40.7072C40.3166 197.707 39.9999 197.391 39.9999 197C39.9999 196.623 40.2944 196.315 40.6656 196.294L40.7072 196.293H379.006Z" fill="#2E2D2D"/>
</svg>
