<svg width="420" height="210" viewBox="0 0 420 210" fill="none" xmlns="http://www.w3.org/2000/svg">
<rect x="273.486" y="116.187" width="116.162" height="82.0143" fill="white" stroke="#1F1F23" stroke-width="1.38795"/>
<path fill-rule="evenodd" clip-rule="evenodd" d="M273.325 134.61C264.656 138.042 273.584 143.74 273.584 143.74C273.584 143.74 275.816 137.265 287.267 134.61C285.779 134.61 273.325 134.61 273.325 134.61Z" fill="#6E43D4"/>
<path fill-rule="evenodd" clip-rule="evenodd" d="M287.264 133.639H273.322C273.2 133.639 273.079 133.662 272.965 133.707C270.397 134.724 268.959 136.065 268.633 137.719C268.288 139.471 269.209 141.171 270.881 142.803C271.356 143.267 271.861 143.692 272.367 144.072L272.514 144.181C272.75 144.354 272.938 144.482 273.059 144.56C273.572 144.887 274.25 144.666 274.478 144.112L274.513 144.019C274.536 143.962 274.579 143.864 274.645 143.729C274.796 143.42 274.999 143.071 275.261 142.69C276.023 141.578 277.098 140.457 278.54 139.402C280.805 137.747 283.754 136.421 287.483 135.557C288.608 135.296 288.419 133.639 287.264 133.639ZM281.287 135.581L281.227 135.609C279.798 136.264 278.525 137.01 277.397 137.834C275.774 139.02 274.547 140.301 273.662 141.59L273.559 141.742C273.459 141.893 273.366 142.041 273.28 142.185L273.224 142.279L273.154 142.223C272.84 141.97 272.53 141.698 272.237 141.413C270.991 140.196 270.356 139.023 270.539 138.095L270.552 138.036C270.748 137.198 271.627 136.371 273.424 135.618L273.512 135.581H281.287Z" fill="white"/>
<path fill-rule="evenodd" clip-rule="evenodd" d="M390.005 154.588C398.674 158.02 389.746 163.718 389.746 163.718C389.746 163.718 387.514 157.243 376.063 154.588C377.583 154.62 390.005 154.588 390.005 154.588Z" fill="white"/>
<path fill-rule="evenodd" clip-rule="evenodd" d="M390.002 153.616L383.408 153.629L376.982 153.625C376.553 153.623 376.25 153.62 376.083 153.617C374.917 153.592 374.707 155.27 375.844 155.534C379.573 156.399 382.522 157.724 384.787 159.38C386.229 160.434 387.304 161.555 388.066 162.667C388.328 163.048 388.531 163.398 388.682 163.706L388.733 163.813C388.779 163.91 388.808 163.98 388.823 164.018L388.829 164.035C389.033 164.629 389.739 164.875 390.268 164.537L390.395 164.454C390.539 164.357 390.732 164.221 390.961 164.049C391.466 163.669 391.972 163.244 392.447 162.781C394.118 161.149 395.039 159.449 394.694 157.697C394.369 156.043 392.93 154.701 390.362 153.684C390.247 153.639 390.125 153.616 390.002 153.616ZM389.818 155.559L389.905 155.595C391.744 156.366 392.622 157.214 392.79 158.072C392.973 159.001 392.338 160.173 391.092 161.39L390.914 161.56C390.675 161.784 390.427 161.998 390.175 162.201L390.105 162.256L390.05 162.163C389.935 161.971 389.807 161.772 389.667 161.568C388.783 160.278 387.555 158.998 385.932 157.811L385.762 157.688C384.749 156.964 383.621 156.303 382.372 155.712L382.073 155.573L389.818 155.559Z" fill="#1F1F23"/>
<path fill-rule="evenodd" clip-rule="evenodd" d="M303.989 172.428C303.989 172.428 283.869 176.216 284.354 188.099C284.354 188.099 268.212 182.174 273.647 172.428H303.989Z" fill="#6E43D4"/>
<path fill-rule="evenodd" clip-rule="evenodd" d="M303.989 171.456H273.646C273.295 171.456 272.97 171.647 272.799 171.954C271.195 174.831 271.183 177.639 272.534 180.25C273.604 182.318 275.468 184.165 277.896 185.812C279.235 186.721 280.664 187.512 282.093 188.184C282.53 188.391 282.941 188.573 283.317 188.73L283.476 188.796C283.731 188.901 283.916 188.973 284.019 189.011C284.669 189.249 285.351 188.751 285.323 188.059C285.128 183.289 288.581 179.493 294.588 176.596C296.682 175.586 298.934 174.765 301.186 174.12C301.888 173.919 302.544 173.749 303.141 173.607L303.582 173.506C303.652 173.49 303.719 173.476 303.783 173.462L304.168 173.382C305.327 173.164 305.168 171.456 303.989 171.456ZM297.155 173.399L296.94 173.479C295.853 173.891 294.783 174.346 293.746 174.846L293.548 174.942C287.693 177.81 283.959 181.605 283.438 186.471L283.419 186.656L283.265 186.587C283.152 186.535 283.037 186.482 282.919 186.426C281.576 185.794 280.234 185.05 278.986 184.204L278.84 184.104C274.279 180.964 272.357 177.454 274.176 173.525L274.235 173.399H297.155Z" fill="white"/>
<path fill-rule="evenodd" clip-rule="evenodd" d="M339.638 115.41V198.687H337.697V115.41H339.638Z" fill="#1F1F23"/>
<path fill-rule="evenodd" clip-rule="evenodd" d="M375.608 124.281C376.144 124.281 376.578 124.716 376.578 125.253C376.578 125.77 376.174 126.193 375.665 126.222L375.608 126.224H323.042C322.506 126.224 322.072 125.789 322.072 125.253C322.072 124.735 322.476 124.313 322.985 124.283L323.042 124.281H375.608Z" fill="#1F1F23"/>
<path fill-rule="evenodd" clip-rule="evenodd" d="M388.612 153.746C389.148 153.746 389.582 154.181 389.582 154.717C389.582 155.234 389.178 155.657 388.669 155.687L388.612 155.688H354.84C354.304 155.688 353.87 155.254 353.87 154.717C353.87 154.2 354.274 153.777 354.783 153.747L354.84 153.746H388.612Z" fill="#1F1F23"/>
<path fill-rule="evenodd" clip-rule="evenodd" d="M383.631 181.234C384.167 181.234 384.601 181.669 384.601 182.206C384.601 182.723 384.197 183.146 383.688 183.175L383.631 183.177H317.77C317.234 183.177 316.8 182.742 316.8 182.206C316.8 181.688 317.204 181.266 317.713 181.236L317.77 181.234H383.631Z" fill="#1F1F23"/>
<path fill-rule="evenodd" clip-rule="evenodd" d="M326.991 146.396C327.527 146.396 327.961 146.83 327.961 147.367C327.961 147.884 327.557 148.307 327.048 148.337L326.991 148.338H292.96C292.425 148.338 291.99 147.903 291.99 147.367C291.99 146.85 292.394 146.427 292.903 146.397L292.96 146.396H326.991Z" fill="#1F1F23"/>
<path fill-rule="evenodd" clip-rule="evenodd" d="M294.252 133.509C294.788 133.509 295.223 133.944 295.223 134.481C295.223 134.998 294.819 135.421 294.309 135.45L294.252 135.452H273.614C273.078 135.452 272.644 135.017 272.644 134.481C272.644 133.963 273.048 133.541 273.557 133.511L273.614 133.509H294.252Z" fill="#1F1F23"/>
<path fill-rule="evenodd" clip-rule="evenodd" d="M313.855 171.392C314.391 171.392 314.825 171.827 314.825 172.363C314.825 172.881 314.421 173.304 313.912 173.333L313.855 173.335H273.484C272.948 173.335 272.514 172.9 272.514 172.363C272.514 171.846 272.918 171.423 273.427 171.394L273.484 171.392H313.855Z" fill="#1F1F23"/>
<path fill-rule="evenodd" clip-rule="evenodd" d="M124.659 149.931L111.16 199.427H192.281L179.121 149.507L124.659 149.931Z" fill="#6E43D4"/>
<path fill-rule="evenodd" clip-rule="evenodd" d="M257.737 151.757H52.8776C50.6278 151.757 48.8025 149.931 48.8025 147.681L49.9486 15.5372C49.9486 13.2874 50.6278 9.12735 52.8352 9.12735H257.737C259.987 9.12735 261.812 10.9527 261.812 13.2025V147.681C261.77 149.931 259.945 151.757 257.737 151.757Z" fill="#6E43D4"/>
<path fill-rule="evenodd" clip-rule="evenodd" d="M236.569 139.93H65.7586C62.7696 139.93 60.3687 137.608 60.3687 134.718V23.465C60.3687 20.5747 62.7696 18.253 65.7586 18.253H236.569C239.558 18.253 241.959 20.5747 241.959 23.465V134.765C241.959 137.608 239.509 139.93 236.569 139.93Z" fill="white"/>
<rect x="66.3832" y="23.8048" width="168.801" height="108.685" fill="white"/>
<path fill-rule="evenodd" clip-rule="evenodd" d="M234.592 23.805H67.0426C66.6789 23.805 66.3841 24.0342 66.3841 24.3169V132.046C66.3841 132.329 66.6789 132.558 67.0426 132.558H234.592C234.956 132.558 235.251 132.329 235.251 132.046V24.3169C235.251 24.0342 234.956 23.805 234.592 23.805ZM233.934 24.8283V131.534H67.7018V24.8283H233.934Z" fill="#2E2D2D"/>
<path fill-rule="evenodd" clip-rule="evenodd" d="M150.595 162.496C144.477 162.496 139.516 167.456 139.516 173.575C139.516 179.694 144.477 184.655 150.595 184.655C156.714 184.655 161.675 179.694 161.675 173.575C161.675 167.456 156.714 162.496 150.595 162.496ZM150.596 165.043C155.308 165.043 159.128 168.863 159.128 173.575C159.128 178.288 155.308 182.108 150.596 182.108C145.883 182.108 142.063 178.288 142.063 173.575C142.063 168.863 145.883 165.043 150.596 165.043Z" fill="white"/>
<path fill-rule="evenodd" clip-rule="evenodd" d="M171.996 150.687C172.656 150.532 173.317 150.921 173.508 151.563L173.527 151.636L184.351 197.778C184.512 198.463 184.087 199.148 183.402 199.308C182.742 199.463 182.081 199.074 181.891 198.432L181.872 198.36L171.047 152.217C170.887 151.533 171.311 150.847 171.996 150.687Z" fill="white"/>
<path fill-rule="evenodd" clip-rule="evenodd" d="M237.107 16.8106H64.6785C61.3858 16.8106 58.7356 19.4608 58.7356 22.7535V134.989C58.7356 138.282 61.3858 140.932 64.6785 140.932H237.107C240.4 140.932 243.05 138.282 243.05 134.989V22.7535C243.05 19.4608 240.4 16.8106 237.107 16.8106ZM64.6785 19.3576H237.107C238.993 19.3576 240.503 20.8675 240.503 22.7535V134.989C240.503 136.875 238.993 138.385 237.107 138.385H64.6785C62.7924 138.385 61.2825 136.875 61.2825 134.989V22.7535C61.2825 20.8675 62.7924 19.3576 64.6785 19.3576Z" fill="white"/>
<path fill-rule="evenodd" clip-rule="evenodd" d="M252.007 9C252.685 9 253.239 9.53016 253.278 10.1986L253.28 10.2735V150.483C253.28 151.186 252.71 151.757 252.007 151.757C251.328 151.757 250.774 151.226 250.735 150.558L250.733 150.483V10.2735C250.733 9.57015 251.303 9 252.007 9Z" fill="white"/>
<path fill-rule="evenodd" clip-rule="evenodd" d="M73.351 30.9093C74.332 30.9093 75.1271 30.1141 75.1271 29.1332C75.1271 28.1522 74.332 27.3571 73.351 27.3571C72.3701 27.3571 71.5749 28.1522 71.5749 29.1332C71.5749 30.1141 72.3701 30.9093 73.351 30.9093Z" fill="#FF863D"/>
<path fill-rule="evenodd" clip-rule="evenodd" d="M80.284 30.9093C81.2649 30.9093 82.0601 30.1141 82.0601 29.1332C82.0601 28.1522 81.2649 27.3571 80.284 27.3571C79.3031 27.3571 78.5079 28.1522 78.5079 29.1332C78.5079 30.1141 79.3031 30.9093 80.284 30.9093Z" fill="#A0DE1C"/>
<path fill-rule="evenodd" clip-rule="evenodd" d="M87.2048 30.9093C88.1857 30.9093 88.9809 30.1141 88.9809 29.1332C88.9809 28.1522 88.1857 27.3571 87.2048 27.3571C86.2238 27.3571 85.4286 28.1522 85.4286 29.1332C85.4286 30.1141 86.2238 30.9093 87.2048 30.9093Z" fill="#EFC901"/>
<path fill-rule="evenodd" clip-rule="evenodd" d="M150.354 199.913H74.1325C73.4154 199.913 72.8371 199.334 72.8371 198.617V196.165C72.8371 195.448 73.4154 194.87 74.1325 194.87H150.354C151.071 194.87 151.65 195.448 151.65 196.165V198.617C151.673 199.334 151.071 199.913 150.354 199.913Z" fill="#1F1F23"/>
<path fill-rule="evenodd" clip-rule="evenodd" d="M229.953 199.913H206.636C205.919 199.913 205.34 199.334 205.34 198.617V196.165C205.34 195.448 205.919 194.87 206.636 194.87H229.953C230.67 194.87 231.249 195.448 231.249 196.165V198.617C231.249 199.334 230.67 199.913 229.953 199.913Z" fill="#FFA943"/>
<path fill-rule="evenodd" clip-rule="evenodd" d="M415.682 197.993C416.065 197.991 416.377 198.301 416.378 198.684C416.38 199.054 416.092 199.357 415.728 199.379L415.687 199.381L3.6967 201C3.31343 201.001 3.00151 200.692 3.00001 200.309C2.99855 199.939 3.28627 199.636 3.65048 199.613L3.69125 199.612L415.682 197.993Z" fill="#2E186A"/>
<path fill-rule="evenodd" clip-rule="evenodd" d="M180.669 33.3685L181.694 33.3692L181.626 132.558L180.601 132.557L180.669 33.3685Z" fill="#1F1F23"/>
<path fill-rule="evenodd" clip-rule="evenodd" d="M233.696 33.0953C233.951 33.0953 234.158 33.34 234.158 33.6418C234.158 33.9328 233.965 34.1707 233.723 34.1873L233.696 34.1883H66.8452C66.59 34.1883 66.3831 33.9436 66.3831 33.6418C66.3831 33.3507 66.5755 33.1128 66.818 33.0962L66.8452 33.0953H233.696Z" fill="#1F1F23"/>
<path fill-rule="evenodd" clip-rule="evenodd" d="M201.317 64.1491H200.976C200.606 64.1491 200.324 63.8528 200.324 63.4973V62.5345C200.324 62.1642 200.621 61.8828 200.976 61.8828H201.317C201.687 61.8828 201.968 62.179 201.968 62.5345V63.4973C201.983 63.8528 201.687 64.1491 201.317 64.1491Z" fill="#FFA943"/>
<path fill-rule="evenodd" clip-rule="evenodd" d="M198.947 64.149H189.007C188.592 64.149 188.267 63.8232 188.267 63.4084V62.6085C188.267 62.1938 188.592 61.8679 189.007 61.8679H198.947C199.361 61.8679 199.687 62.1938 199.687 62.6085V63.4084C199.687 63.8083 199.346 64.149 198.947 64.149Z" fill="#6E43D4"/>
<path fill-rule="evenodd" clip-rule="evenodd" d="M199.969 74.7106H188.992C188.578 74.7106 188.252 74.3847 188.252 73.9699V73.17C188.252 72.7553 188.578 72.4294 188.992 72.4294H199.969C200.383 72.4294 200.709 72.7553 200.709 73.17V73.9699C200.709 74.3847 200.383 74.7106 199.969 74.7106Z" fill="#6E43D4"/>
<path fill-rule="evenodd" clip-rule="evenodd" d="M209.997 71.1999H192.148C191.733 71.1999 191.407 70.8741 191.407 70.4593V69.6594C191.407 69.2447 191.733 68.9188 192.148 68.9188H209.997C210.412 68.9188 210.738 69.2447 210.738 69.6594V70.4593C210.738 70.8593 210.397 71.1999 209.997 71.1999Z" fill="#FFA943"/>
<path fill-rule="evenodd" clip-rule="evenodd" d="M206.872 58.8758H189.023C188.608 58.8758 188.282 58.5499 188.282 58.1351V57.3352C188.282 56.9205 188.608 56.5946 189.023 56.5946H206.872C207.287 56.5946 207.613 56.9205 207.613 57.3352V58.1351C207.613 58.5351 207.287 58.8758 206.872 58.8758Z" fill="#FFD9C1"/>
<path fill-rule="evenodd" clip-rule="evenodd" d="M206.871 85.983H189.022C188.607 85.983 188.282 85.6571 188.282 85.2424V84.4425C188.282 84.0277 188.607 83.7018 189.022 83.7018H206.871C207.286 83.7018 207.612 84.0277 207.612 84.4425V85.2424C207.612 85.6571 207.286 85.983 206.871 85.983Z" fill="#FFD9C1"/>
<path fill-rule="evenodd" clip-rule="evenodd" d="M221.506 71.1999H212.545C212.13 71.1999 211.804 70.8741 211.804 70.4593V69.6594C211.804 69.2447 212.13 68.9188 212.545 68.9188H221.506C221.921 68.9188 222.247 69.2447 222.247 69.6594V70.4593C222.247 70.8593 221.921 71.1999 221.506 71.1999Z" fill="#FFD9C1"/>
<path fill-rule="evenodd" clip-rule="evenodd" d="M225.121 67.6745H224.78C224.41 67.6745 224.128 67.3782 224.128 67.0227V66.0599C224.128 65.6896 224.424 65.4081 224.78 65.4081H225.121C225.491 65.4081 225.772 65.7044 225.772 66.0599V67.0227C225.787 67.3782 225.491 67.6745 225.121 67.6745Z" fill="#6E43D4"/>
<path fill-rule="evenodd" clip-rule="evenodd" d="M207.493 67.6745H188.992C188.578 67.6745 188.252 67.3486 188.252 66.9338V66.1339C188.252 65.7192 188.578 65.3933 188.992 65.3933H207.493C207.908 65.3933 208.234 65.7192 208.234 66.1339V66.9338C208.234 67.3338 207.908 67.6745 207.493 67.6745Z" fill="#6E43D4"/>
<path fill-rule="evenodd" clip-rule="evenodd" d="M213.404 64.149H203.464C203.05 64.149 202.724 63.8232 202.724 63.4084V62.6085C202.724 62.1938 203.05 61.8679 203.464 61.8679H213.404C213.818 61.8679 214.144 62.1938 214.144 62.6085V63.4084C214.144 63.8083 213.804 64.149 213.404 64.149Z" fill="#6E43D4"/>
<path fill-rule="evenodd" clip-rule="evenodd" d="M222.484 67.6745H209.864C209.449 67.6745 209.123 67.3486 209.123 66.9339V66.1192C209.123 65.7044 209.449 65.3785 209.864 65.3785H222.484C222.899 65.3785 223.225 65.7044 223.225 66.1192V66.9339C223.225 67.3486 222.899 67.6745 222.484 67.6745Z" fill="#FFA943"/>
<path fill-rule="evenodd" clip-rule="evenodd" d="M198.947 94.9298H189.007C188.592 94.9298 188.267 94.6039 188.267 94.1892V93.3893C188.267 92.9745 188.592 92.6487 189.007 92.6487H198.947C199.361 92.6487 199.687 92.9745 199.687 93.3893V94.1892C199.687 94.6039 199.346 94.9298 198.947 94.9298Z" fill="#6E43D4"/>
<path fill-rule="evenodd" clip-rule="evenodd" d="M199.969 105.506H188.992C188.578 105.506 188.252 105.18 188.252 104.765V103.966C188.252 103.551 188.578 103.225 188.992 103.225H199.969C200.383 103.225 200.709 103.551 200.709 103.966V104.765C200.709 105.165 200.383 105.506 199.969 105.506Z" fill="#6E43D4"/>
<path fill-rule="evenodd" clip-rule="evenodd" d="M209.997 101.981H192.148C191.733 101.981 191.407 101.655 191.407 101.24V100.44C191.407 100.025 191.733 99.6995 192.148 99.6995H209.997C210.412 99.6995 210.738 100.025 210.738 100.44V101.24C210.738 101.655 210.397 101.981 209.997 101.981Z" fill="#FFA943"/>
<path fill-rule="evenodd" clip-rule="evenodd" d="M221.506 101.981H212.545C212.13 101.981 211.804 101.655 211.804 101.24V100.44C211.804 100.025 212.13 99.6995 212.545 99.6995H221.506C221.921 99.6995 222.247 100.025 222.247 100.44V101.24C222.247 101.655 221.921 101.981 221.506 101.981Z" fill="#FFD9C1"/>
<path fill-rule="evenodd" clip-rule="evenodd" d="M225.121 98.47H224.78C224.41 98.47 224.128 98.1738 224.128 97.8183V96.8555C224.128 96.4851 224.424 96.2037 224.78 96.2037H225.121C225.491 96.2037 225.772 96.5 225.772 96.8555V97.8183C225.787 98.1738 225.491 98.47 225.121 98.47Z" fill="#6E43D4"/>
<path fill-rule="evenodd" clip-rule="evenodd" d="M228.024 94.9298H227.683C227.313 94.9298 227.031 94.6336 227.031 94.2781V93.3152C227.031 92.9449 227.328 92.6635 227.683 92.6635H228.024C228.394 92.6635 228.676 92.9597 228.676 93.3152V94.2781C228.69 94.6336 228.394 94.9298 228.024 94.9298Z" fill="#6E43D4"/>
<path fill-rule="evenodd" clip-rule="evenodd" d="M207.493 98.4552H188.992C188.578 98.4552 188.252 98.1293 188.252 97.7146V96.9147C188.252 96.5 188.578 96.1741 188.992 96.1741H207.493C207.908 96.1741 208.234 96.5 208.234 96.9147V97.7146C208.234 98.1293 207.908 98.4552 207.493 98.4552Z" fill="#6E43D4"/>
<path fill-rule="evenodd" clip-rule="evenodd" d="M213.404 94.9298H201.065C200.65 94.9298 200.324 94.6039 200.324 94.1892V93.3893C200.324 92.9745 200.65 92.6487 201.065 92.6487H213.404C213.819 92.6487 214.145 92.9745 214.145 93.3893V94.1892C214.145 94.6039 213.804 94.9298 213.404 94.9298Z" fill="#FFA943"/>
<path fill-rule="evenodd" clip-rule="evenodd" d="M225.698 94.9298H215.759C215.344 94.9298 215.018 94.6039 215.018 94.1892V93.3893C215.018 92.9745 215.344 92.6487 215.759 92.6487H225.698C226.113 92.6487 226.439 92.9745 226.439 93.3893V94.1892C226.439 94.6039 226.113 94.9298 225.698 94.9298Z" fill="#FFA943"/>
<path fill-rule="evenodd" clip-rule="evenodd" d="M201.317 91.5229H200.976C200.606 91.5229 200.324 91.2267 200.324 90.8712V89.9083C200.324 89.538 200.621 89.2566 200.976 89.2566H201.317C201.687 89.2566 201.968 89.5528 201.968 89.9083V90.8712C201.983 91.2267 201.687 91.5229 201.317 91.5229Z" fill="#FFA943"/>
<path fill-rule="evenodd" clip-rule="evenodd" d="M198.947 91.5229H189.007C188.592 91.5229 188.267 91.197 188.267 90.7823V89.9824C188.267 89.5676 188.592 89.2418 189.007 89.2418H198.947C199.361 89.2418 199.687 89.5676 199.687 89.9824V90.7823C199.687 91.1822 199.346 91.5229 198.947 91.5229Z" fill="#6E43D4"/>
<path fill-rule="evenodd" clip-rule="evenodd" d="M213.404 91.5229H203.464C203.05 91.5229 202.724 91.197 202.724 90.7823V89.9824C202.724 89.5676 203.05 89.2418 203.464 89.2418H213.404C213.818 89.2418 214.144 89.5676 214.144 89.9824V90.7823C214.144 91.1822 213.804 91.5229 213.404 91.5229Z" fill="#6E43D4"/>
<path fill-rule="evenodd" clip-rule="evenodd" d="M222.484 98.47H209.864C209.449 98.47 209.123 98.1442 209.123 97.7294V96.9147C209.123 96.5 209.449 96.1741 209.864 96.1741H222.484C222.899 96.1741 223.225 96.5 223.225 96.9147V97.7294C223.225 98.1293 222.899 98.47 222.484 98.47Z" fill="#FFA943"/>
<path fill-rule="evenodd" clip-rule="evenodd" d="M103.617 43.7519H77.2335C75.3195 43.7519 73.7608 45.302 73.7608 47.2246V74.2621C73.7608 76.1761 75.3109 77.7348 77.2335 77.7348H103.617C105.525 77.7348 107.079 76.2034 107.09 74.3221L107.09 47.2246C107.09 45.3107 105.54 43.7519 103.617 43.7519ZM77.2334 45.1049H103.617C104.791 45.1049 105.737 46.0563 105.737 47.2246V74.2621C105.754 75.4257 104.798 76.3818 103.617 76.3818H77.2334C76.0597 76.3818 75.1137 75.4305 75.1137 74.2621V47.2246C75.1137 46.0509 76.065 45.1049 77.2334 45.1049Z" fill="#FFA943"/>
<path fill-rule="evenodd" clip-rule="evenodd" d="M134.488 48.2168C134.862 48.2168 135.164 48.5197 135.164 48.8933C135.164 49.2536 134.883 49.5481 134.528 49.5687L134.488 49.5698H113.832C113.459 49.5698 113.156 49.2669 113.156 48.8933C113.156 48.5331 113.437 48.2386 113.792 48.218L113.832 48.2168H134.488Z" fill="#FFA943"/>
<path fill-rule="evenodd" clip-rule="evenodd" d="M174.018 57.3045C174.392 57.3045 174.695 57.6074 174.695 57.981C174.695 58.3413 174.413 58.6357 174.058 58.6563L174.018 58.6575H113.674C113.301 58.6575 112.998 58.3546 112.998 57.981C112.998 57.6207 113.279 57.3262 113.635 57.3056L113.674 57.3045H174.018Z" fill="#FFA943"/>
<path fill-rule="evenodd" clip-rule="evenodd" d="M174.018 62.7165C174.392 62.7165 174.695 63.0194 174.695 63.393C174.695 63.7533 174.413 64.0478 174.058 64.0684L174.018 64.0695H113.674C113.301 64.0695 112.998 63.7666 112.998 63.393C112.998 63.0327 113.279 62.7382 113.635 62.7177L113.674 62.7165H174.018Z" fill="#FFA943"/>
<path fill-rule="evenodd" clip-rule="evenodd" d="M174.018 68.1285C174.392 68.1285 174.695 68.4314 174.695 68.805C174.695 69.1653 174.413 69.4598 174.058 69.4803L174.018 69.4815H113.674C113.301 69.4815 112.998 69.1786 112.998 68.805C112.998 68.4447 113.279 68.1502 113.635 68.1296L113.674 68.1285H174.018Z" fill="#FFA943"/>
<path fill-rule="evenodd" clip-rule="evenodd" d="M174.018 73.5405C174.392 73.5405 174.695 73.8434 174.695 74.217C174.695 74.5773 174.413 74.8718 174.058 74.8923L174.018 74.8935H113.674C113.301 74.8935 112.998 74.5906 112.998 74.217C112.998 73.8567 113.279 73.5622 113.635 73.5416L113.674 73.5405H174.018Z" fill="#FFA943"/>
<path fill-rule="evenodd" clip-rule="evenodd" d="M105.143 44.6967C105.406 44.4311 105.834 44.4289 106.1 44.6917C106.355 44.9441 106.367 45.3489 106.135 45.6158L106.105 45.6485L75.5946 76.4743C75.3318 76.7399 74.9034 76.7421 74.6379 76.4792C74.383 76.2269 74.3707 75.8221 74.6027 75.5552L74.633 75.5225L105.143 44.6967Z" fill="#FFA943"/>
<path fill-rule="evenodd" clip-rule="evenodd" d="M171.199 86.5518H144.816C142.893 86.5518 141.343 88.1106 141.343 90.0246V117.062C141.343 118.969 142.909 120.535 144.816 120.535H171.199C173.122 120.535 174.672 118.976 174.672 117.062V90.0246C174.672 88.1019 173.113 86.5518 171.199 86.5518ZM144.816 87.9048H171.199C172.368 87.9048 173.319 88.8508 173.319 90.0245V117.062C173.319 118.23 172.373 119.182 171.199 119.182H144.816C143.656 119.182 142.696 118.222 142.696 117.062V90.0245C142.696 88.8561 143.642 87.9048 144.816 87.9048Z" fill="#FFA943"/>
<path fill-rule="evenodd" clip-rule="evenodd" d="M134.623 91.0168C134.997 91.0168 135.3 91.3196 135.3 91.6933C135.3 92.0535 135.018 92.348 134.663 92.3686L134.623 92.3698H113.967C113.594 92.3698 113.291 92.0669 113.291 91.6933C113.291 91.333 113.572 91.0385 113.928 91.0179L113.967 91.0168H134.623Z" fill="#FFA943"/>
<path fill-rule="evenodd" clip-rule="evenodd" d="M134.758 100.104C135.132 100.104 135.435 100.407 135.435 100.781C135.435 101.141 135.153 101.436 134.798 101.456L134.758 101.457H74.4372C74.0636 101.457 73.7607 101.155 73.7607 100.781C73.7607 100.421 74.0423 100.126 74.3975 100.106L74.4372 100.104H134.758Z" fill="#FFA943"/>
<path fill-rule="evenodd" clip-rule="evenodd" d="M134.758 105.516C135.132 105.516 135.435 105.819 135.435 106.193C135.435 106.553 135.153 106.848 134.798 106.868L134.758 106.869H74.4372C74.0636 106.869 73.7607 106.567 73.7607 106.193C73.7607 105.833 74.0423 105.538 74.3975 105.518L74.4372 105.516H134.758Z" fill="#FFA943"/>
<path fill-rule="evenodd" clip-rule="evenodd" d="M134.758 110.928C135.132 110.928 135.435 111.231 135.435 111.605C135.435 111.965 135.153 112.26 134.798 112.28L134.758 112.281H74.4372C74.0636 112.281 73.7607 111.979 73.7607 111.605C73.7607 111.245 74.0423 110.95 74.3975 110.93L74.4372 110.928H134.758Z" fill="#FFA943"/>
<path fill-rule="evenodd" clip-rule="evenodd" d="M134.758 116.476C135.132 116.476 135.435 116.779 135.435 117.152C135.435 117.512 135.153 117.807 134.798 117.828L134.758 117.829H74.4372C74.0636 117.829 73.7607 117.526 73.7607 117.152C73.7607 116.792 74.0423 116.497 74.3975 116.477L74.4372 116.476H134.758Z" fill="#FFA943"/>
<path fill-rule="evenodd" clip-rule="evenodd" d="M172.816 87.4514C173.079 87.1859 173.507 87.1839 173.773 87.4468C174.027 87.6992 174.04 88.104 173.807 88.3709L173.777 88.4035L143.267 119.207C143.004 119.472 142.576 119.474 142.31 119.211C142.055 118.959 142.043 118.554 142.275 118.287L142.306 118.255L172.816 87.4514Z" fill="#FFA943"/>
<path fill-rule="evenodd" clip-rule="evenodd" d="M159.695 114.022L267.249 114.834C268.972 114.834 270.517 115.849 271.23 117.406L305.933 189.314L394.115 189.382C394.115 189.382 395.63 199.466 382.943 200.075L192.793 199.804L155.655 120.451C154.229 117.44 156.427 113.988 159.695 114.022Z" fill="#FFA943"/>
<path fill-rule="evenodd" clip-rule="evenodd" d="M290.526 180.455C292.542 184.457 289.619 189.177 285.138 189.155L211.782 188.799C207.08 188.776 202.825 186.01 200.896 181.722L175.943 126.253C174.843 123.845 176.3 120.928 178.559 120.962L253.86 122.013C258.331 122.076 262.397 124.619 264.409 128.613L290.526 180.455Z" fill="white"/>
<path fill-rule="evenodd" clip-rule="evenodd" d="M169.234 114.022C165.632 113.982 163.177 118.132 164.686 121.856L164.733 121.968L198.768 200.462C198.983 200.958 199.483 201.145 199.885 200.879C200.271 200.624 200.426 200.042 200.245 199.557L200.223 199.501L166.19 121.013C165.204 118.709 166.764 116.031 169.219 116.058C169.675 116.063 170.047 115.611 170.051 115.049C170.055 114.487 169.69 114.027 169.234 114.022Z" fill="white"/>
<path fill-rule="evenodd" clip-rule="evenodd" d="M254.493 172.845L249.118 172.775C248.91 172.772 248.816 172.921 248.907 173.108L252.591 180.645C252.683 180.832 252.925 180.986 253.133 180.989L258.508 181.059C258.716 181.062 258.811 180.913 258.719 180.726L255.035 173.189C254.944 173.002 254.701 172.848 254.493 172.845ZM254.447 173.517L257.8 180.377L253.179 180.317L249.826 173.457L254.447 173.517Z" fill="#6E43D4"/>
<path fill-rule="evenodd" clip-rule="evenodd" d="M261.382 169.785L256.007 169.715C255.799 169.712 255.705 169.861 255.796 170.048L261.03 180.756C261.121 180.943 261.364 181.097 261.572 181.099L266.947 181.17C267.155 181.172 267.249 181.023 267.158 180.836L261.924 170.129C261.833 169.942 261.59 169.788 261.382 169.785ZM261.336 170.457L266.239 180.488L261.618 180.427L256.715 170.397L261.336 170.457Z" fill="#6E43D4"/>
<path fill-rule="evenodd" clip-rule="evenodd" d="M267.359 164.886L261.985 164.815C261.777 164.813 261.682 164.962 261.773 165.149L269.456 180.866C269.547 181.053 269.79 181.207 269.998 181.21L275.373 181.28C275.581 181.283 275.676 181.133 275.584 180.946L267.901 165.229C267.81 165.042 267.567 164.889 267.359 164.886ZM267.314 165.558L274.665 180.598L270.044 180.538L262.692 165.497L267.314 165.558Z" fill="#6E43D4"/>
<rect width="5.37518" height="22.317" transform="matrix(0.999914 0.0130896 0.439155 0.898411 268.459 160.931)" fill="#FFA46D"/>
<path fill-rule="evenodd" clip-rule="evenodd" d="M270.624 150.736C270.503 150.667 270.379 150.643 270.284 150.653L267.016 151.114C266.832 151.146 266.764 151.313 266.89 151.494C267.016 151.675 267.265 151.802 267.455 151.782L269.593 151.484L266.233 158.548L262.252 156.097C262.144 156.028 262.027 155.993 261.932 156.003C261.831 156.002 261.753 156.046 261.723 156.112L257.219 165.583L253.68 163.754C253.479 163.65 253.284 163.659 253.201 163.77L248.425 170.77C248.335 170.892 248.44 171.107 248.644 171.244C248.753 171.313 248.87 171.348 248.97 171.349C249.058 171.35 249.142 171.318 249.19 171.262L253.833 164.451L257.421 166.303C257.634 166.406 257.842 166.398 257.914 166.264L262.397 156.828L266.378 159.279C266.486 159.347 266.603 159.383 266.698 159.373C266.799 159.374 266.877 159.33 266.907 159.263L270.494 151.72L271.751 154.394C271.845 154.586 272.08 154.735 272.293 154.737C272.494 154.74 272.598 154.596 272.505 154.404L270.896 150.986C270.845 150.907 270.745 150.804 270.624 150.736Z" fill="#FFA46D"/>
<path fill-rule="evenodd" clip-rule="evenodd" d="M227.266 172.231C227.474 172.234 227.717 172.387 227.809 172.574C227.897 172.754 227.812 172.9 227.619 172.907L227.597 172.908L204.491 172.605C204.283 172.603 204.04 172.449 203.949 172.262C203.861 172.082 203.946 171.936 204.138 171.929L204.16 171.928L227.266 172.231Z" fill="#6E43D4"/>
<path fill-rule="evenodd" clip-rule="evenodd" d="M222.72 175.31C222.928 175.313 223.171 175.467 223.262 175.654C223.35 175.834 223.266 175.979 223.073 175.987L223.051 175.987L206.035 175.765C205.827 175.762 205.585 175.608 205.493 175.421C205.405 175.241 205.49 175.096 205.683 175.088L205.704 175.088L222.72 175.31Z" fill="#6E43D4"/>
<path fill-rule="evenodd" clip-rule="evenodd" d="M218.989 178.782C219.197 178.784 219.44 178.938 219.531 179.125C219.62 179.305 219.535 179.451 219.342 179.458L219.32 179.459L207.265 179.301C207.057 179.298 206.814 179.144 206.723 178.957C206.634 178.777 206.719 178.632 206.912 178.624L206.934 178.624L218.989 178.782Z" fill="#6E43D4"/>
<path fill-rule="evenodd" clip-rule="evenodd" d="M239.899 172.396C240.108 172.399 240.35 172.553 240.442 172.74C240.53 172.92 240.445 173.065 240.252 173.073L240.23 173.073L230.26 172.943C230.051 172.94 229.809 172.786 229.717 172.599C229.629 172.419 229.714 172.274 229.907 172.266L229.929 172.266L239.899 172.396Z" fill="#6E43D4"/>
<path fill-rule="evenodd" clip-rule="evenodd" d="M211.913 165.505L215.678 167.797L213.456 163.25L211.913 165.505Z" fill="#FFA46D"/>
<path fill-rule="evenodd" clip-rule="evenodd" d="M209.241 167.824L210.826 165.502L206.958 163.153L209.241 167.824Z" fill="#FFA46D"/>
<path fill-rule="evenodd" clip-rule="evenodd" d="M220.147 162.541L213.994 162.461L218.38 165.13L220.147 162.541Z" fill="#FFA46D"/>
<path fill-rule="evenodd" clip-rule="evenodd" d="M211.592 165.972L209.796 168.628L216.1 168.71L211.592 165.972Z" fill="#FFA46D"/>
<path fill-rule="evenodd" clip-rule="evenodd" d="M216.487 167.919L218.072 165.597L214.204 163.248L216.487 167.919Z" fill="#FFA46D"/>
<path fill-rule="evenodd" clip-rule="evenodd" d="M199.168 162.737L201.766 168.052L203.568 165.407L199.168 162.737Z" fill="#FFA46D"/>
<path fill-rule="evenodd" clip-rule="evenodd" d="M204.347 165.877L202.55 168.533L208.854 168.615L204.347 165.877Z" fill="#FFA46D"/>
<path fill-rule="evenodd" clip-rule="evenodd" d="M205.643 162.351L199.489 162.271L203.889 164.94L205.643 162.351Z" fill="#FFA46D"/>
<path fill-rule="evenodd" clip-rule="evenodd" d="M222.924 167.891L220.702 163.344L219.159 165.6L222.924 167.891Z" fill="#FFA46D"/>
<path fill-rule="evenodd" clip-rule="evenodd" d="M204.667 165.41L208.433 167.702L206.21 163.155L204.667 165.41Z" fill="#FFA46D"/>
<path fill-rule="evenodd" clip-rule="evenodd" d="M218.851 166.067L217.054 168.723L223.358 168.805L218.851 166.067Z" fill="#FFA46D"/>
<path fill-rule="evenodd" clip-rule="evenodd" d="M212.888 162.446L206.735 162.366L211.134 165.035L212.888 162.446Z" fill="#FFA46D"/>
<path fill-rule="evenodd" clip-rule="evenodd" d="M227.556 162.638L221.063 162.553L224.124 168.815L230.617 168.9L227.556 162.638Z" fill="#FFA46D"/>
<path fill-rule="evenodd" clip-rule="evenodd" d="M235.178 162.738L228.309 162.648L231.37 168.91L238.239 169L235.178 162.738Z" fill="#FFA46D"/>
<path fill-rule="evenodd" clip-rule="evenodd" d="M223.347 168.806C223.365 168.817 223.365 168.817 223.378 168.817L223.372 168.806L223.347 168.806Z" fill="#FFA46D"/>
<path fill-rule="evenodd" clip-rule="evenodd" d="M260.074 139.925L256.181 139.874C255.973 139.871 255.879 140.02 255.97 140.207L257.68 143.705C257.771 143.892 258.014 144.046 258.222 144.049L262.115 144.1C262.323 144.102 262.418 143.953 262.326 143.766L260.616 140.268C260.525 140.081 260.282 139.928 260.074 139.925ZM260.028 140.597L261.407 143.417L258.268 143.376L256.889 140.556L260.028 140.597Z" fill="#6E43D4"/>
<path fill-rule="evenodd" clip-rule="evenodd" d="M257.741 133.594L242.86 133.399C242.652 133.396 242.557 133.546 242.649 133.733L244.618 137.761C244.709 137.948 244.952 138.101 245.16 138.104L260.041 138.299C260.249 138.302 260.343 138.152 260.252 137.965L258.283 133.937C258.192 133.75 257.949 133.597 257.741 133.594ZM257.695 134.266L259.333 137.617L245.206 137.432L243.568 134.081L257.695 134.266Z" fill="#6E43D4"/>
<path fill-rule="evenodd" clip-rule="evenodd" d="M255.242 143.337C255.45 143.34 255.692 143.493 255.784 143.68C255.872 143.861 255.787 144.006 255.594 144.014L255.573 144.014L248 143.915C247.792 143.912 247.549 143.758 247.458 143.571C247.37 143.391 247.455 143.246 247.647 143.238L247.669 143.238L255.242 143.337Z" fill="#6E43D4"/>
<path fill-rule="evenodd" clip-rule="evenodd" d="M254.431 141.678C254.639 141.681 254.881 141.835 254.973 142.022C255.061 142.202 254.976 142.347 254.783 142.355L254.762 142.355L247.189 142.256C246.981 142.253 246.738 142.1 246.647 141.913C246.559 141.732 246.644 141.587 246.837 141.579L246.858 141.579L254.431 141.678Z" fill="#6E43D4"/>
<path fill-rule="evenodd" clip-rule="evenodd" d="M253.626 140.031C253.834 140.034 254.076 140.187 254.168 140.374C254.256 140.555 254.171 140.7 253.978 140.708L253.956 140.708L246.384 140.609C246.176 140.606 245.933 140.452 245.842 140.265C245.754 140.085 245.839 139.94 246.031 139.932L246.053 139.932L253.626 140.031Z" fill="#6E43D4"/>
<path fill-rule="evenodd" clip-rule="evenodd" d="M260.767 152.804C260.975 152.807 261.218 152.96 261.309 153.147C261.398 153.328 261.313 153.473 261.12 153.481L261.098 153.481L240.416 153.21C240.208 153.207 239.965 153.054 239.873 152.867C239.785 152.686 239.87 152.541 240.063 152.533L240.085 152.533L260.767 152.804Z" fill="#6E43D4"/>
<path fill-rule="evenodd" clip-rule="evenodd" d="M253.068 154.284C253.276 154.287 253.519 154.44 253.611 154.627C253.699 154.807 253.614 154.953 253.421 154.96L253.399 154.961L241.193 154.801C240.985 154.798 240.742 154.645 240.651 154.458C240.563 154.277 240.648 154.132 240.84 154.124L240.862 154.124L253.068 154.284Z" fill="#6E43D4"/>
<path fill-rule="evenodd" clip-rule="evenodd" d="M214.318 142.958L225.348 136.679C227.459 138.702 229.131 140.921 230.228 143.166C234.061 151.008 230.033 157.368 221.305 157.254C216.458 157.19 210.904 155.144 206.224 151.697L214.318 142.958Z" fill="#FFA46D"/>
<path fill-rule="evenodd" clip-rule="evenodd" d="M234.16 132.041C234.368 132.043 234.611 132.197 234.703 132.384C234.791 132.564 234.706 132.71 234.513 132.717L234.491 132.718L221.343 132.546C221.135 132.543 220.893 132.389 220.801 132.202C220.713 132.022 220.798 131.877 220.991 131.869L221.012 131.869L234.16 132.041Z" fill="#6E43D4"/>
<path fill-rule="evenodd" clip-rule="evenodd" d="M234.938 133.632C235.146 133.634 235.389 133.788 235.48 133.975C235.568 134.155 235.483 134.301 235.291 134.308L235.269 134.309L228.262 134.217C228.054 134.214 227.811 134.06 227.719 133.873C227.631 133.693 227.716 133.548 227.909 133.54L227.931 133.54L234.938 133.632Z" fill="#6E43D4"/>
<path fill-rule="evenodd" clip-rule="evenodd" d="M235.721 135.234C235.929 135.237 236.172 135.39 236.263 135.577C236.352 135.757 236.267 135.903 236.074 135.91L236.052 135.911L231.393 135.85C231.185 135.847 230.942 135.693 230.851 135.506C230.763 135.326 230.848 135.181 231.04 135.173L231.062 135.173L235.721 135.234Z" fill="#6E43D4"/>
<path fill-rule="evenodd" clip-rule="evenodd" d="M240.743 144.717C240.951 144.719 241.194 144.873 241.285 145.06C241.374 145.24 241.289 145.386 241.096 145.393L241.074 145.394L224.109 145.171C223.901 145.169 223.658 145.015 223.566 144.828C223.478 144.648 223.563 144.502 223.756 144.495L223.778 144.494L240.743 144.717Z" fill="#6E43D4"/>
<path fill-rule="evenodd" clip-rule="evenodd" d="M241.355 145.969C241.563 145.972 241.806 146.125 241.898 146.312C241.986 146.493 241.901 146.638 241.708 146.646L241.686 146.646L238.509 146.604C238.301 146.602 238.058 146.448 237.967 146.261C237.879 146.081 237.964 145.935 238.156 145.928L238.178 145.927L241.355 145.969Z" fill="#6E43D4"/>
<path fill-rule="evenodd" clip-rule="evenodd" d="M198.529 130.263C198.737 130.265 198.98 130.419 199.072 130.606C199.16 130.786 199.075 130.932 198.882 130.939L198.86 130.94L188.751 130.807C188.543 130.805 188.3 130.651 188.209 130.464C188.121 130.284 188.206 130.138 188.399 130.131L188.42 130.13L198.529 130.263Z" fill="#6E43D4"/>
<path fill-rule="evenodd" clip-rule="evenodd" d="M191.071 131.443C191.279 131.446 191.522 131.599 191.613 131.786C191.701 131.967 191.616 132.112 191.423 132.12L191.402 132.12L189.38 132.093C189.172 132.091 188.929 131.937 188.838 131.75C188.75 131.57 188.834 131.424 189.027 131.417L189.049 131.416L191.071 131.443Z" fill="#6E43D4"/>
<path fill-rule="evenodd" clip-rule="evenodd" d="M211.493 143.213L196.257 143.159C196.05 143.158 195.958 143.309 196.052 143.496C197.638 146.666 200.31 149.68 203.653 152.142C203.854 152.29 204.103 152.318 204.209 152.204L212.026 143.819C212.21 143.623 211.851 143.214 211.493 143.213ZM210.737 143.886L203.676 151.458L203.63 151.423C200.772 149.241 198.463 146.633 197.002 143.887L196.976 143.837L210.737 143.886Z" fill="#FFA46D"/>
<path fill-rule="evenodd" clip-rule="evenodd" d="M194.599 137.052C194.693 138.659 195.171 140.367 196.036 142.136L196.124 142.316C196.216 142.505 196.462 142.66 196.671 142.66L211.878 142.679C212.29 142.68 212.142 142.167 211.69 142.027L194.992 136.865C194.765 136.794 194.589 136.878 194.599 137.052ZM195.444 137.621L209.608 142L196.711 141.983L196.679 141.916C195.997 140.466 195.589 139.061 195.454 137.725L195.444 137.621Z" fill="#FFA46D"/>
<path fill-rule="evenodd" clip-rule="evenodd" d="M215.277 129.071L213.559 140.899C213.518 141.187 214.024 141.52 214.284 141.375L224.976 135.45C225.121 135.37 225.099 135.168 224.925 135C222.329 132.479 219.113 130.366 215.728 128.951C215.502 128.856 215.3 128.91 215.277 129.071ZM216.053 129.71L216.109 129.734C219.005 131.009 221.752 132.814 224.034 134.946L224.078 134.987L214.517 140.286L216.053 129.71Z" fill="#FFA46D"/>
<path fill-rule="evenodd" clip-rule="evenodd" d="M214.082 129.536C211.315 128.367 208.434 127.679 205.698 127.621L205.446 127.618C199.057 127.59 195.354 131.118 195.62 136.155L212.315 141.362L214.082 129.536Z" fill="#6E43D4"/>
<path fill-rule="evenodd" clip-rule="evenodd" d="M200.226 145.475C200.434 145.478 200.677 145.632 200.768 145.819C200.856 145.999 200.771 146.144 200.579 146.152L200.557 146.152L190.448 146.02C190.24 146.017 189.997 145.864 189.906 145.677C189.817 145.496 189.902 145.351 190.095 145.343L190.117 145.343L200.226 145.475Z" fill="#6E43D4"/>
<path fill-rule="evenodd" clip-rule="evenodd" d="M194.4 146.677C194.608 146.68 194.851 146.834 194.942 147.021C195.03 147.201 194.945 147.346 194.753 147.354L194.731 147.354L191.077 147.306C190.868 147.304 190.626 147.15 190.534 146.963C190.446 146.783 190.531 146.637 190.724 146.63L190.746 146.629L194.4 146.677Z" fill="#6E43D4"/>
<path fill-rule="evenodd" clip-rule="evenodd" d="M58.8596 125.284C59.0967 125.095 59.4426 125.133 59.6324 125.37C59.8221 125.607 59.7837 125.953 59.5466 126.143L59.4818 126.197L59.4394 126.233C59.3586 126.302 59.266 126.385 59.1626 126.48L59.1099 126.528C58.7496 126.862 58.3465 127.267 57.9113 127.745C56.6624 129.114 55.4114 130.782 54.2427 132.755C51.9603 136.609 50.2782 141.14 49.4493 146.371C48.424 152.842 48.762 160.063 50.7208 168.062C50.793 168.357 50.6124 168.655 50.3175 168.727C50.0226 168.799 49.725 168.619 49.6528 168.324C47.6597 160.185 47.3148 152.816 48.3633 146.199C49.2145 140.827 50.9452 136.166 53.2965 132.195C54.5049 130.155 55.8009 128.427 57.0989 127.004C57.5226 126.539 57.919 126.138 58.2798 125.799L58.3624 125.722C58.5952 125.506 58.7645 125.361 58.8596 125.284Z" fill="#1F1F23"/>
<path fill-rule="evenodd" clip-rule="evenodd" d="M53.2105 160.844C52.789 160.478 52.5874 159.946 52.6424 159.397C53.7969 148.768 58.5983 137.827 66.0753 133.814C73.7538 129.69 78.9951 141.144 68.3477 151.773C60.3393 159.782 56.051 161.083 54.42 161.248C53.9802 161.284 53.5404 161.138 53.2105 160.844Z" fill="#FFD9C1"/>
<path fill-rule="evenodd" clip-rule="evenodd" d="M36.3612 158.391C39.5138 158.662 42.0028 160.39 43.8918 163.077C44.6069 164.093 45.1857 165.18 45.6409 166.266C45.7827 166.605 45.9034 166.922 46.0041 167.212L46.041 167.32C46.1065 167.514 46.1497 167.655 46.1717 167.735C46.2528 168.027 46.0812 168.33 45.7886 168.411C45.5064 168.49 45.2147 168.333 45.1216 168.059L45.0863 167.941L45.0554 167.843C45.0387 167.79 45.02 167.733 44.9993 167.672C44.8996 167.377 44.7759 167.047 44.6268 166.691C44.2003 165.674 43.6582 164.656 42.9923 163.709C41.2749 161.267 39.0564 159.727 36.2668 159.486C35.9643 159.46 35.7402 159.194 35.7663 158.891C35.7914 158.6 36.04 158.381 36.3289 158.389L36.3612 158.391Z" fill="#1F1F23"/>
<path fill-rule="evenodd" clip-rule="evenodd" d="M72.6946 134.359C72.9009 134.565 72.9093 134.894 72.7198 135.11L72.6789 135.153L72.4634 135.372L72.2625 135.578C72.1687 135.675 72.0691 135.778 71.9637 135.888L71.8015 136.058C71.0873 136.805 70.2912 137.661 69.4335 138.611C66.983 141.325 64.5324 144.248 62.2463 147.266C59.5247 150.859 57.2222 154.346 55.4731 157.633C54.9181 158.676 54.4223 159.692 53.9889 160.68C53.8669 160.958 53.5426 161.085 53.2646 160.963C52.9865 160.841 52.86 160.517 52.9819 160.239C53.4269 159.224 53.9348 158.183 54.5025 157.116C56.2819 153.772 58.6155 150.238 61.3698 146.602C63.6766 143.557 66.147 140.61 68.6174 137.874L68.92 137.54C69.62 136.77 70.2766 136.065 70.8783 135.432L71.2496 135.044C71.3793 134.91 71.5001 134.785 71.6115 134.671L71.9171 134.36C72.1317 134.145 72.4798 134.145 72.6946 134.359Z" fill="#1F1F23"/>
<path fill-rule="evenodd" clip-rule="evenodd" d="M68.5701 148.852L68.7582 148.843C69.1255 148.826 69.4388 148.819 69.6923 148.82L69.942 148.823C70.2454 148.833 70.4833 149.087 70.4732 149.391C70.4635 149.683 70.2269 149.915 69.9379 149.922L69.8523 149.921C69.5614 149.916 69.1481 149.922 68.6291 149.95C67.8502 149.992 66.9986 150.074 66.0912 150.206C63.5999 150.567 61.0827 151.239 58.6724 152.295C58.3943 152.417 58.0701 152.29 57.9482 152.012C57.8263 151.734 57.953 151.41 58.2311 151.288C60.7385 150.189 63.3499 149.492 65.9335 149.118C66.8747 148.981 67.7591 148.896 68.5701 148.852Z" fill="#1F1F23"/>
<path fill-rule="evenodd" clip-rule="evenodd" d="M63.7409 135.606C64.0061 135.754 64.1012 136.089 63.9533 136.354L63.8252 136.587C63.7834 136.664 63.7377 136.748 63.6882 136.84L63.5092 137.174C63.3454 137.481 63.1696 137.817 62.9841 138.176C62.2552 139.589 61.5262 141.086 60.8463 142.601C60.3085 143.8 59.8237 144.961 59.405 146.066L59.2995 146.347C58.1912 149.328 57.6412 151.723 57.7896 153.279C57.8184 153.581 57.5968 153.849 57.2945 153.878C56.9923 153.907 56.7239 153.685 56.695 153.383C56.5214 151.563 57.1419 148.936 58.3767 145.677C58.8037 144.549 59.2968 143.369 59.8431 142.151C60.5319 140.616 61.2694 139.101 62.0069 137.672L62.214 137.273C62.3716 136.971 62.5211 136.689 62.661 136.428L62.8599 136.06L62.993 135.818C63.1409 135.553 63.4758 135.458 63.7409 135.606Z" fill="#1F1F23"/>
<path fill-rule="evenodd" clip-rule="evenodd" d="M61.0717 155.476C61.8418 155.411 62.5106 155.391 63.0253 155.398L63.1999 155.402C63.5033 155.413 63.7403 155.668 63.7293 155.971C63.7186 156.264 63.4812 156.495 63.1922 156.501L63.0843 156.499C62.5953 156.49 61.9341 156.507 61.164 156.571C60.0025 156.669 58.8564 156.858 57.7904 157.156C56.7861 157.438 55.8958 157.807 55.1496 158.27C54.8916 158.43 54.5527 158.35 54.3927 158.092C54.2327 157.834 54.3121 157.495 54.5702 157.335C55.4118 156.813 56.3959 156.405 57.4935 156.098C58.6328 155.778 59.8456 155.579 61.0717 155.476Z" fill="#1F1F23"/>
<path fill-rule="evenodd" clip-rule="evenodd" d="M43.7178 151.132C43.1497 151.535 42.4899 151.59 41.9768 151.315C31.9525 145.799 23.4859 135.5 23.3577 124.394C23.2111 112.977 37.3953 110.576 42.5082 128.279C46.3567 141.602 45.4404 147.595 44.744 149.739C44.5424 150.289 44.1759 150.802 43.7178 151.132Z" fill="#FFD9C1"/>
<path fill-rule="evenodd" clip-rule="evenodd" d="M26.7775 117.022C26.9219 116.755 27.2555 116.656 27.5226 116.8C32.226 119.343 36.0221 125.265 39.0504 133.546C40.4778 137.45 41.6397 141.627 42.5576 145.804L42.6627 146.287C42.9033 147.406 43.1118 148.459 43.2894 149.43L43.3637 149.842C43.4397 150.269 43.504 150.648 43.5569 150.976L43.6203 151.382C43.6644 151.682 43.4566 151.961 43.1562 152.005C42.8558 152.05 42.5765 151.842 42.5324 151.541L42.4819 151.217L42.4388 150.952C42.3993 150.712 42.3542 150.448 42.3033 150.159L42.2811 150.035C42.0666 148.83 41.8016 147.487 41.4837 146.04C40.5755 141.908 39.4264 137.776 38.0178 133.924C35.0741 125.874 31.4039 120.148 26.9996 117.767C26.7325 117.623 26.6331 117.289 26.7775 117.022Z" fill="#1F1F23"/>
<path fill-rule="evenodd" clip-rule="evenodd" d="M23.4244 125.873C23.549 125.596 23.8745 125.473 24.1513 125.597C26.3964 126.607 28.9619 127.864 31.4547 129.251L31.7759 129.431C35.2846 131.405 37.9847 133.287 39.543 135.002C39.7473 135.226 39.7307 135.574 39.5061 135.778C39.2814 135.982 38.9337 135.966 38.7294 135.741C37.2256 134.087 34.4879 132.197 30.9201 130.212C28.4582 128.842 25.9191 127.598 23.7001 126.6C23.4232 126.475 23.2998 126.15 23.4244 125.873Z" fill="#1F1F23"/>
<path fill-rule="evenodd" clip-rule="evenodd" d="M41.8523 127.585C42.1546 127.557 42.4226 127.779 42.4508 128.081C42.6896 130.636 42.8113 133.105 42.7531 135.265L42.745 135.531C42.65 138.303 42.2548 140.3 41.443 141.367C41.2592 141.609 40.9143 141.655 40.6726 141.472C40.431 141.288 40.3841 140.943 40.5679 140.701C41.7877 139.098 41.9193 134.211 41.356 128.184C41.3278 127.881 41.55 127.614 41.8523 127.585Z" fill="#1F1F23"/>
<path fill-rule="evenodd" clip-rule="evenodd" d="M28.0433 138.562C28.2344 138.326 28.5806 138.29 28.8165 138.481C30.0884 139.511 31.9677 140.602 34.2879 141.711C35.9156 142.488 37.6621 143.229 39.4089 143.906L39.711 144.022C40.1087 144.175 40.4858 144.316 40.838 144.445L41.315 144.618L41.7335 144.766C42.0207 144.864 42.1737 145.177 42.0753 145.464C41.9803 145.741 41.6862 145.893 41.4078 145.815L41.3105 145.783L41.0798 145.702C41.0149 145.679 40.946 145.654 40.8734 145.628L40.4599 145.478C40.0133 145.314 39.5277 145.131 39.0113 144.931C37.2405 144.244 35.4693 143.494 33.8139 142.703L33.4977 142.551C31.2508 141.46 29.4165 140.382 28.1245 139.336C27.8885 139.144 27.8522 138.798 28.0433 138.562Z" fill="#1F1F23"/>
<path fill-rule="evenodd" clip-rule="evenodd" d="M37.4324 156.083C37.6419 154.538 37.4052 153.231 36.9037 153.163C36.4023 153.095 35.826 154.292 35.6165 155.836C35.407 157.381 35.6437 158.688 36.1451 158.756C36.6466 158.824 37.2229 157.627 37.4324 156.083Z" fill="#FFA943"/>
<path fill-rule="evenodd" clip-rule="evenodd" d="M36.1559 158.751C36.4522 158.392 35.8063 157.369 34.7133 156.468C33.6202 155.566 32.494 155.126 32.1977 155.485C31.9014 155.844 32.5473 156.866 33.6403 157.768C34.7334 158.67 35.8596 159.11 36.1559 158.751Z" fill="#FFA943"/>
<path fill-rule="evenodd" clip-rule="evenodd" d="M39.0672 158.214C40.4298 157.5 41.3401 156.55 41.1005 156.093C40.8609 155.636 39.5621 155.844 38.1995 156.558C36.8369 157.272 35.9266 158.222 36.1662 158.679C36.4058 159.136 37.7046 158.928 39.0672 158.214Z" fill="#FFA943"/>
<path fill-rule="evenodd" clip-rule="evenodd" d="M34.3146 160.711C35.5569 160.029 36.3826 159.146 36.1588 158.738C35.9349 158.33 34.7463 158.551 33.5039 159.232C32.2615 159.914 31.4359 160.797 31.6597 161.205C31.8836 161.613 33.0722 161.392 34.3146 160.711Z" fill="#FFA943"/>
<path fill-rule="evenodd" clip-rule="evenodd" d="M38.3128 163.444C38.7364 163.251 38.5996 162.041 38.0072 160.743C37.4148 159.445 36.5912 158.549 36.1676 158.742C35.7441 158.935 35.8809 160.145 36.4733 161.443C37.0657 162.741 37.8893 163.637 38.3128 163.444Z" fill="#FFA943"/>
<path fill-rule="evenodd" clip-rule="evenodd" d="M61.372 124.281C62.3982 122.489 62.5251 120.633 61.6556 120.135C60.7861 119.637 59.2493 120.686 58.2232 122.478C57.197 124.27 57.07 126.126 57.9396 126.624C58.8091 127.122 60.3458 126.073 61.372 124.281Z" fill="#FFA943"/>
<path fill-rule="evenodd" clip-rule="evenodd" d="M61.4409 128.353C63.485 128.311 65.1254 127.457 65.1048 126.445C65.0843 125.433 63.4106 124.647 61.3665 124.688C59.3225 124.73 57.6821 125.584 57.7026 126.596C57.7232 127.608 59.3969 128.394 61.4409 128.353Z" fill="#FFA943"/>
<path fill-rule="evenodd" clip-rule="evenodd" d="M57.6836 126.666C58.4066 126.129 58.1019 124.494 57.0031 123.016C55.9044 121.538 54.4275 120.775 53.7046 121.312C52.9816 121.849 53.2863 123.483 54.3851 124.962C55.4838 126.44 56.9606 127.203 57.6836 126.666Z" fill="#FFA943"/>
<path fill-rule="evenodd" clip-rule="evenodd" d="M59.0163 129.578C59.7667 127.896 59.7156 126.238 58.9022 125.875C58.0888 125.512 56.821 126.582 56.0705 128.264C55.3201 129.946 55.3712 131.604 56.1846 131.967C56.998 132.33 58.2658 131.26 59.0163 129.578Z" fill="#FFA943"/>
<path fill-rule="evenodd" clip-rule="evenodd" d="M56.4215 128.063C58.0617 127.886 59.3201 127.082 59.2322 126.267C59.1443 125.452 57.7435 124.934 56.1033 125.111C54.4631 125.288 53.2047 126.092 53.2926 126.907C53.3805 127.722 54.7814 128.239 56.4215 128.063Z" fill="#FFA943"/>
<path fill-rule="evenodd" clip-rule="evenodd" d="M65.1958 169.696L58.4152 200.41H36.8822L30.1016 169.696C29.7168 167.936 30.8163 166.214 32.3191 166.214H62.9966C64.4994 166.232 65.5989 167.955 65.1958 169.696Z" fill="white"/>
<path fill-rule="evenodd" clip-rule="evenodd" d="M63.0033 165.664L32.319 165.664C30.432 165.664 29.1105 167.738 29.5645 169.813L36.3453 200.529C36.4009 200.78 36.6242 200.96 36.8822 200.96H58.4151C58.6731 200.96 58.8963 200.78 58.952 200.529L65.7325 169.814C66.2072 167.765 64.8902 165.687 63.0033 165.664ZM62.9961 166.764L63.0331 166.765C64.1238 166.812 64.962 168.136 64.6723 169.517L57.9733 199.86H37.3238L30.6385 169.577C30.3235 168.137 31.1989 166.764 32.319 166.764H62.9961Z" fill="#1F1F23"/>
</svg>
