<svg width="61" height="61" viewBox="0 0 61 61" fill="none" xmlns="http://www.w3.org/2000/svg">
	<path d="M15.7 24.7C15.115 24.7 14.845 24.3175 14.4513 23.9237C14.2394 23.7119 14.1204 23.4246 14.1204 23.125C14.1204 22.8254 14.2394 22.5381 14.4513 22.3262C14.6631 22.1144 14.9504 21.9954 15.25 21.9954C15.5496 21.9954 15.8369 22.1144 16.0488 22.3262L16.4988 22.7762C16.6574 22.9336 16.7656 23.1346 16.8096 23.3537C16.8535 23.5728 16.8313 23.8 16.7456 24.0064C16.6599 24.2128 16.5147 24.3889 16.3285 24.5125C16.1423 24.636 15.9235 24.7013 15.7 24.7Z" fill="#231F20" />
	<path d="M25.78 15.4525H13.0563L6.68878 21.82V34.5438L32.125 60.0025L51.25 40.8775L25.78 15.4525ZM15.655 23.575L15.925 23.845C15.0138 24.115 15.1375 24.1375 15.7 23.575H15.655ZM27.31 42.7C26.8827 43.0886 26.3223 43.298 25.7449 43.2848C25.1675 43.2716 24.6172 43.0369 24.2081 42.6292C23.799 42.2215 23.5623 41.6721 23.547 41.0947C23.5318 40.5173 23.7392 39.9562 24.1263 39.5275C24.5485 39.0994 25.1235 38.8564 25.7247 38.8522C26.326 38.848 26.9044 39.0828 27.3325 39.505C27.7607 39.9272 28.0036 40.5022 28.0078 41.1035C28.012 41.7048 27.7772 42.2831 27.355 42.7113L27.31 42.7ZM40.0338 42.7C39.6065 43.0886 39.0461 43.298 38.4687 43.2848C37.8912 43.2716 37.341 43.0369 36.9318 42.6292C36.5227 42.2215 36.286 41.6721 36.2708 41.0947C36.2556 40.5173 36.463 39.9562 36.85 39.5275C37.2722 39.0994 37.8472 38.8564 38.4485 38.8522C39.0498 38.848 39.6281 39.0828 40.0563 39.505C40.4844 39.9272 40.7273 40.5022 40.7316 41.1035C40.7358 41.7048 40.501 42.2831 40.0788 42.7113L40.0338 42.7Z" fill="#6E43D4" />
	<path d="M15.7 23.575L15.97 23.8449C15.0138 24.1149 15.1375 24.1374 15.7 23.575Z" fill="#6E43D4" />
	<path d="M27.355 39.5387C27.7421 39.9674 27.9495 40.5285 27.9342 41.1059C27.919 41.6833 27.6823 42.2327 27.2732 42.6404C26.8641 43.0481 26.3138 43.2828 25.7364 43.296C25.159 43.3092 24.5986 43.0998 24.1713 42.7112C23.7842 42.2825 23.5768 41.7214 23.592 41.144C23.6073 40.5667 23.8439 40.0173 24.2531 39.6096C24.6622 39.2019 25.2125 38.9671 25.7899 38.954C26.3673 38.9408 26.9277 39.1501 27.355 39.5387Z" fill="#6E43D4" />
	<path d="M40.0788 42.7112C39.6515 43.0998 39.0911 43.3092 38.5136 43.296C37.9362 43.2828 37.386 43.0481 36.9768 42.6404C36.5677 42.2327 36.331 41.6833 36.3158 41.1059C36.3006 40.5285 36.508 39.9674 36.895 39.5387C37.3223 39.1501 37.8827 38.9408 38.4602 38.954C39.0376 38.9671 39.5878 39.2019 39.997 39.6096C40.4061 40.0173 40.6428 40.5667 40.658 41.144C40.6732 41.7214 40.4658 42.2825 40.0788 42.7112Z" fill="#6E43D4" />
	<path d="M15.7 24.7C15.115 24.7 14.845 24.3175 14.4513 23.9237C14.2394 23.7119 14.1204 23.4246 14.1204 23.125C14.1204 22.8254 14.2394 22.5381 14.4513 22.3262C14.6631 22.1144 14.9504 21.9954 15.25 21.9954C15.5496 21.9954 15.8369 22.1144 16.0488 22.3262L16.4988 22.7762C16.6574 22.9336 16.7656 23.1346 16.8096 23.3537C16.8535 23.5728 16.8313 23.8 16.7456 24.0064C16.6599 24.2128 16.5147 24.3889 16.3285 24.5125C16.1423 24.636 15.9235 24.7013 15.7 24.7Z" fill="#231F20" />
	<path d="M60.25 9.625V36.625H46.9525L25.78 15.4525H18.4225L24.25 9.625H60.25Z" fill="#5A2FBF" />
	<path d="M15.7 24.7C15.115 24.7 14.845 24.3175 14.4513 23.9237C14.2394 23.7119 14.1204 23.4246 14.1204 23.125C14.1204 22.8254 14.2394 22.5381 14.4513 22.3262C14.6631 22.1144 14.9504 21.9954 15.25 21.9954C15.5496 21.9954 15.8369 22.1144 16.0488 22.3262L16.4988 22.7762C16.6574 22.9336 16.7656 23.1346 16.8096 23.3537C16.8535 23.5728 16.8313 23.8 16.7456 24.0064C16.6599 24.2128 16.5147 24.3889 16.3285 24.5125C16.1423 24.636 15.9235 24.7013 15.7 24.7Z" fill="#231F20" />
	<path d="M15.7 24.7C15.115 24.7 14.845 24.3175 14.4513 23.9237C14.2394 23.7119 14.1204 23.4246 14.1204 23.125C14.1204 22.8254 14.2394 22.5381 14.4513 22.3262C14.6631 22.1144 14.9504 21.9954 15.25 21.9954C15.5496 21.9954 15.8369 22.1144 16.0488 22.3262L16.4988 22.7762C16.6574 22.9336 16.7656 23.1346 16.8096 23.3537C16.8535 23.5728 16.8313 23.8 16.7456 24.0064C16.6599 24.2128 16.5147 24.3889 16.3285 24.5125C16.1423 24.636 15.9235 24.7013 15.7 24.7Z" fill="#231F20" />
	<path d="M17.5 26.5001C16.8812 26.5001 16.7462 26.2188 15.1712 24.6438C15.0664 24.5389 14.9831 24.4144 14.9264 24.2773C14.8696 24.1403 14.8404 23.9934 14.8404 23.8451C14.8404 23.6967 14.8696 23.5498 14.9264 23.4128C14.9831 23.2757 15.0664 23.1512 15.1712 23.0463C15.2761 22.9414 15.4007 22.8582 15.5377 22.8014C15.6748 22.7447 15.8217 22.7155 15.97 22.7155C16.1183 22.7155 16.2652 22.7447 16.4023 22.8014C16.5393 22.8582 16.6639 22.9414 16.7687 23.0463L18.2987 24.5763C18.4574 24.7337 18.5656 24.9347 18.6096 25.1538C18.6535 25.3729 18.6312 25.6001 18.5455 25.8065C18.4598 26.0128 18.3146 26.189 18.1284 26.3126C17.9422 26.4361 17.7234 26.5014 17.5 26.5001Z" fill="#E4E3FC" />
	<path d="M15.25 24.25C14.6538 24.25 14.4963 23.9575 13.3263 22.7987C13.1144 22.5869 12.9954 22.2996 12.9954 22C12.9954 21.7004 13.1144 21.4131 13.3263 21.2012C13.5381 20.9894 13.8254 20.8704 14.125 20.8704C14.4246 20.8704 14.7119 20.9894 14.9238 21.2012L16.0488 22.3262C16.2074 22.4836 16.3156 22.6846 16.3596 22.9037C16.4035 23.1228 16.3813 23.35 16.2956 23.5564C16.2099 23.7628 16.0647 23.9389 15.8785 24.0625C15.6923 24.186 15.4735 24.2513 15.25 24.25Z" fill="#E4E3FC" />
	<path d="M26.8319 23.4495L14.454 35.8274L16.045 37.4184L28.4229 25.0405L26.8319 23.4495Z" fill="#E4E3FC" />
	<path d="M31 49.0788V33.1713C31 32.8729 31.1185 32.5867 31.3295 32.3758C31.5405 32.1648 31.8266 32.0463 32.125 32.0463C32.4234 32.0463 32.7095 32.1648 32.9205 32.3758C33.1315 32.5867 33.25 32.8729 33.25 33.1713V49.0788C33.25 49.3771 33.1315 49.6633 32.9205 49.8743C32.7095 50.0852 32.4234 50.2038 32.125 50.2038C31.8266 50.2038 31.5405 50.0852 31.3295 49.8743C31.1185 49.6633 31 49.3771 31 49.0788Z" fill="#E4E3FC" />
	<path d="M38.4925 44.5C38.0468 44.4996 37.6055 44.4109 37.1943 44.2391C36.783 44.0672 36.4098 43.8156 36.0963 43.4988C35.6287 43.0262 35.3111 42.4261 35.1834 41.7737C35.0556 41.1213 35.1233 40.4457 35.3781 39.8317C35.6328 39.2176 36.0632 38.6925 36.6153 38.3222C37.1674 37.9518 37.8165 37.7528 38.4813 37.75C38.927 37.7504 39.3683 37.8391 39.7796 38.0109C40.1909 38.1828 40.564 38.4344 40.8775 38.7512C41.3451 39.2238 41.6627 39.8239 41.7905 40.4763C41.9183 41.1287 41.8505 41.8043 41.5958 42.4183C41.341 43.0324 40.9106 43.5575 40.3585 43.9278C39.8065 44.2982 39.1573 44.4972 38.4925 44.5ZM38.4925 40C38.1942 40 37.908 40.1185 37.697 40.3295C37.4861 40.5405 37.3675 40.8266 37.3675 41.125C37.3675 41.4234 37.4861 41.7095 37.697 41.9205C37.908 42.1315 38.1942 42.25 38.4925 42.25C38.7909 42.25 39.0771 42.1315 39.288 41.9205C39.499 41.7095 39.6175 41.4234 39.6175 41.125C39.6175 40.8266 39.499 40.5405 39.288 40.3295C39.0771 40.1185 38.7909 40 38.4925 40Z" fill="#E4E3FC" />
	<path d="M25.7575 44.5C24.9773 44.5007 24.221 44.231 23.6172 43.7369C23.0134 43.2429 22.5995 42.5549 22.4457 41.79C22.292 41.0251 22.408 40.2306 22.7741 39.5416C23.1401 38.8526 23.7335 38.3117 24.4534 38.0109C25.1733 37.7101 25.9751 37.668 26.7225 37.8918C27.4699 38.1155 28.1167 38.5913 28.5529 39.2382C28.989 39.885 29.1876 40.663 29.1149 41.4398C29.0421 42.2166 28.7025 42.9442 28.1537 43.4987C27.8402 43.8156 27.4671 44.0672 27.0558 44.2391C26.6445 44.4109 26.2032 44.4996 25.7575 44.5ZM25.7575 40C25.4591 40 25.173 40.1185 24.962 40.3295C24.751 40.5405 24.6325 40.8266 24.6325 41.125C24.6325 41.4234 24.751 41.7095 24.962 41.9205C25.173 42.1315 25.4591 42.25 25.7575 42.25C26.0559 42.25 26.342 42.1315 26.553 41.9205C26.764 41.7095 26.8825 41.4234 26.8825 41.125C26.8825 40.8266 26.764 40.5405 26.553 40.3295C26.342 40.1185 26.0559 40 25.7575 40Z" fill="#E4E3FC" />
	<path d="M41.125 14.125V30.7975L38.875 28.5475V14.125H41.125Z" fill="#E4E3FC" />
	<path d="M47.875 14.125H45.625V32.125H47.875V14.125Z" fill="#E4E3FC" />
	<path d="M54.625 14.125H52.375V32.125H54.625V14.125Z" fill="#E4E3FC" />
	<path d="M24.8913 9.625C24.0363 9.625 24.52 9.355 22.9225 10.9525C21.46 5.49625 17.3088 2.875 13 2.875C3.07751 2.875 -0.91624 15.7788 7.37501 21.3813C10.3338 23.3838 13.0788 23.3275 16.1838 22.6975L16.6338 24.9475C13.5513 25.5775 10.5925 25.825 7.08251 23.8787C4.94501 22.495 5.12501 22.675 5.12501 22.5625C-3.81874 15.25 1.44626 0.625 13 0.625C15.6911 0.628182 18.3078 1.50851 20.4536 3.13257C22.5994 4.75664 24.1573 7.03591 24.8913 9.625Z" fill="#E4E3FC" />
</svg>
