<svg width="420" height="210" viewBox="0 0 420 210" fill="none" xmlns="http://www.w3.org/2000/svg">
<path fill-rule="evenodd" clip-rule="evenodd" d="M389.83 105.007C390.086 104.801 390.461 104.843 390.667 105.099C390.872 105.356 390.83 105.731 390.574 105.936L390.504 105.995L390.458 106.034C390.37 106.109 390.27 106.198 390.158 106.301L390.101 106.353C389.711 106.715 389.274 107.154 388.803 107.671C387.45 109.154 386.096 110.96 384.83 113.097C382.358 117.271 380.537 122.177 379.639 127.842C378.529 134.85 378.895 142.67 381.016 151.332C381.094 151.652 380.899 151.974 380.579 152.052C380.26 152.13 379.938 151.935 379.859 151.616C377.701 142.802 377.327 134.822 378.463 127.656C379.385 121.838 381.259 116.79 383.805 112.49C385.114 110.281 386.517 108.409 387.923 106.868C388.382 106.365 388.811 105.931 389.202 105.564L389.291 105.48C389.543 105.247 389.727 105.089 389.83 105.007Z" fill="#2E2D2D"/>
<path fill-rule="evenodd" clip-rule="evenodd" d="M383.714 143.515C383.258 143.119 383.039 142.543 383.099 141.948C384.349 130.437 389.549 118.589 397.646 114.243C405.961 109.778 411.637 122.181 400.107 133.692C391.434 142.364 386.79 143.773 385.024 143.952C384.548 143.992 384.071 143.833 383.714 143.515Z" fill="#FFD9C1"/>
<path fill-rule="evenodd" clip-rule="evenodd" d="M365.469 140.858C368.883 141.153 371.579 143.024 373.624 145.933C374.399 147.034 375.025 148.211 375.518 149.387C375.672 149.754 375.803 150.097 375.912 150.412L375.952 150.528C376.023 150.738 376.069 150.891 376.093 150.978C376.181 151.294 375.995 151.622 375.678 151.71C375.373 151.795 375.057 151.625 374.956 151.329L374.918 151.201L374.884 151.094C374.866 151.037 374.846 150.976 374.824 150.909C374.716 150.59 374.582 150.233 374.42 149.847C373.958 148.745 373.371 147.643 372.65 146.618C370.79 143.973 368.388 142.305 365.367 142.045C365.039 142.017 364.797 141.728 364.825 141.401C364.852 141.085 365.121 140.848 365.434 140.856L365.469 140.858Z" fill="#2E2D2D"/>
<path fill-rule="evenodd" clip-rule="evenodd" d="M404.815 114.834C405.038 115.057 405.047 115.414 404.842 115.648L404.798 115.694L404.564 115.931L404.347 116.155C404.245 116.259 404.137 116.371 404.023 116.49L403.848 116.674C403.074 117.483 402.212 118.41 401.283 119.439C398.629 122.378 395.976 125.543 393.5 128.812C390.553 132.703 388.059 136.479 386.165 140.038C385.564 141.167 385.027 142.268 384.558 143.338C384.426 143.64 384.074 143.777 383.773 143.645C383.472 143.512 383.335 143.161 383.467 142.86C383.949 141.762 384.499 140.634 385.114 139.479C387.041 135.858 389.568 132.03 392.551 128.093C395.049 124.795 397.724 121.604 400.399 118.641L400.727 118.279C401.485 117.445 402.196 116.681 402.848 115.997L403.25 115.576C403.39 115.43 403.521 115.295 403.642 115.172L403.973 114.835C404.205 114.602 404.582 114.602 404.815 114.834Z" fill="#2E2D2D"/>
<path fill-rule="evenodd" clip-rule="evenodd" d="M400.349 130.529L400.553 130.519C400.951 130.5 401.29 130.493 401.564 130.494L401.835 130.497C402.163 130.508 402.421 130.783 402.41 131.112C402.4 131.429 402.143 131.68 401.83 131.687L401.738 131.686C401.423 131.68 400.975 131.688 400.413 131.718C399.57 131.763 398.647 131.852 397.665 131.994C394.967 132.386 392.241 133.113 389.631 134.257C389.33 134.389 388.978 134.252 388.846 133.951C388.714 133.65 388.852 133.298 389.153 133.166C391.868 131.976 394.696 131.222 397.494 130.816C398.513 130.668 399.471 130.576 400.349 130.529Z" fill="#2E2D2D"/>
<path fill-rule="evenodd" clip-rule="evenodd" d="M395.118 116.185C395.405 116.345 395.508 116.707 395.348 116.995L395.209 117.247C395.164 117.33 395.114 117.421 395.061 117.521L394.867 117.882C394.69 118.216 394.499 118.579 394.298 118.968C393.509 120.498 392.72 122.119 391.983 123.76C391.401 125.058 390.876 126.315 390.422 127.512L390.308 127.817C389.108 131.045 388.512 133.638 388.673 135.323C388.704 135.65 388.464 135.941 388.137 135.972C387.81 136.003 387.519 135.763 387.488 135.436C387.3 133.465 387.972 130.62 389.309 127.09C389.771 125.87 390.305 124.591 390.897 123.273C391.643 121.61 392.441 119.97 393.24 118.422L393.464 117.99C393.635 117.663 393.797 117.357 393.948 117.075L394.164 116.677L394.308 116.414C394.468 116.127 394.831 116.024 395.118 116.185Z" fill="#2E2D2D"/>
<path fill-rule="evenodd" clip-rule="evenodd" d="M392.23 137.702C393.064 137.631 393.788 137.611 394.346 137.618L394.535 137.622C394.863 137.634 395.12 137.91 395.108 138.239C395.097 138.555 394.839 138.805 394.526 138.812L394.41 138.81C393.88 138.8 393.164 138.818 392.33 138.888C391.072 138.994 389.831 139.198 388.677 139.522C387.589 139.827 386.625 140.226 385.817 140.727C385.537 140.901 385.17 140.815 384.997 140.535C384.824 140.256 384.91 139.889 385.189 139.715C386.101 139.15 387.167 138.709 388.355 138.375C389.589 138.029 390.902 137.814 392.23 137.702Z" fill="#2E2D2D"/>
<path fill-rule="evenodd" clip-rule="evenodd" d="M373.433 132.997C372.818 133.434 372.104 133.494 371.548 133.196C360.692 127.222 351.524 116.069 351.385 104.042C351.226 91.6785 366.587 89.0787 372.124 108.25C376.291 122.678 375.299 129.167 374.545 131.489C374.326 132.085 373.93 132.64 373.433 132.997Z" fill="#FFD9C1"/>
<path fill-rule="evenodd" clip-rule="evenodd" d="M355.088 96.0592C355.244 95.7699 355.605 95.6622 355.895 95.8186C360.988 98.5723 365.099 104.986 368.379 113.954C369.924 118.181 371.182 122.705 372.177 127.228L372.29 127.751C372.551 128.963 372.777 130.103 372.969 131.155L373.049 131.601C373.132 132.063 373.201 132.474 373.259 132.829L373.327 133.268C373.375 133.594 373.15 133.896 372.825 133.944C372.499 133.992 372.197 133.767 372.149 133.441L372.095 133.089L372.048 132.803C372.005 132.543 371.956 132.257 371.901 131.945L371.877 131.809C371.645 130.505 371.358 129.05 371.014 127.484C370.03 123.009 368.786 118.534 367.26 114.363C364.072 105.645 360.098 99.4446 355.328 96.866C355.039 96.7097 354.931 96.3484 355.088 96.0592Z" fill="#2E2D2D"/>
<path fill-rule="evenodd" clip-rule="evenodd" d="M351.457 105.644C351.592 105.344 351.945 105.21 352.244 105.345C354.676 106.439 357.454 107.8 360.153 109.302L360.501 109.497C364.301 111.635 367.225 113.673 368.913 115.53C369.134 115.773 369.116 116.15 368.873 116.371C368.629 116.592 368.253 116.574 368.032 116.331C366.403 114.539 363.438 112.493 359.574 110.343C356.908 108.86 354.159 107.513 351.756 106.431C351.456 106.296 351.322 105.944 351.457 105.644Z" fill="#2E2D2D"/>
<path fill-rule="evenodd" clip-rule="evenodd" d="M371.415 107.498C371.742 107.467 372.032 107.708 372.063 108.035C372.321 110.802 372.453 113.475 372.39 115.814L372.381 116.103C372.279 119.105 371.851 121.267 370.972 122.423C370.772 122.684 370.399 122.735 370.137 122.536C369.876 122.337 369.825 121.963 370.024 121.702C371.345 119.965 371.487 114.673 370.877 108.146C370.847 107.819 371.087 107.528 371.415 107.498Z" fill="#2E2D2D"/>
<path fill-rule="evenodd" clip-rule="evenodd" d="M356.459 119.385C356.666 119.129 357.041 119.09 357.296 119.297C358.674 120.412 360.709 121.594 363.221 122.794C364.984 123.636 366.875 124.438 368.767 125.171L369.094 125.298C369.525 125.463 369.933 125.616 370.315 125.756L370.831 125.943L371.284 126.102C371.595 126.209 371.761 126.548 371.655 126.859C371.552 127.159 371.233 127.323 370.932 127.239L370.826 127.204L370.576 127.116C370.506 127.091 370.432 127.064 370.353 127.036L369.905 126.874C369.422 126.696 368.896 126.498 368.337 126.282C366.419 125.538 364.501 124.725 362.708 123.869L362.366 123.704C359.932 122.523 357.946 121.355 356.547 120.222C356.291 120.015 356.252 119.64 356.459 119.385Z" fill="#2E2D2D"/>
<path fill-rule="evenodd" clip-rule="evenodd" d="M366.629 138.359C366.856 136.687 366.599 135.271 366.056 135.197C365.513 135.124 364.889 136.42 364.662 138.092C364.435 139.765 364.692 141.18 365.235 141.254C365.778 141.328 366.402 140.032 366.629 138.359Z" fill="#FFA943"/>
<path fill-rule="evenodd" clip-rule="evenodd" d="M365.247 141.249C365.568 140.86 364.869 139.753 363.685 138.776C362.501 137.8 361.282 137.323 360.961 137.712C360.64 138.101 361.339 139.208 362.523 140.185C363.707 141.161 364.926 141.638 365.247 141.249Z" fill="#FFA943"/>
<path fill-rule="evenodd" clip-rule="evenodd" d="M368.4 140.667C369.876 139.894 370.862 138.866 370.602 138.37C370.343 137.875 368.936 138.101 367.461 138.874C365.985 139.648 364.999 140.676 365.259 141.171C365.518 141.666 366.925 141.441 368.4 140.667Z" fill="#FFA943"/>
<path fill-rule="evenodd" clip-rule="evenodd" d="M363.253 143.371C364.598 142.633 365.492 141.677 365.25 141.235C365.008 140.793 363.72 141.032 362.375 141.77C361.03 142.508 360.135 143.464 360.378 143.906C360.62 144.348 361.907 144.109 363.253 143.371Z" fill="#FFA943"/>
<path fill-rule="evenodd" clip-rule="evenodd" d="M367.582 146.331C368.04 146.122 367.892 144.812 367.251 143.406C366.609 142 365.717 141.03 365.258 141.239C364.8 141.449 364.948 142.758 365.589 144.164C366.231 145.57 367.123 146.54 367.582 146.331Z" fill="#FFA943"/>
<path fill-rule="evenodd" clip-rule="evenodd" d="M392.551 103.92C393.662 101.98 393.799 99.9696 392.858 99.4303C391.916 98.891 390.252 100.027 389.141 101.967C388.029 103.908 387.892 105.918 388.834 106.457C389.775 106.996 391.439 105.86 392.551 103.92Z" fill="#FFA943"/>
<path fill-rule="evenodd" clip-rule="evenodd" d="M392.624 108.329C394.838 108.284 396.614 107.359 396.592 106.264C396.569 105.168 394.757 104.316 392.543 104.361C390.33 104.406 388.553 105.33 388.576 106.426C388.598 107.522 390.41 108.374 392.624 108.329Z" fill="#FFA943"/>
<path fill-rule="evenodd" clip-rule="evenodd" d="M388.555 106.503C389.338 105.921 389.008 104.152 387.818 102.551C386.628 100.95 385.029 100.123 384.246 100.705C383.463 101.287 383.793 103.057 384.983 104.658C386.173 106.259 387.772 107.085 388.555 106.503Z" fill="#FFA943"/>
<path fill-rule="evenodd" clip-rule="evenodd" d="M389.997 109.657C390.81 107.835 390.754 106.039 389.873 105.646C388.993 105.254 387.62 106.412 386.807 108.234C385.994 110.056 386.05 111.851 386.93 112.244C387.811 112.637 389.184 111.479 389.997 109.657Z" fill="#FFA943"/>
<path fill-rule="evenodd" clip-rule="evenodd" d="M387.187 108.015C388.963 107.824 390.326 106.953 390.231 106.07C390.136 105.187 388.619 104.627 386.842 104.819C385.066 105.01 383.704 105.881 383.799 106.764C383.894 107.646 385.411 108.207 387.187 108.015Z" fill="#FFA943"/>
<path fill-rule="evenodd" clip-rule="evenodd" d="M396.696 153.101L389.353 186.363H366.034L358.692 153.101C358.275 151.196 359.466 149.33 361.093 149.33H394.315C395.942 149.35 397.133 151.216 396.696 153.101Z" fill="white"/>
<path fill-rule="evenodd" clip-rule="evenodd" d="M394.316 148.735L361.087 148.735C359.043 148.735 357.612 150.98 358.104 153.228L365.447 186.491C365.507 186.763 365.749 186.958 366.028 186.958H389.347C389.626 186.958 389.868 186.763 389.928 186.491L397.271 153.229C397.785 151.01 396.359 148.76 394.316 148.735ZM394.31 149.925L394.351 149.926C395.532 149.978 396.439 151.412 396.126 152.906L388.871 185.767H366.509L359.269 152.972C358.928 151.413 359.876 149.925 361.089 149.925H394.31Z" fill="#2E2D2D"/>
<path fill-rule="evenodd" clip-rule="evenodd" d="M409.18 186.806C409.653 186.806 410.037 187.073 410.037 187.403C410.037 187.721 409.68 187.981 409.23 187.999L409.18 188H10.8567C10.3835 188 10 187.733 10 187.403C10 187.085 10.3566 186.825 10.8063 186.807L10.8567 186.806H409.18Z" fill="#2E2D2D"/>
<rect x="66.0141" y="101.04" width="85.7004" height="21.4347" transform="rotate(90 66.0141 101.04)" fill="#6E43D4"/>
<rect x="60.4863" y="108.322" width="39.895" height="11.5145" transform="rotate(90 60.4863 108.322)" fill="white"/>
<rect x="60.4809" y="149.896" width="3.72353" height="11.5145" transform="rotate(90 60.4809 149.896)" fill="#FFA943"/>
<path fill-rule="evenodd" clip-rule="evenodd" d="M54.5175 167.074C51.7944 167.074 49.5869 169.284 49.5869 172.009C49.5869 174.735 51.7944 176.945 54.5175 176.945C57.2405 176.945 59.448 174.735 59.448 172.009C59.448 169.284 57.2405 167.074 54.5175 167.074ZM54.5174 168.847C56.2622 168.847 57.6765 170.263 57.6765 172.009C57.6765 173.756 56.2622 175.172 54.5174 175.172C52.7727 175.172 51.3583 173.756 51.3583 172.009C51.3583 170.263 52.7727 168.847 54.5174 168.847Z" fill="white"/>
<path fill-rule="evenodd" clip-rule="evenodd" d="M59.1528 116.925C59.642 116.925 60.0385 117.322 60.0385 117.811C60.0385 118.283 59.6698 118.669 59.2048 118.696L59.1528 118.698H50.6202C50.1311 118.698 49.7345 118.301 49.7345 117.811C49.7345 117.339 50.1032 116.953 50.5682 116.926L50.6202 116.925H59.1528Z" fill="#FFA943"/>
<path fill-rule="evenodd" clip-rule="evenodd" d="M59.1528 121.328C59.642 121.328 60.0385 121.725 60.0385 122.215C60.0385 122.687 59.6698 123.073 59.2048 123.1L59.1528 123.101H50.6202C50.1311 123.101 49.7345 122.704 49.7345 122.215C49.7345 121.742 50.1032 121.356 50.5682 121.33L50.6202 121.328H59.1528Z" fill="#FFA943"/>
<path fill-rule="evenodd" clip-rule="evenodd" d="M59.1528 125.731C59.642 125.731 60.0385 126.128 60.0385 126.618C60.0385 127.09 59.6698 127.476 59.2048 127.503L59.1528 127.504H50.6202C50.1311 127.504 49.7345 127.107 49.7345 126.618C49.7345 126.146 50.1032 125.76 50.5682 125.733L50.6202 125.731H59.1528Z" fill="#FFA943"/>
<rect x="87.3504" y="101.107" width="85.7004" height="21.4347" transform="rotate(90 87.3504 101.107)" fill="#6E43D4"/>
<rect x="81.8227" y="108.419" width="39.895" height="11.5145" transform="rotate(90 81.8227 108.419)" fill="white"/>
<rect x="81.8172" y="149.993" width="3.72353" height="11.5145" transform="rotate(90 81.8172 149.993)" fill="#2E2D2D"/>
<path fill-rule="evenodd" clip-rule="evenodd" d="M75.834 167.163C73.111 167.163 70.9035 169.373 70.9035 172.098C70.9035 174.824 73.111 177.033 75.834 177.033C78.5571 177.033 80.7646 174.824 80.7646 172.098C80.7646 169.373 78.5571 167.163 75.834 167.163ZM75.834 168.936C77.5788 168.936 78.9931 170.352 78.9931 172.098C78.9931 173.845 77.5788 175.26 75.834 175.26C74.0893 175.26 72.6749 173.845 72.6749 172.098C72.6749 170.352 74.0893 168.936 75.834 168.936Z" fill="white"/>
<path fill-rule="evenodd" clip-rule="evenodd" d="M80.3808 135.306C80.87 135.306 81.2665 135.703 81.2665 136.193C81.2665 136.665 80.8978 137.051 80.4328 137.078L80.3808 137.079H71.8187C71.3295 137.079 70.933 136.682 70.933 136.193C70.933 135.721 71.3017 135.335 71.7667 135.308L71.8187 135.306H80.3808Z" fill="#2E2D2D"/>
<path fill-rule="evenodd" clip-rule="evenodd" d="M80.3808 112.61C80.87 112.61 81.2665 113.007 81.2665 113.497C81.2665 113.969 80.8978 114.355 80.4328 114.382L80.3808 114.383H71.8187C71.3295 114.383 70.933 113.986 70.933 113.497C70.933 113.025 71.3017 112.639 71.7667 112.612L71.8187 112.61H80.3808Z" fill="#2E2D2D"/>
<path fill-rule="evenodd" clip-rule="evenodd" d="M80.3808 139.68C80.87 139.68 81.2665 140.077 81.2665 140.566C81.2665 141.038 80.8978 141.424 80.4328 141.451L80.3808 141.453H71.8187C71.3295 141.453 70.933 141.056 70.933 140.566C70.933 140.094 71.3017 139.708 71.7667 139.681L71.8187 139.68H80.3808Z" fill="#2E2D2D"/>
<path fill-rule="evenodd" clip-rule="evenodd" d="M80.3808 144.083C80.87 144.083 81.2665 144.48 81.2665 144.97C81.2665 145.442 80.8978 145.828 80.4328 145.855L80.3808 145.856H71.8187C71.3295 145.856 70.933 145.459 70.933 144.97C70.933 144.497 71.3017 144.111 71.7667 144.084L71.8187 144.083H80.3808Z" fill="#2E2D2D"/>
<rect x="44.8883" y="101.113" width="85.7004" height="21.4347" transform="rotate(90 44.8883 101.113)" fill="#6E43D4"/>
<rect x="39.3605" y="108.425" width="39.895" height="11.5145" transform="rotate(90 39.3605 108.425)" fill="white"/>
<rect x="39.3551" y="149.97" width="3.72353" height="11.5145" transform="rotate(90 39.3551 149.97)" fill="#FFA943"/>
<path fill-rule="evenodd" clip-rule="evenodd" d="M33.378 167.163C30.6549 167.163 28.4474 169.373 28.4474 172.098C28.4474 174.824 30.6549 177.033 33.378 177.033C36.1011 177.033 38.3086 174.824 38.3086 172.098C38.3086 169.373 36.1011 167.163 33.378 167.163ZM33.378 168.936C35.1227 168.936 36.5371 170.352 36.5371 172.098C36.5371 173.845 35.1227 175.26 33.378 175.26C31.6333 175.26 30.2189 173.845 30.2189 172.098C30.2189 170.352 31.6333 168.936 33.378 168.936Z" fill="white"/>
<path fill-rule="evenodd" clip-rule="evenodd" d="M37.8952 135.306C38.3844 135.306 38.781 135.703 38.781 136.193C38.781 136.665 38.4122 137.051 37.9473 137.078L37.8952 137.079H29.3627C28.8735 137.079 28.477 136.682 28.477 136.193C28.477 135.721 28.8457 135.335 29.3106 135.308L29.3627 135.306H37.8952Z" fill="#2E2D2D"/>
<path fill-rule="evenodd" clip-rule="evenodd" d="M37.8952 112.61C38.3844 112.61 38.781 113.007 38.781 113.497C38.781 113.969 38.4122 114.355 37.9473 114.382L37.8952 114.383H29.3627C28.8735 114.383 28.477 113.986 28.477 113.497C28.477 113.025 28.8457 112.639 29.3106 112.612L29.3627 112.61H37.8952Z" fill="#2E2D2D"/>
<path fill-rule="evenodd" clip-rule="evenodd" d="M37.8952 139.68C38.3844 139.68 38.781 140.077 38.781 140.566C38.781 141.038 38.4122 141.424 37.9473 141.451L37.8952 141.453H29.3627C28.8735 141.453 28.477 141.056 28.477 140.566C28.477 140.094 28.8457 139.708 29.3106 139.681L29.3627 139.68H37.8952Z" fill="#2E2D2D"/>
<path fill-rule="evenodd" clip-rule="evenodd" d="M37.8952 144.083C38.3844 144.083 38.781 144.48 38.781 144.97C38.781 145.442 38.4122 145.828 37.9473 145.855L37.8952 145.856H29.3627C28.8735 145.856 28.477 145.459 28.477 144.97C28.477 144.497 28.8457 144.111 29.3106 144.085L29.3627 144.083H37.8952Z" fill="#2E2D2D"/>
<rect x="277.824" y="123.501" width="89.6016" height="63.2615" fill="#6E43D4"/>
<path fill-rule="evenodd" clip-rule="evenodd" d="M328.851 122.901V187.137H327.354V122.901H328.851Z" fill="white"/>
<path fill-rule="evenodd" clip-rule="evenodd" d="M356.596 129.745C357.009 129.745 357.345 130.08 357.345 130.494C357.345 130.893 357.033 131.219 356.64 131.242L356.596 131.243H316.049C315.636 131.243 315.301 130.908 315.301 130.494C315.301 130.095 315.613 129.769 316.005 129.746L316.049 129.745H356.596Z" fill="white"/>
<path fill-rule="evenodd" clip-rule="evenodd" d="M366.626 152.472C367.04 152.472 367.375 152.807 367.375 153.221C367.375 153.62 367.063 153.946 366.67 153.969L366.626 153.97H340.577C340.163 153.97 339.828 153.635 339.828 153.221C339.828 152.822 340.14 152.496 340.533 152.473L340.577 152.472H366.626Z" fill="white"/>
<path fill-rule="evenodd" clip-rule="evenodd" d="M362.784 173.675C363.198 173.675 363.533 174.011 363.533 174.425C363.533 174.824 363.221 175.15 362.828 175.173L362.784 175.174H311.983C311.569 175.174 311.234 174.838 311.234 174.425C311.234 174.026 311.546 173.699 311.939 173.677L311.983 173.675H362.784Z" fill="white"/>
<path fill-rule="evenodd" clip-rule="evenodd" d="M319.095 146.802C319.509 146.802 319.844 147.138 319.844 147.552C319.844 147.951 319.532 148.277 319.139 148.3L319.095 148.301H292.846C292.433 148.301 292.098 147.965 292.098 147.552C292.098 147.153 292.409 146.826 292.802 146.804L292.846 146.802H319.095Z" fill="white"/>
<path fill-rule="evenodd" clip-rule="evenodd" d="M293.842 136.863C294.256 136.863 294.591 137.198 294.591 137.612C294.591 138.011 294.279 138.337 293.886 138.36L293.842 138.361H277.923C277.51 138.361 277.175 138.026 277.175 137.612C277.175 137.213 277.486 136.887 277.879 136.864L277.923 136.863H293.842Z" fill="white"/>
<path fill-rule="evenodd" clip-rule="evenodd" d="M308.963 166.083C309.376 166.083 309.711 166.419 309.711 166.833C309.711 167.232 309.4 167.558 309.007 167.581L308.963 167.582H277.823C277.41 167.582 277.075 167.246 277.075 166.833C277.075 166.434 277.386 166.107 277.779 166.085L277.823 166.083H308.963Z" fill="white"/>
<path fill-rule="evenodd" clip-rule="evenodd" d="M277.7 137.711C271.013 140.359 277.9 144.754 277.9 144.754C277.9 144.754 279.621 139.759 288.454 137.711C287.307 137.711 277.7 137.711 277.7 137.711Z" fill="#6E43D4"/>
<path fill-rule="evenodd" clip-rule="evenodd" d="M288.452 136.963H277.698C277.604 136.963 277.511 136.98 277.423 137.015C275.442 137.799 274.332 138.834 274.081 140.11C273.815 141.461 274.525 142.773 275.815 144.031C276.181 144.389 276.571 144.717 276.961 145.01L277.075 145.094C277.257 145.228 277.401 145.326 277.495 145.386C277.891 145.639 278.414 145.468 278.59 145.041L278.617 144.969C278.634 144.925 278.667 144.849 278.718 144.746C278.835 144.507 278.992 144.238 279.193 143.944C279.781 143.086 280.61 142.222 281.723 141.408C283.47 140.131 285.744 139.109 288.621 138.442C289.489 138.241 289.343 136.963 288.452 136.963ZM283.841 138.461L283.795 138.482C282.694 138.987 281.711 139.562 280.841 140.198C279.589 141.113 278.643 142.101 277.96 143.096L277.881 143.213C277.804 143.33 277.732 143.444 277.665 143.555L277.623 143.627L277.569 143.584C277.326 143.389 277.087 143.179 276.861 142.959C275.9 142.02 275.41 141.116 275.551 140.4L275.561 140.355C275.713 139.708 276.391 139.07 277.777 138.489L277.845 138.461H283.841Z" fill="white"/>
<path fill-rule="evenodd" clip-rule="evenodd" d="M367.701 153.122C374.388 155.769 367.502 160.164 367.502 160.164C367.502 160.164 365.78 155.169 356.947 153.122C358.12 153.146 367.701 153.122 367.701 153.122Z" fill="#6E43D4"/>
<path fill-rule="evenodd" clip-rule="evenodd" d="M367.699 152.372L362.613 152.382L357.655 152.379C357.325 152.377 357.091 152.375 356.963 152.372C356.063 152.353 355.901 153.648 356.778 153.851C359.655 154.518 361.929 155.541 363.676 156.818C364.789 157.631 365.618 158.496 366.206 159.353C366.407 159.647 366.564 159.917 366.681 160.155L366.72 160.237C366.755 160.312 366.778 160.366 366.789 160.396L366.794 160.409C366.951 160.867 367.495 161.056 367.904 160.796L368.002 160.732C368.112 160.657 368.261 160.552 368.438 160.419C368.828 160.127 369.218 159.799 369.584 159.441C370.873 158.182 371.584 156.871 371.318 155.52C371.067 154.244 369.957 153.209 367.976 152.425C367.888 152.39 367.794 152.372 367.699 152.372ZM367.557 153.871L367.624 153.899C369.042 154.493 369.719 155.147 369.849 155.809C369.99 156.525 369.501 157.43 368.539 158.368L368.402 158.499C368.218 158.672 368.026 158.837 367.832 158.994L367.778 159.036L367.735 158.964C367.646 158.816 367.548 158.663 367.44 158.505C366.758 157.511 365.811 156.523 364.559 155.608L364.428 155.513C363.647 154.955 362.777 154.444 361.813 153.988L361.583 153.881L367.557 153.871Z" fill="white"/>
<path fill-rule="evenodd" clip-rule="evenodd" d="M301.353 166.882C301.353 166.882 285.833 169.804 286.207 178.97C286.207 178.97 273.756 174.4 277.948 166.882H301.353Z" fill="#6E43D4"/>
<path fill-rule="evenodd" clip-rule="evenodd" d="M301.353 166.133H277.948C277.677 166.133 277.427 166.28 277.294 166.517C276.057 168.736 276.048 170.902 277.09 172.916C277.915 174.511 279.353 175.936 281.226 177.206C282.259 177.907 283.361 178.517 284.463 179.036C284.801 179.195 285.117 179.335 285.408 179.457L285.53 179.508C285.727 179.589 285.869 179.644 285.949 179.674C286.45 179.857 286.977 179.473 286.955 178.939C286.805 175.26 289.468 172.332 294.101 170.097C295.717 169.318 297.453 168.685 299.191 168.188C299.732 168.033 300.238 167.901 300.699 167.792L301.039 167.714C301.093 167.702 301.144 167.691 301.194 167.68L301.491 167.619C302.385 167.45 302.262 166.133 301.353 166.133ZM296.082 167.631L295.915 167.693C295.077 168.011 294.252 168.361 293.452 168.747L293.299 168.821C288.782 171.034 285.902 173.961 285.5 177.714L285.486 177.857L285.368 177.804C285.28 177.764 285.191 177.723 285.101 177.68C284.065 177.192 283.029 176.619 282.067 175.966L281.954 175.889C278.436 173.467 276.953 170.759 278.356 167.728L278.402 167.631H296.082Z" fill="white"/>
<rect x="102.493" y="22" width="199.944" height="165.624" fill="white"/>
<path fill-rule="evenodd" clip-rule="evenodd" d="M301.736 22.0001H103.274C102.843 22.0001 102.494 22.3493 102.494 22.7801V186.948C102.494 187.378 102.843 187.728 103.274 187.728H301.736C302.167 187.728 302.516 187.378 302.516 186.948V22.7801C302.516 22.3493 302.167 22.0001 301.736 22.0001ZM300.957 23.5596V186.167H104.055V23.5596H300.957Z" fill="#2E2D2D"/>
<path fill-rule="evenodd" clip-rule="evenodd" d="M163.587 56.4769C164.018 56.4769 164.367 56.8262 164.367 57.2569C164.367 57.6724 164.043 58.0119 163.633 58.0356L163.587 58.037H115.746C115.315 58.037 114.966 57.6877 114.966 57.2569C114.966 56.8415 115.291 56.502 115.7 56.4783L115.746 56.4769H163.587Z" fill="#2E2D2D"/>
<path fill-rule="evenodd" clip-rule="evenodd" d="M150.977 63.7575C151.408 63.7575 151.757 64.1067 151.757 64.5375C151.757 64.9529 151.432 65.2925 151.023 65.3162L150.977 65.3175H115.746C115.315 65.3175 114.966 64.9683 114.966 64.5375C114.966 64.1221 115.291 63.7826 115.7 63.7588L115.746 63.7575H150.977Z" fill="#2E2D2D"/>
<path fill-rule="evenodd" clip-rule="evenodd" d="M139.668 71.9213C140.099 71.9213 140.448 72.2705 140.448 72.7013C140.448 73.1167 140.123 73.4562 139.714 73.48L139.668 73.4813H114.708C114.277 73.4813 113.928 73.1321 113.928 72.7013C113.928 72.2859 114.252 71.9463 114.662 71.9226L114.708 71.9213H139.668Z" fill="#2E2D2D"/>
<path fill-rule="evenodd" clip-rule="evenodd" d="M189.745 56.4769C190.176 56.4769 190.525 56.8262 190.525 57.2569C190.525 57.6724 190.201 58.0119 189.791 58.0356L189.745 58.037H169.101C168.67 58.037 168.321 57.6877 168.321 57.2569C168.321 56.8415 168.646 56.502 169.055 56.4783L169.101 56.4769H189.745Z" fill="#2E2D2D"/>
<path fill-rule="evenodd" clip-rule="evenodd" d="M138.449 41.3446L143.961 46.5447V36.0665L138.449 41.3446Z" fill="#FFA943"/>
<path fill-rule="evenodd" clip-rule="evenodd" d="M130.517 46.8042L136.185 41.3701L130.517 36.04V46.8042Z" fill="#FFA943"/>
<path fill-rule="evenodd" clip-rule="evenodd" d="M158.624 34.22H145.884L152.306 40.2782L158.624 34.22Z" fill="#FFA943"/>
<path fill-rule="evenodd" clip-rule="evenodd" d="M137.303 42.4359L130.855 48.65H143.907L137.303 42.4359Z" fill="#FFA943"/>
<path fill-rule="evenodd" clip-rule="evenodd" d="M145.522 46.8042L151.19 41.3701L145.522 36.04V46.8042Z" fill="#FFA943"/>
<path fill-rule="evenodd" clip-rule="evenodd" d="M114.71 35.3115V47.5578L121.158 41.3697L114.71 35.3115Z" fill="#FFA943"/>
<path fill-rule="evenodd" clip-rule="evenodd" d="M122.303 42.4359L115.855 48.65H128.907L122.303 42.4359Z" fill="#FFA943"/>
<path fill-rule="evenodd" clip-rule="evenodd" d="M128.595 34.22H115.855L122.303 40.2782L128.595 34.22Z" fill="#FFA943"/>
<path fill-rule="evenodd" clip-rule="evenodd" d="M158.961 46.5447V36.0665L153.449 41.3446L158.961 46.5447Z" fill="#FFA943"/>
<path fill-rule="evenodd" clip-rule="evenodd" d="M123.447 41.3446L128.959 46.5447V36.0665L123.447 41.3446Z" fill="#FFA943"/>
<path fill-rule="evenodd" clip-rule="evenodd" d="M152.332 42.4359L145.884 48.65H158.936L152.332 42.4359Z" fill="#FFA943"/>
<path fill-rule="evenodd" clip-rule="evenodd" d="M143.595 34.22H130.855L137.303 40.2782L143.595 34.22Z" fill="#FFA943"/>
<path fill-rule="evenodd" clip-rule="evenodd" d="M173.965 34.22H160.522V48.6503H173.965V34.22Z" fill="#FFA943"/>
<path fill-rule="evenodd" clip-rule="evenodd" d="M189.747 34.22H175.524V48.6503H189.747V34.22Z" fill="#FFA943"/>
<path fill-rule="evenodd" clip-rule="evenodd" d="M158.911 48.6498C158.937 48.6758 158.937 48.6758 158.963 48.6758V48.6498H158.911Z" fill="#FFA943"/>
<path fill-rule="evenodd" clip-rule="evenodd" d="M284.081 49.873H276.02C275.59 49.873 275.24 50.2222 275.24 50.653V58.7132C275.24 59.144 275.59 59.4932 276.02 59.4932H284.081C284.511 59.4932 284.861 59.144 284.861 58.7132V50.653C284.861 50.2222 284.511 49.873 284.081 49.873ZM283.301 51.4321V57.9323H276.801V51.4321H283.301Z" fill="#2E2D2D"/>
<path fill-rule="evenodd" clip-rule="evenodd" d="M285.664 35.2606H254.853C254.423 35.2606 254.073 35.6098 254.073 36.0406V45.3228C254.073 45.7536 254.423 46.1029 254.853 46.1029H285.664C286.095 46.1029 286.444 45.7536 286.444 45.3228V36.0406C286.444 35.6098 286.095 35.2606 285.664 35.2606ZM284.885 36.8201V44.5423H255.635V36.8201H284.885Z" fill="#2E2D2D"/>
<path fill-rule="evenodd" clip-rule="evenodd" d="M270.532 57.9333C270.963 57.9333 271.312 58.2826 271.312 58.7134C271.312 59.1288 270.988 59.4683 270.578 59.4921L270.532 59.4934H254.854C254.423 59.4934 254.074 59.1442 254.074 58.7134C254.074 58.298 254.399 57.9584 254.808 57.9347L254.854 57.9333H270.532Z" fill="#2E2D2D"/>
<path fill-rule="evenodd" clip-rule="evenodd" d="M270.532 54.1107C270.963 54.1107 271.312 54.4599 271.312 54.8907C271.312 55.3061 270.988 55.6457 270.578 55.6694L270.532 55.6708H254.854C254.423 55.6708 254.074 55.3215 254.074 54.8907C254.074 54.4753 254.399 54.1358 254.808 54.112L254.854 54.1107H270.532Z" fill="#2E2D2D"/>
<path fill-rule="evenodd" clip-rule="evenodd" d="M270.532 50.3146C270.963 50.3146 271.312 50.6638 271.312 51.0946C271.312 51.51 270.988 51.8496 270.578 51.8733L270.532 51.8746H254.854C254.423 51.8746 254.074 51.5254 254.074 51.0946C254.074 50.6792 254.399 50.3396 254.808 50.3159L254.854 50.3146H270.532Z" fill="#2E2D2D"/>
<path fill-rule="evenodd" clip-rule="evenodd" d="M204.443 72.7012C183.894 72.7012 167.236 89.3593 167.236 109.908C167.236 130.457 183.894 147.115 204.443 147.115C224.992 147.115 241.65 130.457 241.65 109.908C241.65 89.3593 224.992 72.7012 204.443 72.7012ZM204.444 74.261C224.131 74.261 240.091 90.2206 240.091 109.908C240.091 129.595 224.131 145.555 204.444 145.555C184.757 145.555 168.797 129.595 168.797 109.908C168.797 90.2206 184.757 74.261 204.444 74.261Z" fill="#6E43D4"/>
<path fill-rule="evenodd" clip-rule="evenodd" d="M233.116 75.1711C231.608 74.2351 229.606 74.7031 228.67 76.2111L220.713 89.0034C215.981 85.1813 209.975 82.8933 203.449 82.8933C188.265 82.8933 175.914 95.2435 175.914 110.428C175.914 125.612 188.265 137.962 203.449 137.962C218.633 137.962 230.984 125.612 230.984 110.428C230.984 104.162 228.878 98.3896 225.342 93.7355L234.13 79.5912C235.092 78.0832 234.624 76.1071 233.116 75.1711ZM228.957 110.427C228.957 124.494 217.516 135.934 203.45 135.934C189.384 135.934 177.944 124.494 177.944 110.427C177.944 96.361 189.384 84.9208 203.45 84.9208C209.586 84.9208 215.228 87.1048 219.622 90.7189L205.218 113.885L196.872 102.783C195.806 101.353 193.778 101.067 192.348 102.133C190.918 103.199 190.632 105.227 191.698 106.657L202.878 121.53C203.502 122.336 204.438 122.83 205.452 122.83C205.504 122.83 205.556 122.83 205.582 122.83C206.648 122.778 207.61 122.206 208.182 121.322L224.173 95.633C227.189 99.7931 228.957 104.915 228.957 110.427Z" fill="#6E43D4"/>
<rect width="90.759" height="21.4549" transform="matrix(-0.999989 0.00475481 -0.00474598 -0.999989 146.265 187.493)" fill="#2E2D2D"/>
<rect width="39.8584" height="11.5254" transform="matrix(-0.999989 0.00475482 -0.00474598 -0.999989 144.863 182.035)" fill="white"/>
<rect width="3.72012" height="11.5253" transform="matrix(-0.999989 0.00475481 -0.00474599 -0.999989 103.334 182.226)" fill="#FFA943"/>
<path fill-rule="evenodd" clip-rule="evenodd" d="M75.7109 171.986C72.9878 171.986 70.7803 174.196 70.7803 176.921C70.7803 179.647 72.9878 181.857 75.7109 181.857C78.434 181.857 80.6415 179.647 80.6415 176.921C80.6415 174.196 78.434 171.986 75.7109 171.986ZM75.7109 173.759C77.4556 173.759 78.87 175.175 78.87 176.921C78.87 178.668 77.4556 180.084 75.7109 180.084C73.9661 180.084 72.5518 178.668 72.5518 176.921C72.5518 175.175 73.9661 173.759 75.7109 173.759Z" fill="white"/>
<path fill-rule="evenodd" clip-rule="evenodd" d="M135.315 171.307C135.786 171.303 136.174 171.67 136.204 172.135L136.206 172.187L136.265 180.757C136.269 181.247 135.875 181.646 135.386 181.65C134.914 181.653 134.526 181.287 134.496 180.821L134.494 180.769L134.435 172.199C134.432 171.71 134.825 171.31 135.315 171.307Z" fill="#FFA943"/>
<path fill-rule="evenodd" clip-rule="evenodd" d="M130.948 171.336C131.42 171.334 131.806 171.702 131.835 172.168L131.837 172.22L131.866 180.76C131.868 181.25 131.473 181.648 130.984 181.65C130.512 181.651 130.125 181.284 130.096 180.818L130.095 180.766L130.065 172.226C130.064 171.736 130.459 171.338 130.948 171.336Z" fill="#FFA943"/>
<path fill-rule="evenodd" clip-rule="evenodd" d="M126.549 171.366C127.02 171.364 127.407 171.732 127.436 172.197L127.438 172.249L127.467 180.79C127.469 181.279 127.074 181.678 126.584 181.679C126.113 181.681 125.726 181.313 125.697 180.848L125.696 180.796L125.666 172.255C125.664 171.766 126.06 171.367 126.549 171.366Z" fill="#FFA943"/>
<rect x="156.771" y="167.312" width="85.6207" height="22.5481" transform="rotate(-180 156.771 167.312)" fill="#2E2D2D"/>
<rect x="149.472" y="160.675" width="39.8579" height="11.5252" transform="rotate(-180 149.472 160.675)" fill="white"/>
<rect x="107.942" y="160.675" width="3.72007" height="11.5252" transform="rotate(-180 107.942 160.675)" fill="#FFA943"/>
<path fill-rule="evenodd" clip-rule="evenodd" d="M85.8673 149.763C83.1442 149.763 80.9367 151.973 80.9367 154.699C80.9367 157.424 83.1442 159.634 85.8673 159.634C88.5903 159.634 90.7978 157.424 90.7978 154.699C90.7978 151.973 88.5903 149.763 85.8673 149.763ZM85.8672 151.536C87.612 151.536 89.0263 152.952 89.0263 154.698C89.0263 156.445 87.612 157.86 85.8672 157.86C84.1225 157.86 82.7081 156.445 82.7081 154.698C82.7081 152.952 84.1225 151.536 85.8672 151.536Z" fill="white"/>
<path fill-rule="evenodd" clip-rule="evenodd" d="M121.739 149.793C122.211 149.793 122.597 150.162 122.624 150.627L122.625 150.679V159.22C122.625 159.71 122.228 160.107 121.739 160.107C121.268 160.107 120.882 159.737 120.855 159.272L120.854 159.22V150.679C120.854 150.19 121.25 149.793 121.739 149.793Z" fill="#FFA943"/>
<path fill-rule="evenodd" clip-rule="evenodd" d="M144.385 149.793C144.856 149.793 145.242 150.162 145.269 150.627L145.27 150.679V159.22C145.27 159.71 144.874 160.107 144.385 160.107C143.913 160.107 143.527 159.737 143.5 159.272L143.499 159.22V150.679C143.499 150.19 143.895 149.793 144.385 149.793Z" fill="#FFA943"/>
<path fill-rule="evenodd" clip-rule="evenodd" d="M117.34 149.793C117.812 149.793 118.198 150.162 118.224 150.627L118.226 150.679V159.22C118.226 159.71 117.829 160.107 117.34 160.107C116.869 160.107 116.483 159.737 116.456 159.272L116.455 159.22V150.679C116.455 150.19 116.851 149.793 117.34 149.793Z" fill="#FFA943"/>
<path fill-rule="evenodd" clip-rule="evenodd" d="M112.971 149.793C113.442 149.793 113.828 150.162 113.855 150.627L113.856 150.679V159.22C113.856 159.71 113.46 160.107 112.971 160.107C112.499 160.107 112.113 159.737 112.086 159.272L112.085 159.22V150.679C112.085 150.19 112.481 149.793 112.971 149.793Z" fill="#FFA943"/>
</svg>
