<svg width="24" height="24" viewBox="0 0 24 24" fill="none" xmlns="http://www.w3.org/2000/svg">
<path d="M14.2584 19.2688V21.7359L11.9674 23L9.74158 21.7359V19.2688L11.9674 20.5329L14.2584 19.2688ZM2 10.7359L4.22584 12V16.2308L8.05863 18.3818V20.8489L2 17.4949V10.7359ZM21.9349 10.7359V17.5051L15.8111 20.8591V18.392L19.6439 16.241V12.0102L21.9349 10.7359ZM15.8002 7.38183L18.0912 8.64597V11.1131L14.2584 13.2641V17.5561L12.0326 18.8202L9.81759 17.5561V13.2539L5.84365 11.1029V8.63577L8.13464 7.37164L11.9674 9.52271L15.8002 7.38183ZM5.84365 12.8767L8.06949 14.1409V16.608L5.84365 15.3438V12.8767ZM18.0912 12.8767V15.3438L15.8654 16.608V14.1409L18.0912 12.8767ZM4.22584 5.23077L6.51683 6.4949L4.22584 7.75903V10.2261L2 8.962V6.4949L4.22584 5.23077ZM19.709 5.23077L22 6.4949V8.962L19.709 10.2261V7.75903L17.4832 6.4949L19.709 5.23077ZM11.9674 5.23077L14.2584 6.4949L11.9674 7.75903L9.74158 6.4949L11.9674 5.23077ZM11.9674 1L18.0912 4.35403L15.8654 5.61816L12.0326 3.4671L8.12378 5.61816L5.89794 4.35403L11.9674 1Z" fill="#F3BA2F"/>
</svg>
