<svg width="24" height="24" viewBox="0 0 24 24" fill="none" xmlns="http://www.w3.org/2000/svg">
<path d="M18.2517 1C15.63 1 13.5217 3.11362 13.5033 5.74185V10.9983C13.0083 11.0351 12.5133 11.0535 12 11.0535C11.4867 11.0535 10.9917 11.0718 10.4967 11.1086V5.74185C10.46 3.15038 8.35167 1.05514 5.74833 1.05514C3.145 1.05514 1.03667 3.132 1 5.74185V18.3133C1.03667 20.9048 3.145 23 5.74833 23C8.35167 23 10.46 20.9231 10.4967 18.3133V13.0568C10.9917 13.0201 11.4867 13.0017 12 13.0017C12.5133 13.0017 13.0083 12.9833 13.5033 12.9465V18.3133C13.54 20.9048 15.6483 23 18.2517 23C20.855 23 22.9633 20.9231 23 18.3133V5.74185C22.9817 3.132 20.855 1 18.2517 1ZM5.74833 2.9482C7.28833 2.9482 8.55333 4.19799 8.55333 5.74185V11.3108C7.16 11.5129 5.80333 11.8989 4.52 12.4503C3.97 12.6892 3.43833 13.0017 2.96167 13.3876V5.74185C2.94333 4.19799 4.20833 2.9482 5.74833 2.9482ZM8.535 18.3133C8.535 19.8571 7.28833 21.1253 5.73 21.1253C4.17167 21.1253 2.925 19.8755 2.925 18.3133V17.0451C2.925 15.924 3.805 14.8764 5.27167 14.2147C6.31667 13.7736 7.39833 13.4428 8.51667 13.259L8.535 18.3133ZM18.2517 21.1069C16.7117 21.1069 15.4467 19.8571 15.4467 18.3133V12.7444C16.84 12.5422 18.1967 12.1562 19.48 11.6048C20.03 11.3659 20.5617 11.0535 21.0383 10.6675V18.3133C21.0383 19.8571 19.7917 21.1069 18.2517 21.1069ZM18.6917 9.82205C17.6467 10.2632 16.565 10.594 15.4467 10.7778V5.74185C15.4467 4.19799 16.6933 2.92982 18.2517 2.92982C19.81 2.92982 21.0567 4.17962 21.0567 5.74185V7.01003C21.0383 8.11278 20.1583 9.17878 18.6917 9.82205Z" fill="url(#paint0_linear_192_1037)"/>
<defs>
<linearGradient id="paint0_linear_192_1037" x1="2.39016" y1="21.662" x2="21.5981" y2="2.3966" gradientUnits="userSpaceOnUse">
<stop stop-color="#00AEE9"/>
<stop offset="1" stop-color="#69FABD"/>
</linearGradient>
</defs>
</svg>
