<svg width="24" height="24" viewBox="0 0 24 24" fill="none" xmlns="http://www.w3.org/2000/svg">
<path d="M17.5647 8.83481C17.1333 8.58204 16.6157 8.58204 16.1843 8.83481L12.9922 10.6885L10.8353 11.8681L7.64314 13.7217C7.21177 13.9745 6.69412 13.9745 6.26275 13.7217L3.76079 12.2894C3.32941 12.0366 3.07059 11.6153 3.07059 11.1098V8.24501C3.07059 7.73947 3.32941 7.31818 3.76079 7.0654L6.26275 5.63303C6.69412 5.38026 7.21177 5.38026 7.64314 5.63303L10.1451 7.0654C10.5765 7.31818 10.8353 7.73947 10.8353 8.24501V10.0987L12.9922 8.83481V6.98115C12.9922 6.47561 12.7333 6.05432 12.302 5.80155L7.72941 3.18958C7.29804 2.93681 6.78039 2.93681 6.34902 3.18958L1.6902 5.80155C1.25882 6.05432 1 6.47561 1 6.98115V12.2894C1 12.7949 1.25882 13.2162 1.6902 13.469L6.34902 16.0809C6.78039 16.3337 7.29804 16.3337 7.72941 16.0809L10.9216 14.3115L13.0784 13.0477L16.2706 11.2783C16.702 11.0255 17.2196 11.0255 17.651 11.2783L20.1529 12.7106C20.5843 12.9634 20.8431 13.3847 20.8431 13.8902V16.755C20.8431 17.2605 20.5843 17.6818 20.1529 17.9346L17.651 19.367C17.2196 19.6197 16.702 19.6197 16.2706 19.367L13.7686 17.9346C13.3373 17.6818 13.0784 17.2605 13.0784 16.755V14.9013L10.9216 16.1652V18.0188C10.9216 18.5244 11.1804 18.9457 11.6118 19.1985L16.2706 21.8104C16.702 22.0632 17.2196 22.0632 17.651 21.8104L22.3098 19.1985C22.7412 18.9457 23 18.5244 23 18.0188V12.6264C23 12.1208 22.7412 11.6996 22.3098 11.4468L17.5647 8.83481Z" fill="#8247E5"/>
</svg>
