<svg width="24" height="24" viewBox="0 0 24 24" fill="none" xmlns="http://www.w3.org/2000/svg">
<path fill-rule="evenodd" clip-rule="evenodd" d="M4.77662 17.2621C4.84941 17.1842 4.9371 17.1221 5.03436 17.0795C5.13162 17.0369 5.23642 17.0147 5.34242 17.0143H22.6182C22.6917 17.0134 22.764 17.0342 22.826 17.0743C22.8879 17.1144 22.937 17.1719 22.9671 17.2397C22.9971 17.3076 23.0069 17.3829 22.9952 17.4563C22.9835 17.5298 22.9507 17.5981 22.9011 17.653L19.2234 21.7521C19.1506 21.83 19.0629 21.8921 18.9656 21.9347C18.8684 21.9774 18.7636 21.9995 18.6576 22H1.38182C1.30825 22.0009 1.23603 21.98 1.17404 21.94C1.11205 21.8999 1.063 21.8424 1.03294 21.7745C1.00287 21.7066 0.993096 21.6313 1.00482 21.5579C1.01654 21.4845 1.04925 21.4161 1.09892 21.3613L4.77662 17.2621ZM22.9011 13.8589C22.9507 13.9138 22.9835 13.9821 22.9952 14.0556C23.0069 14.129 22.9971 14.2043 22.9671 14.2722C22.937 14.34 22.8879 14.3975 22.826 14.4376C22.764 14.4777 22.6917 14.4985 22.6182 14.4976H5.34242C5.23607 14.4995 5.13056 14.4784 5.03296 14.4356C4.93537 14.3929 4.84796 14.3295 4.77662 14.2498L1.09892 10.1506C1.04925 10.0958 1.01654 10.0274 1.00482 9.95397C0.993096 9.88055 1.00287 9.80526 1.03294 9.73738C1.063 9.6695 1.11205 9.61199 1.17404 9.57193C1.23603 9.53187 1.30825 9.51101 1.38182 9.51192H18.6576C18.7639 9.51001 18.8694 9.53114 18.967 9.57389C19.0646 9.61665 19.152 9.68003 19.2234 9.75978L22.9011 13.8589ZM4.77662 2.24788C4.84941 2.16999 4.9371 2.10786 5.03436 2.06525C5.13162 2.02265 5.23642 2.00046 5.34242 2.00003H22.6182C22.6917 1.99912 22.764 2.01998 22.826 2.06003C22.8879 2.10009 22.937 2.1576 22.9671 2.22548C22.9971 2.29337 23.0069 2.36865 22.9952 2.44208C22.9835 2.5155 22.9507 2.58386 22.9011 2.63873L19.2234 6.73786C19.1506 6.81575 19.0629 6.87788 18.9656 6.92049C18.8684 6.96309 18.7636 6.98529 18.6576 6.98572H1.38182C1.30825 6.98663 1.23603 6.96577 1.17404 6.92571C1.11205 6.88565 1.063 6.82814 1.03294 6.76026C1.00287 6.69238 0.993096 6.61709 1.00482 6.54366C1.01654 6.47024 1.04925 6.40188 1.09892 6.34701L4.77662 2.24788Z" fill="url(#paint0_linear_192_1039)"/>
<defs>
<linearGradient id="paint0_linear_192_1039" x1="1.66472" y1="22.4575" x2="22.5595" y2="1.78821" gradientUnits="userSpaceOnUse">
<stop stop-color="#9945FF"/>
<stop offset="0.2" stop-color="#7962E7"/>
<stop offset="1" stop-color="#00D18C"/>
</linearGradient>
</defs>
</svg>
